<svg width="222" height="220" viewBox="0 0 222 220" fill="none" xmlns="http://www.w3.org/2000/svg">
<g id="365 badge">
<path d="M44.5855 168.077C42.2835 170.379 42.2835 174.014 44.5962 176.305C46.9089 178.597 50.5599 178.586 52.8619 176.295C55.1639 173.993 55.1639 170.358 52.8512 168.066C50.5385 165.775 46.8875 165.775 44.5855 168.077Z" fill="white"/>
<path d="M150.218 182.392L146.835 184.151L149.437 189.107L152.831 187.348C154.223 186.623 154.747 184.961 154.019 183.575C153.291 182.189 151.621 181.667 150.229 182.392H150.218Z" fill="white"/>
<path d="M26.7038 95.7713C28.2456 96.1017 29.7125 95.1637 30.0444 93.6289L30.8581 89.9092L25.3655 88.7261L24.5518 92.4459C24.2199 93.9807 25.1621 95.4409 26.7038 95.7713Z" fill="white"/>
<path d="M170.67 50.2704C171.815 49.034 171.74 47.1368 170.413 45.9218C169.096 44.7067 167.19 44.7813 166.044 46.0177C164.899 47.2541 164.974 49.1512 166.301 50.3663C167.618 51.5814 169.524 51.5068 170.67 50.2704Z" fill="white"/>
<path d="M163.078 173.823L159.909 176.328L163.26 180.538L166.43 178.033C167.661 177.063 167.843 175.486 166.869 174.26C165.894 173.034 164.31 172.853 163.078 173.823Z" fill="white"/>
<path d="M97.1565 191.079L93.1736 190.365L92.21 195.651L96.1929 196.365C97.7454 196.643 99.0516 195.747 99.33 194.202C99.6084 192.656 98.709 191.356 97.1565 191.079Z" fill="white"/>
<path d="M41.32 51.7099C40.3456 50.9532 39.0822 51.1024 38.2471 52.1576L35.8916 55.1526L39.2536 57.7746L41.6091 54.7795C42.4442 53.7244 42.2836 52.4667 41.32 51.7099Z" fill="white"/>
<path d="M111 0.00537109C49.9812 0.00537109 0.504883 49.2578 0.504883 110C0.504883 170.742 49.9812 219.995 111 219.995C172.018 219.995 221.494 170.742 221.494 110C221.494 49.2578 172.029 0.00537109 111 0.00537109ZM204.524 87.2763L193.196 89.3121V89.3974L201.344 93.6394L195.23 100.45V100.535L206.569 98.4996L207.008 100.919L191.526 103.712L191.119 101.484L197.564 94.3215V94.2789L188.999 89.813L188.603 87.6281L204.085 84.8356L204.524 87.255V87.2763ZM192.554 72.4612C192.554 73.591 191.633 74.5076 190.498 74.5076C189.363 74.5076 188.442 73.591 188.442 72.4612C188.442 71.3314 189.363 70.4147 190.498 70.4147C191.633 70.4147 192.554 71.3314 192.554 72.4612ZM189.534 56.1538L187.661 57.582L183.571 52.2422L180.401 54.3739C180.926 54.5124 181.911 55.056 182.66 56.0366C184.502 58.4347 184.074 61.5789 181.665 63.4122C179.256 65.2454 176.097 64.8191 173.988 62.0692C172.35 59.9375 172.178 57.4968 172.521 56.2817L174.887 56.6015C174.609 57.4861 174.63 59.2128 175.776 60.7156C177.007 62.3144 178.742 62.5489 180.166 61.4617C181.6 60.3745 181.825 58.6479 180.605 57.0491C179.759 55.9406 178.378 55.6209 177.585 55.6848L176.675 54.1287L184.17 49.1406L189.556 56.1645L189.534 56.1538ZM111.321 169.932C92.4231 169.932 80.4529 162.663 73.8147 156.577C72.9902 155.82 72.926 154.52 73.6969 153.699C74.4678 152.879 75.7633 152.815 76.5877 153.582C82.6906 159.178 93.6758 165.861 111.321 165.861C128.966 165.861 138.784 159.274 145.454 153.55C145.829 153.231 146.311 153.049 146.793 153.049C147.392 153.049 147.96 153.305 148.345 153.753C149.084 154.605 148.987 155.884 148.131 156.631C140.904 162.812 130.208 169.932 111.31 169.932H111.321ZM73.6112 116.587C72.9367 115.521 71.941 114.7 70.6347 114.125C69.3713 113.496 67.8509 113.187 66.0522 113.187H61.8765C61.2876 113.187 60.8165 112.718 60.8165 112.132V105.769C60.8165 105.182 61.2876 104.713 61.8765 104.713H65.913C67.412 104.713 68.6968 104.468 69.7675 103.989C70.8382 103.509 71.6305 102.827 72.1658 101.964C72.7011 101.1 72.9688 100.077 72.9688 98.926C72.9688 97.7749 72.7011 96.8263 72.1658 95.9629C71.6305 95.0463 70.8274 94.3429 69.7675 93.8632C68.6968 93.3836 67.412 93.1385 65.913 93.1385C63.9751 93.1385 62.1335 93.5755 60.3883 94.4388C59.0713 95.1103 57.9685 95.8457 57.0906 96.6344C56.673 97.0075 56.0413 96.9861 55.6451 96.5918C54.3603 95.3021 51.7157 92.6375 50.4309 91.3478C50.0026 90.9215 50.024 90.2394 50.463 89.8344C52.0155 88.4061 54.1034 87.0951 56.7372 85.9014C59.8422 84.4519 63.2791 83.7271 67.0586 83.7271C70.8382 83.7271 73.7504 84.3559 76.3629 85.6136C78.9861 86.8713 80.9668 88.534 82.3266 90.6124C83.7292 92.6908 84.4358 94.961 84.4358 97.4125C84.4358 99.299 84.0504 101.004 83.2688 102.55C82.4979 104.042 81.5022 105.321 80.2923 106.387C79.5321 107.016 78.7505 107.538 77.9368 107.943C77.455 108.188 77.4657 108.892 77.9582 109.105C78.9432 109.531 79.9068 110.096 80.8705 110.799C82.3694 111.865 83.6114 113.262 84.575 114.999C85.5922 116.736 86.1061 118.719 86.1061 120.936C86.1061 123.781 85.3352 126.361 83.7827 128.684C82.2302 130.997 80.0032 132.862 77.091 134.259C74.2322 135.612 70.8382 136.284 66.9087 136.284C64.05 136.284 61.3626 135.9 58.8358 135.122C56.3197 134.301 54.1355 133.31 52.2939 132.159C50.8699 131.2 49.7028 130.219 48.7928 129.228C48.418 128.812 48.4287 128.183 48.8249 127.778C50.0669 126.521 52.7115 123.824 54.0391 122.47C54.4674 122.044 55.1526 122.055 55.5702 122.492C56.1162 123.067 56.7479 123.632 57.4653 124.186C58.5788 124.954 59.8636 125.615 61.3198 126.137C62.7759 126.616 64.3498 126.862 66.0415 126.862C67.7332 126.862 69.3178 126.574 70.624 125.988C71.9302 125.359 72.926 124.538 73.6005 123.526C74.275 122.46 74.6177 121.255 74.6177 119.902C74.6177 118.697 74.275 117.589 73.6005 116.576L73.6112 116.587ZM112.381 101.676C115.486 101.676 118.387 102.422 121.107 103.925C123.869 105.374 126.075 107.421 127.724 110.075C129.415 112.686 130.272 115.596 130.272 118.836C130.272 122.076 129.447 124.943 127.799 127.597C126.203 130.251 123.923 132.372 120.968 133.971C118.055 135.516 114.736 136.284 111 136.284C107.263 136.284 103.997 135.516 101.031 133.971C98.1192 132.383 95.8493 130.251 94.2005 127.597C92.6052 124.943 91.8022 122.023 91.8022 118.836C91.8022 116.757 92.209 114.636 93.0334 112.462C93.9114 110.245 94.8964 108.316 96.0099 106.675L110.025 85.1447C110.218 84.8462 110.55 84.665 110.914 84.665H119.843C120.689 84.665 121.192 85.603 120.721 86.3064L111.449 100.034C110.967 100.749 111.492 101.676 112.349 101.676H112.381ZM146.311 135.122C143.795 134.301 141.61 133.31 139.769 132.159C138.345 131.2 137.167 130.23 136.236 129.238C135.839 128.823 135.839 128.173 136.246 127.768L141.557 122.428C141.985 121.991 142.681 122.023 143.099 122.47C143.58 123.003 144.169 123.526 144.855 124.058C145.968 124.826 147.253 125.487 148.709 126.009C150.208 126.542 151.814 126.808 153.506 126.808C155.197 126.808 156.803 126.467 158.163 125.796C159.523 125.124 160.54 124.176 161.215 122.971C161.943 121.767 162.307 120.36 162.307 118.772C162.307 117.184 161.943 115.777 161.215 114.572C160.54 113.368 159.523 112.43 158.163 111.748C156.857 111.077 155.326 110.735 153.581 110.735C152.414 110.735 151.3 110.949 150.24 111.386C149.223 111.769 148.302 112.302 147.478 112.974C146.9 113.443 146.407 113.912 146.022 114.381C145.786 114.658 145.433 114.818 145.079 114.754L138.977 113.773C138.441 113.688 138.056 113.208 138.088 112.665L139.854 85.6456C139.887 85.0914 140.358 84.665 140.914 84.665H169.48C170.069 84.665 170.54 85.134 170.54 85.7202V93.0212C170.54 93.6074 170.069 94.0764 169.48 94.0764H150.454C149.898 94.0764 149.426 94.5134 149.394 95.0676L148.87 104.276C149.641 103.744 150.765 103.264 152.21 102.827C153.666 102.347 155.219 102.102 156.868 102.102C160.112 102.102 163.003 102.848 165.519 104.351C168.088 105.801 170.101 107.804 171.557 110.362C173.056 112.867 173.817 115.745 173.817 118.974C173.817 122.204 173.014 125.199 171.418 127.81C169.823 130.422 167.542 132.489 164.587 134.035C161.675 135.527 158.281 136.284 154.405 136.284C151.546 136.284 148.859 135.9 146.332 135.122H146.311ZM175.68 40.4114L177.66 42.2339L171.247 43.8327C171.472 43.9499 171.772 44.1311 172.093 44.4296C174.32 46.476 174.459 49.8014 172.468 51.9437C170.487 54.0754 167.146 54.214 164.748 52.0077C162.35 49.8014 162.221 46.4866 164.202 44.3443C165.091 43.3851 166.557 42.7669 167.392 42.5537L175.658 40.4114H175.68ZM152.778 38.0985C152.831 39.0364 153.42 40.6458 155.005 41.6691C156.686 42.7562 158.26 42.4365 159.052 41.2214C159.791 40.0916 159.459 38.5461 157.756 37.4483L156.343 36.5317L157.628 34.5599L159.041 35.4765C160.454 36.3931 161.696 36.1267 162.371 35.0928C163.046 34.059 162.778 32.8226 161.365 31.906C160.08 31.0746 158.516 31.1066 157.671 31.3624L157.178 29.0708C158.334 28.7298 160.562 28.7298 162.607 30.0407C165.283 31.7674 165.786 34.368 164.566 36.2439C163.549 37.8001 161.761 38.1198 160.669 37.864C161.547 38.8552 162.21 40.891 161.054 42.6496C159.598 44.8772 156.696 45.4315 153.773 43.5449C151.514 42.0847 150.529 39.8465 150.444 38.5888L152.778 38.0985ZM148.238 66.2367C147.852 66.6843 147.285 66.9401 146.685 66.9401C146.193 66.9401 145.722 66.7696 145.347 66.4392C138.677 60.7156 128.859 54.1287 111.214 54.1287C93.5688 54.1287 82.5836 60.8009 76.4807 66.4072C75.6562 67.1746 74.3607 67.1106 73.5898 66.29C72.8189 65.4693 72.8832 64.1689 73.7076 63.4122C80.3458 57.3262 92.3161 50.0572 111.214 50.0572C130.111 50.0572 140.807 57.177 148.035 63.3696C148.891 64.105 148.977 65.3733 148.249 66.2367H148.238ZM137.135 18.7002L138.88 27.1843L138.966 27.2163L145.454 21.4714L148.099 22.356L139.233 30.0194L137.445 35.3273L135.101 34.5492L136.889 29.2414L134.448 17.8049L137.135 18.7002ZM117.691 15.2575L120.143 15.5666L119.169 23.1128L127.167 16.4619L130.293 16.867L123.441 22.5372L128.73 32.4709L125.721 32.0872L121.546 24.104L118.751 26.4489L118.152 31.1066L115.7 30.7868L117.713 15.2469L117.691 15.2575ZM105.282 15.1296C107.616 14.9911 109.436 15.993 110.346 16.835L108.783 18.5403C108.141 17.9967 106.92 17.2613 105.421 17.3572C103.515 17.4745 102.563 18.5403 102.637 19.6595C102.852 23.1234 111.021 20.4908 111.385 26.2996C111.535 28.7617 109.533 31.0107 106.053 31.2238C103.269 31.3944 101.288 30.2859 100.293 29.22L101.856 27.5147C102.691 28.2928 103.987 29.1135 105.914 28.9962C107.937 28.8683 108.987 27.6852 108.912 26.4595C108.698 22.9955 100.528 25.6282 100.164 19.8193C100.025 17.4745 101.92 15.3428 105.282 15.1296ZM86.3203 18.2099L87.0376 20.3309L78.8362 23.0808L80.1745 27.0457L86.6736 24.8714L87.3909 26.9924L80.8919 29.1668L82.423 33.6859L90.8385 30.8614L91.5559 32.9825L80.7955 36.585L75.774 21.7378L86.3203 18.1993V18.2099ZM59.0178 30.4458L63.8252 38.5355C65.0886 40.6565 67.5511 41.2854 69.5854 40.0916C71.5234 38.9512 72.1979 36.3505 70.9987 34.3254L66.1914 26.2357L68.322 24.9887L73.1294 33.0784C75.0781 36.3505 74.1252 40.0383 70.7311 42.0208C67.337 44.0139 63.6432 43.0653 61.7052 39.7932L56.8978 31.7034L59.0285 30.4564L59.0178 30.4458ZM46.812 39.9424L55.7308 50.0252L61.4697 44.9945L62.9579 46.6785L55.3668 53.34L44.9597 41.5838L46.812 39.953V39.9424ZM36.5655 50.8459C38.3 48.6396 40.9768 48.3199 42.7541 49.7055C43.9961 50.6754 44.2638 52.0716 44.0068 53.1588C45.0454 52.5193 47.1011 52.1036 48.7285 53.372C50.6772 54.8855 51.0412 57.8805 49.1675 60.2573L45.0775 65.4586L32.6897 55.7914L36.5762 50.8566L36.5655 50.8459ZM31.5012 70.4254C32.6361 70.4254 33.5569 71.342 33.5569 72.4718C33.5569 73.6016 32.6361 74.5182 31.5012 74.5182C30.3663 74.5182 29.4455 73.6016 29.4455 72.4718C29.4455 71.342 30.3663 70.4254 31.5012 70.4254ZM18.1926 84.665L33.5783 87.9905L32.24 94.119C31.5976 97.0714 28.9209 98.7874 26.1692 98.1905C23.4175 97.5937 21.7044 94.9291 22.3468 91.9767L23.1606 88.2569L17.668 87.0738L18.1926 84.665ZM15.109 102.102L30.8481 102.56L30.5269 113.635L28.2784 113.571L28.5354 104.959L24.3276 104.841L24.1242 111.663L21.8757 111.599L22.0792 104.777L17.2932 104.639L17.0363 113.475L14.7878 113.411L15.1197 102.113L15.109 102.102ZM15.7514 124.176C15.3446 121.426 16.2761 119.369 17.2611 118.292L19.1027 119.689C18.396 120.584 17.6894 121.937 17.9785 123.835C18.2782 125.828 19.5524 126.766 20.7729 126.585C24.2205 126.073 20.88 118.196 26.6617 117.344C28.9958 116.992 31.2978 118.687 31.7903 122.012C32.1329 124.314 31.2871 126.201 30.5162 127.181L28.6746 125.785C29.1671 125.103 29.7881 123.835 29.5633 122.353C29.2849 120.477 28.1285 119.625 27.015 119.784C23.5674 120.296 26.908 128.173 21.1263 129.025C18.6851 129.388 16.2547 127.597 15.7407 124.165L15.7514 124.176ZM19.2097 138.362L32.0365 134.227L30.5804 129.761L32.7218 129.068L36.3942 140.355L34.2529 141.048L32.7967 136.582L19.9699 140.718L19.2097 138.373V138.362ZM32.3685 161.416C33.6747 163.452 35.4734 164.006 36.8439 164.219L36.587 166.436C34.7775 166.234 32.165 165.243 30.4733 162.621C27.9251 158.666 29.0172 153.721 32.8074 151.301C36.5977 148.882 41.5656 149.969 44.1139 153.934C45.7948 156.556 45.5807 159.295 45.0347 160.926L42.904 160.233C43.2573 158.997 43.525 157.174 42.2188 155.138C40.4628 152.41 36.8867 151.621 34.1458 153.38C31.4048 155.138 30.6125 158.688 32.3792 161.416H32.3685ZM43.0111 177.894C39.6705 174.579 39.6598 169.506 42.829 166.34C46.009 163.164 51.0947 163.164 54.4353 166.479C57.7758 169.804 57.7865 174.867 54.6173 178.033C51.4373 181.209 46.3516 181.209 43.0111 177.894ZM66.1271 194.852L64.2106 193.668L62.9579 179.44L62.9044 179.408L56.855 189.128L54.7565 187.828L63.0436 174.505L64.9601 175.688L66.2128 189.917L66.2663 189.949L72.3157 180.228L74.4142 181.529L66.1271 194.852ZM87.4445 189.053L83.0225 187.391L78.258 199.957L75.9453 199.083L80.7099 186.517L76.2879 184.854L77.0802 182.754L88.2368 186.943L87.4445 189.043V189.053ZM101.76 194.638C101.395 196.663 99.9394 198.134 98.0121 198.561L100.4 205.307L97.6374 204.807L95.4746 198.507L91.8236 197.847L90.785 203.57L88.3546 203.133L91.1597 187.721L97.5732 188.872C100.56 189.405 102.284 191.878 101.781 194.628L101.76 194.638ZM114.533 205.808C109.811 205.979 106.085 202.526 105.924 198.06C105.764 193.583 109.222 189.874 113.944 189.704C118.666 189.533 122.381 192.976 122.552 197.452C122.713 201.929 119.255 205.638 114.533 205.808ZM129.565 203.954L125.871 188.723L128.28 188.147L131.45 201.204L138.88 199.413L139.405 201.588L129.565 203.954ZM153.848 189.341L150.465 191.1L153.067 196.056L150.872 197.196L143.602 183.309L149.18 180.409C151.868 179.013 154.898 179.962 156.204 182.445C157.51 184.929 156.546 187.945 153.859 189.341H153.848ZM173.752 182.53L167.564 179.994L164.662 182.296L168.303 186.858L166.365 188.393L156.579 176.125L161.686 172.085C164.063 170.209 167.061 170.55 168.816 172.746C170.101 174.355 170.251 176.413 169.298 178.139L175.969 180.814L173.763 182.552L173.752 182.53ZM185.701 170.508C182.725 174.153 177.66 174.665 174.17 171.84C170.679 169.016 170.166 163.974 173.142 160.329C176.119 156.684 181.183 156.172 184.673 158.997C188.164 161.821 188.678 166.863 185.701 170.508ZM197.864 151.461C195.787 155.682 190.98 157.323 186.943 155.362C182.907 153.401 181.247 148.605 183.324 144.384C184.695 141.592 187.157 140.345 188.838 139.971L189.352 142.135C188.11 142.476 186.408 143.19 185.337 145.365C183.902 148.285 185.091 151.717 188.025 153.145C190.948 154.573 194.406 153.39 195.841 150.47C196.74 148.637 196.569 146.793 196.205 145.919L193.988 144.842L192.511 147.859L190.594 146.921L193.164 141.698L198.11 144.107C198.838 145.578 199.277 148.605 197.875 151.461H197.864ZM205.188 129.398L198.721 131.146L197.821 134.728L203.496 136.134L202.896 138.522L187.618 134.738L189.192 128.439C189.92 125.508 192.511 123.952 195.241 124.634C197.254 125.135 198.624 126.67 198.924 128.61L205.851 126.68L205.177 129.398H205.188ZM206.729 119.71L206.612 122.236L191.194 115.223L191.322 112.537L207.35 107.026L207.222 109.648L203.1 111.023L202.768 117.951L206.74 119.71H206.729Z" fill="white"/>
<path d="M114.02 191.942C110.765 192.059 108.27 194.724 108.388 197.964C108.506 201.204 111.182 203.688 114.437 203.57C117.692 203.453 120.187 200.788 120.069 197.548C119.951 194.308 117.274 191.825 114.02 191.942Z" fill="white"/>
<path d="M106.707 111.812C105.444 112.537 104.426 113.528 103.656 114.775C102.928 116.033 102.563 117.387 102.563 118.825C102.563 120.264 102.928 121.693 103.656 122.95C104.426 124.208 105.454 125.199 106.707 125.913C108.013 126.638 109.448 127 111 127C112.553 127 114.031 126.638 115.294 125.913C116.6 125.189 117.617 124.197 118.345 122.95C119.073 121.693 119.437 120.318 119.437 118.825C119.437 117.333 119.073 116.022 118.345 114.775C117.617 113.518 116.6 112.526 115.294 111.812C114.031 111.087 112.606 110.725 111 110.725C109.394 110.725 108.024 111.087 106.707 111.812Z" fill="white"/>
<path d="M194.653 127.032C193.122 126.659 191.762 127.469 191.387 128.993L190.413 132.905L195.649 134.205L196.623 130.294C196.998 128.769 196.184 127.416 194.653 127.043V127.032Z" fill="white"/>
<path d="M47.1121 55.2262C45.9665 54.3309 44.3819 54.5227 43.4183 55.7485L40.8486 59.0099L44.9172 62.1861L47.4869 58.9247C48.4612 57.6883 48.2685 56.1215 47.1121 55.2262Z" fill="white"/>
<path d="M194.095 114.093L200.562 116.949L200.808 111.812L194.105 114.04L194.095 114.093Z" fill="white"/>
<path d="M183.12 160.915C180.593 158.868 176.952 159.231 174.897 161.757C172.841 164.272 173.205 167.896 175.743 169.942C178.269 171.989 181.91 171.626 183.965 169.1C186.021 166.585 185.657 162.961 183.12 160.915Z" fill="white"/>
</g>
</svg>
