<svg width="80" height="70" viewBox="0 0 80 70" fill="none" xmlns="http://www.w3.org/2000/svg">
<path d="M45.3645 15.3696H4.2175C2.90993 15.3696 1.86719 16.4289 1.86719 17.7199V51.8656C1.86719 53.1732 2.92648 54.2159 4.2175 54.2159H9.48087" stroke="#0B3A7C" stroke-width="2.48272" stroke-linecap="round" stroke-linejoin="round"/>
<path d="M45.3645 15.3696H52.763C59.6815 15.3696 65.8387 19.7723 68.0897 26.3102L70.8207 34.2549C71.1683 35.248 72.0951 35.91 73.1379 35.91C76.0344 35.91 78.3847 38.2603 78.3847 41.1568V51.8656C78.3847 53.1732 77.3254 54.2159 76.0344 54.2159H65.8883" stroke="#0B3A7C" stroke-width="2.48272" stroke-linecap="round" stroke-linejoin="round"/>
<path d="M44.0735 14.8566V9.57666H52.763V15.3697" stroke="#0B3A7C" stroke-width="2.48272" stroke-linecap="round" stroke-linejoin="round"/>
<path d="M34.2586 26.4915H29.0449V21.2778H22.9539V26.4915H17.7402V32.5825H22.9539V37.7962H29.0449V32.5825H34.2586V26.4915Z" stroke="#7CC7E7" stroke-width="2.48272" stroke-linecap="round" stroke-linejoin="round"/>
<path d="M56.967 60.4227C61.2999 60.4227 64.8124 56.9102 64.8124 52.5773C64.8124 48.2444 61.2999 44.7319 56.967 44.7319C52.6341 44.7319 49.1216 48.2444 49.1216 52.5773C49.1216 56.9102 52.6341 60.4227 56.967 60.4227Z" stroke="#0B3A7C" stroke-width="2.48272" stroke-linecap="round" stroke-linejoin="round"/>
<path d="M27.3069 54.2163H48.0459" stroke="#0B3A7C" stroke-width="2.48272" stroke-linecap="round" stroke-linejoin="round"/>
<path d="M48.4099 32.5333V21.2617H53.276C61.8828 21.2617 63.3559 32.5333 63.3559 32.5333H48.4099Z" stroke="#0B3A7C" stroke-width="2.48272" stroke-linecap="round" stroke-linejoin="round"/>
<path d="M56.967 53.8687C57.6801 53.8687 58.2581 53.2906 58.2581 52.5776C58.2581 51.8646 57.6801 51.2866 56.967 51.2866C56.254 51.2866 55.676 51.8646 55.676 52.5776C55.676 53.2906 56.254 53.8687 56.967 53.8687Z" stroke="#0B3A7C" stroke-width="2.48272" stroke-linecap="round" stroke-linejoin="round"/>
<path d="M18.1537 60.4227C22.4866 60.4227 25.9991 56.9102 25.9991 52.5773C25.9991 48.2444 22.4866 44.7319 18.1537 44.7319C13.8209 44.7319 10.3083 48.2444 10.3083 52.5773C10.3083 56.9102 13.8209 60.4227 18.1537 60.4227Z" stroke="#0B3A7C" stroke-width="2.48272" stroke-linecap="round" stroke-linejoin="round"/>
<path d="M7.21338 38.939H16.2008" stroke="#0B3A7C" stroke-width="2.48272" stroke-linecap="round" stroke-linejoin="round"/>
<path d="M35.9631 38.939H64.8289" stroke="#0B3A7C" stroke-width="2.48272" stroke-linecap="round" stroke-linejoin="round"/>
<path d="M18.1538 53.8687C18.8668 53.8687 19.4448 53.2906 19.4448 52.5776C19.4448 51.8646 18.8668 51.2866 18.1538 51.2866C17.4408 51.2866 16.8628 51.8646 16.8628 52.5776C16.8628 53.2906 17.4408 53.8687 18.1538 53.8687Z" stroke="#0B3A7C" stroke-width="2.48272" stroke-linecap="round" stroke-linejoin="round"/>
</svg>
