<svg width="62" height="77" viewBox="0 0 62 77" fill="none" xmlns="http://www.w3.org/2000/svg">
<path d="M30.7929 35.8048C27.2176 35.8048 24.9722 31.5394 24.9722 29.0314C24.9722 26.5234 27.0621 24.9026 27.8739 23.5718C28.6857 22.241 29.4457 21.6609 30.7756 21.6609" stroke="#0B3A7C" stroke-width="2.47826" stroke-linecap="round" stroke-linejoin="round"/>
<path d="M30.793 35.8048C34.3683 35.8048 36.6137 31.5394 36.6137 29.0314C36.6137 26.5234 34.5238 24.9026 33.712 23.5718C32.9002 22.241 32.1402 21.6609 30.8102 21.6609" stroke="#0B3A7C" stroke-width="2.47826" stroke-linecap="round" stroke-linejoin="round"/>
<path d="M27.7009 34.6274C26.5264 36.4701 25.9219 38.7563 25.9219 40.4454C25.9219 42.1345 26.5955 46.3316 28.3054 47.8841" stroke="#0B3A7C" stroke-width="2.47826" stroke-linecap="round" stroke-linejoin="round"/>
<path d="M33.1419 48.3449C33.6601 48.635 34.1955 49.0103 34.7309 49.471C35.0937 49.7781 35.4564 50.1364 35.8018 50.5117C36.4927 51.2795 37.0972 52.2008 37.5636 53.2757C37.7709 53.7705 37.9436 54.3164 38.0817 54.8795C38.2372 55.579 38.3236 56.3467 38.3236 57.1486C38.3236 58.2917 38.2372 59.3325 38.0817 60.2709C37.4772 63.7343 35.7673 65.7987 33.1074 66.5153C32.3992 66.703 31.6392 66.8054 30.7929 66.8054C25.9394 66.8054 23.2622 63.6319 23.2622 57.1486C23.2622 52.9345 26.1467 49.7781 28.3402 48.3279" stroke="#0B3A7C" stroke-width="2.47826" stroke-linecap="round" stroke-linejoin="round"/>
<path d="M27.1313 24.5615L24.1259 22.0194C23.2796 21.3028 22.7614 20.2962 22.6578 19.2213L22.3296 15.6555C22.2605 14.8536 21.9496 14.1029 21.466 13.4716L17.8906 8.91626" stroke="#0B3A7C" stroke-width="2.47826" stroke-linecap="round" stroke-linejoin="round"/>
<path d="M26.4918 37.2553H23.8492C22.3292 37.2553 20.9302 36.4534 20.1702 35.1397L15.0404 26.2507C14.6604 25.6024 14.1077 25.0564 13.4513 24.6811L4.69434 19.8015" stroke="#0B3A7C" stroke-width="2.47826" stroke-linecap="round" stroke-linejoin="round"/>
<path d="M26.0429 41.8442H20.8612C20.084 41.8442 19.3413 41.6394 18.6677 41.247L18.0459 40.8717C16.5605 39.9845 14.6951 40.0868 13.3133 41.1105L8.1489 44.9664C7.4062 45.5123 6.52532 45.8195 5.59262 45.8195H2" stroke="#0B3A7C" stroke-width="2.47826" stroke-linecap="round" stroke-linejoin="round"/>
<path d="M27.1309 46.0933L22.7092 46.4857C21.1202 46.6222 19.7557 47.6288 19.1511 49.079L15.5067 57.968C15.2994 58.4628 15.0058 58.9064 14.6258 59.2988L5.71338 68.4437" stroke="#0B3A7C" stroke-width="2.47826" stroke-linecap="round" stroke-linejoin="round"/>
<path d="M34.3164 34.6274C35.4909 36.4701 36.0955 38.7563 36.0955 40.4454C36.0955 42.1345 35.4219 46.3316 33.7119 47.8841" stroke="#0B3A7C" stroke-width="2.47826" stroke-linecap="round" stroke-linejoin="round"/>
<path d="M34.8862 24.5615L37.8916 22.0194C38.7379 21.3028 39.2561 20.2962 39.3597 19.2213L39.6879 15.6555C39.757 14.8536 40.0679 14.1029 40.5515 13.4716L44.1269 8.91626" stroke="#0B3A7C" stroke-width="2.47826" stroke-linecap="round" stroke-linejoin="round"/>
<path d="M35.5425 37.2553H38.1851C39.7051 37.2553 41.1041 36.4534 41.8641 35.1397L46.9939 26.2507C47.3739 25.6024 47.9266 25.0564 48.583 24.6811L57.34 19.8015" stroke="#0B3A7C" stroke-width="2.47826" stroke-linecap="round" stroke-linejoin="round"/>
<path d="M35.9746 41.8442H41.1563C41.9335 41.8442 42.6762 41.6394 43.3498 41.247L43.9716 40.8717C45.457 39.9845 47.3224 40.0868 48.7042 41.1105L53.8686 44.9664C54.6113 45.5123 55.4922 45.8195 56.4249 45.8195H60.0002" stroke="#0B3A7C" stroke-width="2.47826" stroke-linecap="round" stroke-linejoin="round"/>
<path d="M34.8862 46.0933L39.3079 46.4857C40.897 46.6222 42.2615 47.6288 42.866 49.079L46.5104 57.968C46.7177 58.4628 47.0113 58.9064 47.3913 59.2988L56.3038 68.4437" stroke="#0B3A7C" stroke-width="2.47826" stroke-linecap="round" stroke-linejoin="round"/>
</svg>
