<svg width="61" height="70" viewBox="0 0 61 70" fill="none" xmlns="http://www.w3.org/2000/svg">
<g id="Layer 1">
<g id="Group">
<path id="Vector" d="M1.42773 1.43921L11.5596 4.67657L23.9703 3.38548L27.4355 9.22429" stroke="#0B3A7C" stroke-width="2.49478" stroke-linecap="round" stroke-linejoin="round"/>
<path id="Vector_2" d="M30.4864 17.3369L24.0457 14.8125C24.0457 14.8125 21.6163 15.6989 21.541 18.5123C21.4656 21.3258 22.8781 22.9252 25.477 22.9252H30.5052V17.3369H30.4864Z" stroke="#0B3A7C" stroke-width="2.49478" stroke-linecap="round" stroke-linejoin="round"/>
<path id="Vector_3" d="M24.2342 22.7717C24.2342 22.7717 21.0703 23.9087 20.204 26.2789C19.3377 28.6491 19.8839 30.4027 21.5411 31.5396H30.5054V22.9452L24.2342 22.791V22.7717Z" stroke="#0B3A7C" stroke-width="2.49478" stroke-linecap="round" stroke-linejoin="round"/>
<path id="Vector_4" d="M21.5409 31.5195C21.5409 31.5195 16.8327 35.0074 15.7404 41.328C14.6482 47.6485 15.345 52.0806 18.6407 58.0351C21.9364 63.9895 26.3432 67.1883 30.5052 67.9206" stroke="#0B3A7C" stroke-width="2.49478" stroke-linecap="round" stroke-linejoin="round"/>
<path id="Vector_5" d="M22.0304 21.0563L15.5708 18.8595L18.7912 7.97198L16.4371 1.43945" stroke="#0B3A7C" stroke-width="2.49478" stroke-linecap="round" stroke-linejoin="round"/>
<path id="Vector_6" d="M20.204 26.2786L15.2511 23.2917L7.56739 32.2523L1.97412 33.2929" stroke="#0B3A7C" stroke-width="2.49478" stroke-linecap="round" stroke-linejoin="round"/>
<path id="Vector_7" d="M19.1682 33.8897L14.8556 30.9607L7.09657 48.5349L1.97412 51.6181" stroke="#0B3A7C" stroke-width="2.49478" stroke-linecap="round" stroke-linejoin="round"/>
<path id="Vector_8" d="M59.7145 1.43945L49.5826 4.67681L37.1719 3.38572L33.7256 9.22453" stroke="#0B3A7C" stroke-width="2.49478" stroke-linecap="round" stroke-linejoin="round"/>
<g id="Group_2">
<path id="Vector_9" d="M30.4864 7.04663C29.1493 7.04663 25.6088 9.30122 26.2491 15.3135" stroke="#0B3A7C" stroke-width="2.49478" stroke-linecap="round" stroke-linejoin="round"/>
<path id="Vector_10" d="M30.6558 7.04663C31.9929 7.04663 35.5334 9.30122 34.8931 15.3135" stroke="#0B3A7C" stroke-width="2.49478" stroke-linecap="round" stroke-linejoin="round"/>
</g>
<path id="Vector_11" d="M30.656 17.3369L37.0968 14.8125C37.0968 14.8125 39.5262 15.6989 39.6015 18.5123C39.6768 21.3258 38.2644 22.9252 35.6655 22.9252H30.6372V17.3369H30.656Z" stroke="#0B3A7C" stroke-width="2.49478" stroke-linecap="round" stroke-linejoin="round"/>
<path id="Vector_12" d="M36.927 22.7717C36.927 22.7717 40.0909 23.9087 40.9572 26.2789C41.8235 28.6491 41.2773 30.4027 39.62 31.5396H30.6558V22.9452L36.927 22.791V22.7717Z" stroke="#0B3A7C" stroke-width="2.49478" stroke-linecap="round" stroke-linejoin="round"/>
<path id="Vector_13" d="M39.62 31.5195C39.62 31.5195 44.3282 35.0074 45.4205 41.328C46.5128 47.6485 45.816 52.0806 42.5203 58.0351C39.2246 63.9895 34.8178 67.1883 30.6558 67.9206" stroke="#0B3A7C" stroke-width="2.49478" stroke-linecap="round" stroke-linejoin="round"/>
<path id="Vector_14" d="M39.1118 21.0563L45.5902 18.8595L42.351 7.97198L44.7239 1.43945" stroke="#0B3A7C" stroke-width="2.49478" stroke-linecap="round" stroke-linejoin="round"/>
<path id="Vector_15" d="M40.9385 26.2786L45.9103 23.2917L53.5939 32.2523L59.1684 33.2929" stroke="#0B3A7C" stroke-width="2.49478" stroke-linecap="round" stroke-linejoin="round"/>
<path id="Vector_16" d="M41.9741 33.8897L46.2868 30.9607L54.0646 48.5349L59.1682 51.6181" stroke="#0B3A7C" stroke-width="2.49478" stroke-linecap="round" stroke-linejoin="round"/>
<g id="Group_3">
<path id="Vector_17" d="M17.9438 35.9133C17.9438 35.9133 21.6162 37.3008 30.4863 37.3008" stroke="#0B3A7C" stroke-width="2.49478" stroke-linecap="round" stroke-linejoin="round"/>
<path id="Vector_18" d="M16.3428 41.7522C16.3428 41.7522 22.3127 43.5828 30.486 43.5828" stroke="#0B3A7C" stroke-width="2.49478" stroke-linecap="round" stroke-linejoin="round"/>
<path id="Vector_19" d="M15.9663 49.4595H30.4862" stroke="#0B3A7C" stroke-width="2.49478" stroke-linecap="round" stroke-linejoin="round"/>
<path id="Vector_20" d="M18.2827 57.1103C19.827 56.4744 23.198 55.665 30.505 55.665" stroke="#0B3A7C" stroke-width="2.49478" stroke-linecap="round" stroke-linejoin="round"/>
<path id="Vector_21" d="M22.1245 62.9298C23.8759 62.4095 26.5313 61.9277 30.505 61.9277" stroke="#0B3A7C" stroke-width="2.49478" stroke-linecap="round" stroke-linejoin="round"/>
<path id="Vector_22" d="M43.0288 35.9133C43.0288 35.9133 39.3565 37.3008 30.4863 37.3008" stroke="#0B3A7C" stroke-width="2.49478" stroke-linecap="round" stroke-linejoin="round"/>
<path id="Vector_23" d="M44.6481 41.7522C44.6481 41.7522 38.6782 43.5828 30.5049 43.5828" stroke="#0B3A7C" stroke-width="2.49478" stroke-linecap="round" stroke-linejoin="round"/>
<path id="Vector_24" d="M45.025 49.4595H30.4863" stroke="#0B3A7C" stroke-width="2.49478" stroke-linecap="round" stroke-linejoin="round"/>
<path id="Vector_25" d="M42.7086 57.1103C41.1644 56.4744 37.7934 55.665 30.4863 55.665" stroke="#0B3A7C" stroke-width="2.49478" stroke-linecap="round" stroke-linejoin="round"/>
<path id="Vector_26" d="M38.8668 62.9298C37.1154 62.4095 34.46 61.9277 30.4863 61.9277" stroke="#0B3A7C" stroke-width="2.49478" stroke-linecap="round" stroke-linejoin="round"/>
</g>
<g id="Group_4">
<path id="Vector_27" d="M27.1717 11.768C27.4941 11.768 27.7555 11.5005 27.7555 11.1706C27.7555 10.8407 27.4941 10.5732 27.1717 10.5732C26.8493 10.5732 26.5879 10.8407 26.5879 11.1706C26.5879 11.5005 26.8493 11.768 27.1717 11.768Z" stroke="#0B3A7C" stroke-width="2.49478" stroke-linecap="round" stroke-linejoin="round"/>
<path id="Vector_28" d="M33.97 11.7682C34.2925 11.7682 34.5538 11.5008 34.5538 11.1709C34.5538 10.8409 34.2925 10.5735 33.97 10.5735C33.6476 10.5735 33.3862 10.8409 33.3862 11.1709C33.3862 11.5008 33.6476 11.7682 33.97 11.7682Z" stroke="#0B3A7C" stroke-width="2.49478" stroke-linecap="round" stroke-linejoin="round"/>
</g>
</g>
</g>
</svg>
