<svg width="53" height="77" viewBox="0 0 53 77" fill="none" xmlns="http://www.w3.org/2000/svg">
<path d="M23.348 27.1082C23.6117 30.0273 23.5175 33.7477 23.348 36.2471C23.1784 38.7465 21.6901 43.9933 20.8988 46.4354C20.1075 48.8776 18.9771 52.6744 19.58 58.9705C20.1829 65.2667 23.0089 69.5404 26.3247 71.9444" stroke="#0B3A7C" stroke-width="2.49478" stroke-linecap="round" stroke-linejoin="round"/>
<path d="M23.4986 30.1801L17.1307 26.3642L16.0003 17.0917L13.7207 15.6035" stroke="#0B3A7C" stroke-width="2.49478" stroke-linecap="round" stroke-linejoin="round"/>
<path d="M17.4326 5.41528C17.4326 5.41528 17.8659 9.34561 19.3731 12.3029C20.8803 15.2602 22.2745 16.901 22.2745 16.901" stroke="#0B3A7C" stroke-width="2.49478" stroke-linecap="round" stroke-linejoin="round"/>
<path d="M35.4249 5.41528C35.4249 5.41528 34.9915 9.34561 33.4843 12.3029C31.9772 15.2602 30.583 16.901 30.583 16.901" stroke="#0B3A7C" stroke-width="2.49478" stroke-linecap="round" stroke-linejoin="round"/>
<path d="M23.2538 34.1677L15.4353 34.5684L12.3455 41.2461L8.84131 41.9711" stroke="#0B3A7C" stroke-width="2.49478" stroke-linecap="round" stroke-linejoin="round"/>
<path d="M22.5192 40.6929L16.5846 43.0969L12.8167 52.026L9.44434 53.6668" stroke="#0B3A7C" stroke-width="2.49478" stroke-linecap="round" stroke-linejoin="round"/>
<path d="M26.3244 15.6035C22.5376 15.6035 22.2173 16.7101 21.3695 18.9042C20.5218 21.0983 20.4841 24.0556 21.784 25.582C23.084 27.1083 23.8187 27.8142 26.3433 27.8142" stroke="#0B3A7C" stroke-width="2.49478" stroke-linecap="round" stroke-linejoin="round"/>
<path d="M26.532 15.6035C30.3188 15.6035 30.6391 16.7101 31.4869 18.9042C32.3347 21.0983 32.3724 24.0556 31.0724 25.582C29.7725 27.1083 29.0377 27.8142 26.5132 27.8142" stroke="#0B3A7C" stroke-width="2.49478" stroke-linecap="round" stroke-linejoin="round"/>
<path d="M29.5089 27.1082C29.2452 30.0273 29.3394 33.7477 29.5089 36.2471C29.6785 38.7465 31.1668 43.9933 31.9581 46.4354C32.7494 48.8776 33.8798 52.6744 33.2769 58.9705C32.674 65.2667 29.848 69.5404 26.5322 71.9444" stroke="#0B3A7C" stroke-width="2.49478" stroke-linecap="round" stroke-linejoin="round"/>
<path d="M29.3579 30.1801L35.7258 26.3642L36.8562 17.0917L39.1358 15.6035" stroke="#0B3A7C" stroke-width="2.49478" stroke-linecap="round" stroke-linejoin="round"/>
<path d="M29.603 34.1677L37.4216 34.5684L40.5113 41.2461L44.0155 41.9711" stroke="#0B3A7C" stroke-width="2.49478" stroke-linecap="round" stroke-linejoin="round"/>
<path d="M30.3374 40.6929L36.272 43.0969L40.0588 52.026L43.4123 53.6668" stroke="#0B3A7C" stroke-width="2.49478" stroke-linecap="round" stroke-linejoin="round"/>
<path d="M23.8379 32.9851H28.7363" stroke="#0B3A7C" stroke-width="2.49478" stroke-linecap="round" stroke-linejoin="round"/>
<path d="M23.8379 38.1555H28.7363" stroke="#0B3A7C" stroke-width="2.49478" stroke-linecap="round" stroke-linejoin="round"/>
<path d="M22.9526 43.3455H30.3379" stroke="#0B3A7C" stroke-width="2.49478" stroke-linecap="round" stroke-linejoin="round"/>
<path d="M20.0322 49.5261H32.8245" stroke="#0B3A7C" stroke-width="2.49478" stroke-linecap="round" stroke-linejoin="round"/>
<path d="M19.4106 55.8423H33.4463" stroke="#0B3A7C" stroke-width="2.49478" stroke-linecap="round" stroke-linejoin="round"/>
<path d="M20.748 62.157H32.749" stroke="#0B3A7C" stroke-width="2.49478" stroke-linecap="round" stroke-linejoin="round"/>
</svg>
