<svg width="70" height="70" viewBox="0 0 70 70" fill="none" xmlns="http://www.w3.org/2000/svg">
<path d="M29.0362 38.6719L31.2582 39.9612C33.5743 41.3063 36.4299 41.3063 38.7503 39.9612L45.6901 35.9387C48.0062 34.5936 49.4362 32.1139 49.4362 29.4279V21.3873C49.4362 18.7013 48.0105 16.2174 45.6901 14.8765L38.7503 10.8541C36.4341 9.50893 33.5786 9.50893 31.2582 10.8541L24.3183 14.8765C22.0022 16.2217 20.5723 18.7013 20.5723 21.3873V29.4279C20.5723 32.1139 21.9979 34.5979 24.3183 35.9387L29.0362 38.6719Z" stroke="#7BC6E7" stroke-width="2.48" stroke-linecap="round" stroke-linejoin="round"/>
<path d="M27.4863 25.7539L32.6966 30.984L43.1213 20.5195" stroke="#0B3A7C" stroke-width="2.48" stroke-linecap="round" stroke-linejoin="round"/>
<path d="M19.7587 45.23C16.7662 48.9044 12.8831 53.1331 7.78418 55.8578L14.1032 59.3087L15.1008 66.2105C15.1008 66.2105 25.9665 61.7582 32.1742 50.7394" stroke="#0B3A7C" stroke-width="2.48" stroke-linecap="round" stroke-linejoin="round"/>
<path d="M50.2407 45.23C53.2333 48.9044 57.1163 53.1331 62.2152 55.8578L55.8962 59.3087L54.8987 66.2105C54.8987 66.2105 44.0329 61.7582 37.8252 50.7394" stroke="#0B3A7C" stroke-width="2.48" stroke-linecap="round" stroke-linejoin="round"/>
<path d="M35.3037 3.7977C34.1006 3.73324 32.8805 4.05125 31.8316 4.75175L30.9154 5.36629C29.9479 6.01522 28.8048 6.35472 27.6403 6.33324L26.54 6.31175C24.2325 6.26877 22.1304 7.62679 21.2099 9.74977L20.769 10.764C20.3066 11.8341 19.5274 12.7408 18.5342 13.3511L17.5966 13.9313C15.6315 15.1475 14.5955 17.4294 14.9636 19.7157L15.1392 20.8073C15.3276 21.959 15.1563 23.1451 14.6554 24.198L14.1802 25.1951C13.1827 27.2837 13.538 29.7676 15.0835 31.4909L15.8199 32.3118C16.5991 33.1799 17.0914 34.2671 17.237 35.4275L17.374 36.5276C17.6608 38.8268 19.2962 40.722 21.5225 41.3322L22.5842 41.6245C23.7059 41.9339 24.7077 42.5785 25.4526 43.4767L26.159 44.3276C27.636 46.1068 30.0378 46.8116 32.2383 46.1197L33.2915 45.7888C33.9465 45.5825 34.623 45.5008 35.2994 45.5395" stroke="#0B3A7C" stroke-width="2.48" stroke-linecap="round" stroke-linejoin="round"/>
<path d="M35.3467 3.7977C36.5497 3.73324 37.7698 4.05125 38.8187 4.75175L39.7349 5.36629C40.7025 6.01522 41.8456 6.35472 43.01 6.33324L44.1103 6.31175C46.4179 6.26877 48.52 7.62679 49.4404 9.74977L49.8814 10.764C50.3438 11.8341 51.1229 12.7408 52.1162 13.3511L53.0538 13.9313C55.0188 15.1475 56.0549 17.4294 55.6867 19.7157L55.5112 20.8073C55.3228 21.959 55.494 23.1451 55.9949 24.198L56.4702 25.1951C57.4677 27.2837 57.1123 29.7676 55.5668 31.4909L54.8305 32.3118C54.0513 33.1799 53.5589 34.2671 53.4134 35.4275L53.2764 36.5276C52.9895 38.8268 51.3541 40.722 49.1279 41.3322L48.0661 41.6245C46.9445 41.9339 45.9427 42.5785 45.1977 43.4767L44.4913 44.3276C43.0143 46.1068 40.6126 46.8116 38.412 46.1197L37.3588 45.7888C36.7038 45.5825 36.0274 45.5008 35.351 45.5395" stroke="#0B3A7C" stroke-width="2.48" stroke-linecap="round" stroke-linejoin="round"/>
</svg>
