<svg width="58" height="56" viewBox="0 0 58 56" fill="none" xmlns="http://www.w3.org/2000/svg">
<path d="M2.68213 43.0572V30.4534C2.68213 16.3129 14.4634 4.85107 28.9979 4.85107C43.5324 4.85107 55.3137 16.3129 55.3137 30.4534V43.0572" stroke="#0B3A7C" stroke-width="2.48" stroke-linecap="round" stroke-linejoin="round"/>
<path d="M2.68205 43.1538L1.37015 49.7286C0.748721 52.8397 4.09753 55.2664 6.98458 53.8011C20.7768 46.7897 37.2231 46.7897 51.0154 53.8011C53.9024 55.2664 57.2512 52.8397 56.6298 49.7286L55.3179 43.1538" stroke="#0B3A7C" stroke-width="2.48" stroke-linecap="round" stroke-linejoin="round"/>
<path d="M2.68213 43.1538C19.396 35.7309 38.5998 35.7309 55.3137 43.1538" stroke="#0B3A7C" stroke-width="2.48" stroke-linecap="round" stroke-linejoin="round"/>
<path d="M16.8755 26.5992C19.0246 24.6721 22.8956 22.3713 29.1099 22.3713C35.3241 22.3713 38.7808 24.6385 41.1328 26.6076" stroke="#7BC6E7" stroke-width="2.48" stroke-linecap="round" stroke-linejoin="round"/>
<path d="M28.998 4.85107V15.2171" stroke="#0B3A7C" stroke-width="2.48" stroke-linecap="round" stroke-linejoin="round"/>
<path d="M26.3828 3.3816C26.3828 2.48732 27.4487 1.76099 28.7693 1.76099C30.0898 1.76099 31.1557 2.48732 31.1557 3.3816" stroke="#0B3A7C" stroke-width="2.48" stroke-linecap="round" stroke-linejoin="round"/>
</svg>
