<svg width="58" height="66" viewBox="0 0 58 66" fill="none" xmlns="http://www.w3.org/2000/svg">
<path d="M23.0362 36.6722L25.2582 37.9614C27.5743 39.3065 30.4299 39.3065 32.7503 37.9614L39.6901 33.9389C42.0062 32.5938 43.4362 30.1141 43.4362 27.4282V19.3875C43.4362 16.7016 42.0105 14.2176 39.6901 12.8768L32.7503 8.8543C30.4341 7.50918 27.5786 7.50918 25.2582 8.8543L18.3183 12.8768C16.0022 14.2219 14.5723 16.7016 14.5723 19.3875V27.4282C14.5723 30.1141 15.9979 32.5981 18.3183 33.9389L23.0362 36.6722Z" stroke="#7BC6E7" stroke-width="2.48" stroke-linecap="round" stroke-linejoin="round"/>
<path d="M21.4863 23.7537L26.6966 28.9837L37.1213 18.5193" stroke="#0B3A7C" stroke-width="2.48" stroke-linecap="round" stroke-linejoin="round"/>
<path d="M13.7587 43.23C10.7662 46.9044 6.8831 51.1331 1.78418 53.8578L8.10324 57.3087L9.10076 64.2105C9.10076 64.2105 19.9665 59.7582 26.1742 48.7394" stroke="#0B3A7C" stroke-width="2.48" stroke-linecap="round" stroke-linejoin="round"/>
<path d="M44.2407 43.23C47.2333 46.9044 51.1163 51.1331 56.2152 53.8578L49.8962 57.3087L48.8987 64.2105C48.8987 64.2105 38.0329 59.7582 31.8252 48.7394" stroke="#0B3A7C" stroke-width="2.48" stroke-linecap="round" stroke-linejoin="round"/>
<path d="M29.3037 1.7977C28.1006 1.73324 26.8805 2.05125 25.8316 2.75175L24.9154 3.36629C23.9479 4.01522 22.8048 4.35472 21.6403 4.33324L20.54 4.31175C18.2325 4.26877 16.1304 5.62679 15.2099 7.74977L14.769 8.76398C14.3066 9.83406 13.5274 10.7408 12.5342 11.3511L11.5966 11.9313C9.63152 13.1475 8.59547 15.4294 8.96365 17.7157L9.13918 18.8073C9.32755 19.959 9.1563 21.1451 8.6554 22.198L8.18019 23.1951C7.18267 25.2837 7.53801 27.7676 9.08352 29.4909L9.81989 30.3118C10.5991 31.1799 11.0914 32.2671 11.237 33.4275L11.374 34.5276C11.6608 36.8268 13.2962 38.722 15.5225 39.3322L16.5842 39.6245C17.7059 39.9339 18.7077 40.5785 19.4526 41.4767L20.159 42.3276C21.636 44.1068 24.0378 44.8116 26.2383 44.1197L27.2915 43.7888C27.9465 43.5825 28.623 43.5008 29.2994 43.5395" stroke="#0B3A7C" stroke-width="2.48" stroke-linecap="round" stroke-linejoin="round"/>
<path d="M29.3467 1.7977C30.5497 1.73324 31.7698 2.05125 32.8187 2.75175L33.7349 3.36629C34.7025 4.01522 35.8456 4.35472 37.01 4.33324L38.1103 4.31175C40.4179 4.26877 42.52 5.62679 43.4404 7.74977L43.8814 8.76398C44.3438 9.83406 45.1229 10.7408 46.1162 11.3511L47.0538 11.9313C49.0188 13.1475 50.0549 15.4294 49.6867 17.7157L49.5112 18.8073C49.3228 19.959 49.494 21.1451 49.9949 22.198L50.4702 23.1951C51.4677 25.2837 51.1123 27.7676 49.5668 29.4909L48.8305 30.3118C48.0513 31.1799 47.5589 32.2671 47.4134 33.4275L47.2764 34.5276C46.9895 36.8268 45.3541 38.722 43.1279 39.3322L42.0661 39.6245C40.9445 39.9339 39.9427 40.5785 39.1977 41.4767L38.4913 42.3276C37.0143 44.1068 34.6126 44.8116 32.412 44.1197L31.3588 43.7888C30.7038 43.5825 30.0274 43.5008 29.351 43.5395" stroke="#0B3A7C" stroke-width="2.48" stroke-linecap="round" stroke-linejoin="round"/>
</svg>
