<svg width="48" height="70" viewBox="0 0 48 70" fill="none" xmlns="http://www.w3.org/2000/svg">
<g id="Layer 1">
<g id="Group">
<g id="Group_2">
<path id="Vector" d="M13.2407 1.42969C13.2407 1.42969 18.032 5.49566 19.8942 11.4886" stroke="#0B3A7C" stroke-width="2.49478" stroke-linecap="round" stroke-linejoin="round"/>
<path id="Vector_2" d="M35.0441 1.42993C35.0441 1.42993 30.2528 5.4959 28.3906 11.4889" stroke="#0B3A7C" stroke-width="2.49478" stroke-linecap="round" stroke-linejoin="round"/>
</g>
<g id="Group_3">
<path id="Vector_3" d="M24.1421 10.6023C21.9114 10.6023 19.9522 11.3731 19.506 12.6064C19.0599 13.8397 19.7582 14.5334 19.7582 14.5334C19.7582 14.5334 16.8291 16.9999 16.8291 18.6957C16.8291 20.3915 17.8378 22.9736 24.1227 22.9736" stroke="#0B3A7C" stroke-width="2.49478" stroke-linecap="round" stroke-linejoin="round"/>
<path id="Vector_4" d="M17.6438 20.9885C15.0639 25.1508 14.0552 28.446 14.0552 36.1926C14.0552 43.9391 15.4906 50.9919 16.7515 57.1198C18.0124 63.2476 19.3896 67.9303 24.1227 67.9303" stroke="#0B3A7C" stroke-width="2.49478" stroke-linecap="round" stroke-linejoin="round"/>
<path id="Vector_5" d="M18.7886 64.1145C18.7886 64.1145 17.7993 65.5405 16.3057 65.6561" stroke="#0B3A7C" stroke-width="2.49478" stroke-linecap="round" stroke-linejoin="round"/>
<path id="Vector_6" d="M14.075 35.4604C12.1546 35.6917 10.7579 36.1156 10.5251 40.1816C10.2924 44.2476 11.2623 52.2061 8.56594 56.0408C5.86962 59.8755 3.0957 61.1281 3.0957 61.1281" stroke="#0B3A7C" stroke-width="2.49478" stroke-linecap="round" stroke-linejoin="round"/>
<path id="Vector_7" d="M14.6373 28.4459L13.6092 28.1568C11.844 27.6751 10.0012 28.5808 9.36102 30.2765C8.6239 32.2421 7.53761 34.7279 6.31554 36.4237C4.04598 39.6032 1.64062 39.9115 1.64062 39.9115" stroke="#0B3A7C" stroke-width="2.49478" stroke-linecap="round" stroke-linejoin="round"/>
<path id="Vector_8" d="M16.8485 19.4474C16.8485 19.4474 13.415 21.5863 10.4277 16.8074" stroke="#0B3A7C" stroke-width="2.49478" stroke-linecap="round" stroke-linejoin="round"/>
<path id="Vector_9" d="M24.1421 10.6023C26.3729 10.6023 28.3321 11.3731 28.7782 12.6064C29.2244 13.8397 28.526 14.5334 28.526 14.5334C28.526 14.5334 31.4551 16.9999 31.4551 18.6957C31.4551 20.3915 30.4464 22.9736 24.1615 22.9736" stroke="#0B3A7C" stroke-width="2.49478" stroke-linecap="round" stroke-linejoin="round"/>
<path id="Vector_10" d="M30.6405 20.9885C33.2205 25.1508 34.2292 28.446 34.2292 36.1926C34.2292 43.9391 32.7937 50.9919 31.5329 57.1198C30.272 63.2476 28.8947 67.9303 24.1616 67.9303" stroke="#0B3A7C" stroke-width="2.49478" stroke-linecap="round" stroke-linejoin="round"/>
<path id="Vector_11" d="M29.4961 64.1145C29.4961 64.1145 30.4854 65.5405 31.979 65.6561" stroke="#0B3A7C" stroke-width="2.49478" stroke-linecap="round" stroke-linejoin="round"/>
<path id="Vector_12" d="M34.21 35.4604C36.1304 35.6917 37.527 36.1156 37.7598 40.1816C37.9926 44.2476 37.0227 52.2061 39.719 56.0408C42.4153 59.8755 45.1892 61.1281 45.1892 61.1281" stroke="#0B3A7C" stroke-width="2.49478" stroke-linecap="round" stroke-linejoin="round"/>
<path id="Vector_13" d="M33.647 28.4459L34.6751 28.1568C36.4403 27.6751 38.2831 28.5808 38.9232 30.2765C39.6603 32.2421 40.7466 34.7279 41.9687 36.4237C44.2383 39.6032 46.6436 39.9115 46.6436 39.9115" stroke="#0B3A7C" stroke-width="2.49478" stroke-linecap="round" stroke-linejoin="round"/>
<path id="Vector_14" d="M31.436 19.4474C31.436 19.4474 34.8695 21.5863 37.8568 16.8074" stroke="#0B3A7C" stroke-width="2.49478" stroke-linecap="round" stroke-linejoin="round"/>
</g>
</g>
</g>
</svg>
