<svg width="71" height="70" viewBox="0 0 71 70" fill="none" xmlns="http://www.w3.org/2000/svg">
<path d="M35.957 47.7616C43.0048 47.7616 48.7182 42.0483 48.7182 35.0004C48.7182 27.9526 43.0048 22.2393 35.957 22.2393C28.9092 22.2393 23.1958 27.9526 23.1958 35.0004C23.1958 42.0483 28.9092 47.7616 35.957 47.7616Z" stroke="#0B3A7C" stroke-width="2.48272" stroke-linecap="round" stroke-linejoin="round"/>
<path d="M54.1967 48.3569C50.0754 53.9679 43.4383 57.6092 35.957 57.6092C28.4757 57.6092 21.8221 53.9679 17.7173 48.3569" stroke="#0B3A7C" stroke-width="2.48272" stroke-linecap="round" stroke-linejoin="round"/>
<path d="M21.3091 17.7699C25.2483 14.4099 30.3627 12.3906 35.9571 12.3906C41.5515 12.3906 46.4342 14.3271 50.3404 17.5547C51.2673 18.3161 52.1279 19.1436 52.9059 20.0374" stroke="#0B3A7C" stroke-width="2.48272" stroke-linecap="round" stroke-linejoin="round"/>
<path d="M5.84985 17.4385V26.2604C5.84985 29.8521 8.0512 32.7651 10.7656 32.7651H11.9408C14.6552 32.7651 16.8566 29.8521 16.8566 26.2604V17.4385" stroke="#0B3A7C" stroke-width="2.48272" stroke-linecap="round" stroke-linejoin="round"/>
<path d="M11.3616 17.4385V56.1689" stroke="#0B3A7C" stroke-width="2.48272" stroke-linecap="round" stroke-linejoin="round"/>
<path d="M58.5662 56.1689V17.4385C62.0585 17.4385 64.8888 20.2688 64.8888 23.7611V40.9747L58.5662 41.2064" stroke="#0B3A7C" stroke-width="2.48272" stroke-linecap="round" stroke-linejoin="round"/>
<path d="M28.0454 35C28.0454 30.6304 31.5874 27.0884 35.957 27.0884" stroke="#7CC7E7" stroke-width="2.48272" stroke-linecap="round" stroke-linejoin="round"/>
</svg>
