<svg width="39" height="70" viewBox="0 0 39 70" fill="none" xmlns="http://www.w3.org/2000/svg">
<g id="Layer 1">
<g id="Group">
<path id="Vector" d="M1.72559 1.43921C1.72559 1.43921 11.6336 5.96766 16.6836 11.2862" stroke="#0B3A7C" stroke-width="2.49478" stroke-linecap="round" stroke-linejoin="round"/>
<path id="Vector_2" d="M19.1991 10.4192C17.4325 10.4192 16.1652 11.402 15.9156 13.6566C15.666 15.9111 16.338 17.26 19.1991 17.26" stroke="#0B3A7C" stroke-width="2.49478" stroke-linecap="round" stroke-linejoin="round"/>
<path id="Vector_3" d="M16.9911 16.8171C16.9911 16.8171 15.839 19.7076 15.4741 22.5403C15.1093 25.373 14.226 27.9552 15.8582 28.6104C15.8582 28.6104 16.8183 31.655 19.1801 31.655" stroke="#0B3A7C" stroke-width="2.49478" stroke-linecap="round" stroke-linejoin="round"/>
<path id="Vector_4" d="M15.8579 29.1301C14.5138 32.5795 14.2065 36.6647 14.2065 41.3088C14.2065 45.9528 15.0322 53.6994 15.0322 53.6994L19.199 55.2795" stroke="#0B3A7C" stroke-width="2.49478" stroke-linecap="round" stroke-linejoin="round"/>
<path id="Vector_5" d="M17.5284 54.6631C17.5284 54.6631 14.2065 57.9197 14.2065 62.005C14.2065 66.0902 17.0484 67.9208 17.0484 67.9208" stroke="#0B3A7C" stroke-width="2.49478" stroke-linecap="round" stroke-linejoin="round"/>
<path id="Vector_6" d="M16.1078 19.5342L12.4211 17.1447C11.7682 16.7208 11.2882 16.0656 11.0578 15.3141L10.5969 13.7339C10.3665 12.9438 9.84806 12.2694 9.1568 11.8455L6.43018 10.1882" stroke="#0B3A7C" stroke-width="2.49478" stroke-linecap="round" stroke-linejoin="round"/>
<path id="Vector_7" d="M15.3781 23.2725L10.2705 24.4479C9.67521 24.5828 9.13757 24.8719 8.71513 25.2958L2.47461 31.3851" stroke="#0B3A7C" stroke-width="2.49478" stroke-linecap="round" stroke-linejoin="round"/>
<path id="Vector_8" d="M15.3781 28.918L9.75205 35.2385C9.21441 35.8359 8.92639 36.626 8.92639 37.416V41.2315C8.92639 41.8674 8.75357 42.4648 8.40794 43.0043L6.43018 46.1261" stroke="#0B3A7C" stroke-width="2.49478" stroke-linecap="round" stroke-linejoin="round"/>
<path id="Vector_9" d="M36.8453 1.43945C36.8453 1.43945 26.9372 5.9679 21.8872 11.2864" stroke="#0B3A7C" stroke-width="2.49478" stroke-linecap="round" stroke-linejoin="round"/>
<path id="Vector_10" d="M19.3721 10.4192C21.1386 10.4192 22.4059 11.402 22.6555 13.6566C22.9052 15.9111 22.2331 17.26 19.3721 17.26" stroke="#0B3A7C" stroke-width="2.49478" stroke-linecap="round" stroke-linejoin="round"/>
<path id="Vector_11" d="M21.5611 16.8171C21.5611 16.8171 22.7132 19.7076 23.078 22.5403C23.4428 25.373 24.3261 27.9552 22.6939 28.6104C22.6939 28.6104 21.7339 31.655 19.3721 31.655" stroke="#0B3A7C" stroke-width="2.49478" stroke-linecap="round" stroke-linejoin="round"/>
<path id="Vector_12" d="M22.7132 29.1301C24.0573 32.5795 24.3645 36.6647 24.3645 41.3088C24.3645 45.9528 23.5388 53.6994 23.5388 53.6994L19.3721 55.2795" stroke="#0B3A7C" stroke-width="2.49478" stroke-linecap="round" stroke-linejoin="round"/>
<path id="Vector_13" d="M21.0425 54.6631C21.0425 54.6631 24.3644 57.9197 24.3644 62.005C24.3644 66.0902 21.5225 67.9208 21.5225 67.9208" stroke="#0B3A7C" stroke-width="2.49478" stroke-linecap="round" stroke-linejoin="round"/>
<path id="Vector_14" d="M22.4634 19.5342L26.1501 17.1447C26.8029 16.7208 27.283 16.0656 27.5134 15.3141L27.9742 13.7339C28.2047 12.9438 28.7231 12.2694 29.4144 11.8455L32.141 10.1882" stroke="#0B3A7C" stroke-width="2.49478" stroke-linecap="round" stroke-linejoin="round"/>
<path id="Vector_15" d="M23.1929 23.2725L28.3005 24.4479C28.8957 24.5828 29.4334 24.8719 29.8558 25.2958L36.0964 31.3851" stroke="#0B3A7C" stroke-width="2.49478" stroke-linecap="round" stroke-linejoin="round"/>
<path id="Vector_16" d="M23.1929 28.918L28.8189 35.2385C29.3566 35.8359 29.6446 36.626 29.6446 37.416V41.2315C29.6446 41.8674 29.8174 42.4648 30.1631 43.0043L32.1408 46.1261" stroke="#0B3A7C" stroke-width="2.49478" stroke-linecap="round" stroke-linejoin="round"/>
</g>
</g>
</svg>
