<svg width="74" height="70" viewBox="0 0 74 70" fill="none" xmlns="http://www.w3.org/2000/svg">
<path d="M37.0348 27.626L19.2419 36.6631" stroke="#0B3A7C" stroke-width="2.48272" stroke-linecap="round" stroke-linejoin="round"/>
<path d="M13.6807 34.1807V46.975C13.6807 46.975 20.5495 56.6576 37.0348 56.6576C53.5201 56.6576 60.3889 46.975 60.3889 46.975V34.1807" stroke="#0B3A7C" stroke-width="2.48272" stroke-linecap="round" stroke-linejoin="round"/>
<path d="M19.1261 60.3649C19.9579 60.3649 20.6322 59.6906 20.6322 58.8587C20.6322 58.0269 19.9579 57.3525 19.1261 57.3525C18.2942 57.3525 17.6199 58.0269 17.6199 58.8587C17.6199 59.6906 18.2942 60.3649 19.1261 60.3649Z" stroke="#0B3A7C" stroke-width="2.48272" stroke-linecap="round" stroke-linejoin="round"/>
<path d="M72.2233 27.6262L37.0348 9.63477L1.82983 27.6262L37.0348 45.6177L72.2233 27.6262Z" stroke="#0B3A7C" stroke-width="2.48272" stroke-linecap="round" stroke-linejoin="round"/>
<path d="M56.6649 25.3251L37.0348 15.2949L17.4048 25.3251" stroke="#7CC7E7" stroke-width="2.48272" stroke-linecap="round" stroke-linejoin="round"/>
<path d="M19.1262 37.1924V58.8583" stroke="#0B3A7C" stroke-width="2.48272" stroke-linecap="round" stroke-linejoin="round"/>
</svg>
