<svg width="171" height="75" viewBox="0 0 171 75" fill="none" xmlns="http://www.w3.org/2000/svg">
<g clip-path="url(#clip0_1389_3514)">
<path d="M137.178 18.75C127.136 10.0283 112.26 0 85.995 0C59.7301 0 43.0854 10.2406 33.8546 18.8153C32.7027 19.877 32.6216 21.7062 33.6923 22.8659C34.763 24.0255 36.5638 24.1071 37.7156 23.0292C46.2002 15.1405 61.466 5.7328 85.995 5.7328C110.524 5.7328 124.168 15.0098 133.447 23.0782C133.966 23.5355 134.631 23.7805 135.313 23.7805C136.14 23.7805 136.935 23.4212 137.47 22.7842C138.492 21.5756 138.363 19.779 137.178 18.7337" fill="#7CC7E7"/>
<path d="M18.4426 42.4326C20.0973 43.4942 21.4276 44.9641 22.4009 46.8587C23.3743 48.7533 23.8448 50.8929 23.8448 53.2775C23.8448 55.6621 23.3581 57.8343 22.4172 59.7289C21.4762 61.6235 20.1622 63.1262 18.5074 64.1715C16.8527 65.2331 15.0357 65.7721 13.0403 65.7721C11.6127 65.7721 10.2662 65.4781 9.00081 64.8901C7.73542 64.3021 6.69716 63.5998 5.85356 62.7505V63.0282C5.85356 63.7958 5.594 64.4491 5.09109 64.9881C4.58818 65.5107 3.93926 65.7721 3.17678 65.7721C2.4143 65.7721 1.76539 65.5107 1.26248 65.0044C0.759567 64.4981 0.5 63.8285 0.5 63.0282V34.7888C0.5 34.0212 0.759567 33.3679 1.26248 32.8289C1.76539 32.3062 2.4143 32.0449 3.17678 32.0449C3.93926 32.0449 4.58818 32.3062 5.09109 32.8289C5.594 33.3515 5.85356 34.0048 5.85356 34.7888V44.1802C6.56737 43.2819 7.55697 42.4979 8.83858 41.8282C10.1202 41.1586 11.4667 40.8156 12.8619 40.8156C14.9222 40.8156 16.7716 41.3383 18.4426 42.4162M16.8852 58.6673C18.1019 57.23 18.7183 55.4334 18.7183 53.2775C18.7183 51.1216 18.1181 49.3413 16.9176 47.904C15.7171 46.4831 14.1435 45.7644 12.213 45.7644C10.2824 45.7644 8.69258 46.4667 7.47586 47.904C6.25914 49.325 5.64267 51.1216 5.64267 53.2775C5.64267 55.4334 6.25914 57.23 7.47586 58.6673C8.69258 60.1046 10.2824 60.8232 12.213 60.8232C14.1435 60.8232 15.6847 60.1046 16.9014 58.6673H16.8852Z" fill="white"/>
<path d="M33.3352 64.531C32.8161 65.0537 32.1672 65.315 31.3885 65.315C30.6098 65.315 30.0095 65.0537 29.5066 64.531C29.0037 64.0084 28.7441 63.3551 28.7441 62.5711V34.8054C28.7441 34.0378 29.0037 33.3845 29.5228 32.8455C30.042 32.3228 30.6909 32.0615 31.4696 32.0615C32.2483 32.0615 32.8485 32.3228 33.3515 32.8455C33.8544 33.3681 34.1139 34.0215 34.1139 34.8054V62.5711C34.1139 63.3551 33.8544 63.9921 33.3352 64.531Z" fill="white"/>
<path d="M59.1463 42.073C59.6493 42.5957 59.9088 43.249 59.9088 44.033V55.4496C59.9088 58.6834 59.0328 61.2314 57.2483 63.0443C55.48 64.8736 52.9492 65.7882 49.6884 65.7882C46.4276 65.7882 43.8968 64.8736 42.1447 63.0443C40.3926 61.215 39.5166 58.6834 39.5166 55.4496V44.033C39.5166 43.2653 39.7599 42.612 40.2791 42.073C40.782 41.5504 41.4309 41.2891 42.1934 41.2891C42.9559 41.2891 43.6048 41.5504 44.1077 42.073C44.6106 42.5957 44.8702 43.249 44.8702 44.033V55.4496C44.8702 57.2788 45.2757 58.6344 46.0707 59.5164C46.8818 60.3984 48.0823 60.8394 49.6884 60.8394C51.2944 60.8394 52.5436 60.3984 53.3548 59.5164C54.1659 58.6344 54.5553 57.2788 54.5553 55.4496V44.033C54.5553 43.2653 54.8148 42.612 55.3177 42.073C55.8206 41.5504 56.4696 41.2891 57.232 41.2891C57.9945 41.2891 58.6434 41.5504 59.1463 42.073Z" fill="white"/>
<path d="M86.2869 54.4857C85.7516 54.943 85.1189 55.1553 84.405 55.1553H69.6746C70.0315 56.9193 70.8427 58.3075 72.1243 59.3202C73.4059 60.3165 74.8497 60.8228 76.4558 60.8228C77.6725 60.8228 78.6297 60.7085 79.3111 60.4798C79.9924 60.2511 80.544 60.0225 80.9333 59.7612C81.3389 59.4998 81.6147 59.3365 81.7607 59.2385C82.2961 58.9608 82.799 58.8302 83.2857 58.8302C83.9184 58.8302 84.4537 59.0588 84.8917 59.4998C85.3298 59.9408 85.5569 60.4798 85.5569 61.0678C85.5569 61.8844 85.1513 62.6031 84.3077 63.2727C83.4641 63.9587 82.361 64.5467 80.9658 65.0203C79.5706 65.5103 78.1592 65.7389 76.7316 65.7389C74.2333 65.7389 72.0594 65.2163 70.1938 64.171C68.3281 63.1257 66.8843 61.6721 65.8785 59.8265C64.8564 57.9809 64.3535 55.9066 64.3535 53.6037C64.3535 51.0231 64.8889 48.7692 65.9596 46.8256C67.0303 44.882 68.4417 43.3957 70.1938 42.3504C71.9458 41.3215 73.8277 40.7988 75.8231 40.7988C77.8185 40.7988 79.6355 41.3378 81.3876 42.4158C83.1234 43.4937 84.5186 44.9473 85.5569 46.7766C86.5951 48.6059 87.1143 50.5821 87.1143 52.7054C87.0818 53.424 86.806 54.012 86.2707 54.453L86.2869 54.4857ZM69.7233 50.6801H81.42V50.3698C81.2902 49.1122 80.69 48.0342 79.5868 47.1359C78.4837 46.2376 77.2345 45.7803 75.8393 45.7803C72.3839 45.7803 70.356 47.4136 69.7233 50.6801Z" fill="white"/>
<path d="M97.2217 60.2507C97.2217 59.4831 97.611 58.8134 98.3897 58.2744C98.7953 57.9968 99.2333 57.8661 99.6876 57.8661C100.32 57.8661 100.904 58.1438 101.472 58.7154C102.364 59.6464 103.289 60.3324 104.262 60.7897C105.236 61.247 106.388 61.4593 107.767 61.4593C110.086 61.3613 111.255 60.4794 111.255 58.8134C111.255 57.9478 110.865 57.2781 110.07 56.8372C109.275 56.3798 108.042 55.9389 106.388 55.4815C104.652 54.9916 103.257 54.5342 102.17 54.0443C101.083 53.5543 100.158 52.8356 99.3631 51.872C98.5682 50.892 98.1788 49.5854 98.1788 47.9358C98.1788 46.4985 98.5844 45.2572 99.4118 44.1793C100.223 43.1176 101.294 42.2847 102.624 41.713C103.954 41.125 105.366 40.8311 106.842 40.8311C108.318 40.8311 109.876 41.1087 111.401 41.6804C112.925 42.252 114.11 43.085 114.97 44.1956C115.359 44.6856 115.554 45.2246 115.554 45.8125C115.554 46.4985 115.278 47.0702 114.71 47.5275C114.304 47.8541 113.818 48.0175 113.282 48.0175C112.617 48.0175 112.082 47.8051 111.676 47.3805C111.141 46.7108 110.443 46.2045 109.6 45.8125C108.756 45.4206 107.799 45.2246 106.728 45.2246C104.457 45.2246 103.338 46.0412 103.338 47.6908C103.338 48.3605 103.549 48.8831 103.97 49.2914C104.376 49.6997 104.911 50.0101 105.56 50.2387C106.193 50.4674 107.101 50.745 108.253 51.0717C109.859 51.529 111.206 51.9863 112.277 52.46C113.347 52.95 114.256 53.6686 115.002 54.6649C115.748 55.6612 116.121 56.9515 116.121 58.5684C116.121 60.0384 115.683 61.3287 114.824 62.4066C113.964 63.5009 112.844 64.3339 111.498 64.9055C110.151 65.4772 108.756 65.7548 107.329 65.7548C105.366 65.7548 103.532 65.4282 101.845 64.7585C100.142 64.0889 98.7629 63.0436 97.6921 61.5737C97.4164 61.2143 97.2866 60.757 97.2866 60.218L97.2217 60.2507Z" fill="white"/>
<path d="M140.585 62.6357C140.585 63.387 140.293 64.024 139.709 64.5303C139.125 65.0366 138.508 65.298 137.859 65.298C137.097 65.298 136.432 64.9876 135.896 64.3997L127.866 55.8576L125.676 57.8829V62.6031C125.676 63.3707 125.416 64.024 124.913 64.563C124.41 65.0856 123.762 65.347 122.999 65.347C122.237 65.347 121.588 65.0856 121.085 64.563C120.582 64.0403 120.322 63.387 120.322 62.6031V34.8211C120.322 34.0534 120.582 33.4001 121.085 32.8611C121.588 32.3385 122.237 32.0771 122.999 32.0771C123.762 32.0771 124.41 32.3385 124.913 32.8611C125.416 33.3838 125.676 34.0371 125.676 34.8211V51.4478L135.231 42.1381C135.799 41.5665 136.448 41.2888 137.194 41.2888C137.859 41.2888 138.427 41.5665 138.962 42.1218C139.482 42.6771 139.741 43.2324 139.741 43.8041C139.741 44.5227 139.384 45.1924 138.67 45.8293L131.938 52.0684L139.757 60.6105C140.325 61.1985 140.601 61.8844 140.601 62.6357" fill="white"/>
<path d="M168.083 60.6436C168.489 60.6436 168.894 60.7415 169.284 60.9539C169.657 61.1662 169.965 61.4602 170.176 61.8522C170.403 62.2442 170.5 62.6525 170.5 63.0771C170.5 63.5018 170.403 63.9101 170.176 64.2858C169.965 64.6614 169.657 64.9717 169.284 65.1841C168.911 65.3964 168.505 65.5107 168.083 65.5107C167.661 65.5107 167.256 65.3964 166.883 65.1841C166.51 64.9717 166.201 64.6614 165.99 64.2858C165.78 63.9101 165.666 63.5018 165.666 63.0771C165.666 62.6525 165.78 62.2442 165.99 61.8522C166.218 61.4602 166.51 61.1662 166.899 60.9539C167.272 60.7415 167.678 60.6436 168.099 60.6436M168.083 61.1335C167.743 61.1335 167.434 61.2152 167.126 61.3785C166.818 61.5419 166.575 61.7868 166.396 62.0972C166.218 62.4075 166.12 62.7341 166.12 63.0935C166.12 63.4528 166.218 63.7631 166.38 64.0734C166.542 64.3838 166.785 64.6287 167.094 64.8084C167.402 64.9717 167.726 65.0697 168.067 65.0697C168.408 65.0697 168.732 64.9717 169.04 64.8084C169.349 64.6287 169.592 64.4001 169.754 64.0734C169.916 63.7631 170.014 63.4365 170.014 63.0935C170.014 62.7505 169.916 62.4238 169.738 62.0972C169.56 61.7705 169.332 61.5419 169.008 61.3785C168.7 61.2152 168.375 61.1335 168.051 61.1335M166.996 64.4001V61.8195H168.343C168.505 61.8195 168.651 61.8685 168.748 61.9175C168.846 61.9665 168.927 62.0482 168.992 62.1625C169.057 62.2768 169.089 62.3912 169.089 62.5382C169.089 62.7341 169.04 62.8811 168.911 63.0281C168.781 63.1588 168.619 63.2405 168.391 63.2731C168.473 63.3058 168.521 63.3221 168.57 63.3711C168.619 63.4038 168.667 63.4691 168.732 63.5671C168.748 63.5834 168.813 63.6978 168.927 63.8774L169.235 64.4001H168.586L168.375 63.9918C168.229 63.7141 168.099 63.5345 168.018 63.4691C167.937 63.4038 167.807 63.3548 167.661 63.3548H167.532V64.4164H167.013L166.996 64.4001ZM167.515 62.9138H167.726C168.035 62.9138 168.213 62.9138 168.278 62.8811C168.343 62.8648 168.408 62.8158 168.44 62.7505C168.489 62.7015 168.505 62.6198 168.505 62.5545C168.505 62.4892 168.489 62.4238 168.456 62.3585C168.408 62.3095 168.359 62.2605 168.278 62.2278C168.197 62.2115 168.002 62.1952 167.726 62.1952H167.515V62.8975V62.9138Z" fill="white"/>
<path d="M163.621 42.0733C164.124 42.596 164.384 43.2493 164.384 44.0332V59.3044C164.384 66.8338 164.092 75.0001 152.914 75.0001C151.892 75.0001 150.87 74.9185 149.815 74.7551C148.761 74.5918 147.901 74.3795 147.252 74.1018C145.792 73.4648 145.062 72.6155 145.062 71.4886C145.062 71.2763 145.111 71.0313 145.192 70.7699C145.37 70.1003 145.679 69.6103 146.1 69.2673C146.538 68.9243 147.009 68.7447 147.512 68.7447C147.82 68.7447 148.096 68.7937 148.355 68.8753C148.566 68.9733 148.923 69.104 149.442 69.3327C149.961 69.5613 150.513 69.7083 151.097 69.8553C151.681 69.986 152.719 70.0513 153.352 70.0513C158.235 70.0513 159.144 65.9681 159.063 62.8649C157.521 64.8085 155.104 65.7885 151.827 65.7885C150.27 65.7885 148.907 65.4128 147.723 64.6942C146.522 63.9592 145.614 62.9466 144.949 61.6399C144.283 60.3333 143.959 58.847 143.959 57.1648V44.0496C143.959 43.2819 144.202 42.6286 144.721 42.0896C145.224 41.567 145.873 41.3057 146.636 41.3057C147.398 41.3057 148.047 41.567 148.55 42.0896C149.053 42.6123 149.313 43.2656 149.313 44.0496V55.5478C149.313 57.4424 149.718 58.798 150.545 59.6147C151.357 60.4313 152.573 60.856 154.147 60.856C155.721 60.856 156.889 60.3986 157.732 59.484C158.576 58.5694 158.998 57.2628 158.998 55.5478V44.0496C158.998 43.2819 159.257 42.6286 159.76 42.0896C160.263 41.567 160.912 41.3057 161.674 41.3057C162.437 41.3057 163.086 41.567 163.589 42.0896L163.621 42.0733Z" fill="white"/>
</g>
<defs>
<clipPath id="clip0_1389_3514">
<rect width="170" height="75" fill="white" transform="translate(0.5)"/>
</clipPath>
</defs>
</svg>
