<svg width="49" height="63" viewBox="0 0 49 63" fill="none" xmlns="http://www.w3.org/2000/svg">
<g clip-path="url(#clip0_1389_3547)">
<path d="M4.73486 22.2534V51.8597L24.7556 59.8176L44.7737 51.8597V22.2534H4.73486Z" fill="url(#paint0_linear_1389_3547)"/>
<path d="M24.7559 22.2534V59.8176L44.7739 52.1365V22.2534H24.7559Z" fill="url(#paint1_linear_1389_3547)"/>
<path d="M46.2133 52.61L24.756 61.3125L3.2986 52.61V49.2773H2.19141V53.3546L24.756 62.5083L47.3205 53.3546V49.2773H46.2133V52.61Z" fill="#54622B"/>
<path d="M48.9894 42.2243H46.2104V8.19199H35.5924L24.7558 1.93359L13.9164 8.19199H3.29843V42.2271H0.5V49.2771H3.29843V52.6097L24.7558 61.3123L46.2132 52.6097V49.2771H49.0116V42.2271H48.9922L48.9894 42.2243ZM44.7738 51.8596L24.7558 59.8176L4.73777 51.8596V49.2771H44.7738V51.8596ZM44.7738 42.2243H4.73501V22.2506H16.5764L24.7558 26.9727L32.9324 22.2506H44.7738V42.2243Z" fill="#6AA442"/>
<path d="M47.3204 40.2675V7.08502H36.1516V7.07118L35.8748 6.91064L25.0326 0.652242L24.7558 0.491699L24.479 0.652242L13.6341 6.91064L13.3573 7.07118V7.08502H2.19123V40.2454L0.5 42.2245H3.29843V8.19221H13.9164L24.7558 1.93382L35.5952 8.19221H46.2132V42.2245H48.9894L47.3204 40.2675Z" fill="#54622B"/>
<path d="M9.57076 46.6946C9.36316 47.4807 8.7376 48.2142 7.33147 48.2142C5.72881 48.2142 4.95654 47.107 4.95654 45.8808C4.95654 44.6546 5.80908 43.5391 7.3896 43.5391C8.76251 43.5391 9.44897 44.303 9.57907 45.0531H8.47741C8.38607 44.7957 8.14249 44.3833 7.37852 44.3833C6.53983 44.3833 6.10525 45.0227 6.10525 45.8393C6.10525 46.6558 6.50384 47.3755 7.38406 47.3755C8.02069 47.3755 8.30303 47.1264 8.47741 46.6946H9.57076Z" fill="white"/>
<path d="M14.1711 46.2241H11.6689V47.2455H14.4507L14.3261 48.1174H10.5811V43.6333H14.3068V44.5052H11.6689V45.355H14.1711V46.2269V46.2241Z" fill="white"/>
<path d="M16.6012 46.3902V48.1174H15.5244V43.6333H17.9658C18.9982 43.6333 19.5906 44.1426 19.5906 44.9149C19.5906 45.4934 19.2529 45.8338 18.81 45.975C18.9927 46.047 19.4743 46.2241 19.4743 47.0296V47.2538C19.4743 47.5611 19.4688 47.9071 19.5297 48.1174H18.4142C18.3394 47.9209 18.3311 47.6552 18.3311 47.1791V47.0324C18.3311 46.5784 18.1651 46.3902 17.5118 46.3902H16.6012ZM16.6012 45.5737H17.7222C18.2509 45.5737 18.4778 45.3827 18.4778 45.0062C18.4778 44.6519 18.2426 44.4499 17.7305 44.4499H16.6012V45.5737Z" fill="white"/>
<path d="M21.8937 44.4997H20.3159V43.6333H24.5537V44.4997H22.9815V48.1174H21.8937V44.4997Z" fill="white"/>
<path d="M26.5937 43.6333V48.1174H25.5059V43.6333H26.5937Z" fill="white"/>
<path d="M28.0249 43.6336H31.7146V44.5H29.1127V45.5186H31.5402V46.3905H29.1127V48.115H28.0249V43.6309V43.6336Z" fill="white"/>
<path d="M33.8237 43.6333V48.1174H32.7358V43.6333H33.8237Z" fill="white"/>
<path d="M38.842 46.2241H36.3398V47.2455H39.1216L38.997 48.1174H35.252V43.6333H38.9776V44.5052H36.3398V45.355H38.842V46.2269V46.2241Z" fill="white"/>
<path d="M40.1903 43.6336H42.2164C43.7277 43.6336 44.5526 44.6135 44.5526 45.7954C44.5526 47.2292 43.498 48.115 42.1915 48.115H40.1875V43.6309L40.1903 43.6336ZM41.2781 47.2735H42.0503C42.9278 47.2735 43.4011 46.778 43.4011 45.8259C43.4011 44.9955 42.9665 44.4834 42.0642 44.4696H41.2781V47.2707V47.2735Z" fill="white"/>
<path d="M7.4917 50.4067H8.60166C9.09989 50.4067 9.43205 50.6586 9.43205 51.0821C9.43205 51.5056 9.11927 51.7824 8.59335 51.7824H8.01485V52.5519H7.4917V50.4067ZM8.01485 51.3783H8.55183C8.77327 51.3783 8.91167 51.3036 8.91167 51.0904C8.91167 50.916 8.80372 50.8109 8.55183 50.8109H8.01485V51.3811V51.3783Z" fill="#54622B"/>
<path d="M11.5111 51.6468H10.3153V52.134H11.6467L11.5858 52.5519H9.79492V50.4067H11.5775V50.8247H10.3153V51.2316H11.5111V51.6496V51.6468Z" fill="#54622B"/>
<path d="M12.3858 51.9098C12.4467 52.0952 12.5961 52.217 12.9504 52.217C13.2826 52.217 13.3795 52.1146 13.3795 51.9762C13.3795 51.8295 13.2798 51.7465 12.8287 51.669C12.0841 51.5416 11.9484 51.3008 11.9484 51.0129C11.9484 50.5839 12.3609 50.3652 12.8674 50.3652C13.6037 50.3652 13.803 50.7444 13.8279 50.9936H13.3075C13.2771 50.8884 13.2051 50.7445 12.8508 50.7445C12.6017 50.7445 12.4771 50.8247 12.4771 50.9631C12.4771 51.0877 12.5657 51.1486 12.9671 51.2205C13.7808 51.3672 13.9082 51.6136 13.9082 51.9236C13.9082 52.2945 13.6175 52.5962 12.8979 52.5962C12.228 52.5962 11.9235 52.2973 11.8599 51.9098H12.3802H12.3858Z" fill="#54622B"/>
<path d="M14.8328 50.8219H14.0771V50.4067H16.1061V50.8219H15.3532V52.5519H14.8328V50.8219Z" fill="#54622B"/>
<path d="M19.2394 51.7298C19.2394 51.3589 19.2394 50.9742 19.2532 50.7389H19.2504C19.1452 51.1347 18.9432 51.763 18.6885 52.5519H18.229C18.0325 51.8599 17.8083 51.1458 17.6948 50.7389H17.6921C17.7087 50.988 17.728 51.406 17.728 51.7713V52.5519H17.2603V50.4067H18.0131C18.229 51.0711 18.4256 51.6523 18.4892 51.9485H18.492C18.5833 51.6108 18.7771 51.0461 18.9847 50.4067H19.7404V52.5519H19.2394V51.7298Z" fill="#54622B"/>
<path d="M20.7478 52.0648L20.5596 52.5519H20.0254L20.889 50.4067H21.5561L22.464 52.5519H21.9021L21.7028 52.0648H20.7478ZM21.5561 51.6496C21.3568 51.1569 21.2599 50.9077 21.2073 50.7444H21.2046C21.1575 50.905 21.044 51.2316 20.8807 51.6496H21.5561Z" fill="#54622B"/>
<path d="M22.7437 52.5519V50.4067H23.3609C23.9643 51.3257 24.2051 51.6606 24.338 51.9153H24.3435C24.3214 51.6911 24.3269 51.2897 24.3269 50.9354V50.4067H24.803V52.5519H24.2245C24.0225 52.2336 23.336 51.1679 23.2087 50.9216H23.2031C23.2197 51.1873 23.2197 51.4918 23.2197 51.871V52.5519H22.7437Z" fill="#54622B"/>
<path d="M25.8074 52.0648L25.6192 52.5519H25.085L25.9486 50.4067H26.6157L27.5235 52.5519H26.9616L26.7624 52.0648H25.8074ZM26.6184 51.6496C26.4191 51.1569 26.3222 50.9077 26.2697 50.7444H26.2669C26.2198 50.905 26.1063 51.2316 25.943 51.6496H26.6184Z" fill="#54622B"/>
<path d="M29.8682 52.5519H29.4917C29.4807 52.5049 29.4641 52.4108 29.4585 52.3333C29.3229 52.4938 29.1374 52.599 28.7361 52.599C28.0413 52.599 27.6538 52.1201 27.6538 51.4946C27.6538 50.869 28.0662 50.3652 28.833 50.3652C29.5222 50.3652 29.8184 50.7389 29.8765 51.0517H29.3533C29.3118 50.9437 29.1873 50.7583 28.8357 50.7583C28.3956 50.7583 28.2046 51.0711 28.2046 51.4697C28.2046 51.8904 28.4039 52.2059 28.8413 52.2059C29.2039 52.2059 29.37 52.0177 29.37 51.7631V51.7298H28.8468V51.3285H29.8737V52.5575L29.8682 52.5519Z" fill="#54622B"/>
<path d="M32.0799 51.6468H30.8841V52.134H32.2155L32.1547 52.5519H30.3638V50.4067H32.1463V50.8247H30.8841V51.2316H32.0799V51.6496V51.6468Z" fill="#54622B"/>
<path d="M34.5683 51.7298C34.5683 51.3589 34.5683 50.9742 34.5821 50.7389H34.5794C34.4742 51.1347 34.2721 51.763 34.0175 52.5519H33.558C33.3615 51.8599 33.1373 51.1458 33.0238 50.7389H33.021C33.0376 50.988 33.057 51.406 33.057 51.7713V52.5519H32.5864V50.4067H33.3393C33.5552 51.0711 33.7517 51.6523 33.8154 51.9485H33.8182C33.9095 51.6108 34.1033 51.0461 34.3109 50.4067H35.0665V52.5519H34.5655V51.7298H34.5683Z" fill="#54622B"/>
<path d="M37.3472 51.6468H36.1514V52.134H37.4828L37.4247 52.5519H35.6338V50.4067H37.4164V50.8247H36.1542V51.2316H37.3499V51.6496L37.3472 51.6468Z" fill="#54622B"/>
<path d="M37.8706 52.5519V50.4067H38.4879C39.0913 51.3257 39.3293 51.6606 39.465 51.9153H39.4705C39.4484 51.6911 39.4539 51.2897 39.4539 50.9354V50.4067H39.93V52.5519H39.3515C39.1494 52.2336 38.463 51.1679 38.3356 50.9216H38.3301C38.3467 51.1873 38.3467 51.4918 38.3467 51.871V52.5519H37.8706Z" fill="#54622B"/>
<path d="M41.0149 50.8219H40.2593V50.4067H42.2882V50.8219H41.5353V52.5519H41.0149V50.8219Z" fill="#54622B"/>
<path d="M31.1386 10.9959C30.394 10.7607 29.6218 10.6776 28.8384 10.7524C28.5229 10.7828 28.2129 10.8382 27.9139 10.9157C27.2081 10.4202 26.4524 10.0576 25.6885 9.8334C25.5888 8.4937 25.0269 7.18167 24.0055 6.15752C23.8229 5.97484 23.5239 5.97484 23.3412 6.15752C23.1585 6.34021 23.1585 6.63915 23.3412 6.82184C24.1273 7.61071 24.5896 8.60165 24.7252 9.62857C24.2214 9.55937 23.726 9.55383 23.2443 9.60919C23.2194 9.58151 23.1973 9.55383 23.1724 9.52892C22.0597 8.41619 20.2549 8.41619 19.1422 9.52892C18.0295 10.6416 18.0295 12.4464 19.1422 13.5591C19.1671 13.584 19.1948 13.6062 19.2225 13.6311C19.1643 14.1099 19.1726 14.6082 19.2418 15.1119C18.2149 14.9763 17.224 14.514 16.4351 13.7279C16.2524 13.5453 15.9535 13.5453 15.7708 13.7279C15.5881 13.9106 15.5881 14.2096 15.7708 14.3923C16.795 15.4164 18.107 15.9755 19.4467 16.0752C19.6681 16.8364 20.0307 17.592 20.529 18.3006C20.4515 18.5996 20.3961 18.9068 20.3656 19.2251C20.2909 20.0085 20.374 20.7808 20.6092 21.5226C20.6867 21.7689 20.9497 21.9073 21.1988 21.827C21.2735 21.8049 21.3372 21.7634 21.3898 21.7108C21.5088 21.5918 21.5614 21.4091 21.5061 21.2375C21.3095 20.6147 21.2403 19.967 21.3012 19.311C21.3012 19.2888 21.3068 19.2694 21.3095 19.2473C21.3594 19.2971 21.4064 19.3497 21.4562 19.3995C21.8991 19.8424 22.3807 20.2216 22.879 20.5399C23.1475 21.4202 23.6291 22.2478 24.3239 22.9425C24.8802 23.4989 25.5279 23.9279 26.2504 24.2213C26.4303 24.2933 26.6296 24.2463 26.7597 24.1189C26.804 24.0746 26.8372 24.0248 26.8621 23.9639C26.959 23.7231 26.8427 23.4491 26.6047 23.3522C25.9985 23.1059 25.456 22.746 24.9909 22.2782C24.6643 21.9516 24.3931 21.5862 24.1799 21.2015C26.1092 21.9599 28.1492 21.816 29.5802 20.6922L29.6522 20.6202L27.3077 18.2757L27.471 20.2936C27.4794 20.3988 27.4406 20.4957 27.3714 20.5676C27.316 20.623 27.2385 20.6617 27.1555 20.6673C26.9645 20.6839 26.7984 20.5399 26.7818 20.3517L26.5548 17.5228L25.1321 16.1001L25.4283 19.7843C25.4366 19.8895 25.3978 19.9863 25.3286 20.0583C25.2733 20.1137 25.1985 20.1524 25.1127 20.158C24.9217 20.1746 24.7557 20.0306 24.7391 19.8424L24.3764 15.3472L22.915 13.8857L23.3246 18.9677C23.3329 19.0729 23.2942 19.1698 23.225 19.2418C23.1696 19.2971 23.0949 19.3359 23.0091 19.3414C22.8181 19.358 22.652 19.2141 22.6354 19.0259L22.1399 12.9003C22.1399 12.9003 22.1427 12.8809 22.1427 12.8726C22.1427 12.8643 22.1372 12.8533 22.1399 12.845C22.1399 12.8311 22.1482 12.82 22.151 12.8062C22.1565 12.7841 22.1621 12.7619 22.1704 12.7398C22.1787 12.7176 22.1897 12.701 22.2036 12.6816C22.2147 12.6623 22.2285 12.6457 22.2451 12.6318C22.2617 12.6152 22.2783 12.6041 22.2977 12.5903C22.3143 12.5792 22.3337 12.5682 22.3531 12.5599C22.3752 12.5516 22.3973 12.546 22.4195 12.5405C22.4333 12.5405 22.4444 12.5294 22.4582 12.5294C22.4693 12.5294 22.4776 12.5322 22.4859 12.5322C22.4942 12.5322 22.5053 12.5294 22.5136 12.5294L28.6391 13.0249C28.8301 13.0415 28.9713 13.2076 28.9547 13.3986C28.9492 13.4844 28.9104 13.5591 28.855 13.6145C28.7858 13.6837 28.689 13.7224 28.581 13.7141L23.499 13.3044L24.9605 14.7659L29.4557 15.1285C29.6467 15.1451 29.7878 15.3112 29.7712 15.5022C29.7657 15.588 29.727 15.6628 29.6716 15.7181C29.6024 15.7873 29.5055 15.8261 29.3976 15.8178L25.7134 15.5216L27.1361 16.9443L29.965 17.1741C30.156 17.1907 30.2972 17.3568 30.2805 17.5478C30.275 17.6336 30.2363 17.7083 30.1809 17.7637C30.1117 17.8329 30.0148 17.8716 29.9069 17.8633L27.889 17.7L30.2335 20.0445L30.3055 19.9725C31.4293 18.5415 31.5732 16.5015 30.8148 14.5722C31.2023 14.7881 31.5649 15.0566 31.8915 15.3832C32.3565 15.8482 32.7191 16.3935 32.9627 16.9969C33.0596 17.2377 33.3336 17.354 33.5744 17.2543C33.6353 17.2294 33.6879 17.1935 33.7295 17.1519C33.8595 17.0218 33.9066 16.8225 33.8319 16.6426C33.5385 15.9202 33.1094 15.2725 32.5531 14.7161C31.8583 14.0213 31.0307 13.5397 30.1505 13.2712C29.8349 12.773 29.4557 12.2941 29.01 11.8485C28.9602 11.7987 28.9076 11.7516 28.8578 11.7018C28.8799 11.7018 28.8993 11.6962 28.9215 11.6935C29.5775 11.6326 30.2252 11.7018 30.848 11.8983C31.0196 11.9537 31.2023 11.9038 31.3213 11.7821C31.3739 11.7295 31.4126 11.6658 31.4376 11.5911C31.5151 11.3447 31.3794 11.079 31.1331 11.0015L31.1386 10.9959Z" fill="white"/>
<path d="M11.5002 38.4959H10.5868C10.5563 38.3464 10.5286 37.9921 10.5203 37.8011C10.2878 38.4073 9.78958 38.6177 9.22491 38.6177C7.97932 38.6177 7.5752 37.707 7.5752 36.2704V32.0769C7.5752 30.6542 8.1371 29.6826 9.55153 29.6826C11.2455 29.6826 11.4725 30.9088 11.4725 31.9164V32.1738H10.3072V31.8693C10.3072 31.3489 10.238 30.7455 9.546 30.7455C9.00901 30.7455 8.75989 31.1026 8.75989 31.9191V36.3784C8.75989 37.1423 8.97026 37.5824 9.51832 37.5824C10.1909 37.5824 10.3293 36.9901 10.3293 36.0074V34.6899H9.48233V33.6823H11.4974V38.4959H11.5002Z" fill="#54622B"/>
<path d="M13.6204 34.5376V38.4958H12.4551V29.8071H14.1685C15.4832 29.8071 16.2057 30.3497 16.2057 31.861V32.2208C16.2057 33.4913 15.713 33.8899 15.3199 34.0394C15.8459 34.2636 16.1199 34.6483 16.1199 35.8219C16.1199 36.5582 16.106 37.9616 16.2029 38.4958H15.0736C14.9601 37.9644 14.9822 36.5222 14.9822 35.8994C14.9822 34.8116 14.8355 34.5376 14.0245 34.5376H13.6176H13.6204ZM13.6204 33.566H14.0384C14.7968 33.566 15.0376 33.209 15.0376 32.2734V31.9385C15.0376 31.216 14.866 30.7787 14.0605 30.7787H13.6204V33.5688V33.566Z" fill="#54622B"/>
<path d="M20.0694 34.4269H18.1429V37.4246H20.3489L20.1967 38.4958H16.9775V29.8071H20.1773V30.8866H18.1429V33.3557H20.0694V34.4269Z" fill="#54622B"/>
<path d="M23.8062 34.4269H21.8797V37.4246H24.0858L23.9335 38.4958H20.7144V29.8071H23.9141V30.8866H21.8797V33.3557H23.8062V34.4269Z" fill="#54622B"/>
<path d="M24.4624 38.4958V29.8071H25.8242C26.2228 31.1939 27.33 35.595 27.4435 36.1624H27.4601C27.402 35.0524 27.3937 33.829 27.3937 32.4063V29.8099H28.476V38.4986H27.1612C26.8069 37.2115 25.6139 32.4367 25.4949 31.9357H25.481C25.5419 32.9848 25.5475 34.2525 25.5475 35.8164V38.4986H24.4541L24.4624 38.4958Z" fill="#54622B"/>
<path d="M29.3174 29.8071H31.1055C32.448 29.8071 33.115 30.477 33.115 31.9578V32.4782C33.115 33.8594 32.6528 34.8172 31.0363 34.8172H30.4827V38.4986H29.3174V29.8099V29.8071ZM30.4827 33.8511H30.9117C31.8113 33.8511 31.9525 33.3142 31.9525 32.4422V31.9994C31.9525 31.3378 31.8224 30.7759 31.0142 30.7759H30.4799V33.8511H30.4827Z" fill="#54622B"/>
<path d="M34.7537 34.5376V38.4958H33.5884V29.8071H35.3018C36.6165 29.8071 37.339 30.3497 37.339 31.861V32.2208C37.339 33.4913 36.8463 33.8899 36.4532 34.0394C36.9792 34.2636 37.2532 34.6483 37.2532 35.8219C37.2532 36.5582 37.2393 37.9616 37.3362 38.4958H36.2069C36.0934 37.9644 36.1155 36.5222 36.1155 35.8994C36.1155 34.8116 35.9688 34.5376 35.1578 34.5376H34.7509H34.7537ZM34.7537 33.566H35.1717C35.9301 33.566 36.1709 33.209 36.1709 32.2734V31.9385C36.1709 31.216 35.9993 30.7787 35.1938 30.7787H34.7537V33.5688V33.566Z" fill="#54622B"/>
<path d="M41.9364 32.0413V36.2347C41.9364 37.8402 41.2638 38.6207 39.866 38.6207C38.4682 38.6207 37.9062 37.7931 37.9062 36.2541V32.0385C37.9062 30.4524 38.673 29.6885 39.9407 29.6885C41.2084 29.6885 41.9364 30.4995 41.9364 32.044V32.0413ZM39.0937 31.9471V36.3759C39.0937 37.2063 39.3927 37.5661 39.9186 37.5661C40.4777 37.5661 40.749 37.2229 40.749 36.3482V31.9416C40.749 31.1527 40.4943 30.7458 39.913 30.7458C39.3705 30.7458 39.0909 31.1223 39.0909 31.9471H39.0937Z" fill="#54622B"/>
</g>
<defs>
<linearGradient id="paint0_linear_1389_3547" x1="24.7556" y1="22.2534" x2="24.7556" y2="59.8176" gradientUnits="userSpaceOnUse">
<stop stop-color="white"/>
<stop offset="1" stop-color="#E5E5E4"/>
</linearGradient>
<linearGradient id="paint1_linear_1389_3547" x1="34.7649" y1="59.8176" x2="34.7649" y2="22.2534" gradientUnits="userSpaceOnUse">
<stop stop-color="white"/>
<stop offset="1" stop-color="#E5E5E4"/>
</linearGradient>
<clipPath id="clip0_1389_3547">
<rect width="48.5088" height="62.0166" fill="white" transform="translate(0.5 0.491699)"/>
</clipPath>
</defs>
</svg>
