<svg width="56" height="72" viewBox="0 0 56 72" fill="none" xmlns="http://www.w3.org/2000/svg">
<g clip-path="url(#clip0_1389_1874)">
<path d="M4.91943 25.2441V59.4023L28.0184 68.5838L51.1141 59.4023V25.2441H4.91943Z" fill="url(#paint0_linear_1389_1874)"/>
<path d="M28.0181 25.2441V68.5838L51.1138 59.7217V25.2441H28.0181Z" fill="url(#paint1_linear_1389_1874)"/>
<path d="M52.7746 60.2674L28.0182 70.3079L3.26179 60.2674V56.4224H1.98438V61.1265L28.0182 71.6875L54.052 61.1265V56.4224H52.7746V60.2674Z" fill="#54622B"/>
<path d="M55.9778 48.2856H52.7715V9.02091H40.521L28.0183 1.80029L15.5123 9.02091H3.26188V48.2888H0.0332031V56.4227H3.26188V60.2678L28.0183 70.3083L52.7747 60.2678V56.4227H56.0033V48.2888H55.981L55.9778 48.2856ZM51.114 59.4023L28.0183 68.5838L4.92253 59.4023V56.4227H51.114V59.4023ZM51.114 48.2856H4.91933V25.2409H18.5813L28.0183 30.6891L37.452 25.2409H51.114V48.2856Z" fill="#6AA442"/>
<path d="M54.0521 46.0275V7.74326H41.1661V7.7273L40.8468 7.54207L28.3376 0.321456L28.0183 0.13623L27.6989 0.321456L15.1866 7.54207L14.8672 7.7273V7.74326H1.98446V46.002L0.0332031 48.2854H3.26188V9.02068H15.5123L28.0183 1.80007L40.5242 9.02068H52.7747V48.2854H55.9778L54.0521 46.0275Z" fill="#54622B"/>
<path d="M10.4984 53.4429C10.2589 54.3499 9.53719 55.1961 7.91487 55.1961C6.0658 55.1961 5.1748 53.9187 5.1748 52.504C5.1748 51.0892 6.15842 49.8022 7.98193 49.8022C9.56593 49.8022 10.3579 50.6837 10.508 51.5491H9.237C9.13161 51.2521 8.85058 50.7763 7.96916 50.7763C7.00151 50.7763 6.50013 51.514 6.50013 52.4561C6.50013 53.3982 6.96 54.2285 7.97555 54.2285C8.71006 54.2285 9.0358 53.9411 9.237 53.4429H10.4984Z" fill="white"/>
<path d="M15.8061 52.8998H12.9191V54.0782H16.1286L15.9849 55.0842H11.6641V49.9106H15.9626V50.9166H12.9191V51.897H15.8061V52.903V52.8998Z" fill="white"/>
<path d="M18.61 53.0914V55.0842H17.3677V49.9106H20.1844C21.3756 49.9106 22.059 50.4983 22.059 51.3893C22.059 52.0567 21.6694 52.4495 21.1584 52.6124C21.3692 52.6954 21.9249 52.8998 21.9249 53.8291V54.0878C21.9249 54.4423 21.9185 54.8415 21.9887 55.0842H20.7017C20.6155 54.8575 20.6059 54.5509 20.6059 54.0016V53.8323C20.6059 53.3086 20.4143 53.0914 19.6606 53.0914H18.61ZM18.61 52.1493H19.9034C20.5133 52.1493 20.7752 51.929 20.7752 51.4946C20.7752 51.0859 20.5037 50.8527 19.9129 50.8527H18.61V52.1493Z" fill="white"/>
<path d="M24.7163 50.9102H22.896V49.9106H27.7853V50.9102H25.9714V55.0842H24.7163V50.9102Z" fill="white"/>
<path d="M30.1389 49.9106V55.0842H28.8838V49.9106H30.1389Z" fill="white"/>
<path d="M31.79 49.9109H36.047V50.9105H33.0451V52.0857H35.8458V53.0917H33.0451V55.0813H31.79V49.9077V49.9109Z" fill="white"/>
<path d="M38.4802 49.9106V55.0842H37.2251V49.9106H38.4802Z" fill="white"/>
<path d="M44.2705 52.8998H41.3835V54.0782H44.593L44.4493 55.0842H40.1284V49.9106H44.4269V50.9166H41.3835V51.897H44.2705V52.903V52.8998Z" fill="white"/>
<path d="M45.8255 49.9109H48.1631C49.9068 49.9109 50.8585 51.0414 50.8585 52.4051C50.8585 54.0593 49.6417 55.0813 48.1344 55.0813H45.8223V49.9077L45.8255 49.9109ZM47.0805 54.1104H47.9715C48.9839 54.1104 49.53 53.5388 49.53 52.4402C49.53 51.4821 49.0286 50.8913 47.9875 50.8754H47.0805V54.1072V54.1104Z" fill="white"/>
<path d="M8.1001 57.7256H9.38071C9.95555 57.7256 10.3388 58.0162 10.3388 58.5048C10.3388 58.9934 9.9779 59.3128 9.37113 59.3128H8.70368V60.2006H8.1001V57.7256ZM8.70368 58.8465H9.32323C9.57871 58.8465 9.73839 58.7603 9.73839 58.5144C9.73839 58.3132 9.61384 58.1918 9.32323 58.1918H8.70368V58.8497V58.8465Z" fill="#54622B"/>
<path d="M12.7373 59.1563H11.3577V59.7184H12.8938L12.8235 60.2006H10.7573V57.7256H12.814V58.2078H11.3577V58.6773H12.7373V59.1595V59.1563Z" fill="#54622B"/>
<path d="M13.7464 59.4597C13.8167 59.6737 13.9891 59.8142 14.3979 59.8142C14.7811 59.8142 14.8929 59.6961 14.8929 59.5364C14.8929 59.3671 14.7779 59.2713 14.2574 59.1819C13.3983 59.035 13.2418 58.7572 13.2418 58.425C13.2418 57.93 13.7177 57.6777 14.3021 57.6777C15.1516 57.6777 15.3815 58.1153 15.4103 58.4027H14.8099C14.7747 58.2813 14.6917 58.1153 14.2829 58.1153C13.9955 58.1153 13.8518 58.2079 13.8518 58.3675C13.8518 58.5113 13.954 58.5815 14.4171 58.6645C15.356 58.8338 15.5029 59.118 15.5029 59.4757C15.5029 59.9036 15.1676 60.2517 14.3372 60.2517C13.5644 60.2517 13.2131 59.9068 13.1396 59.4597H13.74H13.7464Z" fill="#54622B"/>
<path d="M16.5696 58.2046H15.6978V57.7256H18.0386V58.2046H17.17V60.2006H16.5696V58.2046Z" fill="#54622B"/>
<path d="M21.6535 59.2521C21.6535 58.8242 21.6535 58.3803 21.6695 58.1088H21.6663C21.5449 58.5655 21.3118 59.2904 21.018 60.2006H20.4879C20.2611 59.4022 20.0024 58.5783 19.8715 58.1088H19.8683C19.8875 58.3962 19.9098 58.8785 19.9098 59.3V60.2006H19.3701V57.7256H20.2388C20.4879 58.492 20.7146 59.1627 20.7881 59.5044H20.7912C20.8966 59.1148 21.1202 58.4633 21.3597 57.7256H22.2315V60.2006H21.6535V59.2521Z" fill="#54622B"/>
<path d="M23.3941 59.6385L23.1769 60.2006H22.5605L23.5569 57.7256H24.3266L25.3741 60.2006H24.7258L24.4958 59.6385H23.3941ZM24.3266 59.1595C24.0966 58.591 23.9849 58.3036 23.9242 58.1152H23.921C23.8667 58.3004 23.7358 58.6773 23.5474 59.1595H24.3266Z" fill="#54622B"/>
<path d="M25.6968 60.2006V57.7256H26.4089C27.1051 58.7858 27.383 59.1723 27.5363 59.4661H27.5426C27.5171 59.2074 27.5235 58.7443 27.5235 58.3356V57.7256H28.0728V60.2006H27.4053C27.1722 59.8333 26.3802 58.6038 26.2333 58.3196H26.2269C26.2461 58.6262 26.2461 58.9775 26.2461 59.415V60.2006H25.6968Z" fill="#54622B"/>
<path d="M29.232 59.6385L29.0148 60.2006H28.3984L29.3948 57.7256H30.1645L31.212 60.2006H30.5637L30.3337 59.6385H29.232ZM30.1677 59.1595C29.9377 58.591 29.826 58.3036 29.7653 58.1152H29.7621C29.7078 58.3004 29.5769 58.6773 29.3884 59.1595H30.1677Z" fill="#54622B"/>
<path d="M33.9167 60.2006H33.4823C33.4696 60.1464 33.4504 60.0378 33.444 59.9483C33.2875 60.1336 33.0736 60.2549 32.6105 60.2549C31.8089 60.2549 31.3618 59.7024 31.3618 58.9807C31.3618 58.259 31.8377 57.6777 32.7223 57.6777C33.5175 57.6777 33.8592 58.1089 33.9262 58.4697H33.3227C33.2748 58.3452 33.131 58.1312 32.7255 58.1312C32.2177 58.1312 31.9973 58.4921 31.9973 58.952C31.9973 59.4374 32.2273 59.8014 32.7318 59.8014C33.1502 59.8014 33.3418 59.5843 33.3418 59.2905V59.2522H32.7382V58.7891H33.923V60.207L33.9167 60.2006Z" fill="#54622B"/>
<path d="M36.4683 59.1563H35.0887V59.7184H36.6248L36.5545 60.2006H34.4883V57.7256H36.5449V58.2078H35.0887V58.6773H36.4683V59.1595V59.1563Z" fill="#54622B"/>
<path d="M39.3393 59.2521C39.3393 58.8242 39.3393 58.3803 39.3553 58.1088H39.3521C39.2307 58.5655 38.9976 59.2904 38.7038 60.2006H38.1737C37.9469 59.4022 37.6883 58.5783 37.5573 58.1088H37.5541C37.5733 58.3962 37.5956 58.8785 37.5956 59.3V60.2006H37.0527V57.7256H37.9214C38.1705 58.492 38.3972 59.1627 38.4707 59.5044H38.4739C38.5793 59.1148 38.8028 58.4633 39.0423 57.7256H39.9142V60.2006H39.3361V59.2521H39.3393Z" fill="#54622B"/>
<path d="M42.5457 59.1563H41.166V59.7184H42.7021L42.6351 60.2006H40.5688V57.7256H42.6255V58.2078H41.1692V58.6773H42.5488V59.1595L42.5457 59.1563Z" fill="#54622B"/>
<path d="M43.1494 60.2006V57.7256H43.8616C44.5578 58.7858 44.8324 59.1723 44.9889 59.4661H44.9953C44.9697 59.2074 44.9761 58.7443 44.9761 58.3356V57.7256H45.5254V60.2006H44.858C44.6248 59.8333 43.8328 58.6038 43.6859 58.3196H43.6795C43.6987 58.6262 43.6987 58.9775 43.6987 59.415V60.2006H43.1494Z" fill="#54622B"/>
<path d="M46.7771 58.2046H45.9053V57.7256H48.2461V58.2046H47.3775V60.2006H46.7771V58.2046Z" fill="#54622B"/>
<path d="M35.3828 12.2555C34.5237 11.9841 33.6327 11.8883 32.729 11.9745C32.3649 12.0096 32.0072 12.0735 31.6623 12.1629C30.848 11.5913 29.9761 11.1729 29.0947 10.9142C28.9797 9.36857 28.3314 7.85483 27.153 6.67322C26.9423 6.46244 26.5974 6.46244 26.3866 6.67322C26.1758 6.88399 26.1758 7.2289 26.3866 7.43967C27.2935 8.34983 27.8269 9.49312 27.9833 10.6779C27.4021 10.5981 26.8305 10.5917 26.2748 10.6556C26.2461 10.6236 26.2205 10.5917 26.1918 10.563C24.908 9.27915 22.8258 9.27915 21.542 10.563C20.2582 11.8468 20.2582 13.929 21.542 15.2128C21.5707 15.2415 21.6026 15.2671 21.6346 15.2958C21.5675 15.8483 21.5771 16.4231 21.6569 17.0043C20.4721 16.8479 19.3288 16.3145 18.4187 15.4076C18.2079 15.1968 17.863 15.1968 17.6522 15.4076C17.4414 15.6183 17.4414 15.9633 17.6522 16.174C18.8338 17.3556 20.3476 18.0007 21.8933 18.1157C22.1487 18.9939 22.5671 19.8658 23.1419 20.6833C23.0525 21.0282 22.9886 21.3827 22.9535 21.75C22.8673 22.6537 22.9631 23.5447 23.2345 24.4006C23.324 24.6848 23.6274 24.8445 23.9148 24.7519C24.001 24.7263 24.0744 24.6784 24.1351 24.6178C24.2724 24.4804 24.3331 24.2697 24.2693 24.0717C24.0425 23.3531 23.9627 22.6058 24.0329 21.849C24.0329 21.8234 24.0393 21.8011 24.0425 21.7755C24.1 21.833 24.1543 21.8937 24.2118 21.9512C24.7227 22.4621 25.2784 22.8996 25.8533 23.2669C26.163 24.2824 26.7187 25.2373 27.5203 26.0389C28.1622 26.6808 28.9095 27.1758 29.743 27.5143C29.9506 27.5973 30.1805 27.5431 30.3306 27.3962C30.3817 27.3451 30.42 27.2876 30.4488 27.2173C30.5605 26.9395 30.4264 26.6233 30.1518 26.5115C29.4524 26.2273 28.8264 25.8122 28.2899 25.2724C27.9131 24.8956 27.6001 24.4741 27.3542 24.0302C29.5801 24.9052 31.9338 24.7391 33.5848 23.4425L33.6679 23.3595L30.9629 20.6546L31.1514 22.9827C31.1609 23.104 31.1162 23.2158 31.0364 23.2988C30.9725 23.3627 30.8831 23.4074 30.7873 23.4138C30.5669 23.433 30.3753 23.2669 30.3562 23.0497L30.0943 19.7859L28.4528 18.1444L28.7945 22.3951C28.8041 22.5164 28.7594 22.6282 28.6795 22.7112C28.6157 22.7751 28.5294 22.8198 28.4304 22.8262C28.2101 22.8453 28.0185 22.6793 27.9993 22.4621L27.581 17.2758L25.8948 15.5896L26.3674 21.453C26.377 21.5743 26.3323 21.6861 26.2524 21.7691C26.1886 21.833 26.1024 21.8777 26.0034 21.8841C25.783 21.9032 25.5914 21.7372 25.5722 21.52L25.0006 14.4527C25.0006 14.4527 25.0038 14.4303 25.0038 14.4208C25.0038 14.4112 24.9974 14.3984 25.0006 14.3888C25.0006 14.3729 25.0102 14.3601 25.0134 14.3441C25.0197 14.3186 25.0261 14.293 25.0357 14.2675C25.0453 14.2419 25.0581 14.2228 25.074 14.2004C25.0868 14.1781 25.1028 14.1589 25.1219 14.1429C25.1411 14.1238 25.1603 14.111 25.1826 14.095C25.2018 14.0822 25.2241 14.0695 25.2465 14.0599C25.272 14.0503 25.2976 14.0439 25.3231 14.0375C25.3391 14.0375 25.3519 14.0248 25.3678 14.0248C25.3806 14.0248 25.3902 14.028 25.3998 14.028C25.4094 14.028 25.4221 14.0248 25.4317 14.0248L32.499 14.5964C32.7194 14.6156 32.8823 14.8072 32.8631 15.0275C32.8567 15.1265 32.812 15.2128 32.7481 15.2766C32.6683 15.3565 32.5565 15.4012 32.432 15.3916L26.5686 14.919L28.2548 16.6052L33.4411 17.0235C33.6615 17.0427 33.8244 17.2343 33.8052 17.4546C33.7988 17.5536 33.7541 17.6399 33.6902 17.7037C33.6104 17.7836 33.4986 17.8283 33.3741 17.8187L29.1234 17.477L30.7649 19.1185L34.0287 19.3835C34.2491 19.4027 34.412 19.5943 34.3928 19.8147C34.3864 19.9137 34.3417 19.9999 34.2778 20.0638C34.198 20.1436 34.0862 20.1883 33.9617 20.1787L31.6336 19.9903L34.3385 22.6952L34.4215 22.6122C35.7181 20.9612 35.8842 18.6075 35.0092 16.3816C35.4563 16.6307 35.8746 16.9405 36.2514 17.3173C36.788 17.8538 37.2063 18.483 37.4874 19.1792C37.5991 19.457 37.9153 19.5911 38.1931 19.4762C38.2634 19.4474 38.3241 19.4059 38.372 19.358C38.5221 19.2079 38.5764 18.978 38.4901 18.7704C38.1516 17.9369 37.6566 17.1896 37.0147 16.5477C36.2131 15.7461 35.2583 15.1904 34.2427 14.8806C33.8786 14.3058 33.4411 13.7533 32.927 13.2392C32.8695 13.1817 32.8088 13.1274 32.7513 13.0699C32.7769 13.0699 32.7992 13.0635 32.8248 13.0603C33.5816 12.9901 34.3289 13.0699 35.0475 13.2966C35.2455 13.3605 35.4563 13.303 35.5936 13.1625C35.6543 13.1018 35.699 13.0284 35.7277 12.9422C35.8171 12.6579 35.6606 12.3513 35.3764 12.2619L35.3828 12.2555Z" fill="white"/>
<path d="M12.7243 43.9837H11.6704C11.6353 43.8112 11.6033 43.4025 11.5937 43.1821C11.3255 43.8815 10.7506 44.1242 10.0992 44.1242C8.66206 44.1242 8.1958 43.0735 8.1958 41.4161V36.5778C8.1958 34.9364 8.84409 33.8154 10.476 33.8154C12.4304 33.8154 12.6923 35.2302 12.6923 36.3926V36.6896H11.3478V36.3383C11.3478 35.7379 11.268 35.0418 10.4696 35.0418C9.85006 35.0418 9.56264 35.4537 9.56264 36.3958V41.5406C9.56264 42.422 9.80535 42.9298 10.4377 42.9298C11.2137 42.9298 11.3734 42.2464 11.3734 41.1127V39.5926H10.3962V38.4301H12.7211V43.9837H12.7243Z" fill="#54622B"/>
<path d="M15.1707 39.4168V43.9835H13.8262V33.959H15.803C17.3199 33.959 18.1534 34.5849 18.1534 36.3286V36.7438C18.1534 38.2096 17.585 38.6695 17.1315 38.8419C17.7383 39.1006 18.0544 39.5445 18.0544 40.8986C18.0544 41.748 18.0385 43.3672 18.1502 43.9835H16.8473C16.7163 43.3704 16.7419 41.7065 16.7419 40.988C16.7419 39.7329 16.5726 39.4168 15.6369 39.4168H15.1675H15.1707ZM15.1707 38.2958H15.6529C16.5279 38.2958 16.8058 37.8839 16.8058 36.8044V36.418C16.8058 35.5845 16.6078 35.0799 15.6784 35.0799H15.1707V38.299V38.2958Z" fill="#54622B"/>
<path d="M22.6116 39.289H20.3889V42.7476H22.9342L22.7585 43.9835H19.0444V33.959H22.7362V35.2045H20.3889V38.0531H22.6116V39.289Z" fill="#54622B"/>
<path d="M26.9227 39.289H24.7V42.7476H27.2452L27.0696 43.9835H23.3555V33.959H27.0472V35.2045H24.7V38.0531H26.9227V39.289Z" fill="#54622B"/>
<path d="M27.68 43.9835V33.959H29.2512C29.7111 35.559 30.9885 40.6367 31.1194 41.2914H31.1386C31.0715 40.0108 31.062 38.5992 31.062 36.9577V33.9622H32.3106V43.9867H30.7937C30.3849 42.5017 29.0085 36.9929 28.8712 36.4148H28.8552C28.9255 37.6252 28.9319 39.0878 28.9319 40.8922V43.9867H27.6704L27.68 43.9835Z" fill="#54622B"/>
<path d="M33.2812 33.959H35.3443C36.8932 33.959 37.6628 34.7318 37.6628 36.4404V37.0408C37.6628 38.6343 37.1295 39.7393 35.2644 39.7393H34.6257V43.9867H33.2812V33.9622V33.959ZM34.6257 38.6248H35.1207C36.1586 38.6248 36.3215 38.0052 36.3215 36.9992V36.4883C36.3215 35.725 36.1714 35.0767 35.2389 35.0767H34.6225V38.6248H34.6257Z" fill="#54622B"/>
<path d="M39.5535 39.4168V43.9835H38.209V33.959H40.1858C41.7027 33.959 42.5362 34.5849 42.5362 36.3286V36.7438C42.5362 38.2096 41.9678 38.6695 41.5143 38.8419C42.1211 39.1006 42.4372 39.5445 42.4372 40.8986C42.4372 41.748 42.4213 43.3672 42.533 43.9835H41.2301C41.0991 43.3704 41.1247 41.7065 41.1247 40.988C41.1247 39.7329 40.9554 39.4168 40.0197 39.4168H39.5503H39.5535ZM39.5535 38.2958H40.0357C40.9107 38.2958 41.1886 37.8839 41.1886 36.8044V36.418C41.1886 35.5845 40.9906 35.0799 40.0612 35.0799H39.5535V38.299V38.2958Z" fill="#54622B"/>
<path d="M47.8407 36.5363V41.3745C47.8407 43.2268 47.0647 44.1274 45.452 44.1274C43.8392 44.1274 43.1909 43.1725 43.1909 41.3969V36.5331C43.1909 34.7032 44.0755 33.8218 45.5382 33.8218C47.0008 33.8218 47.8407 34.7575 47.8407 36.5395V36.5363ZM44.5609 36.4277V41.5374C44.5609 42.4955 44.9059 42.9106 45.5126 42.9106C46.1577 42.9106 46.4707 42.5146 46.4707 41.5055V36.4213C46.4707 35.5112 46.1769 35.0417 45.5062 35.0417C44.8803 35.0417 44.5578 35.476 44.5578 36.4277H44.5609Z" fill="#54622B"/>
</g>
<defs>
<linearGradient id="paint0_linear_1389_1874" x1="28.0184" y1="25.2441" x2="28.0184" y2="68.5838" gradientUnits="userSpaceOnUse">
<stop stop-color="white"/>
<stop offset="1" stop-color="#E5E5E4"/>
</linearGradient>
<linearGradient id="paint1_linear_1389_1874" x1="39.5659" y1="68.5838" x2="39.5659" y2="25.2441" gradientUnits="userSpaceOnUse">
<stop stop-color="white"/>
<stop offset="1" stop-color="#E5E5E4"/>
</linearGradient>
<clipPath id="clip0_1389_1874">
<rect width="55.9669" height="71.5515" fill="white" transform="translate(0.0332031 0.13623)"/>
</clipPath>
</defs>
</svg>
