<svg width="70" height="70" viewBox="0 0 70 70" fill="none" xmlns="http://www.w3.org/2000/svg">
<path d="M8.68213 50.0567V37.4529C8.68213 23.3124 20.4634 11.8506 34.9979 11.8506C49.5324 11.8506 61.3137 23.3124 61.3137 37.4529V50.0567" stroke="#0B3A7C" stroke-width="2.48" stroke-linecap="round" stroke-linejoin="round"/>
<path d="M8.68205 50.1533L7.37015 56.7281C6.74872 59.8392 10.0975 62.2659 12.9846 60.8006C26.7768 53.7892 43.2231 53.7892 57.0154 60.8006C59.9024 62.2659 63.2512 59.8392 62.6298 56.7281L61.3179 50.1533" stroke="#0B3A7C" stroke-width="2.48" stroke-linecap="round" stroke-linejoin="round"/>
<path d="M8.68213 50.1536C25.396 42.7307 44.5998 42.7307 61.3137 50.1536" stroke="#0B3A7C" stroke-width="2.48" stroke-linecap="round" stroke-linejoin="round"/>
<path d="M22.8755 33.599C25.0246 31.6719 28.8956 29.3711 35.1099 29.3711C41.3241 29.3711 44.7808 31.6383 47.1328 33.6074" stroke="#7BC6E7" stroke-width="2.48" stroke-linecap="round" stroke-linejoin="round"/>
<path d="M34.998 11.8506V22.2166" stroke="#0B3A7C" stroke-width="2.48" stroke-linecap="round" stroke-linejoin="round"/>
<path d="M32.3828 10.3814C32.3828 9.48708 33.4487 8.76074 34.7693 8.76074C36.0898 8.76074 37.1557 9.48708 37.1557 10.3814" stroke="#0B3A7C" stroke-width="2.48" stroke-linecap="round" stroke-linejoin="round"/>
</svg>
