<svg width="71" height="70" viewBox="0 0 71 70" fill="none" xmlns="http://www.w3.org/2000/svg">
<path d="M31.6294 15.1549V6.79639H46.294V27.4195" stroke="#7CC7E7" stroke-width="2.48272" stroke-linecap="round" stroke-linejoin="round"/>
<path d="M3.14453 63.2041H68.5725" stroke="#0B3A7C" stroke-width="2.48272" stroke-linecap="round" stroke-linejoin="round"/>
<path d="M6.18994 62.5584V29.7534H24.4462V63.204" stroke="#0B3A7C" stroke-width="2.48272" stroke-linecap="round" stroke-linejoin="round"/>
<path d="M42.3052 33.1299H50.283" stroke="#0B3A7C" stroke-width="2.48272" stroke-linecap="round" stroke-linejoin="round"/>
<path d="M42.3052 37.8467H50.283" stroke="#0B3A7C" stroke-width="2.48272" stroke-linecap="round" stroke-linejoin="round"/>
<path d="M42.3052 42.5479H50.283" stroke="#0B3A7C" stroke-width="2.48272" stroke-linecap="round" stroke-linejoin="round"/>
<path d="M11.3374 35.9937H19.3152" stroke="#7CC7E7" stroke-width="2.48272" stroke-linecap="round" stroke-linejoin="round"/>
<path d="M11.3374 40.7109H19.3152" stroke="#7CC7E7" stroke-width="2.48272" stroke-linecap="round" stroke-linejoin="round"/>
<path d="M24.8105 22.272H23.8174V23.2651H24.8105V22.272Z" stroke="#0B3A7C" stroke-width="2.48272" stroke-linecap="round" stroke-linejoin="round"/>
<path d="M31.1332 22.272H30.1401V23.2651H31.1332V22.272Z" stroke="#0B3A7C" stroke-width="2.48272" stroke-linecap="round" stroke-linejoin="round"/>
<path d="M31.1332 31.1274H30.1401V32.1205H31.1332V31.1274Z" stroke="#0B3A7C" stroke-width="2.48272" stroke-linecap="round" stroke-linejoin="round"/>
<path d="M31.1332 39.9658H30.1401V40.9589H31.1332V39.9658Z" stroke="#0B3A7C" stroke-width="2.48272" stroke-linecap="round" stroke-linejoin="round"/>
<path d="M31.1332 48.8037H30.1401V49.7968H31.1332V48.8037Z" stroke="#0B3A7C" stroke-width="2.48272" stroke-linecap="round" stroke-linejoin="round"/>
<path d="M37.0586 62.9058V27.4194H55.5466V63.2037" stroke="#0B3A7C" stroke-width="2.48272" stroke-linecap="round" stroke-linejoin="round"/>
<path d="M12.2642 61.5323V51.0718H18.3717V62.9061" stroke="#0B3A7C" stroke-width="2.48272" stroke-linecap="round" stroke-linejoin="round"/>
<path d="M16.4189 29.7532V15.1548H39.3096V27.4194" stroke="#0B3A7C" stroke-width="2.48272" stroke-linecap="round" stroke-linejoin="round"/>
</svg>
