<svg width="76" height="84" viewBox="0 0 76 84" fill="none" xmlns="http://www.w3.org/2000/svg">
<path d="M73.2894 83.8659H1.79256C0.800676 83.8659 0 83.0652 0 82.0733C0 81.0814 0.800676 80.2808 1.79256 80.2808H73.2894C74.2812 80.2808 75.0819 81.0814 75.0819 82.0733C75.0819 83.0652 74.2812 83.8659 73.2894 83.8659Z" fill="#0B3A7C"/>
<path d="M5.81209 77.9765C4.82021 77.9765 4.01953 77.1759 4.01953 76.184V21.2026C4.01953 20.5501 4.37565 19.9478 4.94927 19.6323C5.5205 19.3192 6.2184 19.3383 6.7729 19.6897L31.0131 35.0627C31.8496 35.5933 32.0982 36.6999 31.5652 37.5364C31.0322 38.3729 29.9256 38.6215 29.0915 38.0885L7.60465 24.4627V76.184C7.60465 77.1759 6.80397 77.9765 5.81209 77.9765Z" fill="#0B3A7C"/>
<path d="M54.2911 38.3681C53.9612 38.3681 53.629 38.2773 53.3327 38.0885L31.8459 24.4626V36.5731C31.8459 37.565 31.0452 38.3657 30.0533 38.3657C29.0614 38.3657 28.2607 37.565 28.2607 36.5731V21.2002C28.2607 20.5477 28.6169 19.9454 29.1905 19.6299C29.7617 19.3168 30.4596 19.3359 31.0141 19.6872L55.2543 35.0602C56.0908 35.5908 56.3394 36.6974 55.8064 37.534C55.4646 38.0717 54.8838 38.3681 54.2911 38.3681Z" fill="#0B3A7C"/>
<path d="M69.2684 83.8653C68.2765 83.8653 67.4758 83.0646 67.4758 82.0727V14.5363H56.0871V36.5752C56.0871 37.5671 55.2864 38.3678 54.2945 38.3678C53.3026 38.3678 52.502 37.5671 52.502 36.5752V12.7437C52.502 11.7518 53.3026 10.9512 54.2945 10.9512H69.2684C70.2602 10.9512 71.0609 11.7518 71.0609 12.7437V82.0727C71.0609 83.0646 70.2602 83.8653 69.2684 83.8653Z" fill="#0B3A7C"/>
<path d="M29.4389 57.7638H16.3365C15.3446 57.7638 14.5439 56.9631 14.5439 55.9712V46.9869C14.5439 45.995 15.3446 45.1943 16.3365 45.1943H29.4389C30.4308 45.1943 31.2315 45.995 31.2315 46.9869V55.9712C31.2315 56.9631 30.4308 57.7638 29.4389 57.7638ZM18.1291 54.1786H27.6464V48.7795H18.1291V54.1786Z" fill="#0B3A7C"/>
<path d="M29.4389 74.1737H16.3365C15.3446 74.1737 14.5439 73.373 14.5439 72.3812V63.3992C14.5439 62.4074 15.3446 61.6067 16.3365 61.6067H29.4389C30.4308 61.6067 31.2315 62.4074 31.2315 63.3992V72.3812C31.2315 73.373 30.4308 74.1737 29.4389 74.1737ZM18.1291 70.5886H27.6464V65.1918H18.1291V70.5886Z" fill="#0B3A7C"/>
<path d="M54.1391 57.7638H41.0367C40.0448 57.7638 39.2441 56.9631 39.2441 55.9712V46.9869C39.2441 45.995 40.0448 45.1943 41.0367 45.1943H54.1391C55.131 45.1943 55.9317 45.995 55.9317 46.9869V55.9712C55.9317 56.9631 55.131 57.7638 54.1391 57.7638ZM42.8293 54.1786H52.3466V48.7795H42.8293V54.1786Z" fill="#0B3A7C"/>
<path d="M54.1391 74.174H41.0367C40.0448 74.174 39.2441 73.3733 39.2441 72.3814V63.3995C39.2441 62.4076 40.0448 61.6069 41.0367 61.6069H54.1391C55.131 61.6069 55.9317 62.4076 55.9317 63.3995V72.3814C55.9317 73.3733 55.131 74.174 54.1391 74.174ZM42.8293 70.5889H52.3466V65.1921H42.8293V70.5889Z" fill="#0B3A7C"/>
<path d="M62.8658 30.9062C61.8739 30.9062 61.0732 30.1056 61.0732 29.1137V19.2379C61.0732 18.246 61.8739 17.4453 62.8658 17.4453C63.8577 17.4453 64.6584 18.246 64.6584 19.2379V29.1137C64.6584 30.1056 63.8577 30.9062 62.8658 30.9062Z" fill="#7CC7E7"/>
<path d="M62.8658 42.7974C61.8739 42.7974 61.0732 41.9967 61.0732 41.0048V36.4732C61.0732 35.4813 61.8739 34.6807 62.8658 34.6807C63.8577 34.6807 64.6584 35.4813 64.6584 36.4732V41.0048C64.6584 41.9967 63.8577 42.7974 62.8658 42.7974Z" fill="#7CC7E7"/>
<path d="M19.4718 13.3728C16.7304 13.3728 13.6998 12.749 10.3131 11.162C9.41679 10.7437 9.02959 9.67533 9.45025 8.77666C9.86851 7.88038 10.9369 7.49319 11.8355 7.91385C20.6334 12.0343 26.0493 8.67628 31.7831 5.11984C33.7526 3.89851 35.7913 2.63416 37.8994 1.78569C46.3841 -1.62974 55.5023 -0.100087 62.9163 5.98266C63.6811 6.61125 63.7935 7.74176 63.1649 8.50659C62.5339 9.27141 61.4058 9.38135 60.6409 8.75515C54.1758 3.45157 46.5729 2.15854 39.2378 5.11267C37.4166 5.84643 35.5977 6.97454 33.6713 8.16719C29.797 10.5692 25.2773 13.368 19.4695 13.3704L19.4718 13.3728Z" fill="#7CC7E7"/>
</svg>
