<svg width="19" height="18" viewBox="0 0 19 18" fill="none" xmlns="http://www.w3.org/2000/svg">
<path id="Vector" fill-rule="evenodd" clip-rule="evenodd" d="M13.5142 0H5.51416C2.75274 0 0.51416 2.23858 0.51416 5V13C0.51416 15.7614 2.75274 18 5.51416 18H13.5142C16.2756 18 18.5142 15.7614 18.5142 13V5C18.5142 2.23858 16.2756 0 13.5142 0ZM16.7642 13C16.7587 14.7926 15.3068 16.2445 13.5142 16.25H5.51416C3.72151 16.2445 2.26965 14.7926 2.26416 13V5C2.26965 3.20735 3.72151 1.75549 5.51416 1.75H13.5142C15.3068 1.75549 16.7587 3.20735 16.7642 5V13ZM14.2642 5.25C14.8165 5.25 15.2642 4.80228 15.2642 4.25C15.2642 3.69772 14.8165 3.25 14.2642 3.25C13.7119 3.25 13.2642 3.69772 13.2642 4.25C13.2642 4.80228 13.7119 5.25 14.2642 5.25ZM9.51416 4.5C7.02888 4.5 5.01416 6.51472 5.01416 9C5.01416 11.4853 7.02888 13.5 9.51416 13.5C11.9995 13.5 14.0142 11.4853 14.0142 9C14.0169 7.8057 13.5436 6.65957 12.6991 5.81508C11.8546 4.97059 10.7085 4.49734 9.51416 4.5ZM6.76416 9C6.76416 10.5188 7.99536 11.75 9.51416 11.75C11.033 11.75 12.2642 10.5188 12.2642 9C12.2642 7.4812 11.033 6.25 9.51416 6.25C7.99536 6.25 6.76416 7.4812 6.76416 9Z" fill="white"/>
</svg>
