<svg width="71" height="81" viewBox="0 0 71 81" fill="none" xmlns="http://www.w3.org/2000/svg">
<g id="Layer_1" clip-path="url(#clip0_1414_9449)">
<path id="Vector" d="M29.9275 56.299C27.3945 56.299 24.9521 55.1853 23.267 53.1612L22.3871 52.101C21.6618 51.2335 20.7072 50.6124 19.6194 50.3125L18.2968 49.9484C14.8892 49.0113 12.4042 46.1305 11.9616 42.6072L11.7909 41.2364C11.6523 40.1119 11.1776 39.0731 10.4257 38.2324L9.5085 37.2043C7.1461 34.5645 6.60216 30.7948 8.13266 27.5927L8.72459 26.3504C9.20987 25.3277 9.37518 24.1978 9.19387 23.0787L8.97523 21.7186C8.40996 18.2167 9.98312 14.7469 12.9908 12.8834L14.1586 12.1606C15.1185 11.5662 15.8651 10.7041 16.3131 9.66528L16.857 8.40158C18.2648 5.14594 21.4485 3.0844 24.9948 3.14865L26.3706 3.17543C27.5011 3.2022 28.589 2.87556 29.5276 2.24371L30.6688 1.478C33.6071 -0.497874 37.404 -0.497874 40.337 1.478L41.4782 2.24371C42.4168 2.87556 43.5207 3.19684 44.6352 3.17543L46.0111 3.14865C49.5307 3.09511 52.741 5.14594 54.1488 8.39622L54.6981 9.65992C55.05 10.4738 54.6767 11.4216 53.8662 11.775C53.0556 12.1284 52.1117 11.7536 51.7597 10.9397L51.2105 9.67599C50.3199 7.6198 48.2935 6.30255 46.0697 6.3561L44.6939 6.38287C42.8914 6.42035 41.1796 5.9063 39.6971 4.91034L38.5559 4.14462C36.7001 2.89698 34.3004 2.89698 32.4446 4.14462L31.3034 4.91034C29.8209 5.9063 28.0931 6.42035 26.3066 6.38287L24.9308 6.3561C24.8934 6.3561 24.8614 6.3561 24.8241 6.3561C22.6324 6.3561 20.6646 7.65192 19.7847 9.67599L19.2407 10.9397C18.5262 12.5836 17.3476 13.949 15.8278 14.8914L14.6599 15.6143C12.7561 16.7923 11.7642 18.9824 12.1215 21.1992L12.3402 22.5593C12.6281 24.3317 12.3722 26.1202 11.5989 27.7373L11.007 28.9795C10.0418 31.0036 10.3831 33.3864 11.8762 35.0517L12.7935 36.0798C13.988 37.4131 14.7346 39.057 14.9586 40.8348L15.1292 42.2056C15.4065 44.4331 16.9743 46.2537 19.1341 46.8427L20.4566 47.2068C22.1791 47.678 23.6936 48.6579 24.8348 50.0341L25.7147 51.0943C27.1438 52.8185 29.4476 53.4932 31.5807 52.8239L32.8925 52.4116C34.5937 51.8761 36.3961 51.8761 38.1026 52.4116L39.4145 52.8239C41.5476 53.4932 43.846 52.8185 45.2805 51.0943L46.1604 50.0341C47.3069 48.6579 48.8214 47.678 50.5439 47.2068L51.8664 46.8427C54.0208 46.2537 55.594 44.4331 55.8713 42.2056L56.0419 40.8401C56.2659 39.0624 57.0125 37.4131 58.207 36.0852L59.1242 35.0571C60.6174 33.3918 60.9587 31.0036 59.9935 28.9849L59.4015 27.7426C58.6283 26.1255 58.3723 24.3371 58.6603 22.5647L58.8789 21.2046C59.2362 18.9931 58.239 16.7977 56.3406 15.625C55.5886 15.1592 55.354 14.1685 55.8179 13.4135C56.2819 12.6585 57.2685 12.4229 58.0204 12.8888C61.028 14.7522 62.6065 18.2167 62.0359 21.724L61.8173 23.0841C61.636 24.2032 61.7959 25.333 62.2866 26.3558L62.8785 27.598C64.409 30.8001 63.865 34.5698 61.5026 37.2097L60.5854 38.2378C59.8282 39.0784 59.3589 40.1172 59.2202 41.2417L59.0496 42.6072C58.6123 46.1305 56.1272 49.0113 52.7143 49.9484L51.3918 50.3125C50.3039 50.6124 49.344 51.2282 48.6241 52.101L47.7442 53.1612C45.4778 55.8867 41.8355 56.963 38.4652 55.8974L37.1534 55.4851C36.0762 55.1478 34.9403 55.1478 33.8631 55.4851L32.5512 55.8974C31.6873 56.1705 30.8074 56.3044 29.9329 56.3044L29.9275 56.299Z" fill="white"/>
<path id="Vector_2" d="M35.4998 49.5412C33.612 49.5412 31.7189 49.0539 30.0337 48.074L27.2661 46.4676C26.5035 46.0232 26.2368 45.0433 26.6795 44.2722C27.1221 43.5065 28.098 43.2388 28.8659 43.6832L31.6336 45.2896C34.0173 46.6711 36.977 46.6711 39.366 45.2896L48.0104 40.2777C50.3941 38.8962 51.8766 36.3206 51.8766 33.5575V23.539C51.8766 20.776 50.3941 18.2004 48.0104 16.8189L39.366 11.8069C36.9823 10.4254 34.0173 10.4254 31.6336 11.8069L22.9892 16.8189C20.6055 18.2004 19.123 20.776 19.123 23.539V33.5575C19.123 36.3206 20.6055 38.8962 22.9892 40.2777C23.7518 40.7221 24.0184 41.702 23.5758 42.4731C23.1332 43.2441 22.1573 43.5065 21.3894 43.0621C18.0191 41.1076 15.9233 37.4665 15.9233 33.5575V23.539C15.9233 19.6301 18.0191 15.9889 21.3894 14.0344L30.0337 9.02248C33.404 7.06803 37.5902 7.06803 40.9658 9.02248L49.6102 14.0344C52.9805 15.9889 55.0763 19.6301 55.0763 23.539V33.5575C55.0763 37.4665 52.9805 41.1076 49.6102 43.0621L40.9658 48.074C39.2807 49.0486 37.3929 49.5412 35.4998 49.5412Z" fill="#7CC7E7"/>
<path id="Vector_3" d="M32.6309 37.1026C32.2203 37.1026 31.8097 36.9473 31.5004 36.6314L25.0104 30.1148C24.3865 29.4883 24.3865 28.4709 25.0104 27.8444C25.6344 27.2179 26.6476 27.2179 27.2715 27.8444L32.6309 33.2258L44.4802 21.3278C45.1042 20.7013 46.1174 20.7013 46.7413 21.3278C47.3652 21.9543 47.3652 22.9717 46.7413 23.5982L33.7561 36.6368C33.4415 36.9527 33.0362 37.108 32.6256 37.108L32.6309 37.1026Z" fill="white"/>
<g id="Group">
<path id="Vector_4" d="M10.7135 81C10.4362 81 10.1642 80.9304 9.91888 80.7859C9.49226 80.5395 9.19896 80.1112 9.12964 79.6239L7.9991 71.8222L0.831906 67.9079C0.319964 67.6241 0 67.0779 0 66.4889C0 65.8999 0.330629 65.3537 0.847905 65.0806C7.07654 61.75 11.8333 56.465 15.2783 52.2348C15.8382 51.5494 16.8461 51.4477 17.5287 52.0099C18.2113 52.5721 18.3126 53.5842 17.7527 54.2696C14.5797 58.1624 10.3455 62.9066 4.84745 66.4407L10.2335 69.3804C10.6761 69.6214 10.9801 70.0605 11.0548 70.5585L11.988 76.9948C15.8755 74.96 24.9199 69.3965 30.5939 59.319C31.0312 58.5479 32.0071 58.2749 32.775 58.7139C33.5429 59.153 33.8149 60.1329 33.3776 60.904C25.4585 74.96 11.892 80.6413 11.3214 80.8769C11.1294 80.9572 10.9214 80.9947 10.7188 80.9947L10.7135 81Z" fill="white"/>
<path id="Vector_5" d="M60.2867 81.0001C60.084 81.0001 59.876 80.9626 59.6841 80.8823C59.1081 80.6467 45.5417 74.96 37.6279 60.9094C37.1906 60.1383 37.4626 59.1584 38.2305 58.7193C38.9984 58.2802 39.9743 58.5533 40.4116 59.3244C46.0856 69.4019 55.1299 74.96 59.0175 77.0001L59.9454 70.5638C60.02 70.0605 60.324 69.6268 60.7666 69.3858L66.1527 66.4461C60.6546 62.9067 56.4204 58.1624 53.2475 54.2749C52.6875 53.5895 52.7888 52.5775 53.4714 52.0153C54.154 51.453 55.1619 51.5548 55.7218 52.2402C59.1668 56.4703 63.9236 61.75 70.1522 65.086C70.6695 65.3644 70.9948 65.9053 71.0001 66.4943C71.0001 67.0833 70.6802 67.6295 70.1629 67.9133L62.9957 71.8275L61.8705 79.6293C61.8012 80.1165 61.5079 80.5503 61.0812 80.7912C60.8359 80.9305 60.564 81.0054 60.2867 81.0054V81.0001Z" fill="white"/>
</g>
</g>
<defs>
<clipPath id="clip0_1414_9449">
<rect width="71" height="81" fill="white"/>
</clipPath>
</defs>
</svg>
