<svg width="194" height="71" viewBox="0 0 194 71" fill="none" xmlns="http://www.w3.org/2000/svg">
<path d="M3.98171 66V36.2732H10.3517V60.0546H24.1535V66H3.98171ZM42.2102 58.993L45.1829 63.0273C44.5459 63.6643 43.7815 64.2164 42.8897 64.726C41.3609 65.5753 39.1526 66.4247 36.2649 66.4247C30.1072 66.4247 25.2235 61.541 25.2235 55.5956C25.2235 49.6502 30.1072 44.7665 36.0525 44.7665C41.7856 44.7665 46.4569 49.4379 46.4569 55.1709C46.4569 55.9778 46.372 56.5299 46.3295 56.997L46.2446 57.719H31.1688C31.8058 59.63 33.5045 61.3286 36.6895 61.3286C38.5156 61.3286 39.8321 60.819 40.8088 60.182C41.3609 59.8423 41.828 59.4601 42.2102 58.993ZM31.1688 53.4723H40.5115C39.8745 51.5613 38.2183 49.8626 35.8402 49.8626C33.462 49.8626 31.8058 51.5613 31.1688 53.4723ZM51.5662 58.7806V50.9242H47.9565V45.6159H49.8675C51.4388 45.6159 52.2032 44.7665 52.2032 43.0679V39.2458H57.2992V45.6159H61.9706V50.9242H57.2992V57.9313C57.2992 59.8423 58.3609 60.904 60.0596 60.904C60.6966 60.904 61.2487 60.819 61.7158 60.6916C61.9706 60.6492 62.1829 60.5642 62.3953 60.4793V65.7877C62.0555 65.9151 61.6733 66 61.2911 66.1274C60.6117 66.2973 59.6349 66.4247 58.5733 66.4247C54.3266 66.4247 51.5662 63.7068 51.5662 58.7806ZM64.1105 45.4035L68.5696 35.4238L73.4533 38.1842L67.5079 47.3146L64.1105 45.4035ZM74.0803 62.6026L77.4777 58.993C77.9023 59.4601 78.4119 59.8423 78.964 60.182C79.9407 60.819 81.2997 61.3286 82.9984 61.3286C84.9094 61.3286 85.5464 60.6916 85.5464 59.8423C85.5464 57.5066 74.9296 57.9313 74.9296 51.1366C74.9296 47.7392 77.9023 44.7665 83.2107 44.7665C85.8861 44.7665 87.8821 45.5734 89.241 46.3803C90.0479 46.8474 90.7273 47.3995 91.2794 47.9516L87.8821 51.5613C87.5423 51.264 87.1177 50.9667 86.6505 50.7119C85.8436 50.2448 84.697 49.8626 83.2107 49.8626C81.7244 49.8626 81.0874 50.4996 81.0874 51.1366C81.0874 53.4723 91.7041 53.0476 91.7041 59.8423C91.7041 63.4095 88.7314 66.4247 82.9984 66.4247C80.1106 66.4247 77.9023 65.4904 76.3735 64.5137C75.4817 63.9616 74.7173 63.3246 74.0803 62.6026ZM117.611 58.5683L121.22 62.178C120.668 62.9848 119.946 63.6643 119.097 64.3013C117.611 65.363 115.53 66.4247 112.515 66.4247C106.357 66.4247 101.473 61.541 101.473 55.5956C101.473 49.6502 106.357 44.7665 112.515 44.7665C115.53 44.7665 117.611 45.8282 119.097 46.8899C119.946 47.5269 120.668 48.2064 121.22 49.0132L117.611 52.6229C117.228 52.1558 116.761 51.7311 116.252 51.3489C115.36 50.7119 114.086 50.0749 112.515 50.0749C109.542 50.0749 107.206 52.4106 107.206 55.5956C107.206 58.7806 109.542 61.1163 112.515 61.1163C114.086 61.1163 115.36 60.4793 116.252 59.8423C116.761 59.4601 117.228 59.0354 117.611 58.5683ZM124.173 66V36.2732H129.906V48.1639H130.118C130.586 47.5269 131.095 46.9748 131.69 46.4652C132.709 45.6159 134.238 44.7665 136.276 44.7665C140.523 44.7665 143.92 48.1639 143.92 53.4723V66H138.187V54.3216C138.187 51.7736 136.743 50.2872 134.365 50.2872C131.817 50.2872 129.906 52.1983 129.906 54.9586V66H124.173ZM160.253 66V63.452H160.041C159.574 64.0041 159.064 64.5137 158.47 64.9383C157.45 65.7452 155.879 66.4247 153.883 66.4247C150.061 66.4247 147.513 63.8767 147.513 60.4793C147.513 57.0819 149.806 54.4915 153.671 53.812L160.253 52.6229C160.041 51.1366 158.809 49.8626 156.644 49.8626C155.157 49.8626 154.011 50.4146 153.204 51.0516C152.737 51.3914 152.312 51.7736 151.972 52.1983L148.575 48.8009C149.169 48.079 149.891 47.3995 150.741 46.805C152.227 45.7857 154.308 44.7665 157.068 44.7665C162.377 44.7665 165.986 48.4187 165.986 53.0476V66H160.253ZM160.253 57.0819V56.6573L155.582 57.5066C154.096 57.8039 153.246 58.5683 153.246 59.63C153.246 60.9464 154.096 61.7533 155.794 61.7533C158.342 61.7533 160.253 59.8423 160.253 57.0819ZM171.943 58.7806V50.9242H168.334V45.6159H170.245C171.816 45.6159 172.58 44.7665 172.58 43.0679V39.2458H177.676V45.6159H182.348V50.9242H177.676V57.9313C177.676 59.8423 178.738 60.904 180.437 60.904C181.074 60.904 181.626 60.819 182.093 60.6916C182.348 60.6492 182.56 60.5642 182.772 60.4793V65.7877C182.433 65.9151 182.05 66 181.668 66.1274C180.989 66.2973 180.012 66.4247 178.95 66.4247C174.704 66.4247 171.943 63.7068 171.943 58.7806ZM185.337 63.0273C185.337 61.1163 186.823 59.63 188.734 59.63C190.645 59.63 192.132 61.1163 192.132 63.0273C192.132 64.9383 190.645 66.4247 188.734 66.4247C186.823 66.4247 185.337 64.9383 185.337 63.0273Z" fill="#0B3A7C"/>
<path d="M138.751 16.25C130.008 8.6912 117.057 0 94.1913 0C71.3253 0 56.8346 8.87522 48.7984 16.3066C47.7956 17.2267 47.725 18.8121 48.6571 19.8171C49.5893 20.8221 51.157 20.8929 52.1598 19.9586C59.5464 13.1217 72.8366 4.96842 94.1913 4.96842C115.546 4.96842 127.424 13.0085 135.502 20.0011C135.954 20.3974 136.533 20.6098 137.127 20.6098C137.847 20.6098 138.539 20.2983 139.005 19.7463C139.895 18.6988 139.782 17.1418 138.751 16.2358" fill="#7CC7E7"/>
</svg>
