<svg width="19" height="18" viewBox="0 0 19 18" fill="none" xmlns="http://www.w3.org/2000/svg">
<path id="Vector" fill-rule="evenodd" clip-rule="evenodd" d="M2 0C1.17157 0 0.5 0.67157 0.5 1.5V16.5C0.5 17.3284 1.17157 18 2 18H17C17.8284 18 18.5 17.3284 18.5 16.5V1.5C18.5 0.67157 17.8284 0 17 0H2ZM6.02076 4.00272C6.02639 4.95897 5.31061 5.54819 4.46123 5.54397C3.66107 5.53975 2.96357 4.90272 2.96779 4.00413C2.97201 3.15897 3.63998 2.47975 4.50764 2.49944C5.38795 2.51913 6.02639 3.1646 6.02076 4.00272ZM9.7797 6.76176H7.25971H7.2583V15.3216H9.9217V15.1219C9.9217 14.742 9.9214 14.362 9.9211 13.9819C9.9203 12.9681 9.9194 11.9532 9.9246 10.9397C9.926 10.6936 9.9372 10.4377 10.0005 10.2028C10.2381 9.3253 11.0271 8.7586 11.9074 8.8979C12.4727 8.9864 12.8467 9.3141 13.0042 9.8471C13.1013 10.1803 13.1449 10.5389 13.1491 10.8863C13.1605 11.9339 13.1589 12.9815 13.1573 14.0292C13.1567 14.399 13.1561 14.769 13.1561 15.1388V15.3202H15.828V15.1149C15.828 14.6629 15.8278 14.211 15.8275 13.7591C15.827 12.6296 15.8264 11.5001 15.8294 10.3702C15.8308 9.8597 15.776 9.3563 15.6508 8.8627C15.4638 8.1286 15.0771 7.5211 14.4485 7.0824C14.0027 6.77019 13.5133 6.5691 12.9663 6.5466C12.904 6.54401 12.8412 6.54062 12.7781 6.53721C12.4984 6.52209 12.2141 6.50673 11.9467 6.56066C11.1817 6.71394 10.5096 7.0641 10.0019 7.6814C9.9429 7.7522 9.8852 7.8241 9.7991 7.9314L9.7797 7.9557V6.76176ZM3.18164 15.3244H5.83242V6.76733H3.18164V15.3244Z" fill="white"/>
</svg>
