<svg width="176" height="100" viewBox="0 0 176 100" fill="none" xmlns="http://www.w3.org/2000/svg">
<path d="M141.504 19.5684C131.108 10.7002 115.707 0.5 88.5158 0.5C61.3245 0.5 44.0952 10.9154 34.5355 19.6375C33.3446 20.7176 33.2593 22.5773 34.3689 23.759C35.4785 24.9365 37.34 25.0218 38.535 23.9254C47.3183 15.9017 63.121 6.33504 88.5158 6.33504C113.911 6.33504 128.035 15.7718 137.639 23.9742C138.176 24.4411 138.867 24.6888 139.57 24.6888C140.427 24.6888 141.248 24.3234 141.801 23.6737C142.858 22.4433 142.724 20.6161 141.5 19.5522" fill="white"/>
<path d="M18.5828 43.6556C20.2939 44.7357 21.6718 46.23 22.6798 48.1588C23.6878 50.0876 24.1755 52.26 24.1755 54.6882C24.1755 57.1164 23.6715 59.3213 22.696 61.2501C21.7206 63.1789 20.363 64.7056 18.6478 65.7695C16.9367 66.8496 15.0548 67.3978 12.986 67.3978C11.5065 67.3978 10.1124 67.0973 8.80365 66.5004C7.49489 65.9035 6.41779 65.1888 5.54393 64.3239V64.6082C5.54393 65.3878 5.27567 66.0537 4.75542 66.6019C4.23517 67.1339 3.56453 67.3978 2.77195 67.3978C1.97938 67.3978 1.31283 67.1298 0.78851 66.6182C0.268257 66.1025 0 65.4203 0 64.6082V35.8878C0 35.1081 0.268257 34.4422 0.78851 33.894C1.30876 33.3621 1.97938 33.0981 2.77195 33.0981C3.56453 33.0981 4.2311 33.3621 4.75542 33.894C5.27567 34.426 5.54393 35.0919 5.54393 35.8878V45.4382C6.28367 44.5246 7.30793 43.7287 8.63295 43.0465C9.95797 42.3644 11.3521 42.0152 12.799 42.0152C14.9329 42.0152 16.8472 42.5471 18.5746 43.6434M16.9732 60.1659C18.2332 58.7041 18.8714 56.8769 18.8714 54.6841C18.8714 52.4914 18.2495 50.6804 17.0058 49.2186C15.762 47.7731 14.1322 47.0421 12.1365 47.0421C10.1409 47.0421 8.49069 47.7568 7.2307 49.2186C5.97071 50.6642 5.33259 52.4914 5.33259 54.6841C5.33259 56.8769 5.97071 58.7041 7.2307 60.1659C8.49069 61.6277 10.1368 62.3586 12.1365 62.3586C14.1363 62.3586 15.7295 61.6277 16.9895 60.1659H16.9732Z" fill="white"/>
<path d="M34.0033 66.1312C33.4668 66.6631 32.7921 66.927 31.9873 66.927C31.1826 66.927 30.5607 66.6631 30.0405 66.1312C29.5202 65.5992 29.252 64.9333 29.252 64.1374V35.9002C29.252 35.1206 29.5202 34.4546 30.0567 33.9065C30.5932 33.3745 31.2679 33.1106 32.0727 33.1106C32.8775 33.1106 33.4993 33.3745 34.0196 33.9065C34.5398 34.4384 34.8081 35.1043 34.8081 35.9002V64.1374C34.8081 64.9333 34.5398 65.583 34.0033 66.1312Z" fill="white"/>
<path d="M60.7238 43.2905C61.244 43.8224 61.5123 44.4884 61.5123 45.2842V56.8934C61.5123 60.1825 60.6059 62.7731 58.7566 64.6166C56.9276 66.4764 54.306 67.4062 50.9284 67.4062C47.5508 67.4062 44.9333 66.4764 43.1205 64.6166C41.3077 62.7569 40.4014 60.1825 40.4014 56.8934V45.2842C40.4014 44.5046 40.6534 43.8387 41.1899 43.2905C41.7101 42.7586 42.3808 42.4946 43.1733 42.4946C43.9659 42.4946 44.6366 42.7586 45.1568 43.2905C45.6771 43.8224 45.9453 44.4884 45.9453 45.2842V56.8934C45.9453 58.7532 46.364 60.1338 47.1891 61.0311C48.0304 61.9285 49.2701 62.3752 50.9324 62.3752C52.5948 62.3752 53.8873 61.9285 54.7287 61.0311C55.57 60.1338 55.9724 58.7572 55.9724 56.8934V45.2842C55.9724 44.5046 56.2406 43.8387 56.7609 43.2905C57.2811 42.7586 57.9518 42.4946 58.7444 42.4946C59.5369 42.4946 60.2076 42.7586 60.7278 43.2905H60.7238Z" fill="white"/>
<path d="M88.8215 55.9147C88.2688 56.3816 87.6144 56.5968 86.8746 56.5968H71.6247C71.9946 58.3916 72.8359 59.8047 74.1609 60.832C75.486 61.8472 76.9817 62.3588 78.6441 62.3588C79.9041 62.3588 80.8958 62.241 81.5989 62.0096C82.3062 61.7781 82.8752 61.5426 83.2776 61.2787C83.6962 61.0147 83.9848 60.8483 84.1352 60.7467C84.688 60.4666 85.2082 60.3326 85.7122 60.3326C86.3666 60.3326 86.9234 60.564 87.3746 61.0147C87.8298 61.4614 88.0615 62.0096 88.0615 62.6106C88.0615 63.443 87.6428 64.1739 86.769 64.852C85.8951 65.5504 84.753 66.1473 83.3101 66.6305C81.8672 67.13 80.404 67.3614 78.9245 67.3614C76.3395 67.3614 74.0878 66.8295 72.1572 65.7656C70.2265 64.7017 68.7308 63.2237 67.6903 61.3477C66.6335 59.4717 66.1133 57.3602 66.1133 55.0173C66.1133 52.3941 66.6661 50.0999 67.7757 48.1224C68.8853 46.1449 70.3444 44.6344 72.1612 43.5705C73.974 42.5229 75.9209 41.991 77.9897 41.991C80.0585 41.991 81.9363 42.5391 83.7491 43.6355C85.5456 44.7319 86.9925 46.2099 88.0655 48.0696C89.1426 49.9294 89.6791 51.9394 89.6791 54.0996C89.6466 54.8305 89.3621 55.4274 88.8053 55.8781L88.8215 55.9106V55.9147ZM71.6735 52.0449H83.7816V51.7282C83.6474 50.4491 83.0256 49.3528 81.8835 48.4392C80.7413 47.5255 79.4488 47.0626 78.0059 47.0626C74.4292 47.0626 72.3279 48.7234 71.6735 52.0449Z" fill="white"/>
<path d="M100.141 61.778C100.141 60.9983 100.543 60.3162 101.352 59.768C101.771 59.4837 102.226 59.3538 102.693 59.3538C103.348 59.3538 103.953 59.634 104.543 60.2187C105.465 61.1648 106.425 61.8632 107.433 62.3302C108.441 62.7972 109.632 63.0124 111.062 63.0124C113.464 62.9109 114.671 62.0135 114.671 60.3202C114.671 59.4391 114.269 58.7569 113.444 58.3102C112.623 57.8433 111.343 57.3966 109.631 56.9296C107.835 56.4302 106.392 55.9673 105.266 55.4678C104.14 54.9684 103.185 54.2375 102.36 53.2589C101.535 52.26 101.133 50.9322 101.133 49.2552C101.133 47.7934 101.551 46.5305 102.409 45.4342C103.25 44.3541 104.356 43.5054 105.734 42.9247C107.112 42.3278 108.571 42.0273 110.099 42.0273C111.627 42.0273 113.241 42.3075 114.818 42.8922C116.395 43.4729 117.622 44.3216 118.512 45.4504C118.915 45.9499 119.118 46.498 119.118 47.0949C119.118 47.7934 118.833 48.374 118.244 48.8369C117.825 49.1699 117.321 49.3364 116.765 49.3364C116.078 49.3364 115.521 49.1212 115.102 48.6907C114.55 48.0086 113.826 47.4929 112.952 47.0949C112.078 46.697 111.087 46.498 109.981 46.498C107.632 46.498 106.469 47.3264 106.469 49.0075C106.469 49.6896 106.689 50.2216 107.124 50.6358C107.542 51.0499 108.099 51.3667 108.77 51.5981C109.424 51.8296 110.367 52.1138 111.558 52.4468C113.22 52.9137 114.615 53.3766 115.724 53.8599C116.834 54.3593 117.773 55.0902 118.545 56.1013C119.317 57.1124 119.703 58.428 119.703 60.0725C119.703 61.5668 119.248 62.8784 118.358 63.9747C117.468 65.0873 116.309 65.936 114.915 66.5167C113.521 67.0973 112.078 67.3816 110.599 67.3816C108.567 67.3816 106.668 67.0486 104.921 66.3664C103.157 65.6842 101.73 64.6244 100.621 63.1261C100.336 62.7606 100.202 62.2977 100.202 61.7455L100.133 61.778H100.141Z" fill="white"/>
<path d="M145.033 64.2024C145.033 64.9658 144.733 65.6155 144.127 66.1312C143.521 66.6469 142.883 66.9108 142.213 66.9108C141.424 66.9108 140.733 66.5941 140.18 65.9972L131.869 57.3116L129.601 59.3703V64.1699C129.601 64.9496 129.332 65.6155 128.812 66.1637C128.292 66.6956 127.621 66.9595 126.829 66.9595C126.036 66.9595 125.365 66.6956 124.845 66.1637C124.325 65.6317 124.057 64.9658 124.057 64.1699V35.9124C124.057 35.1328 124.325 34.4669 124.845 33.9187C125.365 33.3867 126.036 33.1228 126.829 33.1228C127.621 33.1228 128.292 33.3867 128.812 33.9187C129.332 34.4506 129.601 35.1165 129.601 35.9124V52.8206L139.494 43.3514C140.083 42.7707 140.754 42.4865 141.526 42.4865C142.213 42.4865 142.802 42.7707 143.355 43.3351C143.891 43.8996 144.16 44.464 144.16 45.0446C144.16 45.7755 143.79 46.4577 143.05 47.1034L136.079 53.45L144.176 62.1396C144.765 62.7366 145.05 63.435 145.05 64.1984" fill="white"/>
<path d="M173.497 62.176C173.916 62.176 174.338 62.2775 174.741 62.4927C175.127 62.708 175.448 63.0084 175.663 63.4064C175.899 63.8043 176.001 64.2185 176.001 64.653C176.001 65.0875 175.899 65.5016 175.663 65.8833C175.444 66.265 175.127 66.5817 174.741 66.797C174.355 67.0122 173.936 67.1299 173.497 67.1299C173.058 67.1299 172.639 67.0122 172.253 66.797C171.867 66.5817 171.546 66.265 171.331 65.8833C171.115 65.5016 170.993 65.0875 170.993 64.653C170.993 64.2185 171.111 63.8043 171.331 63.4064C171.566 63.0084 171.867 62.708 172.269 62.4927C172.656 62.2775 173.074 62.176 173.513 62.176M173.497 62.6755C173.143 62.6755 172.826 62.7607 172.505 62.9232C172.184 63.0856 171.936 63.3373 171.749 63.6541C171.566 63.9708 171.465 64.3038 171.465 64.6652C171.465 65.0265 171.566 65.3473 171.733 65.6641C171.9 65.9808 172.152 66.2285 172.473 66.4112C172.794 66.5777 173.127 66.6751 173.481 66.6751C173.834 66.6751 174.168 66.5777 174.489 66.4112C174.81 66.2285 175.058 65.997 175.228 65.6641C175.395 65.3473 175.497 65.0144 175.497 64.6652C175.497 64.3159 175.395 63.983 175.212 63.6541C175.029 63.3211 174.793 63.0897 174.456 62.9232C174.135 62.7567 173.802 62.6755 173.464 62.6755M172.375 65.997V63.3739H173.769C173.936 63.3739 174.09 63.4226 174.188 63.4713C174.289 63.5201 174.375 63.6053 174.44 63.719C174.509 63.8368 174.541 63.9505 174.541 64.1007C174.541 64.2997 174.493 64.4499 174.359 64.6002C174.224 64.7342 174.058 64.8154 173.822 64.8479C173.907 64.8804 173.956 64.8966 174.009 64.9494C174.058 64.9819 174.111 65.0469 174.176 65.1484C174.192 65.1646 174.261 65.2824 174.379 65.4651L174.7 65.997H174.029L173.81 65.5828C173.659 65.2986 173.525 65.1159 173.44 65.0509C173.355 64.9859 173.221 64.9332 173.07 64.9332H172.936V66.0133H172.399L172.383 65.997H172.375ZM172.912 64.4865H173.131C173.452 64.4865 173.635 64.4865 173.7 64.454C173.769 64.4378 173.834 64.389 173.867 64.32C173.916 64.2713 173.936 64.186 173.936 64.121C173.936 64.0561 173.92 63.987 173.887 63.9221C173.838 63.8733 173.785 63.8206 173.7 63.7881C173.615 63.7718 173.416 63.7556 173.131 63.7556H172.912V64.4865Z" fill="white"/>
<path d="M168.879 43.2906C169.4 43.8226 169.668 44.4885 169.668 45.2844V60.816C169.668 68.4743 169.367 76.7782 157.796 76.7782C156.739 76.7782 155.678 76.6969 154.589 76.5305C153.499 76.364 152.605 76.1488 151.935 75.8645C150.423 75.2148 149.667 74.354 149.667 73.2049C149.667 72.9896 149.715 72.7419 149.801 72.4739C149.984 71.7918 150.305 71.2964 150.74 70.9472C151.191 70.598 151.679 70.4152 152.203 70.4152C152.524 70.4152 152.809 70.464 153.077 70.5492C153.296 70.6507 153.666 70.7807 154.203 71.0162C154.739 71.2477 155.312 71.3979 155.914 71.5481C156.519 71.6821 157.592 71.7471 158.247 71.7471C163.303 71.7471 164.242 67.5931 164.157 64.4381C162.563 66.4156 160.06 67.4104 156.666 67.4104C155.052 67.4104 153.642 67.0287 152.418 66.2978C151.175 65.5507 150.236 64.5193 149.545 63.1915C148.858 61.8637 148.521 60.3531 148.521 58.6396V45.3006C148.521 44.521 148.773 43.855 149.309 43.3069C149.829 42.7749 150.5 42.511 151.292 42.511C152.085 42.511 152.756 42.7749 153.276 43.3069C153.796 43.8388 154.064 44.5047 154.064 45.3006V56.995C154.064 58.9198 154.483 60.3004 155.341 61.1328C156.182 61.9611 157.442 62.3956 159.068 62.3956C160.694 62.3956 161.905 61.9286 162.779 60.9988C163.653 60.0689 164.087 58.7411 164.087 56.995V45.3006C164.087 44.521 164.356 43.855 164.876 43.3069C165.396 42.7749 166.067 42.511 166.859 42.511C167.652 42.511 168.323 42.7749 168.843 43.3069L168.875 43.2906H168.879Z" fill="white"/>
<path d="M34.0237 99.6635C32.4752 99.6635 31.0608 99.3062 29.7886 98.5915C28.5164 97.8769 27.5125 96.9023 26.7808 95.6638C26.0492 94.4294 25.6875 93.0732 25.6875 91.5992C25.6875 90.1252 26.0533 88.769 26.7808 87.5346C27.5125 86.3002 28.5123 85.3216 29.7886 84.6069C31.0648 83.8922 32.4752 83.5349 34.0237 83.5349C35.4544 83.5349 36.7226 83.8313 37.8241 84.4282C38.9255 85.0251 39.8156 85.7236 40.4822 86.5276L38.5841 88.1355C38.0313 87.5265 37.3973 87.027 36.6819 86.6412C35.9666 86.2555 35.0886 86.0606 34.0441 86.0606C32.9995 86.0606 32.0972 86.3042 31.2396 86.7956C30.382 87.2869 29.7073 87.9569 29.2155 88.8055C28.7237 89.6542 28.4798 90.5841 28.4798 91.5992C28.4798 92.6144 28.7237 93.5442 29.2155 94.3929C29.7073 95.2415 30.382 95.9115 31.2396 96.4029C32.0972 96.8942 33.032 97.1378 34.0441 97.1378C35.0561 97.1378 35.995 96.9389 36.7266 96.545C37.4542 96.1511 38.1126 95.6314 38.6938 94.9938L40.5716 96.5775C39.8847 97.4261 38.9824 98.153 37.8566 98.7539C36.7307 99.3549 35.4544 99.6594 34.0237 99.6594V99.6635Z" fill="white"/>
<path d="M47.4818 99.6434C46.4372 99.6434 45.4862 99.3998 44.6204 98.9085C43.7547 98.4171 43.0759 97.7431 42.576 96.8863C42.0761 96.0295 41.8281 95.0875 41.8281 94.0601C41.8281 93.0328 42.0761 92.0704 42.576 91.2137C43.0759 90.3569 43.7588 89.6828 44.6204 89.1915C45.4821 88.7002 46.4372 88.4565 47.4818 88.4565C48.5264 88.4565 49.5019 88.7002 50.3676 89.1915C51.2333 89.6828 51.9121 90.3569 52.412 91.2137C52.912 92.0704 53.1599 93.0206 53.1599 94.0601C53.1599 95.0996 52.9079 96.0295 52.412 96.8863C51.9121 97.7431 51.2293 98.4171 50.3676 98.9085C49.5059 99.3998 48.5426 99.6434 47.4818 99.6434ZM47.4818 97.3208C48.0793 97.3208 48.6158 97.1786 49.0913 96.8985C49.5669 96.6142 49.9449 96.2244 50.2213 95.725C50.4977 95.2255 50.6358 94.6733 50.6358 94.0601C50.6358 93.447 50.4977 92.8744 50.2213 92.375C49.9449 91.8755 49.5669 91.4857 49.0913 91.2015C48.6158 90.9172 48.0793 90.7792 47.4818 90.7792C46.8843 90.7792 46.3722 90.9213 45.8967 91.2015C45.4211 91.4857 45.0431 91.8755 44.7667 92.375C44.4904 92.8744 44.3522 93.4348 44.3522 94.0601C44.3522 94.6855 44.4904 95.2255 44.7667 95.725C45.0431 96.2244 45.4171 96.6142 45.8967 96.8985C46.3722 97.1827 46.9006 97.3208 47.4818 97.3208Z" fill="white"/>
<path d="M55.5293 99.4195V88.6752H58.0086V90.1939H58.0533C58.2769 89.7472 58.6671 89.3452 59.228 88.9879C59.7889 88.6306 60.4311 88.4519 61.1627 88.4519C61.6829 88.4519 62.1666 88.5412 62.6137 88.7199C63.0608 88.8986 63.4428 89.1219 63.7558 89.3899C64.0688 89.6579 64.3004 89.934 64.4468 90.2182H64.4915C64.6419 89.934 64.8857 89.6579 65.2271 89.3899C65.5686 89.1219 65.9872 88.8986 66.479 88.7199C66.9708 88.5412 67.5236 88.4519 68.1332 88.4519C68.8486 88.4519 69.4989 88.6387 70.0883 89.0123C70.6776 89.3858 71.1409 89.9178 71.4864 90.6081C71.8319 91.2984 72.0026 92.1064 72.0026 93.0322V99.4195H69.4989V93.1419C69.4989 92.679 69.4014 92.2729 69.2103 91.9237C69.0152 91.5745 68.7673 91.3065 68.4625 91.1197C68.1576 90.9329 67.8121 90.8395 67.4219 90.8395C66.9586 90.8395 66.5522 90.9532 66.1904 91.1765C65.8287 91.3999 65.5482 91.7166 65.3409 92.1267C65.1336 92.5368 65.028 93.0079 65.028 93.5439V99.4154H62.5039V93.1378C62.5039 92.6749 62.4104 92.2688 62.2235 91.9196C62.0365 91.5704 61.7886 91.3024 61.4756 91.1156C61.1627 90.9289 60.8131 90.8355 60.427 90.8355C59.9636 90.8355 59.5531 90.9492 59.1954 91.1725C58.8378 91.3958 58.5533 91.7125 58.346 92.1227C58.1387 92.5328 58.033 93.0038 58.033 93.5398V99.4114H55.5293V99.4195Z" fill="white"/>
<path d="M74.9316 99.4195V88.6752H77.411V90.1939H77.4557C77.6792 89.7472 78.0694 89.3452 78.6303 88.9879C79.1912 88.6306 79.8334 88.4519 80.565 88.4519C81.0853 88.4519 81.5689 88.5412 82.016 88.7199C82.4631 88.8986 82.8452 89.1219 83.1581 89.3899C83.4711 89.6579 83.7028 89.934 83.8491 90.2182H83.8938C84.0442 89.934 84.2881 89.6579 84.6295 89.3899C84.9709 89.1219 85.3895 88.8986 85.8813 88.7199C86.3731 88.5412 86.9259 88.4519 87.5356 88.4519C88.2509 88.4519 88.9013 88.6387 89.4906 89.0123C90.08 89.3858 90.5433 89.9178 90.8888 90.6081C91.2343 91.2984 91.405 92.1064 91.405 93.0322V99.4195H88.9013V93.1419C88.9013 92.679 88.8037 92.2729 88.6127 91.9237C88.4176 91.5745 88.1696 91.3065 87.8648 91.1197C87.56 90.9329 87.2145 90.8395 86.8243 90.8395C86.361 90.8395 85.9545 90.9532 85.5928 91.1765C85.231 91.3999 84.9506 91.7166 84.7433 92.1267C84.536 92.5368 84.4303 93.0079 84.4303 93.5439V99.4154H81.9063V93.1378C81.9063 92.6749 81.8128 92.2688 81.6258 91.9196C81.4389 91.5704 81.1909 91.3024 80.878 91.1156C80.565 90.9289 80.2155 90.8355 79.8293 90.8355C79.366 90.8355 78.9555 90.9492 78.5978 91.1725C78.2401 91.3958 77.9556 91.7125 77.7483 92.1227C77.541 92.5328 77.4353 93.0038 77.4353 93.5398V99.4114H74.9316V99.4195Z" fill="white"/>
<path d="M99.3634 99.6434C98.3067 99.6434 97.3393 99.3998 96.4695 98.9085C95.5997 98.4171 94.9128 97.7431 94.4129 96.8863C93.913 96.0295 93.665 95.0875 93.665 94.0601C93.665 93.0328 93.913 92.0745 94.4129 91.2258C94.9128 90.3772 95.5835 89.7031 96.4248 89.2037C97.2662 88.7042 98.1929 88.4565 99.209 88.4565C100.225 88.4565 101.136 88.6839 101.948 89.1387C102.761 89.5935 103.395 90.2188 103.859 91.0147C104.322 91.8106 104.554 92.708 104.554 93.7069C104.554 93.9464 104.542 94.1657 104.521 94.3647C104.501 94.5636 104.464 94.7261 104.42 94.8438H96.2826C96.3557 95.3067 96.5386 95.729 96.8313 96.1188C97.1239 96.5087 97.4978 96.8132 97.9612 97.0447C98.4245 97.2761 98.9367 97.3898 99.5016 97.3898C100.128 97.3898 100.684 97.2761 101.168 97.0447C101.652 96.8132 102.087 96.5127 102.477 96.1391L103.952 97.7268C103.534 98.2344 102.924 98.6811 102.119 99.0668C101.314 99.4526 100.396 99.6475 99.3675 99.6475L99.3634 99.6434ZM101.957 93.0531C101.867 92.5618 101.701 92.1354 101.453 91.77C101.205 91.4045 100.892 91.1203 100.514 90.9091C100.136 90.702 99.6967 90.5965 99.2049 90.5965C98.6847 90.5965 98.2213 90.702 97.8189 90.9091C97.4166 91.1162 97.0833 91.4045 96.8231 91.77C96.563 92.1354 96.3639 92.5618 96.2297 93.0531H101.953H101.957Z" fill="white"/>
<path d="M106.811 99.4195V88.6752H109.29V90.1046H109.359C109.522 89.8366 109.757 89.5767 110.062 89.3209C110.367 89.0691 110.737 88.858 111.168 88.6955C111.598 88.5331 112.054 88.4519 112.533 88.4519H113.045V91.0872C112.928 91.0588 112.789 91.0304 112.631 91.0101C112.476 90.9857 112.306 90.9776 112.127 90.9776C111.619 90.9776 111.151 91.1116 110.721 91.3796C110.29 91.6476 109.944 92.0211 109.692 92.4962C109.44 92.9713 109.314 93.5073 109.314 94.1042V99.4195H106.811Z" fill="white"/>
<path d="M119.776 99.6434C118.731 99.6434 117.78 99.3998 116.914 98.9085C116.049 98.4171 115.37 97.7431 114.87 96.8863C114.37 96.0295 114.122 95.0875 114.122 94.0601C114.122 93.0328 114.37 92.0704 114.87 91.2137C115.37 90.3569 116.053 89.6828 116.914 89.1915C117.776 88.7002 118.731 88.4565 119.776 88.4565C120.491 88.4565 121.15 88.5662 121.755 88.7814C122.361 88.9966 122.877 89.2646 123.308 89.5854C123.739 89.9062 124.096 90.2432 124.381 90.6005L122.637 92.1395C122.296 91.7537 121.893 91.4289 121.43 91.169C120.967 90.9091 120.43 90.7792 119.82 90.7792C119.211 90.7792 118.703 90.9213 118.211 91.2015C117.719 91.4857 117.337 91.8755 117.061 92.375C116.784 92.8744 116.646 93.4348 116.646 94.0601C116.646 94.6855 116.784 95.2255 117.061 95.725C117.337 96.2244 117.719 96.6142 118.211 96.8985C118.703 97.1827 119.239 97.3208 119.82 97.3208C120.446 97.3208 121.003 97.1868 121.495 96.9188C121.987 96.6508 122.405 96.3178 122.747 95.9158L124.491 97.4345C124.015 98.0314 123.369 98.5471 122.556 98.9856C121.743 99.4241 120.816 99.6434 119.772 99.6434H119.776Z" fill="white"/>
<path d="M127.89 86.6655C127.638 86.6655 127.394 86.6005 127.162 86.4747C126.93 86.3488 126.748 86.1742 126.613 85.9509C126.479 85.7275 126.41 85.4798 126.41 85.2118C126.41 84.9438 126.479 84.7002 126.613 84.4769C126.748 84.2535 126.93 84.0789 127.162 83.9531C127.394 83.8272 127.634 83.7622 127.89 83.7622C128.158 83.7622 128.406 83.8272 128.638 83.9531C128.869 84.0789 129.052 84.2535 129.186 84.4769C129.32 84.7002 129.389 84.9479 129.389 85.2118C129.389 85.4758 129.32 85.7275 129.186 85.9509C129.052 86.1742 128.869 86.3488 128.638 86.4747C128.406 86.6005 128.158 86.6655 127.89 86.6655ZM126.638 99.4198V88.6755H129.141V99.4198H126.638Z" fill="white"/>
<path d="M135.222 99.6428C134.523 99.6428 133.897 99.5007 133.356 99.2205C132.816 98.9404 132.389 98.5546 132.084 98.0714C131.779 97.5882 131.625 97.0684 131.625 96.5203C131.625 95.6269 131.918 94.8879 132.507 94.2991C133.096 93.7103 133.925 93.3205 134.999 93.1256L139.827 92.2973L138.596 93.6576V92.4719C138.579 92.1308 138.482 91.8181 138.307 91.5339C138.128 91.2496 137.88 91.0222 137.559 90.8517C137.238 90.6812 136.868 90.5959 136.454 90.5959C135.889 90.5959 135.389 90.7218 134.958 90.9735C134.527 91.2253 134.117 91.5623 133.726 91.9765L132.206 90.5025C132.519 90.1289 132.881 89.7919 133.291 89.4873C133.702 89.1828 134.177 88.931 134.722 88.7402C135.267 88.5453 135.864 88.4519 136.523 88.4519C137.417 88.4519 138.209 88.6306 138.904 88.9879C139.6 89.3452 140.136 89.8447 140.514 90.4822C140.896 91.1238 141.083 91.8303 141.083 92.6018V99.4154H138.734V97.9212H138.689C138.51 98.1892 138.254 98.4531 137.917 98.713C137.579 98.9728 137.181 99.1921 136.722 99.3708C136.258 99.5494 135.759 99.6388 135.226 99.6388L135.222 99.6428ZM135.783 97.6085C136.291 97.6085 136.758 97.4745 137.189 97.2065C137.62 96.9385 137.966 96.5771 138.218 96.1223C138.47 95.6675 138.6 95.164 138.6 94.6158V93.2312L139.673 94.0799L135.694 94.8392C135.185 94.9285 134.795 95.0991 134.519 95.3549C134.243 95.6066 134.104 95.899 134.104 96.2238C134.104 96.4756 134.169 96.707 134.304 96.9182C134.438 97.1253 134.633 97.2958 134.885 97.4217C135.137 97.5476 135.437 97.6126 135.779 97.6126L135.783 97.6085Z" fill="white"/>
<path d="M144.099 99.4196V83.7864H146.602V99.4196H144.099Z" fill="white"/>
</svg>
