<svg width="149" height="65" viewBox="0 0 149 65" fill="none" xmlns="http://www.w3.org/2000/svg">
<g id="Layer_1" clip-path="url(#clip0_1359_2175)">
<path id="Vector" d="M119.855 16.25C111.113 8.6912 98.1617 0 75.2958 0C52.4298 0 37.9391 8.87522 29.9029 16.3066C28.9001 17.2267 28.8295 18.8121 29.7616 19.8171C30.6938 20.8221 32.2615 20.8929 33.2643 19.9586C40.6509 13.1217 53.9411 4.96842 75.2958 4.96842C96.6505 4.96842 108.528 13.0085 116.607 20.0011C117.059 20.3974 117.638 20.6098 118.231 20.6098C118.951 20.6098 119.644 20.2983 120.11 19.7463C120.999 18.6988 120.886 17.1418 119.855 16.2358" fill="#7CC7E7"/>
<path id="Vector_2" d="M29.451 55.9265C28.9991 56.3795 28.4342 56.6059 27.7562 56.6059C27.0783 56.6059 26.5557 56.3795 26.1179 55.9265C25.6801 55.4735 25.4541 54.9073 25.4541 54.2279V30.1643C25.4541 29.499 25.6801 28.9328 26.132 28.4657C26.584 28.0127 27.1489 27.7863 27.8268 27.7863C28.5048 27.7863 29.0273 28.0127 29.4652 28.4657C29.903 28.9187 30.129 29.4849 30.129 30.1643V54.2279C30.129 54.9073 29.903 55.4594 29.451 55.9265Z" fill="#0B3A7C"/>
<path id="Vector_3" d="M51.9215 36.4633C52.3593 36.9162 52.5853 37.4824 52.5853 38.1619V48.0562C52.5853 50.8589 51.8226 53.0671 50.269 54.6383C48.7295 56.2237 46.5263 57.0164 43.6875 57.0164C40.8486 57.0164 38.6454 56.2237 37.12 54.6383C35.5947 53.053 34.832 50.8589 34.832 48.0562V38.1619C34.832 37.4966 35.0439 36.9304 35.4958 36.4633C35.9337 36.0103 36.4986 35.7838 37.1624 35.7838C37.8262 35.7838 38.3911 36.0103 38.829 36.4633C39.2668 36.9162 39.4928 37.4824 39.4928 38.1619V48.0562C39.4928 49.6416 39.8459 50.8165 40.5379 51.5809C41.2441 52.3452 42.2892 52.7274 43.6875 52.7274C45.0857 52.7274 46.1732 52.3452 46.8794 51.5809C47.5855 50.8165 47.9245 49.6416 47.9245 48.0562V38.1619C47.9245 37.4966 48.1505 36.9304 48.5883 36.4633C49.0261 36.0103 49.5911 35.7838 50.2549 35.7838C50.9187 35.7838 51.4836 36.0103 51.9215 36.4633Z" fill="#0B3A7C"/>
<path id="Vector_4" d="M75.55 47.2211C75.084 47.6174 74.5331 47.8014 73.9117 47.8014H61.0876C61.3983 49.3302 62.1045 50.5333 63.2202 51.411C64.336 52.2744 65.593 52.7132 66.9912 52.7132C68.0505 52.7132 68.8837 52.6141 69.4769 52.416C70.0701 52.2178 70.5503 52.0196 70.8893 51.7931C71.2424 51.5667 71.4825 51.4251 71.6096 51.3402C72.0757 51.0995 72.5135 50.9863 72.9372 50.9863C73.488 50.9863 73.9541 51.1845 74.3354 51.5667C74.7167 51.9489 74.9145 52.416 74.9145 52.9256C74.9145 53.6333 74.5614 54.2561 73.827 54.8365C73.0925 55.431 72.1321 55.9406 70.9175 56.3511C69.7029 56.7757 68.4742 56.9739 67.2313 56.9739C65.0563 56.9739 63.1637 56.5209 61.5395 55.615C59.9153 54.7091 58.6583 53.4493 57.7827 51.8498C56.8929 50.2502 56.4551 48.4526 56.4551 46.4567C56.4551 44.2202 56.9212 42.2668 57.8533 40.5823C58.7854 38.8979 60.0142 37.6098 61.5395 36.7039C63.0649 35.8121 64.7032 35.3591 66.4404 35.3591C68.1776 35.3591 69.7594 35.8262 71.2847 36.7605C72.7959 37.6947 74.0106 38.9545 74.9145 40.5399C75.8184 42.1252 76.2703 43.838 76.2703 45.6782C76.2421 46.301 76.002 46.8106 75.5359 47.1928L75.55 47.2211ZM61.1299 43.9229H71.313V43.654C71.2 42.5641 70.6774 41.6298 69.717 40.8513C68.7566 40.0728 67.6691 39.6764 66.4545 39.6764C63.4462 39.6764 61.6808 41.0919 61.1299 43.9229Z" fill="#0B3A7C"/>
<path id="Vector_5" d="M85.0693 52.2179C85.0693 51.5526 85.4083 50.9723 86.0862 50.5052C86.4393 50.2645 86.8206 50.1513 87.2161 50.1513C87.7669 50.1513 88.2754 50.3919 88.7697 50.8874C89.5465 51.6942 90.3515 52.2887 91.1989 52.6851C92.0463 53.0814 93.0491 53.2654 94.2496 53.2654C96.2693 53.1805 97.2861 52.4161 97.2861 50.9723C97.2861 50.2221 96.9472 49.6417 96.2551 49.2595C95.5631 48.8632 94.4897 48.481 93.0491 48.0847C91.5379 47.66 90.3233 47.2637 89.377 46.839C88.4307 46.4144 87.6257 45.7915 86.9336 44.9564C86.2416 44.1071 85.9026 42.9747 85.9026 41.545C85.9026 40.2994 86.2557 39.2236 86.976 38.2894C87.6822 37.3693 88.6143 36.6474 89.7725 36.1519C90.9306 35.6424 92.1593 35.3876 93.4446 35.3876C94.7298 35.3876 96.0857 35.6282 97.4133 36.1236C98.7409 36.6191 99.7719 37.341 100.52 38.3035C100.859 38.7282 101.029 39.1953 101.029 39.7049C101.029 40.2994 100.789 40.7948 100.294 41.1911C99.9414 41.4742 99.5177 41.6158 99.0516 41.6158C98.4725 41.6158 98.0064 41.4318 97.6534 41.0638C97.1873 40.4834 96.58 40.0446 95.8456 39.7049C95.1111 39.3651 94.2779 39.1953 93.3457 39.1953C91.3684 39.1953 90.3939 39.903 90.3939 41.3327C90.3939 41.9131 90.5775 42.366 90.9447 42.7199C91.2978 43.0738 91.7639 43.3427 92.3288 43.5409C92.8796 43.7391 93.6705 43.9797 94.6733 44.2628C96.0715 44.6591 97.2438 45.0555 98.1759 45.466C99.1081 45.8906 99.899 46.5134 100.549 47.3769C101.198 48.2404 101.523 49.3586 101.523 50.76C101.523 52.0339 101.142 53.1522 100.393 54.0864C99.6448 55.0348 98.6702 55.7567 97.498 56.2521C96.3257 56.7476 95.1111 56.9882 93.8683 56.9882C92.1593 56.9882 90.5634 56.7051 89.0945 56.1247C87.6116 55.5444 86.4111 54.6384 85.4789 53.3645C85.2388 53.0531 85.1258 52.6567 85.1258 52.1896L85.0693 52.2179Z" fill="#0B3A7C"/>
<path id="Vector_6" d="M122.822 54.2849C122.822 54.936 122.568 55.4881 122.059 55.9269C121.551 56.3657 121.014 56.5922 120.449 56.5922C119.785 56.5922 119.206 56.3232 118.74 55.8136L111.749 48.4105L109.842 50.1658V54.2566C109.842 54.9219 109.616 55.4881 109.179 55.9552C108.741 56.4081 108.176 56.6346 107.512 56.6346C106.848 56.6346 106.283 56.4081 105.845 55.9552C105.408 55.5022 105.182 54.936 105.182 54.2566V30.1788C105.182 29.5135 105.408 28.9473 105.845 28.4802C106.283 28.0273 106.848 27.8008 107.512 27.8008C108.176 27.8008 108.741 28.0273 109.179 28.4802C109.616 28.9332 109.842 29.4994 109.842 30.1788V44.5887L118.161 36.5203C118.655 36.0249 119.22 35.7842 119.87 35.7842C120.449 35.7842 120.943 36.0249 121.41 36.5061C121.861 36.9874 122.087 37.4687 122.087 37.9641C122.087 38.5869 121.777 39.1673 121.155 39.7193L115.294 45.1266L122.102 52.5297C122.596 53.0392 122.836 53.6337 122.836 54.2849" fill="#0B3A7C"/>
<path id="Vector_7" d="M146.761 52.5576C147.114 52.5576 147.467 52.6425 147.806 52.8266C148.131 53.0106 148.399 53.2654 148.583 53.6051C148.78 53.9448 148.865 54.2987 148.865 54.6667C148.865 55.0347 148.78 55.3886 148.583 55.7142C148.399 56.0398 148.131 56.3087 147.806 56.4927C147.481 56.6767 147.128 56.7758 146.761 56.7758C146.393 56.7758 146.04 56.6767 145.716 56.4927C145.391 56.3087 145.122 56.0398 144.939 55.7142C144.755 55.3886 144.656 55.0347 144.656 54.6667C144.656 54.2987 144.755 53.9448 144.939 53.6051C145.136 53.2654 145.391 53.0106 145.73 52.8266C146.054 52.6425 146.408 52.5576 146.775 52.5576M146.761 52.9823C146.464 52.9823 146.196 53.053 145.927 53.1946C145.659 53.3361 145.447 53.5485 145.292 53.8174C145.136 54.0864 145.052 54.3695 145.052 54.6809C145.052 54.9923 145.136 55.2612 145.278 55.5302C145.419 55.7991 145.631 56.0114 145.899 56.1672C146.167 56.3087 146.45 56.3936 146.747 56.3936C147.043 56.3936 147.326 56.3087 147.594 56.1672C147.862 56.0114 148.074 55.8133 148.215 55.5302C148.357 55.2612 148.441 54.9781 148.441 54.6809C148.441 54.3836 148.357 54.1005 148.201 53.8174C148.046 53.5343 147.848 53.3361 147.566 53.1946C147.297 53.053 147.015 52.9823 146.732 52.9823M145.814 55.8133V53.5768H146.987C147.128 53.5768 147.255 53.6192 147.34 53.6617C147.424 53.7042 147.495 53.775 147.552 53.874C147.608 53.9731 147.636 54.0722 147.636 54.1996C147.636 54.3695 147.594 54.4969 147.481 54.6243C147.368 54.7375 147.227 54.8083 147.029 54.8366C147.1 54.8649 147.142 54.879 147.184 54.9215C147.227 54.9498 147.269 55.0064 147.326 55.0914C147.34 55.1055 147.396 55.2046 147.495 55.3603L147.763 55.8133H147.198L147.015 55.4594C146.888 55.2188 146.775 55.0631 146.704 55.0064C146.634 54.9498 146.521 54.9074 146.393 54.9074H146.28V55.8274H145.829L145.814 55.8133ZM146.266 54.5252H146.45C146.718 54.5252 146.874 54.5252 146.93 54.4969C146.987 54.4827 147.043 54.4402 147.071 54.3836C147.114 54.3411 147.128 54.2704 147.128 54.2138C147.128 54.1571 147.114 54.1005 147.085 54.0439C147.043 54.0014 147.001 53.959 146.93 53.9307C146.86 53.9165 146.69 53.9023 146.45 53.9023H146.266V54.511V54.5252Z" fill="#0B3A7C"/>
<g id="Group 1000002079">
<path id="Vector_8" d="M16.4858 36.7747C17.9264 37.6948 19.0845 38.9687 19.9319 40.6107C20.7793 42.2527 21.1889 44.107 21.1889 46.1737C21.1889 48.2403 20.7652 50.1229 19.9461 51.7649C19.1269 53.4069 17.9829 54.7092 16.5423 55.6151C15.1017 56.5352 13.5199 57.0023 11.7827 57.0023C10.5398 57.0023 9.36757 56.7475 8.26594 56.2379C7.16431 55.7283 6.26041 55.1196 5.52598 54.3836V54.6242C5.52598 55.2895 5.30001 55.8557 4.86218 56.3228C4.42435 56.7758 3.85941 57.0023 3.19561 57.0023C2.53181 57.0023 1.96687 56.7758 1.52904 56.337C1.09121 55.8982 0.865234 55.3178 0.865234 54.6242V30.1501C0.865234 29.4849 1.09121 28.9187 1.52904 28.4515C1.96687 27.9986 2.53181 27.7721 3.19561 27.7721C3.85941 27.7721 4.42435 27.9986 4.86218 28.4515C5.30001 28.9045 5.52598 29.4707 5.52598 30.1501V38.2893C6.14742 37.5108 7.00895 36.8313 8.12471 36.251C9.24046 35.6706 10.4127 35.3734 11.6273 35.3734C13.421 35.3734 15.0311 35.8263 16.4858 36.7605M15.13 50.8448C16.1892 49.5992 16.7259 48.0421 16.7259 46.1737C16.7259 44.3052 16.2033 42.7623 15.1582 41.5166C14.1131 40.2852 12.7431 39.6623 11.0624 39.6623C9.3817 39.6623 7.99759 40.271 6.93833 41.5166C5.87907 42.7481 5.34238 44.3052 5.34238 46.1737C5.34238 48.0421 5.87907 49.5992 6.93833 50.8448C7.99759 52.0905 9.3817 52.7133 11.0624 52.7133C12.7431 52.7133 14.0848 52.0905 15.1441 50.8448H15.13Z" fill="#0B3A7C"/>
<path id="Vector_9" d="M142.876 36.4631C143.314 36.9161 143.54 37.4823 143.54 38.1617V51.3967C143.54 57.9222 143.286 64.9997 133.555 64.9997C132.665 64.9997 131.775 64.9289 130.857 64.7874C129.939 64.6458 129.191 64.4618 128.626 64.2212C127.355 63.6691 126.719 62.9331 126.719 61.9564C126.719 61.7724 126.762 61.56 126.832 61.3336C126.988 60.7532 127.256 60.3286 127.623 60.0313C128.004 59.734 128.414 59.5783 128.852 59.5783C129.12 59.5783 129.36 59.6208 129.586 59.6916C129.77 59.7765 130.081 59.8897 130.533 60.0879C130.984 60.2861 131.465 60.4135 131.973 60.5409C132.482 60.6541 133.385 60.7107 133.936 60.7107C138.187 60.7107 138.978 57.172 138.908 54.4825C137.566 56.167 135.462 57.0163 132.609 57.0163C131.253 57.0163 130.066 56.6907 129.035 56.0679C127.99 55.4309 127.199 54.5533 126.62 53.4209C126.041 52.2885 125.759 51.0004 125.759 49.5424V38.1759C125.759 37.5106 125.971 36.9444 126.423 36.4773C126.86 36.0243 127.425 35.7979 128.089 35.7979C128.753 35.7979 129.318 36.0243 129.756 36.4773C130.194 36.9303 130.42 37.4965 130.42 38.1759V48.1411C130.42 49.783 130.773 50.9579 131.493 51.6657C132.199 52.3734 133.258 52.7414 134.628 52.7414C135.998 52.7414 137.015 52.3451 137.75 51.5524C138.484 50.7597 138.851 49.6273 138.851 48.1411V38.1759C138.851 37.5106 139.077 36.9444 139.515 36.4773C139.953 36.0243 140.518 35.7979 141.182 35.7979C141.845 35.7979 142.41 36.0243 142.848 36.4773L142.876 36.4631Z" fill="#0B3A7C"/>
</g>
</g>
<defs>
<clipPath id="clip0_1359_2175">
<rect width="148" height="65" fill="white" transform="translate(0.865234)"/>
</clipPath>
</defs>
</svg>
