<svg width="220" height="220" viewBox="0 0 220 220" fill="none" xmlns="http://www.w3.org/2000/svg">
<path d="M173.276 73.9097C160.98 63.4218 142.767 51.3589 110.61 51.3589C78.453 51.3589 58.0772 63.6763 46.7717 73.9913C45.3633 75.2687 45.2624 77.468 46.5747 78.8655C47.8869 80.2581 50.0884 80.3589 51.5016 79.0624C61.889 69.5733 80.5776 58.2595 110.61 58.2595C140.643 58.2595 157.346 69.4197 168.704 79.12C169.339 79.6722 170.156 79.9652 170.988 79.9652C172.002 79.9652 172.973 79.533 173.627 78.7646C174.876 77.3096 174.718 75.1486 173.271 73.8905" fill="white"/>
<path d="M27.9056 102.396C29.9293 103.673 31.5588 105.44 32.7508 107.721C33.9429 110.002 34.5197 112.571 34.5197 115.443C34.5197 118.315 33.9237 120.922 32.7701 123.203C31.6164 125.484 30.011 127.29 27.9825 128.548C25.9589 129.825 23.7334 130.474 21.2867 130.474C19.5371 130.474 17.8884 130.118 16.3406 129.412C14.7928 128.707 13.519 127.861 12.4856 126.839V127.175C12.4856 128.097 12.1683 128.884 11.5531 129.532C10.9378 130.162 10.1447 130.474 9.20737 130.474C8.27006 130.474 7.48178 130.157 6.86171 129.552C6.24645 128.942 5.9292 128.135 5.9292 127.175V93.2092C5.9292 92.2872 6.24645 91.4997 6.86171 90.8514C7.47697 90.2223 8.27006 89.9102 9.20737 89.9102C10.1447 89.9102 10.933 90.2223 11.5531 90.8514C12.1683 91.4805 12.4856 92.268 12.4856 93.2092V104.504C13.3604 103.423 14.5717 102.482 16.1387 101.675C17.7057 100.869 19.3544 100.456 21.0656 100.456C23.5892 100.456 25.8531 101.085 27.896 102.381M26.0021 121.921C27.4922 120.192 28.2469 118.031 28.2469 115.438C28.2469 112.845 27.5115 110.703 26.0406 108.975C24.5697 107.265 22.6423 106.401 20.2821 106.401C17.922 106.401 15.9705 107.246 14.4804 108.975C12.9903 110.684 12.2356 112.845 12.2356 115.438C12.2356 118.031 12.9903 120.192 14.4804 121.921C15.9705 123.65 17.9172 124.514 20.2821 124.514C22.6471 124.514 24.5313 123.65 26.0214 121.921H26.0021Z" fill="white"/>
<path d="M46.142 128.976C45.5075 129.605 44.7096 129.917 43.7579 129.917C42.8061 129.917 42.0707 129.605 41.4555 128.976C40.8402 128.347 40.5229 127.559 40.5229 126.618V93.2239C40.5229 92.3019 40.8402 91.5143 41.4747 90.866C42.1092 90.2369 42.9071 89.9248 43.8588 89.9248C44.8106 89.9248 45.546 90.2369 46.1613 90.866C46.7765 91.4951 47.0938 92.2826 47.0938 93.2239V126.618C47.0938 127.559 46.7765 128.327 46.142 128.976Z" fill="white"/>
<path d="M77.7422 101.964C78.3575 102.593 78.6747 103.38 78.6747 104.322V118.051C78.6747 121.941 77.6028 125.004 75.4158 127.184C73.2527 129.384 70.1524 130.484 66.158 130.484C62.1636 130.484 59.068 129.384 56.9242 127.184C54.7804 124.985 53.7085 121.941 53.7085 118.051V104.322C53.7085 103.4 54.0065 102.612 54.641 101.964C55.2563 101.335 56.0494 101.022 56.9867 101.022C57.924 101.022 58.7171 101.335 59.3324 101.964C59.9477 102.593 60.2649 103.38 60.2649 104.322V118.051C60.2649 120.25 60.76 121.883 61.7358 122.944C62.7308 124.005 64.1968 124.534 66.1628 124.534C68.1288 124.534 69.6573 124.005 70.6523 122.944C71.6473 121.883 72.1231 120.255 72.1231 118.051V104.322C72.1231 103.4 72.4404 102.612 73.0556 101.964C73.6709 101.335 74.464 101.022 75.4013 101.022C76.3387 101.022 77.1318 101.335 77.747 101.964H77.7422Z" fill="white"/>
<path d="M110.971 116.893C110.317 117.445 109.543 117.7 108.669 117.7H90.6337C91.0711 119.823 92.0661 121.494 93.6331 122.709C95.2001 123.909 96.969 124.514 98.9349 124.514C100.425 124.514 101.598 124.375 102.429 124.101C103.266 123.828 103.939 123.549 104.415 123.237C104.91 122.925 105.251 122.728 105.429 122.608C106.083 122.276 106.698 122.118 107.294 122.118C108.068 122.118 108.726 122.392 109.26 122.925C109.798 123.453 110.072 124.101 110.072 124.812C110.072 125.796 109.577 126.661 108.544 127.463C107.51 128.289 106.159 128.995 104.453 129.566C102.747 130.157 101.016 130.43 99.2666 130.43C96.2095 130.43 93.5466 129.801 91.2634 128.543C88.9801 127.285 87.2113 125.537 85.9807 123.318C84.731 121.1 84.1157 118.603 84.1157 115.832C84.1157 112.73 84.7695 110.017 86.0817 107.678C87.3939 105.339 89.1195 103.553 91.2682 102.295C93.412 101.056 95.7144 100.427 98.161 100.427C100.608 100.427 102.828 101.075 104.972 102.372C107.097 103.668 108.808 105.416 110.077 107.616C111.351 109.815 111.985 112.192 111.985 114.747C111.947 115.611 111.61 116.317 110.952 116.85L110.971 116.888V116.893ZM90.6913 112.317H105.011V111.942C104.852 110.43 104.117 109.133 102.766 108.053C101.415 106.972 99.8867 106.425 98.1803 106.425C93.9503 106.425 91.4652 108.389 90.6913 112.317Z" fill="white"/>
<path d="M124.358 123.827C124.358 122.905 124.834 122.099 125.79 121.45C126.285 121.114 126.824 120.96 127.376 120.96C128.15 120.96 128.866 121.292 129.563 121.983C130.655 123.102 131.789 123.928 132.981 124.48C134.173 125.033 135.582 125.287 137.273 125.287C140.114 125.167 141.542 124.106 141.542 122.103C141.542 121.061 141.066 120.254 140.09 119.726C139.119 119.174 137.605 118.646 135.582 118.094C133.457 117.503 131.751 116.955 130.419 116.365C129.088 115.774 127.958 114.91 126.982 113.752C126.006 112.571 125.531 111.001 125.531 109.018C125.531 107.289 126.026 105.795 127.04 104.499C128.035 103.221 129.342 102.218 130.972 101.531C132.601 100.825 134.327 100.47 136.134 100.47C137.942 100.47 139.85 100.801 141.715 101.493C143.58 102.179 145.032 103.183 146.084 104.518C146.56 105.109 146.8 105.757 146.8 106.463C146.8 107.289 146.464 107.975 145.767 108.523C145.272 108.917 144.676 109.114 144.017 109.114C143.205 109.114 142.546 108.859 142.051 108.35C141.398 107.543 140.542 106.933 139.509 106.463C138.475 105.992 137.302 105.757 135.995 105.757C133.217 105.757 131.842 106.737 131.842 108.725C131.842 109.531 132.101 110.16 132.616 110.65C133.111 111.14 133.769 111.515 134.562 111.788C135.336 112.062 136.452 112.398 137.86 112.792C139.826 113.344 141.475 113.892 142.787 114.463C144.099 115.054 145.209 115.918 146.123 117.114C147.036 118.31 147.493 119.866 147.493 121.81C147.493 123.578 146.954 125.129 145.902 126.425C144.849 127.741 143.479 128.745 141.83 129.431C140.182 130.118 138.475 130.454 136.726 130.454C134.322 130.454 132.077 130.06 130.01 129.254C127.924 128.447 126.237 127.194 124.925 125.422C124.588 124.989 124.43 124.442 124.43 123.789L124.348 123.827H124.358Z" fill="white"/>
<path d="M177.449 126.694C177.449 127.597 177.093 128.366 176.377 128.975C175.661 129.585 174.906 129.897 174.113 129.897C173.18 129.897 172.363 129.523 171.709 128.817L161.88 118.545L159.198 120.98V126.656C159.198 127.578 158.88 128.366 158.265 129.014C157.65 129.643 156.857 129.955 155.919 129.955C154.982 129.955 154.189 129.643 153.574 129.014C152.958 128.385 152.641 127.597 152.641 126.656V93.238C152.641 92.316 152.958 91.5285 153.574 90.8802C154.189 90.2511 154.982 89.939 155.919 89.939C156.857 89.939 157.65 90.2511 158.265 90.8802C158.88 91.5093 159.198 92.2968 159.198 93.238V113.234L170.897 102.036C171.594 101.349 172.387 101.013 173.3 101.013C174.113 101.013 174.81 101.349 175.464 102.016C176.098 102.684 176.415 103.351 176.415 104.038C176.415 104.902 175.978 105.709 175.103 106.473L166.859 113.978L176.435 124.255C177.131 124.961 177.468 125.787 177.468 126.69" fill="white"/>
<path d="M211.11 124.298C211.605 124.298 212.105 124.418 212.581 124.673C213.037 124.927 213.417 125.283 213.672 125.753C213.951 126.224 214.071 126.714 214.071 127.228C214.071 127.741 213.951 128.231 213.672 128.683C213.412 129.134 213.037 129.509 212.581 129.763C212.124 130.018 211.629 130.157 211.11 130.157C210.591 130.157 210.096 130.018 209.639 129.763C209.182 129.509 208.803 129.134 208.548 128.683C208.293 128.231 208.149 127.741 208.149 127.228C208.149 126.714 208.288 126.224 208.548 125.753C208.827 125.283 209.182 124.927 209.658 124.673C210.115 124.418 210.61 124.298 211.129 124.298M211.11 124.889C210.692 124.889 210.317 124.99 209.937 125.182C209.557 125.374 209.264 125.672 209.043 126.046C208.827 126.421 208.707 126.815 208.707 127.242C208.707 127.669 208.827 128.049 209.024 128.423C209.221 128.798 209.519 129.091 209.899 129.307C210.278 129.504 210.672 129.619 211.091 129.619C211.509 129.619 211.903 129.504 212.283 129.307C212.662 129.091 212.956 128.817 213.158 128.423C213.355 128.049 213.475 127.655 213.475 127.242C213.475 126.829 213.355 126.435 213.138 126.046C212.922 125.653 212.643 125.379 212.244 125.182C211.865 124.985 211.47 124.889 211.071 124.889M209.783 128.817V125.715H211.432C211.629 125.715 211.812 125.773 211.927 125.83C212.047 125.888 212.148 125.989 212.225 126.123C212.307 126.262 212.345 126.397 212.345 126.575C212.345 126.81 212.288 126.988 212.129 127.165C211.97 127.324 211.773 127.42 211.494 127.458C211.595 127.497 211.653 127.516 211.716 127.578C211.773 127.617 211.836 127.693 211.913 127.813C211.932 127.833 212.014 127.972 212.153 128.188L212.533 128.817H211.74L211.48 128.327C211.302 127.991 211.144 127.775 211.043 127.698C210.942 127.621 210.783 127.559 210.605 127.559H210.447V128.836H209.812L209.793 128.817H209.783ZM210.418 127.031H210.677C211.057 127.031 211.273 127.031 211.35 126.992C211.432 126.973 211.509 126.915 211.547 126.834C211.605 126.776 211.629 126.675 211.629 126.599C211.629 126.522 211.61 126.44 211.571 126.363C211.514 126.306 211.451 126.243 211.35 126.205C211.249 126.186 211.014 126.166 210.677 126.166H210.418V127.031Z" fill="white"/>
<path d="M205.65 101.964C206.265 102.593 206.582 103.38 206.582 104.322V122.69C206.582 131.747 206.227 141.567 192.542 141.567C191.292 141.567 190.037 141.471 188.749 141.274C187.461 141.077 186.404 140.823 185.61 140.486C183.822 139.718 182.928 138.7 182.928 137.341C182.928 137.087 182.986 136.794 183.087 136.477C183.303 135.67 183.683 135.084 184.197 134.671C184.731 134.258 185.308 134.042 185.928 134.042C186.307 134.042 186.644 134.1 186.961 134.2C187.221 134.32 187.658 134.474 188.293 134.753C188.927 135.026 189.605 135.204 190.316 135.382C191.032 135.54 192.301 135.617 193.075 135.617C199.055 135.617 200.165 130.704 200.064 126.973C198.18 129.312 195.219 130.488 191.205 130.488C189.297 130.488 187.629 130.037 186.182 129.173C184.712 128.289 183.601 127.069 182.784 125.499C181.972 123.929 181.573 122.142 181.573 120.116V104.341C181.573 103.419 181.871 102.631 182.505 101.983C183.121 101.354 183.914 101.042 184.851 101.042C185.788 101.042 186.581 101.354 187.197 101.983C187.812 102.612 188.129 103.4 188.129 104.341V118.171C188.129 120.447 188.624 122.08 189.638 123.064C190.633 124.044 192.124 124.558 194.046 124.558C195.969 124.558 197.401 124.006 198.435 122.906C199.468 121.806 199.983 120.236 199.983 118.171V104.341C199.983 103.419 200.3 102.631 200.915 101.983C201.53 101.354 202.323 101.042 203.261 101.042C204.198 101.042 204.991 101.354 205.606 101.983L205.645 101.964H205.65Z" fill="white"/>
<path d="M48.3606 168.641C46.5292 168.641 44.8565 168.218 43.352 167.373C41.8475 166.528 40.6602 165.375 39.795 163.911C38.9298 162.451 38.502 160.847 38.502 159.104C38.502 157.361 38.9346 155.757 39.795 154.297C40.6602 152.837 41.8427 151.68 43.352 150.835C44.8613 149.989 46.5292 149.567 48.3606 149.567C50.0526 149.567 51.5523 149.917 52.8549 150.623C54.1575 151.329 55.2102 152.155 55.9985 153.106L53.7538 155.008C53.1001 154.287 52.3502 153.697 51.5042 153.241C50.6582 152.784 49.62 152.554 48.3846 152.554C47.1493 152.554 46.0822 152.842 45.068 153.423C44.0538 154.004 43.2558 154.796 42.6742 155.8C42.0926 156.804 41.8042 157.903 41.8042 159.104C41.8042 160.304 42.0926 161.404 42.6742 162.408C43.2558 163.411 44.0538 164.204 45.068 164.785C46.0822 165.366 47.1877 165.654 48.3846 165.654C49.5815 165.654 50.6919 165.419 51.5571 164.953C52.4175 164.487 53.1962 163.872 53.8835 163.118L56.1043 164.991C55.2919 165.995 54.2248 166.855 52.8934 167.565C51.5619 168.276 50.0526 168.636 48.3606 168.636V168.641Z" fill="white"/>
<path d="M64.276 168.617C63.0407 168.617 61.9159 168.329 60.8921 167.748C59.8682 167.167 59.0655 166.37 58.4743 165.357C57.8831 164.343 57.5898 163.229 57.5898 162.014C57.5898 160.799 57.8831 159.661 58.4743 158.648C59.0655 157.635 59.873 156.838 60.8921 156.257C61.9111 155.676 63.0407 155.387 64.276 155.387C65.5113 155.387 66.665 155.676 67.6888 156.257C68.7127 156.838 69.5154 157.635 70.1066 158.648C70.6978 159.661 70.9911 160.785 70.9911 162.014C70.9911 163.244 70.693 164.343 70.1066 165.357C69.5154 166.37 68.7079 167.167 67.6888 167.748C66.6698 168.329 65.5306 168.617 64.276 168.617ZM64.276 165.87C64.9826 165.87 65.6171 165.702 66.1795 165.371C66.7419 165.035 67.1889 164.574 67.5158 163.983C67.8426 163.393 68.0061 162.74 68.0061 162.014C68.0061 161.289 67.8426 160.612 67.5158 160.021C67.1889 159.431 66.7419 158.97 66.1795 158.634C65.6171 158.298 64.9826 158.134 64.276 158.134C63.5694 158.134 62.9638 158.302 62.4014 158.634C61.839 158.97 61.392 159.431 61.0651 160.021C60.7383 160.612 60.5748 161.275 60.5748 162.014C60.5748 162.754 60.7383 163.393 61.0651 163.983C61.392 164.574 61.8342 165.035 62.4014 165.371C62.9638 165.707 63.5887 165.87 64.276 165.87Z" fill="white"/>
<path d="M73.793 168.352V155.646H76.7251V157.442H76.7779C77.0423 156.914 77.5038 156.438 78.1671 156.016C78.8304 155.593 79.5899 155.382 80.4551 155.382C81.0704 155.382 81.6424 155.487 82.1711 155.699C82.6999 155.91 83.1517 156.174 83.5218 156.491C83.8919 156.808 84.1659 157.135 84.339 157.471H84.3918C84.5697 157.135 84.8581 156.808 85.2619 156.491C85.6656 156.174 86.1607 155.91 86.7423 155.699C87.324 155.487 87.9777 155.382 88.6987 155.382C89.5447 155.382 90.3138 155.603 91.0107 156.045C91.7077 156.486 92.2557 157.115 92.6642 157.932C93.0728 158.748 93.2747 159.704 93.2747 160.799V168.352H90.3138V160.928C90.3138 160.381 90.1984 159.901 89.9725 159.488C89.7417 159.075 89.4485 158.758 89.088 158.537C88.7275 158.316 88.3189 158.205 87.8575 158.205C87.3095 158.205 86.8289 158.34 86.4011 158.604C85.9733 158.868 85.6416 159.243 85.3964 159.728C85.1513 160.213 85.0263 160.77 85.0263 161.404V168.348H82.0413V160.923C82.0413 160.376 81.9308 159.896 81.7097 159.483C81.4886 159.07 81.1954 158.753 80.8252 158.532C80.4551 158.311 80.0417 158.201 79.5851 158.201C79.0371 158.201 78.5516 158.335 78.1286 158.599C77.7056 158.863 77.3692 159.238 77.124 159.723C76.8789 160.208 76.7539 160.765 76.7539 161.399V168.343H73.793V168.352Z" fill="white"/>
<path d="M96.7402 168.352V155.646H99.6723V157.442H99.7252C99.9896 156.914 100.451 156.438 101.114 156.016C101.778 155.593 102.537 155.382 103.402 155.382C104.018 155.382 104.59 155.487 105.118 155.699C105.647 155.91 106.099 156.174 106.469 156.491C106.839 156.808 107.113 157.135 107.286 157.471H107.339C107.517 157.135 107.805 156.808 108.209 156.491C108.613 156.174 109.108 155.91 109.69 155.699C110.271 155.487 110.925 155.382 111.646 155.382C112.492 155.382 113.261 155.603 113.958 156.045C114.655 156.486 115.203 157.115 115.612 157.932C116.02 158.748 116.222 159.704 116.222 160.799V168.352H113.261V160.928C113.261 160.381 113.146 159.901 112.92 159.488C112.689 159.075 112.396 158.758 112.035 158.537C111.675 158.316 111.266 158.205 110.805 158.205C110.257 158.205 109.776 158.34 109.348 158.604C108.921 158.868 108.589 159.243 108.344 159.728C108.099 160.213 107.974 160.77 107.974 161.404V168.348H104.989V160.923C104.989 160.376 104.878 159.896 104.657 159.483C104.436 159.07 104.143 158.753 103.773 158.532C103.402 158.311 102.989 158.201 102.532 158.201C101.984 158.201 101.499 158.335 101.076 158.599C100.653 158.863 100.316 159.238 100.071 159.723C99.8262 160.208 99.7012 160.765 99.7012 161.399V168.343H96.7402V168.352Z" fill="white"/>
<path d="M125.634 168.618C124.384 168.618 123.24 168.329 122.211 167.748C121.183 167.167 120.37 166.37 119.779 165.357C119.188 164.344 118.895 163.23 118.895 162.015C118.895 160.8 119.188 159.666 119.779 158.663C120.37 157.659 121.163 156.862 122.158 156.271C123.153 155.681 124.249 155.388 125.451 155.388C126.653 155.388 127.729 155.657 128.691 156.194C129.652 156.732 130.402 157.472 130.95 158.413C131.498 159.354 131.772 160.416 131.772 161.597C131.772 161.88 131.757 162.139 131.733 162.375C131.709 162.61 131.666 162.802 131.613 162.941H121.99C122.077 163.489 122.293 163.988 122.639 164.449C122.985 164.91 123.427 165.27 123.975 165.544C124.523 165.818 125.129 165.952 125.797 165.952C126.537 165.952 127.196 165.818 127.768 165.544C128.34 165.27 128.854 164.915 129.316 164.473L131.06 166.351C130.565 166.951 129.844 167.479 128.893 167.936C127.941 168.392 126.855 168.622 125.638 168.622L125.634 168.618ZM128.7 160.824C128.595 160.243 128.397 159.738 128.104 159.306C127.811 158.874 127.441 158.538 126.994 158.288C126.547 158.043 126.028 157.918 125.446 157.918C124.831 157.918 124.283 158.043 123.807 158.288C123.331 158.533 122.937 158.874 122.629 159.306C122.322 159.738 122.086 160.243 121.928 160.824H128.695H128.7Z" fill="white"/>
<path d="M134.439 168.352V155.646H137.372V157.336H137.453C137.646 157.019 137.924 156.712 138.285 156.409C138.645 156.112 139.083 155.862 139.592 155.67C140.102 155.478 140.64 155.382 141.207 155.382H141.813V158.498C141.674 158.465 141.51 158.431 141.323 158.407C141.14 158.378 140.938 158.369 140.727 158.369C140.126 158.369 139.573 158.527 139.064 158.844C138.554 159.161 138.145 159.603 137.847 160.165C137.549 160.727 137.4 161.36 137.4 162.066V168.352H134.439Z" fill="white"/>
<path d="M149.773 168.618C148.538 168.618 147.413 168.329 146.389 167.748C145.365 167.167 144.563 166.37 143.971 165.357C143.38 164.344 143.087 163.23 143.087 162.015C143.087 160.8 143.38 159.662 143.971 158.648C144.563 157.635 145.37 156.838 146.389 156.257C147.408 155.676 148.538 155.388 149.773 155.388C150.619 155.388 151.398 155.517 152.114 155.772C152.83 156.026 153.441 156.343 153.95 156.723C154.46 157.102 154.883 157.501 155.219 157.923L153.157 159.743C152.753 159.287 152.277 158.903 151.729 158.596C151.181 158.288 150.547 158.135 149.826 158.135C149.105 158.135 148.504 158.303 147.922 158.634C147.341 158.97 146.889 159.431 146.562 160.022C146.235 160.612 146.072 161.275 146.072 162.015C146.072 162.754 146.235 163.393 146.562 163.983C146.889 164.574 147.341 165.035 147.922 165.371C148.504 165.707 149.139 165.871 149.826 165.871C150.566 165.871 151.225 165.712 151.806 165.395C152.388 165.078 152.883 164.685 153.287 164.209L155.349 166.005C154.787 166.711 154.022 167.321 153.061 167.84C152.1 168.358 151.004 168.618 149.768 168.618H149.773Z" fill="white"/>
<path d="M159.368 153.269C159.07 153.269 158.781 153.193 158.507 153.044C158.233 152.895 158.017 152.688 157.859 152.424C157.7 152.16 157.618 151.867 157.618 151.55C157.618 151.233 157.7 150.945 157.859 150.681C158.017 150.417 158.233 150.211 158.507 150.062C158.781 149.913 159.065 149.836 159.368 149.836C159.685 149.836 159.978 149.913 160.252 150.062C160.526 150.211 160.743 150.417 160.901 150.681C161.06 150.945 161.142 151.238 161.142 151.55C161.142 151.862 161.06 152.16 160.901 152.424C160.743 152.688 160.526 152.895 160.252 153.044C159.978 153.193 159.685 153.269 159.368 153.269ZM157.887 168.353V155.647H160.848V168.353H157.887Z" fill="white"/>
<path d="M168.039 168.616C167.212 168.616 166.472 168.448 165.833 168.117C165.194 167.786 164.689 167.33 164.328 166.758C163.968 166.187 163.785 165.572 163.785 164.924C163.785 163.867 164.131 162.993 164.828 162.297C165.525 161.601 166.506 161.14 167.775 160.909L173.485 159.929L172.029 161.538V160.136C172.01 159.733 171.894 159.363 171.687 159.027C171.476 158.69 171.183 158.422 170.803 158.22C170.423 158.018 169.986 157.917 169.496 157.917C168.827 157.917 168.236 158.066 167.727 158.364C167.217 158.662 166.732 159.06 166.27 159.55L164.473 157.807C164.843 157.365 165.27 156.967 165.756 156.606C166.241 156.246 166.804 155.948 167.448 155.723C168.092 155.492 168.799 155.382 169.577 155.382C170.635 155.382 171.572 155.593 172.394 156.016C173.216 156.438 173.85 157.029 174.298 157.783C174.749 158.542 174.97 159.377 174.97 160.29V168.348H172.192V166.58H172.139C171.928 166.897 171.625 167.209 171.226 167.517C170.827 167.824 170.356 168.083 169.813 168.295C169.265 168.506 168.674 168.612 168.044 168.612L168.039 168.616ZM168.702 166.211C169.303 166.211 169.856 166.052 170.366 165.735C170.875 165.418 171.284 164.991 171.582 164.453C171.88 163.915 172.034 163.32 172.034 162.671V161.034L173.303 162.038L168.597 162.936C167.996 163.041 167.534 163.243 167.208 163.545C166.881 163.843 166.717 164.189 166.717 164.573C166.717 164.871 166.794 165.145 166.953 165.394C167.111 165.639 167.342 165.841 167.64 165.99C167.938 166.139 168.294 166.215 168.698 166.215L168.702 166.211Z" fill="white"/>
<path d="M178.537 168.352V149.864H181.498V168.352H178.537Z" fill="white"/>
</svg>
