<svg width="209" height="118" viewBox="0 0 209 118" fill="none" xmlns="http://www.w3.org/2000/svg">
<path d="M42.4314 117.282C40.6 117.282 38.9273 116.859 37.4228 116.014C35.9183 115.169 34.731 114.017 33.8658 112.552C33.0006 111.092 32.5728 109.488 32.5728 107.745C32.5728 106.002 33.0054 104.398 33.8658 102.938C34.731 101.478 35.9135 100.321 37.4228 99.4758C38.9321 98.6306 40.6 98.208 42.4314 98.208C44.1234 98.208 45.6231 98.5586 46.9257 99.2645C48.2283 99.9704 49.281 100.796 50.0693 101.747L47.8246 103.649C47.1709 102.928 46.421 102.338 45.575 101.882C44.729 101.425 43.6908 101.195 42.4554 101.195C41.2201 101.195 40.153 101.483 39.1388 102.064C38.1246 102.645 37.3266 103.438 36.745 104.441C36.1634 105.445 35.875 106.544 35.875 107.745C35.875 108.946 36.1634 110.045 36.745 111.049C37.3266 112.053 38.1246 112.845 39.1388 113.426C40.153 114.007 41.2585 114.295 42.4554 114.295C43.6523 114.295 44.7627 114.06 45.6279 113.594C46.4883 113.128 47.267 112.514 47.9543 111.76L50.1751 113.632C49.3627 114.636 48.2956 115.496 46.9642 116.206C45.6327 116.917 44.1234 117.277 42.4314 117.277V117.282Z" fill="white"/>
<path d="M58.3468 117.258C57.1115 117.258 55.9867 116.97 54.9629 116.389C53.939 115.808 53.1363 115.011 52.5451 113.998C51.9539 112.985 51.6606 111.87 51.6606 110.655C51.6606 109.441 51.9539 108.302 52.5451 107.289C53.1363 106.276 53.9438 105.479 54.9629 104.898C55.9819 104.317 57.1115 104.029 58.3468 104.029C59.5821 104.029 60.7358 104.317 61.7596 104.898C62.7835 105.479 63.5862 106.276 64.1774 107.289C64.7686 108.302 65.0619 109.426 65.0619 110.655C65.0619 111.885 64.7638 112.985 64.1774 113.998C63.5862 115.011 62.7787 115.808 61.7596 116.389C60.7406 116.97 59.6014 117.258 58.3468 117.258ZM58.3468 114.512C59.0534 114.512 59.6879 114.344 60.2503 114.012C60.8127 113.676 61.2597 113.215 61.5866 112.624C61.9134 112.034 62.0769 111.381 62.0769 110.655C62.0769 109.93 61.9134 109.253 61.5866 108.663C61.2597 108.072 60.8127 107.611 60.2503 107.275C59.6879 106.939 59.0534 106.775 58.3468 106.775C57.6402 106.775 57.0346 106.943 56.4722 107.275C55.9098 107.611 55.4628 108.072 55.1359 108.663C54.8091 109.253 54.6456 109.916 54.6456 110.655C54.6456 111.395 54.8091 112.034 55.1359 112.624C55.4628 113.215 55.905 113.676 56.4722 114.012C57.0346 114.348 57.6595 114.512 58.3468 114.512Z" fill="white"/>
<path d="M67.8638 116.993V104.287H70.7959V106.083H70.8487C71.1131 105.555 71.5746 105.079 72.2379 104.657C72.9012 104.234 73.6607 104.023 74.5259 104.023C75.1412 104.023 75.7132 104.129 76.2419 104.34C76.7707 104.551 77.2225 104.815 77.5926 105.132C77.9627 105.449 78.2367 105.776 78.4098 106.112H78.4626C78.6405 105.776 78.9289 105.449 79.3327 105.132C79.7364 104.815 80.2315 104.551 80.8131 104.34C81.3948 104.129 82.0485 104.023 82.7695 104.023C83.6155 104.023 84.3846 104.244 85.0815 104.686C85.7785 105.127 86.3265 105.757 86.735 106.573C87.1436 107.389 87.3455 108.345 87.3455 109.44V116.993H84.3846V109.569C84.3846 109.022 84.2692 108.542 84.0433 108.129C83.8125 107.716 83.5193 107.399 83.1588 107.178C82.7983 106.957 82.3897 106.847 81.9283 106.847C81.3803 106.847 80.8997 106.981 80.4719 107.245C80.0441 107.509 79.7124 107.884 79.4672 108.369C79.2221 108.854 79.0971 109.411 79.0971 110.045V116.989H76.1121V109.565C76.1121 109.017 76.0016 108.537 75.7805 108.124C75.5594 107.711 75.2662 107.394 74.896 107.173C74.5259 106.952 74.1125 106.842 73.6559 106.842C73.1079 106.842 72.6224 106.976 72.1994 107.24C71.7764 107.504 71.44 107.879 71.1948 108.364C70.9497 108.849 70.8247 109.406 70.8247 110.04V116.984H67.8638V116.993Z" fill="white"/>
<path d="M90.811 116.993V104.287H93.7431V106.083H93.796C94.0604 105.555 94.5218 105.079 95.1852 104.657C95.8485 104.234 96.608 104.023 97.4732 104.023C98.0884 104.023 98.6604 104.129 99.1892 104.34C99.7179 104.551 100.17 104.815 100.54 105.132C100.91 105.449 101.184 105.776 101.357 106.112H101.41C101.588 105.776 101.876 105.449 102.28 105.132C102.684 104.815 103.179 104.551 103.76 104.34C104.342 104.129 104.996 104.023 105.717 104.023C106.563 104.023 107.332 104.244 108.029 104.686C108.726 105.127 109.274 105.757 109.682 106.573C110.091 107.389 110.293 108.345 110.293 109.44V116.993H107.332V109.569C107.332 109.022 107.216 108.542 106.991 108.129C106.76 107.716 106.467 107.399 106.106 107.178C105.746 106.957 105.337 106.847 104.876 106.847C104.328 106.847 103.847 106.981 103.419 107.245C102.991 107.509 102.66 107.884 102.415 108.369C102.169 108.854 102.044 109.411 102.044 110.045V116.989H99.0594V109.565C99.0594 109.017 98.9488 108.537 98.7277 108.124C98.5066 107.711 98.2134 107.394 97.8433 107.173C97.4732 106.952 97.0598 106.842 96.6032 106.842C96.0552 106.842 95.5697 106.976 95.1467 107.24C94.7237 107.504 94.3873 107.879 94.1421 108.364C93.897 108.849 93.772 109.406 93.772 110.04V116.984H90.811V116.993Z" fill="white"/>
<path d="M119.704 117.259C118.455 117.259 117.311 116.971 116.282 116.389C115.253 115.808 114.441 115.011 113.85 113.998C113.259 112.985 112.965 111.871 112.965 110.656C112.965 109.441 113.259 108.307 113.85 107.304C114.441 106.3 115.234 105.503 116.229 104.912C117.224 104.322 118.32 104.029 119.522 104.029C120.723 104.029 121.8 104.298 122.761 104.836C123.723 105.373 124.473 106.113 125.021 107.054C125.569 107.995 125.843 109.057 125.843 110.238C125.843 110.521 125.828 110.781 125.804 111.016C125.78 111.251 125.737 111.443 125.684 111.583H116.061C116.147 112.13 116.364 112.629 116.71 113.09C117.056 113.551 117.498 113.912 118.046 114.185C118.594 114.459 119.2 114.593 119.868 114.593C120.608 114.593 121.267 114.459 121.839 114.185C122.411 113.912 122.925 113.556 123.386 113.114L125.131 114.992C124.636 115.592 123.915 116.121 122.963 116.577C122.012 117.033 120.925 117.263 119.709 117.263L119.704 117.259ZM122.771 109.465C122.665 108.884 122.468 108.38 122.175 107.947C121.882 107.515 121.512 107.179 121.065 106.929C120.618 106.684 120.099 106.56 119.517 106.56C118.902 106.56 118.354 106.684 117.878 106.929C117.402 107.174 117.008 107.515 116.7 107.947C116.393 108.38 116.157 108.884 115.998 109.465H122.766H122.771Z" fill="white"/>
<path d="M128.51 116.993V104.287H131.442V105.977H131.524C131.716 105.66 131.995 105.353 132.356 105.051C132.716 104.753 133.154 104.503 133.663 104.311C134.173 104.119 134.711 104.023 135.278 104.023H135.884V107.14C135.744 107.106 135.581 107.072 135.394 107.048C135.211 107.019 135.009 107.01 134.797 107.01C134.197 107.01 133.644 107.168 133.134 107.485C132.625 107.802 132.216 108.244 131.918 108.806C131.62 109.368 131.471 110.002 131.471 110.708V116.993H128.51Z" fill="white"/>
<path d="M143.844 117.259C142.609 117.259 141.484 116.971 140.46 116.389C139.436 115.808 138.633 115.011 138.042 113.998C137.451 112.985 137.158 111.871 137.158 110.656C137.158 109.441 137.451 108.303 138.042 107.289C138.633 106.276 139.441 105.479 140.46 104.898C141.479 104.317 142.609 104.029 143.844 104.029C144.69 104.029 145.469 104.158 146.185 104.413C146.901 104.667 147.511 104.984 148.021 105.364C148.53 105.743 148.953 106.142 149.29 106.564L147.228 108.384C146.824 107.928 146.348 107.544 145.8 107.237C145.252 106.929 144.618 106.776 143.897 106.776C143.176 106.776 142.575 106.944 141.993 107.275C141.412 107.611 140.96 108.072 140.633 108.663C140.306 109.254 140.143 109.916 140.143 110.656C140.143 111.395 140.306 112.034 140.633 112.625C140.96 113.215 141.412 113.676 141.993 114.012C142.575 114.349 143.209 114.512 143.897 114.512C144.637 114.512 145.296 114.353 145.877 114.036C146.459 113.719 146.954 113.326 147.358 112.85L149.42 114.646C148.857 115.352 148.093 115.962 147.132 116.481C146.17 116.999 145.074 117.259 143.839 117.259H143.844Z" fill="white"/>
<path d="M153.439 101.911C153.141 101.911 152.852 101.834 152.578 101.685C152.304 101.536 152.088 101.33 151.929 101.065C151.771 100.801 151.689 100.508 151.689 100.191C151.689 99.8745 151.771 99.5863 151.929 99.3222C152.088 99.0581 152.304 98.8516 152.578 98.7028C152.852 98.5539 153.136 98.4771 153.439 98.4771C153.756 98.4771 154.049 98.5539 154.323 98.7028C154.597 98.8516 154.813 99.0581 154.972 99.3222C155.131 99.5863 155.212 99.8793 155.212 100.191C155.212 100.504 155.131 100.801 154.972 101.065C154.813 101.33 154.597 101.536 154.323 101.685C154.049 101.834 153.756 101.911 153.439 101.911ZM151.958 116.994V104.288H154.919V116.994H151.958Z" fill="white"/>
<path d="M162.11 117.258C161.283 117.258 160.543 117.09 159.904 116.758C159.264 116.427 158.76 115.971 158.399 115.399C158.039 114.828 157.856 114.213 157.856 113.565C157.856 112.508 158.202 111.634 158.899 110.938C159.596 110.242 160.577 109.781 161.846 109.55L167.556 108.571L166.1 110.179V108.777C166.08 108.374 165.965 108.004 165.758 107.668C165.547 107.332 165.254 107.063 164.874 106.861C164.494 106.659 164.057 106.558 163.566 106.558C162.898 106.558 162.307 106.707 161.797 107.005C161.288 107.303 160.802 107.701 160.341 108.191L158.543 106.448C158.913 106.006 159.341 105.608 159.827 105.247C160.312 104.887 160.875 104.59 161.519 104.364C162.163 104.133 162.869 104.023 163.648 104.023C164.706 104.023 165.643 104.234 166.465 104.657C167.287 105.079 167.921 105.67 168.368 106.424C168.82 107.183 169.041 108.018 169.041 108.931V116.989H166.263V115.222H166.21C165.999 115.538 165.696 115.851 165.297 116.158C164.898 116.465 164.427 116.725 163.884 116.936C163.336 117.147 162.744 117.253 162.115 117.253L162.11 117.258ZM162.773 114.852C163.374 114.852 163.927 114.693 164.436 114.376C164.946 114.059 165.354 113.632 165.653 113.094C165.951 112.556 166.104 111.961 166.104 111.313V109.675L167.373 110.679L162.668 111.577C162.067 111.682 161.605 111.884 161.278 112.187C160.951 112.484 160.788 112.83 160.788 113.214C160.788 113.512 160.865 113.786 161.024 114.035C161.182 114.28 161.413 114.482 161.711 114.631C162.009 114.78 162.365 114.857 162.768 114.857L162.773 114.852Z" fill="white"/>
<path d="M172.608 116.994V98.5054H175.569V116.994H172.608Z" fill="white"/>
<path d="M167.346 22.5508C155.051 12.0629 136.838 0 104.681 0C72.5238 0 52.148 12.3175 40.8425 22.6324C39.4341 23.9098 39.3332 26.1092 40.6455 27.5066C41.9577 28.8992 44.1592 29 45.5724 27.7035C55.9598 18.2145 74.6484 6.90065 104.681 6.90065C134.713 6.90065 151.417 18.0608 162.775 27.7611C163.41 28.3133 164.227 28.6063 165.058 28.6063C166.073 28.6063 167.044 28.1741 167.697 27.4057C168.947 25.9507 168.788 23.7897 167.342 22.5316" fill="white"/>
<path d="M21.9764 51.0368C24.0001 52.3142 25.6296 54.0813 26.8216 56.3624C28.0137 58.6434 28.5905 61.2125 28.5905 64.0842C28.5905 66.9558 27.9945 69.5634 26.8409 71.8444C25.6872 74.1254 24.0818 75.931 22.0533 77.1892C20.0297 78.4665 17.8042 79.1148 15.3575 79.1148C13.6079 79.1148 11.9592 78.7595 10.4114 78.0536C8.86363 77.3476 7.58983 76.5025 6.55638 75.4796V75.8158C6.55638 76.7378 6.23913 77.5253 5.62387 78.1736C5.00861 78.8027 4.21549 79.1148 3.27818 79.1148C2.34086 79.1148 1.55258 78.7979 0.93251 78.1928C0.317246 77.5829 0 76.7762 0 75.8158V41.8503C0 40.9283 0.317246 40.1408 0.93251 39.4925C1.54777 38.8634 2.34086 38.5513 3.27818 38.5513C4.21549 38.5513 5.0038 38.8634 5.62387 39.4925C6.23913 40.1216 6.55638 40.9091 6.55638 41.8503V53.1449C7.43121 52.0645 8.64253 51.1232 10.2095 50.3165C11.7765 49.5097 13.4252 49.0967 15.1364 49.0967C17.66 49.0967 19.9239 49.7258 21.9668 51.0224M20.0729 70.5622C21.563 68.8335 22.3177 66.6725 22.3177 64.0794C22.3177 61.4862 21.5823 59.3445 20.1114 57.6157C18.6405 55.9062 16.7131 55.0418 14.3529 55.0418C11.9928 55.0418 10.0413 55.8869 8.55119 57.6157C7.0611 59.3253 6.30645 61.4862 6.30645 64.0794C6.30645 66.6725 7.0611 68.8335 8.55119 70.5622C10.0413 72.291 11.988 73.1554 14.3529 73.1554C16.7179 73.1554 18.6021 72.291 20.0922 70.5622H20.0729Z" fill="white"/>
<path d="M40.2128 77.6168C39.5783 78.2459 38.7804 78.558 37.8287 78.558C36.8769 78.558 36.1415 78.2459 35.5263 77.6168C34.911 76.9877 34.5938 76.2002 34.5938 75.259V41.865C34.5938 40.943 34.911 40.1554 35.5455 39.5071C36.18 38.8781 36.9779 38.5659 37.9296 38.5659C38.8814 38.5659 39.6168 38.8781 40.2321 39.5071C40.8473 40.1362 41.1646 40.9238 41.1646 41.865V75.259C41.1646 76.2002 40.8473 76.9685 40.2128 77.6168Z" fill="white"/>
<path d="M71.813 50.6048C72.4283 51.2339 72.7455 52.0214 72.7455 52.9626V66.6919C72.7455 70.5816 71.6736 73.6454 69.4866 75.8256C67.3235 78.0249 64.2232 79.1246 60.2288 79.1246C56.2344 79.1246 53.1388 78.0249 50.995 75.8256C48.8512 73.6262 47.7793 70.5816 47.7793 66.6919V52.9626C47.7793 52.0406 48.0773 51.2531 48.7118 50.6048C49.3271 49.9757 50.1202 49.6636 51.0575 49.6636C51.9948 49.6636 52.7879 49.9757 53.4032 50.6048C54.0185 51.2339 54.3357 52.0214 54.3357 52.9626V66.6919C54.3357 68.8913 54.8308 70.524 55.8066 71.5853C56.8016 72.6466 58.2676 73.1748 60.2336 73.1748C62.1996 73.1748 63.7281 72.6466 64.7231 71.5853C65.7181 70.524 66.1939 68.8961 66.1939 66.6919V52.9626C66.1939 52.0406 66.5112 51.2531 67.1264 50.6048C67.7417 49.9757 68.5348 49.6636 69.4721 49.6636C70.4095 49.6636 71.2026 49.9757 71.8178 50.6048H71.813Z" fill="white"/>
<path d="M105.042 65.5344C104.388 66.0866 103.614 66.3411 102.739 66.3411H84.7045C85.1419 68.4637 86.1369 70.1348 87.7039 71.3497C89.2709 72.5503 91.0398 73.1553 93.0057 73.1553C94.4958 73.1553 95.6686 73.0161 96.5002 72.7423C97.3366 72.4686 98.0095 72.1901 98.4854 71.878C98.9805 71.5658 99.3218 71.3689 99.4996 71.2489C100.153 70.9175 100.769 70.7591 101.365 70.7591C102.139 70.7591 102.797 71.0328 103.331 71.5658C103.869 72.0941 104.143 72.7424 104.143 73.4531C104.143 74.4375 103.648 75.3019 102.614 76.1038C101.581 76.9298 100.23 77.6357 98.5239 78.2072C96.8175 78.7978 95.0871 79.0716 93.3374 79.0716C90.2803 79.0716 87.6174 78.4425 85.3342 77.1843C83.0509 75.9262 81.2821 74.1782 80.0515 71.9596C78.8018 69.741 78.1865 67.2439 78.1865 64.4731C78.1865 61.3709 78.8403 58.6577 80.1525 56.3191C81.4647 53.9804 83.1903 52.1941 85.339 50.9359C87.4828 49.6969 89.7852 49.0679 92.2318 49.0679C94.6785 49.0679 96.8992 49.7162 99.043 51.0127C101.168 52.3093 102.879 54.0573 104.148 56.2567C105.422 58.456 106.056 60.8331 106.056 63.3878C106.018 64.2522 105.681 64.9581 105.023 65.4911L105.042 65.5296V65.5344ZM84.7621 60.9579H99.0814V60.5834C98.9228 59.0707 98.1874 57.7741 96.8367 56.6936C95.486 55.6132 93.9575 55.0657 92.2511 55.0657C88.0211 55.0657 85.536 57.0298 84.7621 60.9579Z" fill="white"/>
<path d="M118.429 72.4684C118.429 71.5464 118.904 70.7396 119.861 70.0913C120.356 69.7552 120.894 69.6015 121.447 69.6015C122.221 69.6015 122.937 69.9329 123.634 70.6244C124.725 71.7433 125.86 72.5692 127.052 73.1215C128.244 73.6737 129.652 73.9282 131.344 73.9282C134.185 73.8082 135.613 72.7469 135.613 70.7444C135.613 69.7024 135.137 68.8956 134.161 68.3674C133.19 67.8151 131.676 67.2869 129.652 66.7346C127.528 66.144 125.821 65.5965 124.49 65.0059C123.158 64.4152 122.029 63.5508 121.053 62.3935C120.077 61.2122 119.601 59.6419 119.601 57.6586C119.601 55.9299 120.096 54.4364 121.111 53.1398C122.106 51.8625 123.413 50.8588 125.043 50.1721C126.672 49.4662 128.398 49.1108 130.205 49.1108C132.012 49.1108 133.921 49.4422 135.786 50.1337C137.651 50.8204 139.102 51.824 140.155 53.159C140.631 53.7497 140.871 54.398 140.871 55.1039C140.871 55.9299 140.535 56.6166 139.838 57.164C139.343 57.5578 138.747 57.7547 138.088 57.7547C137.276 57.7547 136.617 57.5002 136.122 56.9911C135.468 56.1844 134.613 55.5745 133.579 55.1039C132.546 54.6333 131.373 54.398 130.066 54.398C127.287 54.398 125.913 55.3776 125.913 57.3657C125.913 58.1725 126.172 58.8015 126.687 59.2913C127.182 59.7812 127.84 60.1557 128.633 60.4295C129.407 60.7032 130.522 61.0393 131.931 61.4331C133.897 61.9853 135.545 62.5328 136.858 63.1042C138.17 63.6949 139.28 64.5593 140.193 65.755C141.107 66.9507 141.563 68.5066 141.563 70.4515C141.563 72.2187 141.025 73.7698 139.972 75.0663C138.92 76.3821 137.55 77.3858 135.901 78.0725C134.252 78.7592 132.546 79.0953 130.796 79.0953C128.393 79.0953 126.148 78.7015 124.081 77.8948C121.995 77.088 120.308 75.8347 118.996 74.0627C118.659 73.6305 118.501 73.0831 118.501 72.43L118.419 72.4684H118.429Z" fill="white"/>
<path d="M171.52 75.3356C171.52 76.2384 171.164 77.0067 170.448 77.6166C169.731 78.2264 168.977 78.5386 168.184 78.5386C167.251 78.5386 166.434 78.164 165.78 77.4581L155.95 67.1863L153.268 69.621V75.2971C153.268 76.2191 152.951 77.0067 152.336 77.655C151.721 78.2841 150.927 78.5962 149.99 78.5962C149.053 78.5962 148.26 78.2841 147.644 77.655C147.029 77.0259 146.712 76.2384 146.712 75.2971V41.8791C146.712 40.9571 147.029 40.1696 147.644 39.5213C148.26 38.8922 149.053 38.5801 149.99 38.5801C150.927 38.5801 151.721 38.8922 152.336 39.5213C152.951 40.1504 153.268 40.9379 153.268 41.8791V61.8752L164.968 50.6766C165.665 49.9899 166.458 49.6538 167.371 49.6538C168.184 49.6538 168.881 49.9899 169.534 50.6574C170.169 51.3249 170.486 51.9924 170.486 52.6791C170.486 53.5435 170.049 54.3503 169.174 55.1138L160.93 62.6195L170.505 72.8961C171.202 73.602 171.539 74.4279 171.539 75.3307" fill="white"/>
<path d="M205.181 72.9395C205.676 72.9395 206.176 73.0595 206.652 73.314C207.108 73.5685 207.488 73.9239 207.743 74.3945C208.021 74.8651 208.142 75.3549 208.142 75.8688C208.142 76.3826 208.021 76.8724 207.743 77.3238C207.483 77.7752 207.108 78.1498 206.652 78.4043C206.195 78.6588 205.7 78.798 205.181 78.798C204.662 78.798 204.166 78.6588 203.71 78.4043C203.253 78.1498 202.873 77.7752 202.619 77.3238C202.364 76.8724 202.22 76.3826 202.22 75.8688C202.22 75.3549 202.359 74.8651 202.619 74.3945C202.897 73.9239 203.253 73.5685 203.729 73.314C204.186 73.0595 204.681 72.9395 205.2 72.9395M205.181 73.5301C204.763 73.5301 204.388 73.631 204.008 73.823C203.628 74.0151 203.335 74.3129 203.114 74.6874C202.898 75.062 202.777 75.4558 202.777 75.8832C202.777 76.3105 202.897 76.6899 203.095 77.0645C203.292 77.439 203.59 77.732 203.969 77.9481C204.349 78.145 204.743 78.2602 205.161 78.2602C205.58 78.2602 205.974 78.145 206.354 77.9481C206.733 77.732 207.026 77.4583 207.228 77.0645C207.425 76.6899 207.546 76.2961 207.546 75.8832C207.546 75.4702 207.425 75.0764 207.209 74.6874C206.993 74.2937 206.714 74.0199 206.315 73.823C205.935 73.6262 205.541 73.5301 205.142 73.5301M203.854 77.4583V74.3561H205.503C205.7 74.3561 205.882 74.4137 205.998 74.4713C206.118 74.529 206.219 74.6298 206.296 74.7643C206.378 74.9035 206.416 75.038 206.416 75.2157C206.416 75.451 206.358 75.6286 206.2 75.8063C206.041 75.9648 205.844 76.0608 205.565 76.0993C205.666 76.1377 205.724 76.1569 205.786 76.2193C205.844 76.2577 205.907 76.3346 205.983 76.4546C206.003 76.4738 206.084 76.6131 206.224 76.8292L206.603 77.4583H205.81L205.551 76.9684C205.373 76.6323 205.214 76.4162 205.113 76.3394C205.012 76.2625 204.854 76.2001 204.676 76.2001H204.517V77.4775H203.883L203.864 77.4583H203.854ZM204.489 75.6719H204.748C205.128 75.6719 205.344 75.6719 205.421 75.6334C205.503 75.6142 205.58 75.5566 205.618 75.475C205.676 75.4173 205.7 75.3165 205.7 75.2397C205.7 75.1628 205.681 75.0812 205.642 75.0044C205.584 74.9467 205.522 74.8843 205.421 74.8459C205.32 74.8267 205.085 74.8075 204.748 74.8075H204.489V75.6719Z" fill="white"/>
<path d="M199.721 50.6049C200.336 51.2339 200.653 52.0215 200.653 52.9627V71.3308C200.653 80.3877 200.297 90.208 186.613 90.208C185.363 90.208 184.108 90.112 182.82 89.9151C181.532 89.7182 180.474 89.4637 179.681 89.1275C177.893 88.3592 176.999 87.3411 176.999 85.9821C176.999 85.7276 177.057 85.4347 177.158 85.1178C177.374 84.311 177.754 83.7251 178.268 83.3122C178.802 82.8992 179.378 82.6831 179.998 82.6831C180.378 82.6831 180.715 82.7407 181.032 82.8415C181.291 82.9616 181.729 83.1153 182.363 83.3938C182.998 83.6675 183.676 83.8452 184.387 84.0229C185.103 84.1813 186.372 84.2582 187.146 84.2582C193.126 84.2582 194.236 79.3456 194.135 75.6143C192.251 77.953 189.29 79.1295 185.276 79.1295C183.368 79.1295 181.7 78.6781 180.253 77.8137C178.782 76.9301 177.672 75.7104 176.855 74.1401C176.043 72.5698 175.644 70.7834 175.644 68.7569V52.9819C175.644 52.0599 175.942 51.2724 176.576 50.6241C177.191 49.995 177.984 49.6829 178.922 49.6829C179.859 49.6829 180.652 49.995 181.267 50.6241C181.883 51.2532 182.2 52.0407 182.2 52.9819V66.812C182.2 69.0883 182.695 70.721 183.709 71.7054C184.704 72.6851 186.194 73.1989 188.117 73.1989C190.04 73.1989 191.472 72.6466 192.506 71.5469C193.539 70.4473 194.053 68.877 194.053 66.812V52.9819C194.053 52.0599 194.371 51.2724 194.986 50.6241C195.601 49.995 196.394 49.6829 197.332 49.6829C198.269 49.6829 199.062 49.995 199.677 50.6241L199.716 50.6049H199.721Z" fill="white"/>
</svg>
