<svg width="72" height="76" viewBox="0 0 72 76" fill="none" xmlns="http://www.w3.org/2000/svg">
<path d="M46.917 31.4298C46.917 31.4298 38.0461 32.1657 38.0461 24.1938C38.0461 20.6984 40.9622 17.8315 44.8144 17.8315C50.6004 17.8315 52.1198 24.6537 52.1198 24.6537C52.1198 24.6537 54.2224 24.1478 56.0794 23.5959C58.5197 22.676 63.5536 21.5416 67.7282 21.8328C68.5569 21.8942 69.2476 22.4461 69.4931 23.2433C70.1377 25.3896 70.9818 29.5595 67.8816 30.2494" stroke="#0B3A7C" stroke-width="2.49478" stroke-linecap="round" stroke-linejoin="round"/>
<path d="M67.4829 30.0811C67.222 32.4726 66.7616 34.389 62.449 38.099C56.709 43.0355 54.6832 45.8103 51.3374 48.4165" stroke="#0B3A7C" stroke-width="2.49478" stroke-linecap="round" stroke-linejoin="round"/>
<path d="M49.9406 46.5308C49.9406 46.5308 51.9971 50.4554 55.4964 51.1606C58.9956 51.8658 59.0263 52.893 59.0263 52.893H51.3372C47.5771 52.893 49.0658 52.2951 46.3339 51.9118C43.6021 51.5286 39.3969 51.6512 36.5422 49.6429" stroke="#0B3A7C" stroke-width="2.49478" stroke-linecap="round" stroke-linejoin="round"/>
<path d="M24.8474 49.2593C24.8474 49.2593 25.3385 53.0613 31.0631 53.0613H40.5939C41.791 53.0613 42.3896 51.4976 40.1642 51.1296" stroke="#0B3A7C" stroke-width="2.49478" stroke-linecap="round" stroke-linejoin="round"/>
<path d="M30.4492 49.2592C30.4492 49.2592 33.5494 51.0528 36.8952 49.2592C40.2409 47.4655 40.2409 41.5632 37.3556 39.2329" stroke="#0B3A7C" stroke-width="2.49478" stroke-linecap="round" stroke-linejoin="round"/>
<path d="M49.9407 19.993C52.5037 18.2913 56.7089 19.1344 57.1079 23.1051" stroke="#0B3A7C" stroke-width="2.49478" stroke-linecap="round" stroke-linejoin="round"/>
<path d="M37.9082 22.3234C37.9082 22.3234 19.5679 20.591 11.4184 33.1775C8.42568 37.8074 8.14942 42.1766 7.91921 46.9138C7.689 51.6509 7.91921 52.1109 7.91921 52.1109C7.91921 52.1109 12.1858 53 17.3886 53.0614C22.5914 53.1227 25.5228 51.8962 25.5228 51.8962" stroke="#0B3A7C" stroke-width="2.49478" stroke-linecap="round" stroke-linejoin="round"/>
<path d="M7.91915 52.1113C-0.230354 52.1113 -0.491261 58.4736 5.57099 58.4736C14.0274 58.4736 21.5017 54.5949 29.2061 57.3391" stroke="#0B3A7C" stroke-width="2.49478" stroke-linecap="round" stroke-linejoin="round"/>
<path d="M68.3883 27.9497C67.5135 30.6326 66.2703 31.1538 64.5054 31.1078" stroke="#0B3A7C" stroke-width="2.49478" stroke-linecap="round" stroke-linejoin="round"/>
</svg>
