<svg width="49" height="63" viewBox="0 0 49 63" fill="none" xmlns="http://www.w3.org/2000/svg">
<g clip-path="url(#clip0_1389_3586)">
<path d="M45.7221 52.61L24.2648 61.3125L2.80739 52.61V49.2773H1.7002V53.3546L24.2648 62.5083L46.8293 53.3546V49.2773H45.7221V52.61Z" fill="#D2451E"/>
<path d="M2.80721 42.2245V8.19221H13.4252L15.3406 7.08502L24.2646 1.93382L33.1858 7.08502L35.104 8.19221H45.722V42.2245H46.0237H48.4982L46.8291 40.2675V7.08502H35.6604V7.07118L35.3836 6.91064L24.5414 0.652242L24.2646 0.491699L23.9878 0.652242L13.1428 6.91064L12.866 7.07118V7.08502H1.70002V40.2454L0.00878906 42.2245H2.48336H2.80721Z" fill="#D2451E"/>
<path d="M16.0851 22.2534H4.24365V23.7537H18.687L16.0851 22.2534Z" fill="white"/>
<path d="M18.687 23.7539H4.24365V25.2542H21.2861L18.687 23.7539Z" fill="white"/>
<path d="M21.2861 25.2539H4.24365V26.7569H23.8852L21.2861 25.2539Z" fill="white"/>
<path d="M15.5758 27.6481H18.8088V28.2571H19.7416C20.0903 27.7671 20.6439 27.5236 21.3553 27.5236C22.0667 27.5236 22.6092 27.7727 22.9441 28.2571H24.2063V26.9395L23.888 26.7568H4.24365V28.2571H15.5758V27.6481Z" fill="#FDFEFF"/>
<path d="M15.5758 28.2573H4.24365V29.7576H15.5758V28.2573Z" fill="#FBFCFC"/>
<path d="M16.7412 28.7279V29.7576H19.3237C19.3403 29.1182 19.4843 28.6199 19.7417 28.2573H18.8089V28.7279H16.7412Z" fill="#FBFCFC"/>
<path d="M21.3276 28.5869C20.7906 28.5869 20.5138 28.9551 20.5083 29.7578H22.1636C22.158 28.9855 21.9034 28.5869 21.3304 28.5869H21.3276Z" fill="#FBFCFC"/>
<path d="M24.1067 29.7605C24.115 29.4754 24.1455 29.2207 24.2036 28.991V28.2603H22.9414C23.1933 28.6256 23.3317 29.1294 23.3455 29.7605H24.104H24.1067Z" fill="#FBFCFC"/>
<path d="M15.5758 29.7603H4.24365V31.2605H15.5758V29.7603Z" fill="#FAFBFC"/>
<path d="M24.1038 29.8765C24.1038 29.835 24.1038 29.799 24.1066 29.7603H23.3481C23.3481 29.8018 23.3509 29.8405 23.3509 29.882V31.2605H24.1038V29.8765Z" fill="#FAFBFC"/>
<path d="M16.7412 31.2439H18.7037V31.2605H19.321V29.8765C19.321 29.835 19.321 29.799 19.3237 29.7603H16.7412V31.2439Z" fill="#FAFBFC"/>
<path d="M20.5083 29.7603C20.5083 29.7603 20.5083 29.7796 20.5083 29.7879V31.2605H22.1636V29.7824C22.1636 29.7824 22.1636 29.7686 22.1636 29.7603H20.5083Z" fill="#FAFBFC"/>
<path d="M22.1636 31.2607H20.5083V32.761H22.1636V31.2607Z" fill="#F9F9FA"/>
<path d="M24.104 31.2607H23.3511V32.761H24.104V31.2607Z" fill="#F9F9FA"/>
<path d="M15.5758 31.2607H4.24365V32.761H15.5758V31.2607Z" fill="#F9F9FA"/>
<path d="M18.7037 32.3236H16.7412V32.761H19.321V31.2607H18.7037V32.3236Z" fill="#F9F9FA"/>
<path d="M16.7412 34.2639H19.3237C19.3237 34.2086 19.321 34.1532 19.321 34.0951V32.7637H16.744V34.2639H16.7412Z" fill="#F7F8F8"/>
<path d="M20.5086 34.2169C20.5086 34.2335 20.5086 34.2473 20.5086 34.2639H22.1583C22.1583 34.239 22.1611 34.2169 22.1611 34.1892V32.7637H20.5059V34.2196L20.5086 34.2169Z" fill="#F7F8F8"/>
<path d="M15.5758 32.7607H4.24365V34.261H15.5758V32.7607Z" fill="#F7F8F8"/>
<path d="M24.1041 32.7607H23.3512V34.0755C23.3512 34.1392 23.3485 34.2001 23.3457 34.2638H24.1069C24.1069 34.2084 24.1041 34.153 24.1041 34.0949V32.7635V32.7607Z" fill="#F7F8F8"/>
<path d="M21.3333 35.4068C21.8758 35.4068 22.1443 35.0802 22.1609 34.2637H20.5112C20.5223 35.0581 20.8185 35.4068 21.3333 35.4068Z" fill="#F7F8F8"/>
<path d="M16.7412 34.2637V35.7639H19.7168C19.4677 35.3985 19.3403 34.8975 19.3237 34.2637H16.7412Z" fill="#F7F8F8"/>
<path d="M24.1069 34.2637H23.3457C23.3236 34.9058 23.1824 35.4068 22.9194 35.7639H24.2038V35.0608C24.1484 34.8228 24.1152 34.5571 24.1069 34.2637Z" fill="#F7F8F8"/>
<path d="M15.5758 34.2637H4.24365V35.7639H15.5758V34.2637Z" fill="#F7F8F8"/>
<path d="M24.2035 35.7751V35.7612H22.9192C22.5787 36.2263 22.0362 36.456 21.2778 36.456C20.5194 36.456 20.0294 36.2152 19.7167 35.7612H16.7411V36.3342H15.5758V35.7612H4.24365V37.2615H24.2035V35.7723V35.7751Z" fill="#F6F6F6"/>
<path d="M15.1938 38.388C15.1938 37.8039 15.7557 37.505 16.4477 37.505C17.4524 37.505 17.7237 38.0198 17.7569 38.3603H17.0456C17.004 38.2163 16.9072 38.0226 16.4255 38.0226C16.0878 38.0226 15.9162 38.1305 15.9162 38.3188C15.9162 38.4876 16.0352 38.5734 16.5861 38.6703C16.7438 38.698 16.8822 38.7312 17.004 38.7644H18.8032L19.2876 37.5631H20.1983L20.7076 38.7644H21.776V37.5631H24.1814V38.1278H22.4846V38.7644H24.2035V37.2642H4.24365V38.7644H15.2851C15.2159 38.6481 15.1938 38.5208 15.1938 38.388Z" fill="#F5F6F6"/>
<path d="M19.7221 38.0229H19.7166C19.6723 38.1752 19.5837 38.4354 19.4619 38.7675H19.9989C19.855 38.4077 19.7719 38.1835 19.7221 38.0229Z" fill="#F5F6F6"/>
<path d="M24.2038 38.7671H22.4849V38.7948H24.0654V39.3622H22.4849V40.2673H24.2038V38.7809V38.7671Z" fill="#F4F4F4"/>
<path d="M19.0941 39.8247L18.9253 40.2676H20.5778L20.3951 39.8247H19.0941Z" fill="#F4F4F4"/>
<path d="M20.7051 38.7671L21.3417 40.2673H21.7735V38.7671H20.7051Z" fill="#F4F4F4"/>
<path d="M19.4623 38.7671C19.4069 38.9166 19.3461 39.0799 19.2769 39.257H20.1958C20.1183 39.0688 20.0547 38.9083 19.9993 38.7671H19.4623Z" fill="#F4F4F4"/>
<path d="M17.0044 38.7671C17.7407 38.9719 17.8708 39.2681 17.8708 39.6335C17.8708 39.8798 17.7739 40.104 17.5635 40.2701H18.2002L18.8036 38.7699H17.0044V38.7671Z" fill="#F4F4F4"/>
<path d="M15.0748 39.6141H15.7861C15.8692 39.866 16.0712 40.0321 16.5584 40.0321C17.0123 40.0321 17.1452 39.8937 17.1452 39.7054C17.1452 39.5034 17.0096 39.3899 16.3951 39.2847C15.728 39.1712 15.4207 38.9885 15.2879 38.7671H4.24365V40.2673H15.4595C15.2381 40.1013 15.1163 39.8715 15.072 39.6141H15.0748Z" fill="#F4F4F4"/>
<path d="M24.2035 41.787V41.7676H4.24365V42.2243H24.2035V41.787Z" fill="#F2F2F2"/>
<path d="M17.2036 50.7388C17.2036 50.7388 17.2036 50.7642 17.2036 50.7755H17.2149C17.2149 50.7755 17.2064 50.7501 17.2036 50.7388Z" fill="#ECECEC"/>
<path d="M12.1489 50.7774H12.6029C12.542 50.758 12.4645 50.7441 12.3621 50.7441C12.2735 50.7441 12.2071 50.758 12.1489 50.7774Z" fill="#ECECEC"/>
<path d="M18.7593 50.7388C18.7593 50.7388 18.7509 50.7642 18.748 50.7783H18.7593C18.7593 50.7783 18.7593 50.7501 18.7593 50.7388Z" fill="#ECECEC"/>
<path d="M7.00056 50.4067H8.11052C8.47312 50.4067 8.74439 50.5423 8.86618 50.7748H9.30075V50.4067H11.0833V50.7748H11.5124C11.6369 50.5036 11.9746 50.3624 12.3787 50.3624C12.9185 50.3624 13.1704 50.5672 13.2756 50.7748H13.5883V50.4067H15.6173V50.7748H16.7715V50.4067H17.5244C17.5659 50.534 17.6047 50.6558 17.6434 50.7748H18.3742C18.4129 50.6558 18.4545 50.534 18.496 50.4067H19.2516V50.7748H20.2509L20.4003 50.4067H21.0674L21.2224 50.7748H22.2521V50.4067H22.8694C22.958 50.5423 23.0382 50.6641 23.113 50.7748H23.8354V50.4067H24.2063V49.2773H4.24365V50.7776H7.00056V50.4094V50.4067Z" fill="#ECECEC"/>
<path d="M20.7161 50.7417H20.7133C20.7133 50.7417 20.7049 50.7669 20.7021 50.7752H20.7273C20.7273 50.7752 20.7189 50.7529 20.7161 50.7417Z" fill="#ECECEC"/>
<path d="M7.00056 50.7773H4.24365V52.1364L4.61456 52.2776H7.00056V50.7773Z" fill="#EBEBEB"/>
<path d="M8.42368 51.0901C8.42368 50.9157 8.31573 50.8105 8.06384 50.8105H7.52686V51.3808H8.06384C8.28528 51.3808 8.42368 51.306 8.42368 51.0929V51.0901Z" fill="#EBEBEB"/>
<path d="M18.7619 50.7773H18.7508C18.6567 51.1261 18.4934 51.641 18.2886 52.2776H18.7508V51.7323C18.7508 51.3808 18.7508 51.0182 18.7647 50.7773H18.7619Z" fill="#EBEBEB"/>
<path d="M20.2565 52.0645L20.1763 52.2776H21.2973L21.2115 52.0645H20.2565Z" fill="#EBEBEB"/>
<path d="M18.0005 51.9482C18.0724 51.6769 18.2136 51.259 18.3714 50.7773H17.6406C17.8067 51.2839 17.9451 51.7102 17.9977 51.9482H18.0005Z" fill="#EBEBEB"/>
<path d="M22.7119 50.9217C22.7285 51.1874 22.7285 51.4919 22.7285 51.8711V52.2753H23.5589C23.2766 51.8296 22.8199 51.1155 22.7175 50.9189H22.7119V50.9217Z" fill="#EBEBEB"/>
<path d="M15.6147 50.7773V50.8216H14.8618V52.2776H16.769V50.7773H15.6147Z" fill="#EBEBEB"/>
<path d="M13.5887 50.822V50.7749H13.2759C13.3146 50.8496 13.334 50.9244 13.3395 50.9908H12.8192C12.797 50.9161 12.7527 50.822 12.6033 50.7749H12.1493C12.0469 50.8109 11.9888 50.8718 11.9888 50.9604C11.9888 51.0849 12.0773 51.1458 12.4787 51.2178C13.2925 51.3645 13.4198 51.6108 13.4198 51.9208C13.4198 52.0509 13.3811 52.1727 13.3036 52.2751H14.3388V50.8192H13.5831L13.5887 50.822Z" fill="#EBEBEB"/>
<path d="M8.86916 50.7773C8.91622 50.8659 8.94113 50.9683 8.94113 51.0818C8.94113 51.5192 8.62835 51.7821 8.10243 51.7821H7.52393V52.2776H9.30097V50.7773H8.8664H8.86916Z" fill="#EBEBEB"/>
<path d="M11.8943 51.9094C11.9552 52.0949 12.1047 52.2167 12.459 52.2167C12.7912 52.2167 12.888 52.1143 12.888 51.9759C12.888 51.8292 12.7884 51.7461 12.3372 51.6686C11.5926 51.5413 11.457 51.3005 11.457 51.0126C11.457 50.924 11.4791 50.8465 11.5096 50.7773H11.0806V50.8244H9.81836V51.2313H11.0141V51.6493H9.81836V52.1364H11.1498L11.1304 52.2776H11.5373C11.4487 52.1724 11.3933 52.0478 11.3712 51.9094H11.8916H11.8943Z" fill="#EBEBEB"/>
<path d="M19.249 50.7773V52.2776H19.6448L20.2483 50.7773H19.249Z" fill="#EBEBEB"/>
<path d="M17.2036 50.7773C17.2202 51.0292 17.2368 51.4223 17.2368 51.771V52.2776H17.6603C17.4915 51.6963 17.3143 51.1316 17.2147 50.7773H17.2036Z" fill="#EBEBEB"/>
<path d="M23.8523 51.9177C23.8302 51.6935 23.8357 51.2922 23.8357 50.9379V50.7773H23.1133C23.5395 51.4223 23.7333 51.7018 23.8468 51.9177H23.8523Z" fill="#EBEBEB"/>
<path d="M20.7024 50.7773C20.6498 50.9462 20.5419 51.2534 20.3896 51.6493H21.065C20.8796 51.1898 20.7827 50.9407 20.7273 50.7773H20.7024Z" fill="#EBEBEB"/>
<path d="M21.2227 50.7773L21.8565 52.2776H22.2523V50.7773H21.2227Z" fill="#EBEBEB"/>
<path d="M24.2039 52.5519H23.7333C23.6918 52.4882 23.6309 52.3913 23.559 52.2778H22.7286V52.5519H22.2525V52.2778H21.8566L21.9729 52.5519H21.411L21.2975 52.2778H20.1737L20.0685 52.5519H19.5343L19.645 52.2778H19.2492V52.5519H18.7482V52.2778H18.286C18.2583 52.3664 18.2278 52.4578 18.1974 52.5519H17.7379C17.713 52.4605 17.6853 52.3692 17.6576 52.2778H17.2341V52.5519H16.7663V52.2778H14.862V52.5519H14.3416V52.2778H13.3064C13.1624 52.4688 12.8773 52.5962 12.4123 52.5962C11.9805 52.5962 11.7009 52.4716 11.5404 52.2778H11.1335L11.0947 52.5519H9.30386V52.2778H7.52682V52.5519H7.00367V52.2778H4.61768L8.53436 53.7781H24.2067V52.5519H24.2039Z" fill="#EAEAEA"/>
<path d="M24.2035 53.8083V53.7778H8.53125L12.4507 55.2808H24.2035V53.8083Z" fill="#E9E8E9"/>
<path d="M24.2035 55.3117V55.2812H12.4507L16.3674 56.7815H24.2035V55.3117Z" fill="#E9E8E8"/>
<path d="M24.2038 56.8117V56.7812H16.3677L20.2871 58.2815H24.2038V56.8117Z" fill="#E8E7E7"/>
<path d="M24.2038 58.2817H20.2871L24.2038 59.7848V58.315V58.2817Z" fill="#E6E6E5"/>
<path d="M24.2036 59.7847L24.2645 59.818L28.1784 58.3149H24.2036V59.7847Z" fill="white"/>
<path d="M24.2036 58.2813V58.3145H28.1784L32.0951 56.8115H24.2036V58.2813Z" fill="white"/>
<path d="M24.2036 56.7813V56.8118H32.0951L36.009 55.3115H24.2036V56.7813Z" fill="white"/>
<path d="M24.2036 55.2812V55.3116H36.009L39.9257 53.8086H24.2036V55.2812Z" fill="#FDFEFF"/>
<path d="M41.0469 52.552H40.5265V52.3057H39.4387V52.552H38.8602C38.8215 52.4911 38.7689 52.4053 38.7024 52.3057H37.8554V52.552H37.3794V52.3057H36.9669L36.9309 52.552H35.1401V52.3057H34.5782V52.552H34.0772V52.3057H33.6066C33.5817 52.3859 33.554 52.469 33.5263 52.552H33.0668C33.0447 52.469 33.0198 52.3859 32.9949 52.3057H32.5631V52.552H32.0953V52.3057H31.6995L31.6635 52.552H29.8726V52.3057H29.3771V52.552H29.0007C28.9896 52.505 28.973 52.4108 28.9675 52.3333C28.8318 52.4939 28.6464 52.5991 28.245 52.5991C27.9129 52.5991 27.6554 52.4884 27.4728 52.3057H26.933L27.0382 52.552H26.4763L26.3739 52.3057H25.2279L25.1338 52.552H24.5996L24.6992 52.3057H24.3145V52.552H24.2065V53.8087H39.9287L43.8453 52.3057H41.0497V52.552H41.0469Z" fill="#FBFCFC"/>
<path d="M33.3296 51.9482C33.4015 51.6825 33.5372 51.2756 33.6922 50.8022H32.978C33.1386 51.2977 33.2742 51.7129 33.3268 51.9482H33.3296Z" fill="#FAFBFC"/>
<path d="M25.7981 50.8022H25.7566C25.7013 50.9766 25.5989 51.27 25.4521 51.6493H26.1275C25.9504 51.2147 25.8535 50.9683 25.7981 50.8022Z" fill="#FAFBFC"/>
<path d="M35.6602 50.8244V51.2313H36.8559V51.6465H35.6602V52.1364H36.9916L36.9666 52.3053H37.3791V50.8022H36.9224V50.8244H35.6602Z" fill="#FAFBFC"/>
<path d="M35.14 50.8022H34.5781V52.3053H35.14V50.8022Z" fill="#FAFBFC"/>
<path d="M30.3931 50.8244V51.2313H31.5888V51.6465H30.3931V52.1364H31.7245L31.6996 52.3053H32.0954V50.8022H31.6553V50.8244H30.3931Z" fill="#FAFBFC"/>
<path d="M32.5327 50.8022C32.5466 51.0541 32.5659 51.4306 32.5659 51.771V52.3053H32.9977C32.8289 51.7295 32.6545 51.1649 32.5521 50.8022H32.5355H32.5327Z" fill="#FAFBFC"/>
<path d="M28.8567 51.0486C28.829 50.9739 28.7571 50.8659 28.6048 50.8022H28.0789C27.8243 50.9019 27.708 51.1593 27.708 51.4666C27.708 51.8873 27.9073 52.2028 28.3446 52.2028C28.7072 52.2028 28.8733 52.0146 28.8733 51.76V51.7268H28.3502V51.3254H29.3771V52.308H29.8726V50.805H29.2858C29.3356 50.8853 29.366 50.9711 29.3799 51.0514H28.854L28.8567 51.0486Z" fill="#FAFBFC"/>
<path d="M25.3164 52.0645L25.2251 52.3053H26.371L26.2714 52.0645H25.3164Z" fill="#FAFBFC"/>
<path d="M27.4698 52.3053C27.2706 52.106 27.1598 51.8209 27.1598 51.4915C27.1598 51.2313 27.2346 50.9932 27.3757 50.8022H26.2935L26.9301 52.3053H27.4698Z" fill="#FAFBFC"/>
<path d="M24.6935 52.3053L25.2997 50.8022H24.3115V52.3053H24.6935Z" fill="#FAFBFC"/>
<path d="M34.0879 50.8022H34.0685C33.9717 51.1565 33.8083 51.6714 33.6035 52.3053H34.0741V51.7295C34.0741 51.3891 34.0741 51.0403 34.0879 50.8022Z" fill="#FAFBFC"/>
<path d="M41.797 50.8216H41.0469V52.3053H43.8425L44.2826 52.1364V50.8022H41.797V50.8216Z" fill="#FAFBFC"/>
<path d="M38.9793 51.9177C38.9571 51.6935 38.9627 51.2922 38.9627 50.9379V50.8022H38.2568C38.6693 51.4278 38.8603 51.7018 38.9737 51.9177H38.9793Z" fill="#FAFBFC"/>
<path d="M37.8389 50.9217C37.8555 51.1874 37.8555 51.4919 37.8555 51.8711V52.3029H38.7025C38.4201 51.8601 37.9468 51.1182 37.8444 50.9189H37.8389V50.9217Z" fill="#FAFBFC"/>
<path d="M40.5235 52.3053V50.8216H39.7706V50.8022H39.4385V52.3053H40.5235Z" fill="#FAFBFC"/>
<path d="M32.5298 50.7388C32.5298 50.7581 32.5298 50.7831 32.5326 50.8024H32.5492C32.5436 50.7803 32.5353 50.7581 32.5298 50.7388Z" fill="#F9F9FA"/>
<path d="M34.0907 50.7388H34.0879C34.0824 50.7581 34.0768 50.7831 34.0713 50.8024H34.0907C34.0907 50.7831 34.0907 50.7581 34.0907 50.7388Z" fill="#F9F9FA"/>
<path d="M25.7785 50.7417H25.7757C25.7702 50.7583 25.7619 50.7832 25.7563 50.8026H25.7979C25.7896 50.7805 25.784 50.7611 25.7785 50.7417Z" fill="#F9F9FA"/>
<path d="M24.2036 50.4065H24.3116V50.8023H25.2997L25.4603 50.4065H26.1274L26.2934 50.8023H27.3757C27.5695 50.5366 27.8933 50.3622 28.339 50.3622C28.851 50.3622 29.1445 50.5698 29.2856 50.8023H29.8724V50.4065H31.655V50.8023H32.0979V50.4065H32.8508C32.8951 50.5421 32.9366 50.675 32.9809 50.8023H33.695C33.7365 50.675 33.7808 50.5421 33.8251 50.4065H34.5808V50.8023H35.1427V50.4065H36.9252V50.8023H37.382V50.4065H37.9992C38.0961 50.5532 38.1791 50.6833 38.2594 50.8023H38.9652V50.4065H39.4413V50.8023H39.7735V50.4065H41.8024V50.8023H44.2881V49.2993H24.2091V50.4065H24.2036Z" fill="#F9F9FA"/>
<path d="M28.3393 50.7554C28.2396 50.7554 28.1538 50.7747 28.0791 50.8024H28.605C28.5358 50.7747 28.45 50.7554 28.3393 50.7554Z" fill="#F9F9FA"/>
<path d="M44.2825 49.2773H24.2036V49.2995H44.2825V49.2773Z" fill="#F7F8F8"/>
<path d="M44.2825 41.7871H24.2036V42.2272H44.2825V41.7871Z" fill="#F4F4F4"/>
<path d="M24.2035 41.7872H44.2825V40.2842H32.3248V40.489H31.6107V40.2842H29.1222V40.489H28.4109V40.2842H27.1072L27.0767 40.489H24.6353V40.2842H24.2008V40.2676H22.4819V40.489H21.7733V40.2676H21.3415L21.4356 40.489H20.6688L20.5775 40.2676H18.925L18.8392 40.489H18.1085L18.197 40.2676H17.5604C17.339 40.4392 16.993 40.5471 16.4892 40.5471C16.0242 40.5471 15.6892 40.4392 15.4595 40.2676H4.24365V41.7678H24.2035V41.7872Z" fill="#F3F3F3"/>
<path d="M32.0371 38.7812H31.9541C31.9679 38.8062 31.9818 38.8338 31.9929 38.856C32.0039 38.8338 32.0205 38.8062 32.0344 38.7812H32.0371Z" fill="#F2F2F2"/>
<path d="M26.9798 38.7812V39.2546H25.3467V39.9217H27.1625L27.1099 40.2843H28.4136V38.7812H26.9798Z" fill="#F2F2F2"/>
<path d="M24.2036 38.7812V40.2677V40.2843H24.6382V38.7812H24.2036Z" fill="#F2F2F2"/>
<path d="M32.3413 39.3764C32.3247 39.4013 32.3247 39.4179 32.3247 39.4539V40.2843H44.2824V38.7812H32.7454L32.3413 39.3764Z" fill="#F2F2F2"/>
<path d="M31.575 39.3487L31.1902 38.7812H29.1226V40.2843H31.611V39.4428C31.611 39.404 31.5999 39.3819 31.575 39.3487Z" fill="#F2F2F2"/>
<path d="M24.2036 38.7672V38.7838H24.6382V37.5686H27.0685V38.1361H25.3496V38.6897H26.9827V38.7838H28.4165V38.1333H27.3868V37.5686H30.152V38.1333H29.1251V38.7838H31.1928L30.3679 37.5686H31.2121C31.4751 37.9894 31.7989 38.4931 31.9595 38.7838H32.0425C32.2114 38.4931 32.5408 37.9894 32.8037 37.5686H33.576L32.7511 38.7838H44.2881V37.2808H24.2091V38.7672H24.2036Z" fill="#F1F0F0"/>
<path d="M30.7637 36.3368H29.0503V35.7749H27.694C27.3536 36.2316 26.8138 36.4586 26.0637 36.4586C25.3136 36.4586 24.8264 36.2233 24.5109 35.7749H24.2036V37.2779H44.2825V35.7749H32.3996C32.0647 36.1181 31.5526 36.3368 30.7665 36.3368H30.7637Z" fill="#F0EFEF"/>
<path d="M28.1289 34.2749C28.104 34.9198 27.9601 35.4208 27.6943 35.7779H29.0506V34.2749H28.1289Z" fill="#EEEDEE"/>
<path d="M31.7963 34.2749H30.2158V35.3406H30.6864C31.4614 35.3406 31.7271 34.9558 31.7991 34.2749H31.7963Z" fill="#EEEDEE"/>
<path d="M24.2036 35.061V35.7779H24.5109C24.3725 35.5814 24.27 35.3406 24.2036 35.061Z" fill="#EEEDEE"/>
<path d="M26.1165 35.407C26.6563 35.407 26.9248 35.0832 26.9441 34.2749H25.2944C25.3083 35.061 25.6044 35.407 26.1165 35.407Z" fill="#EEEDEE"/>
<path d="M32.3999 35.775H44.2828V34.272H32.9784C32.9231 34.8477 32.7736 35.3902 32.3999 35.775Z" fill="#EEEDEE"/>
<path d="M31.8212 33.7601V32.772H30.2158V34.275H31.7963C31.8129 34.12 31.8185 33.9484 31.8185 33.7629L31.8212 33.7601Z" fill="#EDEDEE"/>
<path d="M29.0506 32.772H28.1344V34.0757C28.1344 34.1449 28.1317 34.2086 28.1289 34.275H29.0506V32.772Z" fill="#EDEDEE"/>
<path d="M33.006 33.5773C33.006 33.8098 32.9977 34.0423 32.9756 34.2721H44.28V32.769H33.0033V33.5773H33.006Z" fill="#EDEDEE"/>
<path d="M26.944 34.275C26.944 34.2445 26.9468 34.2196 26.9468 34.1892V32.772H25.2915V34.2169C25.2915 34.2362 25.2915 34.2528 25.2915 34.275H26.9412H26.944Z" fill="#EDEDEE"/>
<path d="M31.8212 31.269H30.2158V32.7721H31.8212V31.269Z" fill="#ECECEC"/>
<path d="M29.0505 31.269H28.1343V32.7721H29.0505V31.269Z" fill="#ECECEC"/>
<path d="M44.2826 31.269H33.0059V32.7721H44.2826V31.269Z" fill="#ECECEC"/>
<path d="M26.9468 31.269H25.2915V32.7721H26.9468V31.269Z" fill="#ECECEC"/>
<path d="M31.8212 30.095C31.8212 29.9788 31.8185 29.868 31.8102 29.7656H30.2158V31.2686H31.8212V30.095Z" fill="#EBEBEB"/>
<path d="M26.9468 29.7822C26.9468 29.7822 26.9468 29.7712 26.9468 29.7656H25.2915C25.2915 29.7656 25.2915 29.7795 25.2915 29.7878V31.2686H26.9468V29.7822Z" fill="#EBEBEB"/>
<path d="M33.0057 30.203V31.2686H44.2824V29.7656H32.9946C33.0029 29.9068 33.0085 30.0535 33.0085 30.203H33.0057Z" fill="#EBEBEB"/>
<path d="M29.0503 29.7656H28.1313C28.1313 29.8044 28.1341 29.8404 28.1341 29.8819V31.2686H29.0503V29.7656Z" fill="#EBEBEB"/>
<path d="M30.6836 28.6558H30.2158V29.7657H31.8102C31.7631 29.0737 31.5334 28.6558 30.6836 28.6558Z" fill="#EAEAEA"/>
<path d="M24.5219 28.2627H24.2036V28.9879C24.2728 28.7056 24.3808 28.462 24.5219 28.2627Z" fill="#EAEAEA"/>
<path d="M26.1138 28.5869C25.5768 28.5869 25.2972 28.9578 25.2944 29.7661H26.9497C26.9469 28.991 26.6895 28.5869 26.1165 28.5869H26.1138Z" fill="#EAEAEA"/>
<path d="M29.0503 29.7657V28.2627H27.73C27.9819 28.6308 28.1147 29.1346 28.1313 29.7657H29.0503Z" fill="#EAEAEA"/>
<path d="M32.995 29.7657H44.2828V28.2627H32.5161C32.8289 28.6308 32.9562 29.1484 32.9922 29.7657H32.995Z" fill="#EAEAEA"/>
<path d="M24.2036 28.2628H24.5219C24.8707 27.7673 25.4271 27.5237 26.1384 27.5237C26.8498 27.5237 27.3979 27.7756 27.73 28.2628H29.0503V27.6483H30.7914C31.6522 27.6483 32.1865 27.8725 32.5186 28.2628H44.2853V26.7598H24.6382L24.2673 26.9729L24.2064 26.9369V28.26L24.2036 28.2628Z" fill="#E9E8E9"/>
<path d="M44.2827 25.2568H27.2375L24.6328 26.7598H44.2827V25.2568Z" fill="#E9E8E8"/>
<path d="M44.2825 23.7563H29.8392L27.2373 25.2566H44.2825V23.7563Z" fill="#E8E7E7"/>
<path d="M44.2827 22.2534H32.4413L29.8394 23.7564H44.2827V22.2534Z" fill="#E6E6E5"/>
<path d="M8.10231 51.7821C8.62822 51.7821 8.941 51.5191 8.941 51.0818C8.941 50.9655 8.91332 50.8659 8.86903 50.7773C8.74724 50.542 8.47321 50.4092 8.11338 50.4092H7.00342V52.5544H7.52657V51.7849H8.10507L8.10231 51.7821ZM7.5238 50.8078H8.06079C8.31267 50.8078 8.42062 50.9157 8.42062 51.0873C8.42062 51.3005 8.28222 51.3752 8.06079 51.3752H7.5238V50.805V50.8078Z" fill="#D2451E"/>
<path d="M9.82409 52.1367V51.6468H11.0199V51.2316H9.82409V50.8247H11.0835V50.7776V50.4067H9.30371V50.7776V52.2779V52.5519H11.0946L11.1333 52.2779L11.1527 52.1367H9.82409Z" fill="#D2451E"/>
<path d="M12.4786 51.2205C12.0745 51.1486 11.9887 51.0849 11.9887 50.9631C11.9887 50.8745 12.0468 50.8136 12.1492 50.7777C12.2073 50.7583 12.2738 50.7445 12.3624 50.7445C12.4648 50.7445 12.5423 50.7583 12.6032 50.7777C12.7526 50.8247 12.7969 50.9188 12.8191 50.9936H13.3394C13.3339 50.9271 13.3118 50.8524 13.2758 50.7777C13.1706 50.5701 12.9215 50.3652 12.379 50.3652C11.9748 50.3652 11.6371 50.5064 11.5126 50.7777C11.4794 50.8469 11.46 50.9244 11.46 51.0129C11.46 51.3008 11.5956 51.5416 12.3402 51.669C12.7914 51.7465 12.891 51.8295 12.891 51.9762C12.891 52.1146 12.7942 52.217 12.462 52.217C12.1049 52.217 11.9582 52.0952 11.8973 51.9098H11.377C11.3991 52.0482 11.4545 52.1727 11.543 52.2779C11.7036 52.4689 11.9831 52.5962 12.4149 52.5962C12.8827 52.5962 13.1651 52.4689 13.309 52.2779C13.3865 52.1755 13.4253 52.0537 13.4253 51.9236C13.4253 51.6136 13.2979 51.3672 12.4841 51.2205H12.4786Z" fill="#D2451E"/>
<path d="M15.6145 50.8219V50.7776V50.4067H13.5884V50.7776V50.8219H14.3413V52.2779V52.5519H14.8616V52.2779V50.8219H15.6145Z" fill="#D2451E"/>
<path d="M19.2492 50.4067H18.4935C18.452 50.5341 18.4105 50.6559 18.3717 50.7749C18.2112 51.2593 18.0728 51.6745 18.0008 51.9457H17.998C17.9454 51.7077 17.807 51.2814 17.641 50.7749C17.6022 50.6559 17.5607 50.5341 17.5219 50.4067H16.769V52.5519H17.2368V51.7713C17.2368 51.4226 17.2175 51.0295 17.2036 50.7776C17.2036 50.7666 17.2036 50.75 17.2036 50.7417H17.2064C17.2064 50.7417 17.2147 50.7666 17.2175 50.7776C17.3171 51.1319 17.4943 51.6966 17.6631 52.2779C17.6908 52.3692 17.7157 52.4606 17.7434 52.5519H18.2029C18.2333 52.4578 18.261 52.3665 18.2914 52.2779C18.4963 51.6413 18.6568 51.1264 18.7537 50.7776C18.7565 50.7666 18.762 50.7527 18.7648 50.7389H18.7675C18.7675 50.7389 18.7675 50.7638 18.7675 50.7776C18.7565 51.0185 18.7537 51.3783 18.7537 51.7326V52.5547H19.2547V50.4095L19.2492 50.4067Z" fill="#D2451E"/>
<path d="M21.0649 50.4067H20.3978L20.2483 50.7749L19.6449 52.2751L19.5342 52.5492H20.0684L20.1736 52.2751L20.2539 52.062H21.2088L21.2946 52.2751L21.4081 52.5492H21.97L21.8537 52.2751L21.2171 50.7749L21.0621 50.4067H21.0649ZM20.3923 51.6496C20.5445 51.2537 20.6524 50.9465 20.705 50.7776C20.7078 50.7666 20.7133 50.7527 20.7161 50.7444H20.7189C20.7189 50.7444 20.7272 50.7666 20.7299 50.7776C20.7825 50.941 20.8794 51.1901 21.0676 51.6496H20.3923Z" fill="#D2451E"/>
<path d="M23.8328 50.7773V50.9379C23.8328 51.2922 23.83 51.6935 23.8494 51.9177H23.8439C23.7304 51.7018 23.5366 51.4223 23.1104 50.7773C23.0356 50.6638 22.9581 50.5448 22.8668 50.4092H22.2495V52.5544H22.7256V51.8734C22.7256 51.4915 22.7256 51.187 22.709 50.924H22.7145C22.8169 51.1206 23.2709 51.8347 23.556 52.2803C23.628 52.3938 23.6889 52.4907 23.7304 52.5544H24.3089V50.4092H23.8328V50.7773Z" fill="#D2451E"/>
<path d="M24.5939 52.5519H25.1281L25.2222 52.3056L25.3136 52.0648H26.2685L26.3654 52.3056L26.4678 52.5519H27.0297L26.9246 52.3056L26.2879 50.8026L26.1218 50.4067H25.4548L25.2942 50.8026L24.688 52.3056L24.5884 52.5519H24.5939ZM25.7565 50.8026C25.762 50.7832 25.7703 50.7583 25.7758 50.7417H25.7786C25.7841 50.761 25.7924 50.7804 25.798 50.8026C25.8533 50.9659 25.9502 51.2122 26.1274 51.6496H25.452C25.5959 51.2731 25.7011 50.9769 25.7565 50.8026Z" fill="#D2451E"/>
<path d="M27.4697 52.3053C27.6524 52.488 27.9126 52.5987 28.2419 52.5987C28.6461 52.5987 28.8288 52.4963 28.9644 52.3329C28.9727 52.4104 28.9865 52.5046 28.9976 52.5516H29.3741V51.3226H28.3471V51.724H28.8703V51.7572C28.8703 52.0119 28.7042 52.2001 28.3416 52.2001C27.9043 52.2001 27.705 51.8845 27.705 51.4638C27.705 51.1566 27.8212 50.9019 28.0759 50.7995C28.1506 50.769 28.2364 50.7524 28.3361 50.7524C28.4468 50.7524 28.5326 50.7718 28.6018 50.7995C28.754 50.8604 28.8232 50.9711 28.8537 51.0458H29.3796C29.3657 50.9656 29.3325 50.8825 29.2855 50.7995C29.1443 50.5642 28.8481 50.3594 28.3388 50.3594C27.8932 50.3594 27.5693 50.5338 27.3756 50.7995C27.2372 50.9905 27.1597 51.2285 27.1597 51.4887C27.1597 51.8181 27.2676 52.1032 27.4697 52.3025V52.3053Z" fill="#D2451E"/>
<path d="M29.8726 52.5519H31.6634L31.6994 52.3056L31.7243 52.1367H30.3929V51.6468H31.5887V51.2316H30.3929V50.8247H31.6551V50.8026V50.4067H29.8726V50.8026V52.3056V52.5519Z" fill="#D2451E"/>
<path d="M32.0952 52.5519H32.563V51.7713C32.563 51.4337 32.5464 51.0572 32.5298 50.8026C32.5298 50.7832 32.5298 50.7583 32.527 50.7389H32.5298C32.5353 50.7583 32.5409 50.7804 32.5492 50.8026C32.6516 51.1652 32.8287 51.7271 32.9948 52.3056C33.0197 52.3886 33.0419 52.4717 33.0668 52.5519H33.5263C33.5539 52.4661 33.5789 52.3858 33.6065 52.3056C33.8086 51.6717 33.9719 51.1569 34.0716 50.8026C34.0771 50.7804 34.0854 50.7583 34.0882 50.7389H34.0909C34.0909 50.7583 34.0909 50.7832 34.0909 50.8026C34.0799 51.0434 34.0771 51.3894 34.0771 51.7298V52.5519H34.5781V50.4067H33.8224C33.7781 50.5424 33.7339 50.6752 33.6923 50.8026C33.5373 51.2759 33.4017 51.6828 33.3297 51.9485H33.327C33.2771 51.716 33.1387 51.298 32.9782 50.8026C32.9367 50.6752 32.8924 50.5424 32.8481 50.4067H32.0952V52.5519Z" fill="#D2451E"/>
<path d="M35.1401 52.5519H36.931L36.967 52.3056L36.9919 52.1367H35.6605V51.6468H36.8563V51.2316H35.6605V50.8247H36.9227V50.8026V50.4067H35.1401V50.8026V52.3056V52.5519Z" fill="#D2451E"/>
<path d="M37.3794 52.5518H37.8555V51.8708C37.8555 51.4889 37.8555 51.1844 37.8389 50.9214H37.8444C37.9468 51.1207 38.4202 51.8625 38.7025 52.3054C38.7662 52.4078 38.8215 52.4936 38.8603 52.5518H39.4388V50.4066H38.9627V50.9353C38.9627 51.2896 38.9599 51.6909 38.9793 51.9151H38.9738C38.8603 51.702 38.6693 51.4252 38.2568 50.7996C38.1766 50.6806 38.0935 50.5533 37.9967 50.4038H37.3794V52.549V52.5518Z" fill="#D2451E"/>
<path d="M40.5239 50.8219V52.3056V52.5519H41.047V52.3056V50.8219H41.7972V50.8026V50.4067H39.771V50.8026V50.8219H40.5239Z" fill="#D2451E"/>
<path d="M48.4982 42.2243H45.7192V8.19199H35.1012L33.183 7.0848L24.2646 1.93359L15.3434 7.0848L13.4252 8.19199H2.80721V42.2271H0.00878906V49.2771H2.80721V52.6097L24.2646 61.3123L45.722 52.6097V49.2771H48.5204V42.2271H48.501L48.4982 42.2243ZM4.2438 41.7676V22.2506H16.0852L18.6843 23.7508L21.2835 25.251L23.8826 26.7513L24.2009 26.934L24.2618 26.97L24.6327 26.7568L27.2346 25.2538L29.8365 23.7508L32.4384 22.2478H44.2798V42.2215H4.2438V41.7648V41.7676ZM44.0612 45.7977C44.0612 47.2316 43.0066 48.1173 41.7001 48.1173H39.6961V43.6332H41.7222C43.2335 43.6332 44.0584 44.613 44.0584 45.795L44.0612 45.7977ZM38.3508 45.3549V46.2268H35.8486V47.2482H38.6304L38.5058 48.1201H34.7608V43.636H38.4865V44.5079H35.8486V45.3576H38.3508V45.3549ZM33.3325 43.6332V48.1173H32.2447V43.6332H33.3325ZM31.0461 45.5182V46.3901H28.6186V48.1145H27.5308V43.6304H31.2205V44.4968H28.6186V45.5154H31.0461V45.5182ZM26.1025 43.6332V48.1173H25.0147V43.6332H26.1025ZM19.8247 44.4996V43.6332H24.0625V44.4996H22.4903V48.1173H21.4025V44.4996H19.8247ZM18.9833 47.0295V47.2537C18.9833 47.5609 18.9777 47.9069 19.0386 48.1173H17.9231C17.8484 47.9208 17.8401 47.6551 17.8401 47.179V47.0323C17.8401 46.5783 17.674 46.3901 17.0208 46.3901H16.1101V48.1173H15.0334V43.6332H17.4747C18.5072 43.6332 19.0995 44.1425 19.0995 44.9148C19.0995 45.4933 18.7618 45.8337 18.319 45.9749C18.5017 46.0469 18.9833 46.224 18.9833 47.0295ZM13.6798 45.3549V46.2268H11.1776V47.2482H13.9594L13.8348 48.1201H10.0898V43.636H13.8155V44.5079H11.1776V45.3576H13.6798V45.3549ZM6.89275 47.3727C7.52939 47.3727 7.81172 47.1236 7.9861 46.6918H9.07945C8.87186 47.4779 8.24629 48.2114 6.84016 48.2114C5.2375 48.2114 4.46523 47.1042 4.46523 45.878C4.46523 44.6518 5.31777 43.5363 6.89829 43.5363C8.2712 43.5363 8.95766 44.3003 9.08776 45.0504H7.9861C7.89476 44.793 7.65118 44.3805 6.88722 44.3805C6.04852 44.3805 5.61395 45.0199 5.61395 45.8365C5.61395 46.6531 6.01253 47.3727 6.89275 47.3727ZM44.2826 49.2992V52.1364L43.8425 52.3053L39.9258 53.8083L36.0091 55.3113L32.0924 56.8143L28.1757 58.3173L24.259 59.8203L24.1982 59.7843L20.2815 58.2841L16.3648 56.7838L12.4481 55.2836L8.53139 53.7834L4.6147 52.2831L4.24656 52.142V49.2826H44.2826V49.3048V49.2992Z" fill="#FF6C37"/>
<path d="M17.2397 44.4502H16.1104V45.574H17.2314C17.7601 45.574 17.987 45.383 17.987 45.0066C17.987 44.6523 17.7518 44.4502 17.2397 44.4502Z" fill="#FF6C37"/>
<path d="M40.7866 44.472V47.2732H41.5589C42.4363 47.2732 42.9097 46.7777 42.9097 45.8255C42.9097 44.9952 42.4751 44.4831 41.5727 44.4692H40.7866V44.472Z" fill="#FF6C37"/>
<path d="M6.88731 44.3833C7.65128 44.3833 7.89486 44.7957 7.9862 45.0531H9.08786C8.95776 44.303 8.2713 43.5391 6.89838 43.5391C5.31787 43.5391 4.46533 44.6573 4.46533 45.8808C4.46533 47.1042 5.2376 48.2142 6.84026 48.2142C8.24639 48.2142 8.87195 47.4834 9.07955 46.6946H7.9862C7.81182 47.1264 7.53225 47.3755 6.89285 47.3755C6.00986 47.3755 5.61404 46.6669 5.61404 45.8393C5.61404 45.0116 6.04862 44.3833 6.88731 44.3833Z" fill="white"/>
<path d="M13.8155 44.5052V43.6333H10.0898V48.1174H13.8349L13.9595 47.2455H11.1777V46.2241H13.6799V45.355H11.1777V44.5052H13.8155Z" fill="white"/>
<path d="M19.0994 44.9149C19.0994 44.1454 18.507 43.6333 17.4746 43.6333H15.0332V48.1174H16.1099V46.3902H17.0206C17.6739 46.3902 17.8399 46.5784 17.8399 47.0324V47.1791C17.8399 47.6552 17.8482 47.9209 17.923 48.1174H19.0385C18.9776 47.9043 18.9831 47.5611 18.9831 47.2538V47.0296C18.9831 46.2241 18.5015 46.0497 18.3188 45.975C18.7617 45.8338 19.0994 45.4934 19.0994 44.9149ZM17.231 45.5737H16.1099V44.4499H17.2393C17.7514 44.4499 17.9866 44.6519 17.9866 45.0062C17.9866 45.3854 17.7569 45.5737 17.231 45.5737Z" fill="white"/>
<path d="M22.4903 48.1174V44.4997H24.0625V43.6333H19.8247V44.4997H21.4025V48.1174H22.4903Z" fill="white"/>
<path d="M26.1025 43.6333H25.0146V48.1174H26.1025V43.6333Z" fill="white"/>
<path d="M31.2234 44.4997V43.6333H27.5337V48.1174H28.6215V46.3902H31.0463V45.5183H28.6215V44.4997H31.2234Z" fill="white"/>
<path d="M33.3324 43.6333H32.2446V48.1174H33.3324V43.6333Z" fill="white"/>
<path d="M38.4864 44.5052V43.6333H34.7607V48.1174H38.5058L38.6304 47.2455H35.8486V46.2241H38.3508V45.355H35.8486V44.5052H38.4864Z" fill="white"/>
<path d="M39.6987 43.6333V48.1174H41.7027C43.0065 48.1174 44.0638 47.2317 44.0638 45.7979C44.0638 44.6159 43.2362 43.6361 41.7277 43.6361H39.7015L39.6987 43.6333ZM42.9096 45.8255C42.9096 46.7777 42.4363 47.2732 41.5588 47.2732H40.7865V44.472H41.5727C42.475 44.4831 42.9096 44.9979 42.9096 45.8283V45.8255Z" fill="white"/>
<path d="M16.741 32.7609V32.3236H18.7035V31.2607V31.244H16.741V29.7604V28.7279H18.8114V28.2574V27.6484H15.5757V28.2574V29.7604V31.2607V32.7609V34.2639V35.7641V36.3371H16.741V35.7641V34.2639V32.7609Z" fill="#D2451E"/>
<path d="M23.351 34.0754V29.8819C23.351 29.8404 23.351 29.8016 23.3482 29.7601C23.3316 29.129 23.196 28.6253 22.9441 28.2599C22.6119 27.7755 22.0777 27.5264 21.3553 27.5264C20.6328 27.5264 20.0903 27.7672 19.7415 28.2599C19.4841 28.6225 19.3402 29.1235 19.3236 29.7601C19.3236 29.7989 19.3208 29.8376 19.3208 29.8764V34.092C19.3208 34.1501 19.3208 34.2055 19.3236 34.2609C19.3429 34.8947 19.4675 35.3985 19.7166 35.7611C20.0294 36.2178 20.5359 36.4559 21.2778 36.4559C22.0196 36.4559 22.5787 36.2261 22.9192 35.7611C23.1821 35.4013 23.3233 34.903 23.3454 34.2609C23.3454 34.2 23.351 34.1391 23.351 34.0726V34.0754ZM22.1635 31.2604V34.1889C22.1635 34.2166 22.1635 34.2387 22.1607 34.2636C22.1441 35.0829 21.8756 35.4068 21.3331 35.4068C20.8183 35.4068 20.5221 35.058 20.511 34.2636C20.511 34.247 20.511 34.2332 20.511 34.2166V29.7878C20.511 29.7878 20.511 29.7684 20.511 29.7601C20.5166 28.9574 20.7934 28.5893 21.3304 28.5893C21.9033 28.5893 22.158 28.9879 22.1635 29.7601C22.1635 29.7684 22.1635 29.774 22.1635 29.7823V31.2604Z" fill="#D2451E"/>
<path d="M24.1068 29.7603C24.1068 29.799 24.104 29.8378 24.104 29.8765V34.0922C24.104 34.1503 24.104 34.2057 24.1068 34.261C24.1151 34.5544 24.1455 34.8229 24.2037 35.0582C24.2701 35.3378 24.3725 35.5758 24.5109 35.7751C24.8237 36.2235 25.3302 36.4588 26.0637 36.4588C26.7972 36.4588 27.3536 36.2318 27.6941 35.7751C27.9598 35.418 28.1037 34.917 28.1286 34.2721C28.1286 34.2057 28.1342 34.142 28.1342 34.0728V29.8793C28.1342 29.8406 28.1342 29.8018 28.1314 29.7631C28.1176 29.132 27.9819 28.6282 27.7301 28.26C27.3979 27.7729 26.8609 27.521 26.1385 27.521C25.416 27.521 24.8707 27.7646 24.522 28.26C24.3808 28.4593 24.2756 28.7029 24.2037 28.9853C24.1455 29.215 24.1151 29.4697 24.1068 29.7548V29.7603ZM25.2915 32.7719V29.788C25.2915 29.788 25.2915 29.7741 25.2915 29.7658C25.297 28.9576 25.5738 28.5867 26.1108 28.5867C26.6865 28.5867 26.9412 28.988 26.9439 29.7658C26.9439 29.7714 26.9439 29.7769 26.9439 29.7824V34.1891C26.9439 34.2195 26.9412 34.2444 26.9412 34.2749C26.9218 35.0831 26.6561 35.407 26.1136 35.407C25.6015 35.407 25.3053 35.061 25.2915 34.2749C25.2915 34.2555 25.2915 34.2389 25.2915 34.2167V32.7719Z" fill="#D2451E"/>
<path d="M29.0506 31.269V36.3371H30.764C31.5529 36.3371 32.0649 36.1185 32.3971 35.7752C32.7708 35.3905 32.923 34.8479 32.9756 34.2722C32.9978 34.0425 33.0061 33.8072 33.0061 33.5774V30.2033C33.0061 30.051 33.0005 29.9071 32.9922 29.7659C32.9562 29.1487 32.8289 28.6311 32.5161 28.2629C32.1867 27.8726 31.6497 27.6484 30.7889 27.6484H29.0479V31.269H29.0506ZM30.2159 34.275V28.656H30.6837C31.5335 28.656 31.7632 29.0767 31.8103 29.7659C31.8158 29.8711 31.8214 29.9791 31.8214 30.0953V33.7601C31.8214 33.9456 31.8158 34.1172 31.7992 34.2722C31.7273 34.9531 31.4615 35.3379 30.6865 35.3379H30.2159V34.2722V34.275Z" fill="#D2451E"/>
<path d="M17.8707 39.6307C17.8707 39.2681 17.7406 38.9691 17.0043 38.7643C16.8825 38.7311 16.7441 38.6979 16.5864 38.6702C16.0383 38.5706 15.9165 38.4875 15.9165 38.3187C15.9165 38.1304 16.0881 38.0225 16.4258 38.0225C16.9074 38.0225 17.0043 38.2163 17.0458 38.3602H17.7572C17.724 38.0197 17.4527 37.5049 16.448 37.5049C15.756 37.5049 15.1941 37.8038 15.1941 38.3879C15.1941 38.5235 15.2162 38.6481 15.2854 38.7643C15.4183 38.9858 15.7255 39.1684 16.3926 39.2819C17.0099 39.3871 17.1427 39.5006 17.1427 39.7027C17.1427 39.8909 17.0099 40.0293 16.5559 40.0293C16.0715 40.0293 15.8694 39.8632 15.7836 39.6113H15.0723C15.1166 39.8687 15.2383 40.0985 15.4598 40.2646C15.6895 40.4389 16.0217 40.5441 16.4895 40.5441C16.9905 40.5441 17.3392 40.4362 17.5607 40.2646C17.771 40.0985 17.8679 39.877 17.8679 39.6279L17.8707 39.6307Z" fill="#D2451E"/>
<path d="M20.1955 37.5659H19.2848L18.8004 38.7672L18.197 40.2675L18.1084 40.4889H18.8391L18.925 40.2675L19.0938 39.8246H20.3947L20.5747 40.2675L20.666 40.4889H21.4327L21.3386 40.2675L20.702 38.7672L20.1927 37.5659H20.1955ZM19.2765 39.2572C19.3457 39.08 19.4066 38.9167 19.4619 38.7672C19.5837 38.4351 19.6723 38.1749 19.7166 38.0226H19.7221C19.772 38.1832 19.855 38.4074 19.9989 38.7672C20.0543 38.9084 20.1207 39.0689 20.1955 39.2572H19.2765Z" fill="#D2451E"/>
<path d="M24.0653 39.3623V38.7949H22.4848V38.7672V38.1306H24.1816V37.5659H21.7734V38.7672V40.2675V40.4889H22.4848V40.2675V39.3623H24.0653Z" fill="#D2451E"/>
<path d="M25.3468 39.9215V39.2544H26.9799V38.7811V38.687H25.3468V38.1334H27.0685V37.5659H24.6382V38.7811V40.2841V40.4889H27.0823L27.11 40.2841L27.1626 39.9215H25.3468Z" fill="#D2451E"/>
<path d="M29.1226 38.1306H30.1495V37.5659H27.3843V38.1306H28.414V38.7811V40.2841V40.4889H29.1226V40.2841V38.7811V38.1306Z" fill="#D2451E"/>
<path d="M32.3416 39.3762L32.7457 38.7811L33.5706 37.5659H32.7983C32.5353 37.9867 32.2059 38.4904 32.0371 38.7811C32.0233 38.806 32.0066 38.8337 31.9956 38.8558C31.9845 38.8337 31.9707 38.806 31.9568 38.7811C31.7963 38.4877 31.4724 37.9867 31.2095 37.5659H30.3652L31.1901 38.7811L31.5748 39.3485C31.5998 39.3845 31.6108 39.4039 31.6108 39.4426V40.4889H32.325V39.4537C32.325 39.4177 32.325 39.4011 32.3416 39.3762Z" fill="#D2451E"/>
<path d="M20.3701 13.947C20.3037 14.0134 20.2151 14.0494 20.1265 14.0494C20.038 14.0494 19.9494 14.0161 19.8829 13.947L16.2984 10.3624L15.6812 10.9797L19.3792 14.6777C19.9826 15.2811 20.9708 15.2811 21.5742 14.6777L21.7845 14.4673L22.9775 15.6603L17.8153 20.8226L19.1162 22.1236L24.2785 16.9613L29.4408 22.1236L30.7417 20.8226L25.5794 15.6603L26.778 14.4618C26.9302 14.5255 27.0908 14.5725 27.2568 14.6057C27.8353 14.7248 28.4775 14.6666 29.1142 14.4452C29.7508 14.2237 30.3763 13.8335 30.9216 13.2909C31.0185 13.1941 31.1099 13.0944 31.1957 12.9948C31.2815 12.8951 31.3645 12.7899 31.4393 12.6848C31.7465 12.264 31.9735 11.8156 32.1146 11.3644C32.4717 10.2379 32.3112 9.10022 31.5749 8.36394C30.3957 7.18478 28.1896 7.47818 26.6479 9.01718C26.4154 9.24969 26.2105 9.49881 26.0334 9.75623C25.74 10.1853 25.5296 10.642 25.4051 11.0959C25.3552 11.2786 25.3193 11.4585 25.2971 11.6385C25.286 11.727 25.2777 11.8184 25.275 11.907C25.2694 11.9955 25.2694 12.0841 25.275 12.1699C25.275 12.2557 25.2833 12.3443 25.2943 12.4273C25.3054 12.5131 25.3165 12.5962 25.3331 12.6792C25.3663 12.8453 25.4161 13.0031 25.477 13.1581L24.2785 14.3566L23.0855 13.1636L23.2959 12.9532C23.5976 12.6515 23.7498 12.2529 23.7498 11.8571C23.7498 11.6578 23.7111 11.4585 23.6363 11.2731C23.5616 11.0849 23.4481 10.9105 23.2959 10.761L19.5978 7.06299L18.9529 7.70793L22.5374 11.2925C22.6731 11.4281 22.6731 11.6468 22.5374 11.7824C22.471 11.8488 22.3824 11.8848 22.2939 11.8848C22.2053 11.8848 22.1167 11.8516 22.0503 11.7824L18.4657 8.19786L17.8734 8.79021L21.4579 12.3747C21.5936 12.5104 21.5936 12.729 21.4579 12.8647C21.3915 12.9311 21.3029 12.9671 21.2143 12.9671C21.1258 12.9671 21.0372 12.9339 20.9708 12.8647L17.3862 9.28014L16.7939 9.87249L20.3784 13.457C20.514 13.5926 20.514 13.8113 20.3784 13.947H20.3701Z" fill="white"/>
</g>
<defs>
<clipPath id="clip0_1389_3586">
<rect width="48.5088" height="62.0166" fill="white" transform="translate(0.00878906 0.491699)"/>
</clipPath>
</defs>
</svg>
