<svg width="56" height="72" viewBox="0 0 56 72" fill="none" xmlns="http://www.w3.org/2000/svg">
<g clip-path="url(#clip0_1389_1913)">
<path d="M52.7414 60.2674L27.985 70.3079L3.22859 60.2674V56.4224H1.95117V61.1265L27.985 71.6875L54.0188 61.1265V56.4224H52.7414V60.2674Z" fill="#D2451E"/>
<path d="M3.22868 48.2854V9.02068H15.4791L17.6891 7.74326L27.9851 1.80007L38.2779 7.74326L40.491 9.02068H52.7414V48.2854H53.0896H55.9446L54.0189 46.0275V7.74326H41.1329V7.7273L40.8135 7.54207L28.3044 0.321456L27.9851 0.13623L27.6657 0.321456L15.1534 7.54207L14.834 7.7273V7.74326H1.95126V46.002L0 48.2854H2.85503H3.22868Z" fill="#D2451E"/>
<path d="M18.5482 25.2441H4.88623V26.975H21.5502L18.5482 25.2441Z" fill="white"/>
<path d="M21.5502 26.9746H4.88623V28.7055H24.5489L21.5502 26.9746Z" fill="white"/>
<path d="M24.5489 28.7056H4.88623V30.4397H27.5476L24.5489 28.7056Z" fill="white"/>
<path d="M17.9606 31.4683H21.6907V32.1708H22.7669C23.1693 31.6056 23.808 31.3246 24.6287 31.3246C25.4495 31.3246 26.0754 31.612 26.4618 32.1708H27.9181V30.6507L27.5508 30.4399H4.88623V32.1708H17.9606V31.4683Z" fill="#FDFEFF"/>
<path d="M17.9606 32.1709H4.88623V33.9018H17.9606V32.1709Z" fill="#FBFCFC"/>
<path d="M19.3052 32.7138V33.9018H22.2848C22.3039 33.1641 22.47 32.5893 22.767 32.1709H21.6908V32.7138H19.3052Z" fill="#FBFCFC"/>
<path d="M24.5967 32.5508C23.9771 32.5508 23.6578 32.9755 23.6514 33.9017H25.5611C25.5547 33.0107 25.2609 32.5508 24.5999 32.5508H24.5967Z" fill="#FBFCFC"/>
<path d="M27.803 33.9047C27.8126 33.5758 27.8477 33.282 27.9148 33.0169V32.1738H26.4585C26.7491 32.5954 26.9088 33.1766 26.9248 33.9047H27.7998H27.803Z" fill="#FBFCFC"/>
<path d="M17.9606 33.9048H4.88623V35.6357H17.9606V33.9048Z" fill="#FAFBFC"/>
<path d="M27.8001 34.0389C27.8001 33.991 27.8001 33.9495 27.8033 33.9048H26.9282C26.9282 33.9527 26.9314 33.9974 26.9314 34.0453V35.6357H27.8001V34.0389Z" fill="#FAFBFC"/>
<path d="M19.3052 35.6165H21.5694V35.6357H22.2816V34.0389C22.2816 33.991 22.2816 33.9495 22.2848 33.9048H19.3052V35.6165Z" fill="#FAFBFC"/>
<path d="M23.6514 33.9048C23.6514 33.9048 23.6514 33.9271 23.6514 33.9367V35.6357H25.5611V33.9303C25.5611 33.9303 25.5611 33.9144 25.5611 33.9048H23.6514Z" fill="#FAFBFC"/>
<path d="M25.5611 35.6357H23.6514V37.3666H25.5611V35.6357Z" fill="#F9F9FA"/>
<path d="M27.7998 35.6357H26.9312V37.3666H27.7998V35.6357Z" fill="#F9F9FA"/>
<path d="M17.9606 35.6357H4.88623V37.3666H17.9606V35.6357Z" fill="#F9F9FA"/>
<path d="M21.5694 36.8621H19.3052V37.3666H22.2816V35.6357H21.5694V36.8621Z" fill="#F9F9FA"/>
<path d="M19.3052 39.1005H22.2848C22.2848 39.0367 22.2816 38.9728 22.2816 38.9057V37.3696H19.3084V39.1005H19.3052Z" fill="#F7F8F8"/>
<path d="M23.6516 39.0462C23.6516 39.0654 23.6516 39.0814 23.6516 39.1005H25.555C25.555 39.0718 25.5582 39.0462 25.5582 39.0143V37.3696H23.6484V39.0494L23.6516 39.0462Z" fill="#F7F8F8"/>
<path d="M17.9606 37.3667H4.88623V39.0976H17.9606V37.3667Z" fill="#F7F8F8"/>
<path d="M27.7998 37.3667H26.9312V38.8836C26.9312 38.9571 26.928 39.0273 26.9248 39.1008H27.803C27.803 39.0369 27.7998 38.9731 27.7998 38.906V37.3699V37.3667Z" fill="#F7F8F8"/>
<path d="M24.6033 40.4195C25.2292 40.4195 25.539 40.0427 25.5581 39.1006H23.6548C23.6676 40.0171 24.0093 40.4195 24.6033 40.4195Z" fill="#F7F8F8"/>
<path d="M19.3052 39.1006V40.8315H22.7382C22.4508 40.4099 22.3039 39.8319 22.2848 39.1006H19.3052Z" fill="#F7F8F8"/>
<path d="M27.8031 39.1006H26.9249C26.8994 39.8415 26.7365 40.4195 26.4331 40.8315H27.9149V40.0203C27.851 39.7457 27.8127 39.4391 27.8031 39.1006Z" fill="#F7F8F8"/>
<path d="M17.9606 39.1006H4.88623V40.8315H17.9606V39.1006Z" fill="#F7F8F8"/>
<path d="M27.9149 40.8446V40.8286H26.4331C26.0403 41.3651 25.4144 41.6302 24.5393 41.6302C23.6643 41.6302 23.099 41.3524 22.7382 40.8286H19.3051V41.4897H17.9606V40.8286H4.88623V42.5595H27.9149V40.8414V40.8446Z" fill="#F6F6F6"/>
<path d="M17.5199 43.8591C17.5199 43.1852 18.1682 42.8403 18.9666 42.8403C20.1258 42.8403 20.4388 43.4343 20.4771 43.8271H19.6564C19.6085 43.6611 19.4967 43.4375 18.941 43.4375C18.5514 43.4375 18.3534 43.5621 18.3534 43.7792C18.3534 43.974 18.4907 44.073 19.1263 44.1848C19.3083 44.2168 19.468 44.2551 19.6085 44.2934H21.6843L22.2432 42.9074H23.2938L23.8815 44.2934H25.1142V42.9074H27.8894V43.5589H25.9317V44.2934H27.9149V42.5625H4.88623V44.2934H17.6253C17.5455 44.1593 17.5199 44.0124 17.5199 43.8591Z" fill="#F5F6F6"/>
<path d="M22.7445 43.4375H22.7381C22.687 43.6131 22.5849 43.9133 22.4443 44.2966H23.0639C22.8978 43.8814 22.802 43.6227 22.7445 43.4375Z" fill="#F5F6F6"/>
<path d="M27.9148 44.2964H25.9316V44.3283H27.7552V44.983H25.9316V46.0273H27.9148V44.3124V44.2964Z" fill="#F4F4F4"/>
<path d="M22.0195 45.5166L21.8247 46.0276H23.7313L23.5205 45.5166H22.0195Z" fill="#F4F4F4"/>
<path d="M23.8779 44.2964L24.6124 46.0273H25.1106V44.2964H23.8779Z" fill="#F4F4F4"/>
<path d="M22.4444 44.2964C22.3806 44.4688 22.3103 44.6573 22.2305 44.8616H23.2907C23.2013 44.6445 23.1279 44.4593 23.064 44.2964H22.4444Z" fill="#F4F4F4"/>
<path d="M19.6084 44.2964C20.4579 44.5327 20.608 44.8744 20.608 45.296C20.608 45.5802 20.4962 45.8389 20.2535 46.0305H20.988L21.6842 44.2996H19.6084V44.2964Z" fill="#F4F4F4"/>
<path d="M17.3826 45.2736H18.2033C18.2991 45.5642 18.5323 45.7558 19.0943 45.7558C19.6181 45.7558 19.7714 45.5962 19.7714 45.379C19.7714 45.1459 19.6149 45.0149 18.9059 44.8936C18.1363 44.7626 17.7818 44.5519 17.6285 44.2964H4.88623V46.0273H17.8265C17.571 45.8357 17.4305 45.5706 17.3794 45.2736H17.3826Z" fill="#F4F4F4"/>
<path d="M27.9149 47.7807V47.7583H4.88623V48.2852H27.9149V47.7807Z" fill="#F2F2F2"/>
<path d="M19.8384 58.1089C19.8384 58.1089 19.8384 58.1376 19.8384 58.1504H19.8512C19.8512 58.1504 19.8416 58.1217 19.8384 58.1089Z" fill="#ECECEC"/>
<path d="M14.0068 58.1536H14.5306C14.4603 58.1312 14.3709 58.1152 14.2527 58.1152C14.1505 58.1152 14.0739 58.1312 14.0068 58.1536Z" fill="#ECECEC"/>
<path d="M21.6329 58.1089C21.6329 58.1089 21.6233 58.1376 21.6201 58.1536H21.6329C21.6329 58.1536 21.6329 58.1217 21.6329 58.1089Z" fill="#ECECEC"/>
<path d="M8.067 57.7253H9.34762C9.76597 57.7253 10.0789 57.8818 10.2195 58.1501H10.7208V57.7253H12.7775V58.1501H13.2725C13.4162 57.8371 13.8058 57.6742 14.2721 57.6742C14.8948 57.6742 15.1854 57.9106 15.3068 58.1501H15.6677V57.7253H18.0085V58.1501H19.3402V57.7253H20.2089C20.2568 57.8722 20.3015 58.0128 20.3462 58.1501H21.1893C21.234 58.0128 21.2819 57.8722 21.3298 57.7253H22.2016V58.1501H23.3545L23.527 57.7253H24.2966L24.4755 58.1501H25.6635V57.7253H26.3756C26.4778 57.8818 26.5704 58.0223 26.6566 58.1501H27.4902V57.7253H27.9181V56.4224H4.88623V58.1533H8.067V57.7285V57.7253Z" fill="#ECECEC"/>
<path d="M23.891 58.1118H23.8878C23.8878 58.1118 23.8782 58.1406 23.875 58.1501H23.9037C23.9037 58.1501 23.8942 58.1246 23.891 58.1118Z" fill="#ECECEC"/>
<path d="M8.067 58.1533H4.88623V59.7214L5.31417 59.8842H8.067V58.1533Z" fill="#EBEBEB"/>
<path d="M9.70854 58.5144C9.70854 58.3133 9.58399 58.1919 9.29338 58.1919H8.67383V58.8498H9.29338C9.54886 58.8498 9.70854 58.7635 9.70854 58.5176V58.5144Z" fill="#EBEBEB"/>
<path d="M21.6364 58.1533H21.6237C21.5151 58.5557 21.3267 59.1497 21.0903 59.8842H21.6237V59.2551C21.6237 58.8495 21.6237 58.4312 21.6396 58.1533H21.6364Z" fill="#EBEBEB"/>
<path d="M23.3607 59.6387L23.2681 59.8846H24.5615L24.4625 59.6387H23.3607Z" fill="#EBEBEB"/>
<path d="M20.7579 59.5042C20.841 59.1912 21.0038 58.709 21.1859 58.1533H20.3428C20.5344 58.7377 20.6941 59.2295 20.7547 59.5042H20.7579Z" fill="#EBEBEB"/>
<path d="M26.1934 58.3196C26.2125 58.6262 26.2125 58.9775 26.2125 59.415V59.8812H27.1706C26.8448 59.3671 26.3179 58.5431 26.1997 58.3164H26.1934V58.3196Z" fill="#EBEBEB"/>
<path d="M18.0054 58.1533V58.2044H17.1367V59.8842H19.3371V58.1533H18.0054Z" fill="#EBEBEB"/>
<path d="M15.6676 58.2047V58.1504H15.3068C15.3515 58.2366 15.3738 58.3228 15.3802 58.3995H14.7798C14.7543 58.3133 14.7032 58.2047 14.5307 58.1504H14.007C13.8888 58.1919 13.8218 58.2622 13.8218 58.3644C13.8218 58.5081 13.924 58.5783 14.387 58.6614C15.3259 58.8306 15.4728 59.1148 15.4728 59.4725C15.4728 59.6226 15.4281 59.7631 15.3387 59.8813H16.5331V58.2015H15.6613L15.6676 58.2047Z" fill="#EBEBEB"/>
<path d="M10.2225 58.1533C10.2768 58.2555 10.3055 58.3737 10.3055 58.5046C10.3055 59.0092 9.94464 59.3126 9.33786 59.3126H8.67041V59.8842H10.7207V58.1533H10.2193H10.2225Z" fill="#EBEBEB"/>
<path d="M13.713 59.4595C13.7833 59.6734 13.9557 59.814 14.3645 59.814C14.7477 59.814 14.8595 59.6958 14.8595 59.5361C14.8595 59.3669 14.7445 59.2711 14.224 59.1816C13.3649 59.0347 13.2085 58.7569 13.2085 58.4248C13.2085 58.3226 13.234 58.2332 13.2691 58.1533H12.7741V58.2076H11.3179V58.6771H12.6975V59.1593H11.3179V59.7214H12.854L12.8316 59.8842H13.3011C13.1989 59.7629 13.135 59.6192 13.1095 59.4595H13.7098H13.713Z" fill="#EBEBEB"/>
<path d="M22.1982 58.1533V59.8842H22.6549L23.3511 58.1533H22.1982Z" fill="#EBEBEB"/>
<path d="M19.8384 58.1533C19.8575 58.4439 19.8767 58.8974 19.8767 59.2998V59.8842H20.3653C20.1705 59.2136 19.9661 58.5621 19.8512 58.1533H19.8384Z" fill="#EBEBEB"/>
<path d="M27.5094 59.4691C27.4839 59.2104 27.4903 58.7473 27.4903 58.3385V58.1533H26.6567C27.1485 58.8974 27.3721 59.22 27.503 59.4691H27.5094Z" fill="#EBEBEB"/>
<path d="M23.875 58.1533C23.8144 58.3481 23.6898 58.7026 23.5142 59.1593H24.2934C24.0794 58.6292 23.9676 58.3417 23.9038 58.1533H23.875Z" fill="#EBEBEB"/>
<path d="M24.4756 58.1533L25.2069 59.8842H25.6636V58.1533H24.4756Z" fill="#EBEBEB"/>
<path d="M27.9149 60.2004H27.372C27.3241 60.127 27.2539 60.0152 27.1708 59.8843H26.2128V60.2004H25.6635V59.8843H25.2068L25.3409 60.2004H24.6926L24.5617 59.8843H23.2651L23.1438 60.2004H22.5274L22.6552 59.8843H22.1985V60.2004H21.6204V59.8843H21.0871C21.0552 59.9865 21.0201 60.0919 20.9849 60.2004H20.4548C20.4261 60.0951 20.3941 59.9897 20.3622 59.8843H19.8736V60.2004H19.3339V59.8843H17.1367V60.2004H16.5363V59.8843H15.3419C15.1759 60.1046 14.8469 60.2515 14.3104 60.2515C13.8122 60.2515 13.4897 60.1078 13.3044 59.8843H12.835L12.7903 60.2004H10.7241V59.8843H8.6738V60.2004H8.07022V59.8843H5.31738L9.83625 61.6152H27.9181V60.2004H27.9149Z" fill="#EAEAEA"/>
<path d="M27.9149 61.6504V61.6152H9.83301L14.3551 63.3493H27.9149V61.6504Z" fill="#E9E8E9"/>
<path d="M27.9148 63.3843V63.3491H14.355L18.8739 65.08H27.9148V63.3843Z" fill="#E9E8E8"/>
<path d="M27.915 65.1152V65.0801H18.874L23.3961 66.811H27.915V65.1152Z" fill="#E8E7E7"/>
<path d="M27.9149 66.811H23.396L27.9149 68.5451V66.8494V66.811Z" fill="#E6E6E5"/>
<path d="M27.915 68.5454L27.9853 68.5837L32.501 66.8496H27.915V68.5454Z" fill="white"/>
<path d="M27.915 66.811V66.8493H32.501L37.0198 65.1152H27.915V66.811Z" fill="white"/>
<path d="M27.915 65.0801V65.1152H37.0198L41.5355 63.3843H27.915V65.0801Z" fill="white"/>
<path d="M27.915 63.3494V63.3845H41.5355L46.0544 61.6504H27.915V63.3494Z" fill="#FDFEFF"/>
<path d="M47.3475 60.2007H46.7471V59.9165H45.4921V60.2007H44.8246C44.7799 60.1305 44.7192 60.0315 44.6426 59.9165H43.6654V60.2007H43.1161V59.9165H42.6402L42.5987 60.2007H40.5325V59.9165H39.8842V60.2007H39.3062V59.9165H38.7633C38.7345 60.0091 38.7026 60.1049 38.6706 60.2007H38.1405C38.115 60.1049 38.0862 60.0091 38.0575 59.9165H37.5593V60.2007H37.0196V59.9165H36.5629L36.5214 60.2007H34.4552V59.9165H33.8835V60.2007H33.4492C33.4364 60.1464 33.4173 60.0379 33.4109 59.9484C33.2544 60.1337 33.0404 60.255 32.5774 60.255C32.1941 60.255 31.8971 60.1273 31.6864 59.9165H31.0636L31.185 60.2007H30.5367L30.4185 59.9165H29.0964L28.9878 60.2007H28.3715L28.4864 59.9165H28.0425V60.2007H27.918V61.6506H46.0573L50.5762 59.9165H47.3507V60.2007H47.3475Z" fill="#FBFCFC"/>
<path d="M38.4442 59.5043C38.5272 59.1977 38.6837 58.7282 38.8625 58.1821H38.0386C38.2238 58.7538 38.3803 59.2328 38.441 59.5043H38.4442Z" fill="#FAFBFC"/>
<path d="M29.7542 58.1821H29.7063C29.6424 58.3833 29.5242 58.7218 29.355 59.1594H30.1342C29.9298 58.658 29.818 58.3737 29.7542 58.1821Z" fill="#FAFBFC"/>
<path d="M41.1328 58.2077V58.6771H42.5124V59.1562H41.1328V59.7214H42.6689L42.6402 59.9162H43.116V58.1821H42.5891V58.2077H41.1328Z" fill="#FAFBFC"/>
<path d="M40.5326 58.1821H39.8843V59.9162H40.5326V58.1821Z" fill="#FAFBFC"/>
<path d="M35.0557 58.2077V58.6771H36.4353V59.1562H35.0557V59.7214H36.5918L36.563 59.9162H37.0197V58.1821H36.5119V58.2077H35.0557Z" fill="#FAFBFC"/>
<path d="M37.5244 58.1821C37.5404 58.4727 37.5627 58.9071 37.5627 59.2999V59.9162H38.0609C37.8661 59.252 37.6649 58.6005 37.5468 58.1821H37.5276H37.5244Z" fill="#FAFBFC"/>
<path d="M33.2833 58.4664C33.2514 58.3801 33.1684 58.2556 32.9927 58.1821H32.3859C32.0921 58.2971 31.958 58.5941 31.958 58.9486C31.958 59.434 32.1879 59.7981 32.6925 59.7981C33.1109 59.7981 33.3025 59.5809 33.3025 59.2871V59.2488H32.6989V58.7857H33.8837V59.9194H34.4554V58.1853H33.7783C33.8358 58.2779 33.8709 58.3769 33.8869 58.4696H33.2801L33.2833 58.4664Z" fill="#FAFBFC"/>
<path d="M29.1986 59.6387L29.0933 59.9165H30.4154L30.3004 59.6387H29.1986Z" fill="#FAFBFC"/>
<path d="M31.6834 59.9162C31.4535 59.6863 31.3258 59.3574 31.3258 58.9773C31.3258 58.6771 31.412 58.4025 31.5749 58.1821H30.3262L31.0607 59.9162H31.6834Z" fill="#FAFBFC"/>
<path d="M28.4803 59.9162L29.1796 58.1821H28.0396V59.9162H28.4803Z" fill="#FAFBFC"/>
<path d="M39.3191 58.1821H39.2968C39.185 58.5909 38.9966 59.1849 38.7603 59.9162H39.3032V59.252C39.3032 58.8592 39.3032 58.4568 39.3191 58.1821Z" fill="#FAFBFC"/>
<path d="M48.2131 58.2045H47.3477V59.9162H50.5731L51.0809 59.7214V58.1821H48.2131V58.2045Z" fill="#FAFBFC"/>
<path d="M44.9619 59.4691C44.9364 59.2105 44.9428 58.7474 44.9428 58.3386V58.1821H44.1284C44.6043 58.9039 44.8246 59.22 44.9556 59.4691H44.9619Z" fill="#FAFBFC"/>
<path d="M43.646 58.3196C43.6652 58.6262 43.6652 58.9775 43.6652 59.415V59.9132H44.6424C44.3166 59.4022 43.7705 58.5463 43.6524 58.3164H43.646V58.3196Z" fill="#FAFBFC"/>
<path d="M46.7441 59.9162V58.2045H45.8754V58.1821H45.4922V59.9162H46.7441Z" fill="#FAFBFC"/>
<path d="M37.521 58.1089C37.521 58.1312 37.521 58.16 37.5242 58.1823H37.5434C37.537 58.1568 37.5274 58.1312 37.521 58.1089Z" fill="#F9F9FA"/>
<path d="M39.3222 58.1089H39.319C39.3126 58.1312 39.3062 58.16 39.2998 58.1823H39.3222C39.3222 58.16 39.3222 58.1312 39.3222 58.1089Z" fill="#F9F9FA"/>
<path d="M29.7321 58.1118H29.7289C29.7225 58.131 29.7129 58.1597 29.7065 58.1821H29.7544C29.7449 58.1565 29.7385 58.1342 29.7321 58.1118Z" fill="#F9F9FA"/>
<path d="M27.915 57.7257H28.0396V58.1823H29.1797L29.3649 57.7257H30.1346L30.3262 58.1823H31.5748C31.7984 57.8758 32.172 57.6746 32.6862 57.6746C33.277 57.6746 33.6155 57.9141 33.7784 58.1823H34.4554V57.7257H36.5121V58.1823H37.023V57.7257H37.8917C37.9428 57.8821 37.9907 58.0354 38.0418 58.1823H38.8657C38.9136 58.0354 38.9647 57.8821 39.0158 57.7257H39.8877V58.1823H40.5359V57.7257H42.5926V58.1823H43.1195V57.7257H43.8317C43.9435 57.8949 44.0393 58.045 44.1319 58.1823H44.9462V57.7257H45.4955V58.1823H45.8787V57.7257H48.2196V58.1823H51.0874V56.4482H27.9214V57.7257H27.915Z" fill="#F9F9FA"/>
<path d="M32.6859 58.1279C32.571 58.1279 32.472 58.1503 32.3857 58.1822H32.9925C32.9127 58.1503 32.8137 58.1279 32.6859 58.1279Z" fill="#F9F9FA"/>
<path d="M51.081 56.4224H27.915V56.4479H51.081V56.4224Z" fill="#F7F8F8"/>
<path d="M51.081 47.7808H27.915V48.2885H51.081V47.7808Z" fill="#F4F4F4"/>
<path d="M27.9149 47.7806H51.0809V46.0465H37.2848V46.2828H36.4608V46.0465H33.5898V46.2828H32.7691V46.0465H31.2649L31.2298 46.2828H28.4131V46.0465H27.9117V46.0273H25.9285V46.2828H25.111V46.0273H24.6128L24.7214 46.2828H23.8367L23.7314 46.0273H21.8248L21.7258 46.2828H20.8827L20.9849 46.0273H20.2504C19.9949 46.2253 19.5957 46.3499 19.0145 46.3499C18.478 46.3499 18.0916 46.2253 17.8265 46.0273H4.88623V47.7582H27.9149V47.7806Z" fill="#F3F3F3"/>
<path d="M36.9527 44.3125H36.8569C36.8729 44.3412 36.8889 44.3732 36.9016 44.3987C36.9144 44.3732 36.9336 44.3412 36.9495 44.3125H36.9527Z" fill="#F2F2F2"/>
<path d="M31.1181 44.3125V44.8586H29.2339V45.6282H31.3289L31.2682 46.0466H32.7723V44.3125H31.1181Z" fill="#F2F2F2"/>
<path d="M27.915 44.3125V46.0274V46.0466H28.4164V44.3125H27.915Z" fill="#F2F2F2"/>
<path d="M37.3038 44.9991C37.2847 45.0279 37.2847 45.047 37.2847 45.0885V46.0466H51.0808V44.3125H37.7701L37.3038 44.9991Z" fill="#F2F2F2"/>
<path d="M36.4193 44.9672L35.9754 44.3125H33.5898V46.0466H36.4608V45.0758C36.4608 45.031 36.4481 45.0055 36.4193 44.9672Z" fill="#F2F2F2"/>
<path d="M27.915 44.2965V44.3156H28.4164V42.9137H31.2204V43.5683H29.2372V44.2071H31.1214V44.3156H32.7756V43.5652H31.5876V42.9137H34.778V43.5652H33.5932V44.3156H35.9787L35.0271 42.9137H36.0011C36.3045 43.3991 36.6781 43.9803 36.8634 44.3156H36.9592C37.154 43.9803 37.534 43.3991 37.8374 42.9137H38.7284L37.7767 44.3156H51.0874V42.5815H27.9214V44.2965H27.915Z" fill="#F1F0F0"/>
<path d="M35.4837 41.4925H33.5069V40.8442H31.9421C31.5493 41.3712 30.9266 41.633 30.0611 41.633C29.1956 41.633 28.6336 41.3616 28.2695 40.8442H27.915V42.5783H51.081V40.8442H37.3711C36.9847 41.2402 36.3939 41.4925 35.4869 41.4925H35.4837Z" fill="#F0EFEF"/>
<path d="M32.4433 39.1133C32.4145 39.8574 32.2485 40.4354 31.9419 40.8474H33.5067V39.1133H32.4433Z" fill="#EEEDEE"/>
<path d="M36.6746 39.1133H34.8511V40.3428H35.394C36.2882 40.3428 36.5948 39.8989 36.6778 39.1133H36.6746Z" fill="#EEEDEE"/>
<path d="M27.915 40.0205V40.8476H28.2695C28.1098 40.6209 27.9917 40.3431 27.915 40.0205Z" fill="#EEEDEE"/>
<path d="M30.1213 40.4194C30.7441 40.4194 31.0539 40.0458 31.0762 39.1133H29.1729C29.1888 40.0202 29.5305 40.4194 30.1213 40.4194Z" fill="#EEEDEE"/>
<path d="M37.3711 40.8444H51.081V39.1104H38.0385C37.9747 39.7746 37.8022 40.4005 37.3711 40.8444Z" fill="#EEEDEE"/>
<path d="M36.7033 38.5195V37.3794H34.8511V39.1135H36.6746C36.6938 38.9347 36.7001 38.7367 36.7001 38.5227L36.7033 38.5195Z" fill="#EDEDEE"/>
<path d="M33.5068 37.3794H32.4497V38.8836C32.4497 38.9634 32.4466 39.0368 32.4434 39.1135H33.5068V37.3794Z" fill="#EDEDEE"/>
<path d="M38.0703 38.3085C38.0703 38.5768 38.0607 38.845 38.0352 39.1101H51.0776V37.376H38.0671V38.3085H38.0703Z" fill="#EDEDEE"/>
<path d="M31.0765 39.1135C31.0765 39.0784 31.0797 39.0496 31.0797 39.0145V37.3794H29.1699V39.0464C29.1699 39.0688 29.1699 39.0879 29.1699 39.1135H31.0733H31.0765Z" fill="#EDEDEE"/>
<path d="M36.7033 35.6455H34.8511V37.3796H36.7033V35.6455Z" fill="#ECECEC"/>
<path d="M33.5068 35.6455H32.4497V37.3796H33.5068V35.6455Z" fill="#ECECEC"/>
<path d="M51.0808 35.6455H38.0703V37.3796H51.0808V35.6455Z" fill="#ECECEC"/>
<path d="M31.0797 35.6455H29.1699V37.3796H31.0797V35.6455Z" fill="#ECECEC"/>
<path d="M36.7033 34.2912C36.7033 34.157 36.7001 34.0293 36.6906 33.9111H34.8511V35.6452H36.7033V34.2912Z" fill="#EBEBEB"/>
<path d="M31.0797 33.9303C31.0797 33.9303 31.0797 33.9175 31.0797 33.9111H29.1699C29.1699 33.9111 29.1699 33.9271 29.1699 33.9367V35.6452H31.0797V33.9303Z" fill="#EBEBEB"/>
<path d="M38.0704 34.4157V35.6452H51.0809V33.9111H38.0576C38.0672 34.074 38.0736 34.2433 38.0736 34.4157H38.0704Z" fill="#EBEBEB"/>
<path d="M33.5065 33.9111H32.4463C32.4463 33.9558 32.4495 33.9974 32.4495 34.0453V35.6452H33.5065V33.9111Z" fill="#EBEBEB"/>
<path d="M35.3908 32.6304H34.8511V33.911H36.6906C36.6363 33.1126 36.3712 32.6304 35.3908 32.6304Z" fill="#EAEAEA"/>
<path d="M28.2823 32.1772H27.915V33.014C27.9949 32.6882 28.1194 32.4072 28.2823 32.1772Z" fill="#EAEAEA"/>
<path d="M30.1181 32.5508C29.4986 32.5508 29.176 32.9787 29.1729 33.9112H31.0826C31.0794 33.017 30.7824 32.5508 30.1213 32.5508H30.1181Z" fill="#EAEAEA"/>
<path d="M33.5067 33.9113V32.1772H31.9834C32.274 32.602 32.4273 33.1832 32.4465 33.9113H33.5067Z" fill="#EAEAEA"/>
<path d="M38.0574 33.9113H51.0807V32.1772H37.5049C37.8658 32.602 38.0127 33.1992 38.0542 33.9113H38.0574Z" fill="#EAEAEA"/>
<path d="M27.915 32.177H28.2823C28.6847 31.6053 29.3266 31.3243 30.1473 31.3243C30.9681 31.3243 31.6004 31.6149 31.9836 32.177H33.5069V31.468H35.5157C36.5089 31.468 37.1252 31.7267 37.5085 32.177H51.0842V30.4429H28.4164L27.9885 30.6888L27.9182 30.6473V32.1738L27.915 32.177Z" fill="#E9E8E9"/>
<path d="M51.0807 28.709H31.4148L28.4097 30.4431H51.0807V28.709Z" fill="#E9E8E8"/>
<path d="M51.0809 26.978H34.417L31.415 28.7089H51.0809V26.978Z" fill="#E8E7E7"/>
<path d="M51.0809 25.2441H37.4189L34.417 26.9782H51.0809V25.2441Z" fill="#E6E6E5"/>
<path d="M9.33815 59.3125C9.94493 59.3125 10.3058 59.0091 10.3058 58.5046C10.3058 58.3704 10.2739 58.2555 10.2228 58.1533C10.0822 57.8818 9.76609 57.7285 9.35093 57.7285H8.07031V60.2035H8.67389V59.3157H9.34134L9.33815 59.3125ZM8.6707 58.1884H9.29025C9.58086 58.1884 9.70541 58.3129 9.70541 58.5109C9.70541 58.7568 9.54573 58.8431 9.29025 58.8431H8.6707V58.1852V58.1884Z" fill="#D2451E"/>
<path d="M11.3245 59.7216V59.1563H12.7041V58.6773H11.3245V58.2078H12.7776V58.1535V57.7256H10.7241V58.1535V59.8844V60.2006H12.7903L12.8351 59.8844L12.8574 59.7216H11.3245Z" fill="#D2451E"/>
<path d="M14.3868 58.6645C13.9205 58.5815 13.8215 58.5081 13.8215 58.3675C13.8215 58.2653 13.8886 58.1951 14.0067 58.1536C14.0738 58.1312 14.1504 58.1153 14.2526 58.1153C14.3708 58.1153 14.4602 58.1312 14.5305 58.1536C14.7029 58.2079 14.754 58.3164 14.7796 58.4027H15.3799C15.3736 58.326 15.348 58.2398 15.3065 58.1536C15.1851 57.9141 14.8977 57.6777 14.2718 57.6777C13.8055 57.6777 13.4159 57.8406 13.2722 58.1536C13.2339 58.2334 13.2115 58.3228 13.2115 58.425C13.2115 58.7572 13.368 59.035 14.2271 59.1819C14.7476 59.2713 14.8626 59.3671 14.8626 59.5364C14.8626 59.6961 14.7508 59.8142 14.3676 59.8142C13.9556 59.8142 13.7864 59.6737 13.7161 59.4597H13.1157C13.1413 59.6194 13.2051 59.7631 13.3073 59.8845C13.4926 60.1048 13.8151 60.2517 14.3133 60.2517C14.853 60.2517 15.1788 60.1048 15.3448 59.8845C15.4342 59.7663 15.4789 59.6258 15.4789 59.4757C15.4789 59.118 15.332 58.8338 14.3931 58.6645H14.3868Z" fill="#D2451E"/>
<path d="M18.0052 58.2046V58.1535V57.7256H15.6675V58.1535V58.2046H16.5361V59.8844V60.2006H17.1365V59.8844V58.2046H18.0052Z" fill="#D2451E"/>
<path d="M22.1983 57.7256H21.3265C21.2786 57.8725 21.2307 58.013 21.186 58.1503C21.0008 58.7092 20.8411 59.1882 20.758 59.5012H20.7548C20.6942 59.2266 20.5345 58.7347 20.3429 58.1503C20.2982 58.013 20.2503 57.8725 20.2056 57.7256H19.3369V60.2006H19.8766V59.3C19.8766 58.8976 19.8543 58.4441 19.8383 58.1535C19.8383 58.1407 19.8383 58.1216 19.8383 58.112H19.8415C19.8415 58.112 19.8511 58.1407 19.8543 58.1535C19.9692 58.5623 20.1736 59.2138 20.3684 59.8844C20.4004 59.9898 20.4291 60.0952 20.461 60.2006H20.9912C21.0263 60.092 21.0582 59.9866 21.0934 59.8844C21.3297 59.1499 21.5149 58.5559 21.6267 58.1535C21.6299 58.1407 21.6363 58.1248 21.6395 58.1088H21.6427C21.6427 58.1088 21.6427 58.1376 21.6427 58.1535C21.6299 58.4314 21.6267 58.8465 21.6267 59.2553V60.2038H22.2047V57.7288L22.1983 57.7256Z" fill="#D2451E"/>
<path d="M24.2934 57.7256H23.5237L23.3513 58.1503L22.6551 59.8812L22.5273 60.1974H23.1437L23.2651 59.8812L23.3577 59.6353H24.4594L24.5584 59.8812L24.6894 60.1974H25.3377L25.2035 59.8812L24.469 58.1503L24.2902 57.7256H24.2934ZM23.5173 59.1595C23.693 58.7028 23.8175 58.3483 23.8782 58.1535C23.8814 58.1407 23.8878 58.1248 23.891 58.1152H23.8942C23.8942 58.1152 23.9038 58.1407 23.907 58.1535C23.9676 58.3419 24.0794 58.6294 24.2966 59.1595H23.5173Z" fill="#D2451E"/>
<path d="M27.4869 58.1533V58.3385C27.4869 58.7473 27.4837 59.2103 27.506 59.469H27.4996C27.3687 59.2199 27.1452 58.8974 26.6533 58.1533C26.5671 58.0223 26.4777 57.885 26.3723 57.7285H25.6602V60.2035H26.2094V59.4179C26.2094 58.9772 26.2094 58.6259 26.1903 58.3225H26.1967C26.3148 58.5493 26.8386 59.3732 27.1675 59.8874C27.2505 60.0183 27.3208 60.1301 27.3687 60.2035H28.0362V57.7285H27.4869V58.1533Z" fill="#D2451E"/>
<path d="M28.3653 60.2006H28.9816L29.0902 59.9164L29.1956 59.6385H30.2974L30.4091 59.9164L30.5273 60.2006H31.1756L31.0542 59.9164L30.3197 58.1823L30.1281 57.7256H29.3585L29.1732 58.1823L28.4739 59.9164L28.3589 60.2006H28.3653ZM29.7066 58.1823C29.7129 58.1599 29.7225 58.1312 29.7289 58.112H29.7321C29.7385 58.1344 29.7481 58.1567 29.7545 58.1823C29.8183 58.3707 29.9301 58.6549 30.1345 59.1595H29.3553C29.5213 58.7252 29.6427 58.3835 29.7066 58.1823Z" fill="#D2451E"/>
<path d="M31.6834 59.9165C31.8941 60.1272 32.1943 60.255 32.5744 60.255C33.0406 60.255 33.2514 60.1368 33.4079 59.9484C33.4175 60.0378 33.4334 60.1464 33.4462 60.2007H33.8805V58.7827H32.6957V59.2458H33.2993V59.2841C33.2993 59.5779 33.1077 59.7951 32.6893 59.7951C32.1847 59.7951 31.9548 59.431 31.9548 58.9456C31.9548 58.5911 32.0889 58.2973 32.3827 58.1792C32.469 58.144 32.568 58.1249 32.6829 58.1249C32.8107 58.1249 32.9097 58.1472 32.9895 58.1792C33.1652 58.2494 33.245 58.3772 33.2801 58.4634H33.8869C33.8709 58.3708 33.8326 58.275 33.7783 58.1792C33.6155 57.9077 33.2737 57.6714 32.6861 57.6714C32.172 57.6714 31.7983 57.8726 31.5748 58.1792C31.4151 58.3995 31.3257 58.6742 31.3257 58.9744C31.3257 59.3544 31.4502 59.6833 31.6834 59.9133V59.9165Z" fill="#D2451E"/>
<path d="M34.4551 60.2006H36.5213L36.5628 59.9164L36.5916 59.7216H35.0555V59.1563H36.4351V58.6773H35.0555V58.2078H36.5117V58.1823V57.7256H34.4551V58.1823V59.9164V60.2006Z" fill="#D2451E"/>
<path d="M37.0195 60.2006H37.5592V59.3C37.5592 58.9104 37.5401 58.4761 37.5209 58.1823C37.5209 58.1599 37.5209 58.1312 37.5177 58.1088H37.5209C37.5273 58.1312 37.5337 58.1567 37.5433 58.1823C37.6614 58.6006 37.8658 59.2489 38.0574 59.9164C38.0862 60.0122 38.1117 60.108 38.1405 60.2006H38.6706C38.7025 60.1016 38.7313 60.009 38.7632 59.9164C38.9963 59.185 39.1848 58.591 39.2997 58.1823C39.3061 58.1567 39.3157 58.1312 39.3189 58.1088H39.3221C39.3221 58.1312 39.3221 58.1599 39.3221 58.1823C39.3093 58.4601 39.3061 58.8593 39.3061 59.2521V60.2006H39.8841V57.7256H39.0123C38.9612 57.8821 38.9101 58.0354 38.8622 58.1823C38.6834 58.7284 38.5269 59.1978 38.4439 59.5044H38.4407C38.3832 59.2361 38.2235 58.7539 38.0383 58.1823C37.9904 58.0354 37.9393 57.8821 37.8882 57.7256H37.0195V60.2006Z" fill="#D2451E"/>
<path d="M40.5327 60.2006H42.5989L42.6405 59.9164L42.6692 59.7216H41.1331V59.1563H42.5127V58.6773H41.1331V58.2078H42.5894V58.1823V57.7256H40.5327V58.1823V59.9164V60.2006Z" fill="#D2451E"/>
<path d="M43.1162 60.2004H43.6655V59.4147C43.6655 58.974 43.6655 58.6227 43.6463 58.3194H43.6527C43.7709 58.5493 44.317 59.4052 44.6427 59.9161C44.7162 60.0343 44.7801 60.1333 44.8248 60.2004H45.4922V57.7254H44.9429V58.3353C44.9429 58.7441 44.9397 59.2072 44.9621 59.4658H44.9557C44.8248 59.2199 44.6044 58.9006 44.1286 58.1788C44.036 58.0415 43.9401 57.8946 43.8284 57.7222H43.1162V60.1972V60.2004Z" fill="#D2451E"/>
<path d="M46.7441 58.2046V59.9164V60.2006H47.3477V59.9164V58.2046H48.2132V58.1823V57.7256H45.8755V58.1823V58.2046H46.7441Z" fill="#D2451E"/>
<path d="M55.9446 48.2856H52.7383V9.02091H40.4878L38.2747 7.74349L27.9851 1.80029L17.6923 7.74349L15.4791 9.02091H3.22868V48.2888H0V56.4227H3.22868V60.2678L27.9851 70.3083L52.7414 60.2678V56.4227H55.9701V48.2888H55.9478L55.9446 48.2856ZM4.88613 47.7586V25.2409H18.5481L21.5469 26.9718L24.5456 28.7027L27.5444 30.4336L27.9116 30.6444L27.9819 30.6859L28.4098 30.44L31.4117 28.7059L34.4137 26.9718L37.4156 25.2377H51.0776V48.2824H4.88613V47.7555V47.7586ZM50.8253 52.4084C50.8253 54.0627 49.6086 55.0846 48.1012 55.0846H45.7891V49.9111H48.1268C49.8704 49.9111 50.8221 51.0416 50.8221 52.4053L50.8253 52.4084ZM44.237 51.8975V52.9035H41.3501V54.0819H44.5596L44.4159 55.0878H40.095V49.9143H44.3935V50.9203H41.3501V51.9007H44.237V51.8975ZM38.4471 49.9111V55.0846H37.1921V49.9111H38.4471ZM35.8093 52.0859V53.0919H33.0085V55.0815H31.7535V49.9079H36.0105V50.9075H33.0085V52.0827H35.8093V52.0859ZM30.1056 49.9111V55.0846H28.8505V49.9111H30.1056ZM22.8626 50.9107V49.9111H27.7519V50.9107H25.938V55.0846H24.6829V50.9107H22.8626ZM21.8918 53.8296V54.0883C21.8918 54.4427 21.8854 54.8419 21.9556 55.0846H20.6686C20.5824 54.8579 20.5728 54.5513 20.5728 54.002V53.8328C20.5728 53.309 20.3812 53.0919 19.6275 53.0919H18.5769V55.0846H17.3346V49.9111H20.1513C21.3425 49.9111 22.0259 50.4987 22.0259 51.3897C22.0259 52.0572 21.6363 52.45 21.1253 52.6128C21.3361 52.6959 21.8918 52.9003 21.8918 53.8296ZM15.7729 51.8975V52.9035H12.886V54.0819H16.0955L15.9518 55.0878H11.6309V49.9143H15.9294V50.9203H12.886V51.9007H15.7729V51.8975ZM7.94236 54.2256C8.67687 54.2256 9.00261 53.9382 9.20381 53.44H10.4653C10.2257 54.3469 9.504 55.1932 7.88168 55.1932C6.03261 55.1932 5.14161 53.9158 5.14161 52.5011C5.14161 51.0863 6.12523 49.7993 7.94874 49.7993C9.53274 49.7993 10.3247 50.6807 10.4748 51.5462H9.20381C9.09842 51.2492 8.81739 50.7734 7.93597 50.7734C6.96832 50.7734 6.46694 51.5111 6.46694 52.4532C6.46694 53.3953 6.92681 54.2256 7.94236 54.2256ZM51.0808 56.4483V59.7217L50.573 59.9165L46.0542 61.6506L41.5353 63.3847L37.0164 65.1188L32.4975 66.8529L27.9787 68.587L27.9084 68.5455L23.3895 66.8145L18.8707 65.0836L14.3518 63.3527L9.83294 61.6218L5.31406 59.8909L4.88932 59.7281V56.4291H51.0808V56.4547V56.4483Z" fill="#FF6C37"/>
<path d="M19.8796 50.853H18.5767V52.1496H19.87C20.48 52.1496 20.7419 51.9293 20.7419 51.4949C20.7419 51.0862 20.4704 50.853 19.8796 50.853Z" fill="#FF6C37"/>
<path d="M47.0474 50.8787V54.1105H47.9384C48.9507 54.1105 49.4968 53.5389 49.4968 52.4403C49.4968 51.4823 48.9954 50.8915 47.9543 50.8755H47.0474V50.8787Z" fill="#FF6C37"/>
<path d="M7.93596 50.7763C8.81738 50.7763 9.09841 51.2521 9.20379 51.5491H10.4748C10.3247 50.6837 9.53273 49.8022 7.94873 49.8022C6.12521 49.8022 5.1416 51.0924 5.1416 52.504C5.1416 53.9155 6.0326 55.1961 7.88167 55.1961C9.50399 55.1961 10.2257 54.3531 10.4652 53.4429H9.20379C9.0026 53.9411 8.68005 54.2285 7.94234 54.2285C6.9236 54.2285 6.46692 53.411 6.46692 52.4561C6.46692 51.5012 6.96831 50.7763 7.93596 50.7763Z" fill="white"/>
<path d="M15.9294 50.9166V49.9106H11.6309V55.0842H15.9517L16.0954 54.0782H12.8859V52.8998H15.7729V51.897H12.8859V50.9166H15.9294Z" fill="white"/>
<path d="M22.0258 51.3893C22.0258 50.5015 21.3424 49.9106 20.1512 49.9106H17.3345V55.0842H18.5768V53.0914H19.6274C20.3811 53.0914 20.5727 53.3086 20.5727 53.8323V54.0016C20.5727 54.5509 20.5823 54.8575 20.6685 55.0842H21.9555C21.8853 54.8383 21.8917 54.4423 21.8917 54.0878V53.8291C21.8917 52.8998 21.336 52.6986 21.1252 52.6124C21.6362 52.4495 22.0258 52.0567 22.0258 51.3893ZM19.8702 52.1493H18.5768V50.8527H19.8797C20.4705 50.8527 20.742 51.0859 20.742 51.4946C20.742 51.9322 20.4769 52.1493 19.8702 52.1493Z" fill="white"/>
<path d="M25.9382 55.0842V50.9102H27.7521V49.9106H22.8628V50.9102H24.6831V55.0842H25.9382Z" fill="white"/>
<path d="M30.1057 49.9106H28.8506V55.0842H30.1057V49.9106Z" fill="white"/>
<path d="M36.0138 50.9102V49.9106H31.7568V55.0842H33.0119V53.0914H35.8094V52.0855H33.0119V50.9102H36.0138Z" fill="white"/>
<path d="M38.447 49.9106H37.1919V55.0842H38.447V49.9106Z" fill="white"/>
<path d="M44.3937 50.9166V49.9106H40.0952V55.0842H44.4161L44.5598 54.0782H41.3503V52.8998H44.2372V51.897H41.3503V50.9166H44.3937Z" fill="white"/>
<path d="M45.7925 49.9106V55.0842H48.1046C49.6088 55.0842 50.8287 54.0623 50.8287 52.408C50.8287 51.0444 49.8738 49.9138 48.1334 49.9138H45.7957L45.7925 49.9106ZM49.497 52.4399C49.497 53.5385 48.9509 54.1102 47.9385 54.1102H47.0475V50.8783H47.9545C48.9956 50.8911 49.497 51.4851 49.497 52.4431V52.4399Z" fill="white"/>
<path d="M19.3049 37.3667V36.8622H21.5692V35.6358V35.6167H19.3049V33.9049V32.7137H21.6937V32.1708V31.4683H17.9604V32.1708V33.9049V35.6358V37.3667V39.1008V40.8317V41.4928H19.3049V40.8317V39.1008V37.3667Z" fill="#D2451E"/>
<path d="M26.9311 38.8836V34.0453C26.9311 33.9974 26.9311 33.9527 26.9279 33.9048C26.9087 33.1767 26.7522 32.5955 26.4616 32.1739C26.0784 31.6151 25.462 31.3276 24.6285 31.3276C23.795 31.3276 23.1691 31.6055 22.7667 32.1739C22.4697 32.5923 22.3036 33.1703 22.2844 33.9048C22.2844 33.9495 22.2812 33.9943 22.2812 34.039V38.9027C22.2812 38.9698 22.2813 39.0337 22.2844 39.0975C22.3068 39.8289 22.4505 40.4101 22.7379 40.8284C23.0988 41.3554 23.6832 41.63 24.5391 41.63C25.395 41.63 26.0401 41.365 26.4329 40.8284C26.7362 40.4133 26.8991 39.8384 26.9247 39.0975C26.9247 39.0273 26.9311 38.957 26.9311 38.8804V38.8836ZM25.561 35.6357V39.0145C25.561 39.0464 25.561 39.072 25.5578 39.1007C25.5387 40.046 25.2289 40.4197 24.603 40.4197C24.009 40.4197 23.6673 40.0173 23.6545 39.1007C23.6545 39.0816 23.6545 39.0656 23.6545 39.0464V33.9368C23.6545 33.9368 23.6545 33.9144 23.6545 33.9048C23.6609 32.9787 23.9802 32.554 24.5998 32.554C25.2608 32.554 25.5546 33.0138 25.561 33.9048C25.561 33.9144 25.561 33.9208 25.561 33.9304V35.6357Z" fill="#D2451E"/>
<path d="M27.803 33.9049C27.803 33.9496 27.7998 33.9943 27.7998 34.039V38.9028C27.7998 38.9698 27.7998 39.0337 27.803 39.0976C27.8126 39.4361 27.8477 39.7459 27.9148 40.0173C27.9914 40.3399 28.1096 40.6145 28.2693 40.8444C28.6301 41.3618 29.2145 41.6333 30.0608 41.6333C30.9071 41.6333 31.549 41.3714 31.9418 40.8444C32.2484 40.4325 32.4145 39.8545 32.4432 39.1104C32.4432 39.0337 32.4496 38.9603 32.4496 38.8804V34.0422C32.4496 33.9975 32.4496 33.9528 32.4464 33.9081C32.4304 33.1799 32.274 32.5987 31.9834 32.174C31.6001 31.6119 30.9806 31.3213 30.1471 31.3213C29.3135 31.3213 28.6844 31.6023 28.282 32.174C28.1192 32.4039 27.9978 32.6849 27.9148 33.0107C27.8477 33.2757 27.8126 33.5695 27.803 33.8985V33.9049ZM29.1698 37.3795V33.9368C29.1698 33.9368 29.1698 33.9208 29.1698 33.9113C29.1762 32.9787 29.4956 32.5508 30.1151 32.5508C30.7794 32.5508 31.0732 33.0139 31.0764 33.9113C31.0764 33.9176 31.0764 33.924 31.0764 33.9304V39.0145C31.0764 39.0497 31.0732 39.0784 31.0732 39.1135C31.0508 40.0461 30.7443 40.4197 30.1183 40.4197C29.5275 40.4197 29.1858 40.0205 29.1698 39.1135C29.1698 39.0912 29.1698 39.072 29.1698 39.0465V37.3795Z" fill="#D2451E"/>
<path d="M33.5066 35.6454V41.4928H35.4834C36.3936 41.4928 36.9844 41.2405 37.3676 40.8445C37.7987 40.4006 37.9744 39.7747 38.0351 39.1104C38.0606 38.8454 38.0702 38.5739 38.0702 38.3088V34.4159C38.0702 34.2403 38.0638 34.0742 38.0542 33.9113C38.0127 33.1992 37.8658 32.602 37.5049 32.1772C37.1249 31.7269 36.5054 31.4683 35.5122 31.4683H33.5034V35.6454H33.5066ZM34.8511 39.1136V32.6307H35.3908C36.3712 32.6307 36.6363 33.1161 36.6906 33.9113C36.697 34.0327 36.7034 34.1572 36.7034 34.2914V38.5196C36.7034 38.7336 36.697 38.9316 36.6778 39.1104C36.5948 39.896 36.2882 40.3399 35.394 40.3399H34.8511V39.1104V39.1136Z" fill="#D2451E"/>
<path d="M20.6081 45.293C20.6081 44.8746 20.458 44.5297 19.6085 44.2934C19.468 44.2551 19.3083 44.2167 19.1263 44.1848C18.4939 44.0698 18.3534 43.974 18.3534 43.7792C18.3534 43.5621 18.5514 43.4375 18.941 43.4375C19.4967 43.4375 19.6085 43.6611 19.6564 43.8271H20.4771C20.4388 43.4343 20.1258 42.8403 18.9666 42.8403C18.1682 42.8403 17.5199 43.1852 17.5199 43.8591C17.5199 44.0156 17.5455 44.1593 17.6253 44.2934C17.7786 44.5489 18.1331 44.7597 18.9027 44.8906C19.6149 45.0119 19.7682 45.1429 19.7682 45.376C19.7682 45.5932 19.6149 45.7528 19.0911 45.7528C18.5323 45.7528 18.2991 45.5612 18.2001 45.2706H17.3794C17.4305 45.5676 17.571 45.8327 17.8265 46.0243C18.0916 46.2255 18.4748 46.3468 19.0145 46.3468C19.5925 46.3468 19.9949 46.2223 20.2504 46.0243C20.4931 45.8327 20.6049 45.5772 20.6049 45.2898L20.6081 45.293Z" fill="#D2451E"/>
<path d="M23.2907 42.9106H22.2401L21.6812 44.2966L20.985 46.0275L20.8828 46.283H21.7259L21.8249 46.0275L22.0197 45.5166H23.5207L23.7283 46.0275L23.8337 46.283H24.7183L24.6097 46.0275L23.8752 44.2966L23.2876 42.9106H23.2907ZM22.2305 44.8619C22.3103 44.6575 22.3806 44.4691 22.4445 44.2966C22.585 43.9134 22.6872 43.6132 22.7383 43.4376H22.7447C22.8021 43.6228 22.8979 43.8815 23.064 44.2966C23.1279 44.4595 23.2045 44.6447 23.2907 44.8619H22.2305Z" fill="#D2451E"/>
<path d="M27.7551 44.9833V44.3286H25.9316V44.2966V43.5621H27.8892V42.9106H25.1108V44.2966V46.0275V46.283H25.9316V46.0275V44.9833H27.7551Z" fill="#D2451E"/>
<path d="M29.2336 45.6284V44.8587H31.1178V44.3126V44.204H29.2336V43.5653H31.22V42.9106H28.416V44.3126V46.0467V46.283H31.2359L31.2679 46.0467L31.3285 45.6284H29.2336Z" fill="#D2451E"/>
<path d="M33.5895 43.5621H34.7743V42.9106H31.584V43.5621H32.772V44.3126V46.0467V46.283H33.5895V46.0467V44.3126V43.5621Z" fill="#D2451E"/>
<path d="M37.3036 44.9992L37.7699 44.3126L38.7216 42.9106H37.8306C37.5272 43.3961 37.1471 43.9773 36.9523 44.3126C36.9364 44.3414 36.9172 44.3733 36.9044 44.3988C36.8917 44.3733 36.8757 44.3414 36.8597 44.3126C36.6745 43.9741 36.3009 43.3961 35.9975 42.9106H35.0234L35.9751 44.3126L36.419 44.9673C36.4478 45.0088 36.4605 45.0312 36.4605 45.0759V46.283H37.2845V45.0886C37.2845 45.0471 37.2845 45.028 37.3036 44.9992Z" fill="#D2451E"/>
<path d="M23.4919 15.6601C23.4153 15.7368 23.3131 15.7783 23.2109 15.7783C23.1087 15.7783 23.0065 15.74 22.9298 15.6601L18.7942 11.5245L18.082 12.2366L22.3486 16.5032C23.0448 17.1994 24.1849 17.1994 24.8811 16.5032L25.1238 16.2605L26.5002 17.6369L20.5443 23.5929L22.0452 25.0939L28.0012 19.1379L33.9572 25.0939L35.4581 23.5929L29.5022 17.6369L30.885 16.2541C31.0606 16.3276 31.2458 16.3819 31.4375 16.4202C32.1049 16.5575 32.8458 16.4905 33.5803 16.235C34.3148 15.9795 35.0366 15.5292 35.6657 14.9033C35.7775 14.7915 35.8829 14.6765 35.9819 14.5615C36.0809 14.4466 36.1767 14.3252 36.2629 14.2039C36.6174 13.7185 36.8793 13.2011 37.0421 12.6805C37.4541 11.3808 37.2689 10.0682 36.4194 9.21874C35.0589 7.85829 32.5137 8.19681 30.7349 9.97242C30.4666 10.2407 30.2303 10.5281 30.0259 10.8251C29.6874 11.3201 29.4447 11.847 29.301 12.3708C29.2435 12.5815 29.202 12.7891 29.1764 12.9967C29.1636 13.0989 29.1541 13.2043 29.1509 13.3065C29.1445 13.4087 29.1445 13.5109 29.1509 13.6099C29.1509 13.7089 29.1604 13.8111 29.1732 13.9069C29.186 14.0059 29.1988 14.1017 29.2179 14.1975C29.2563 14.3891 29.3137 14.5711 29.384 14.75L28.0012 16.1328L26.6248 14.7564L26.8675 14.5136C27.2156 14.1655 27.3912 13.7057 27.3912 13.249C27.3912 13.0191 27.3465 12.7891 27.2603 12.5752C27.1741 12.358 27.0431 12.1568 26.8675 11.9844L22.6009 7.71777L21.8568 8.46187L25.9924 12.5975C26.1489 12.754 26.1489 13.0063 25.9924 13.1628C25.9158 13.2394 25.8136 13.2809 25.7114 13.2809C25.6092 13.2809 25.507 13.2426 25.4304 13.1628L21.2947 9.02713L20.6113 9.71055L24.747 13.8462C24.9034 14.0027 24.9034 14.255 24.747 14.4115C24.6703 14.4881 24.5681 14.5296 24.4659 14.5296C24.3637 14.5296 24.2615 14.4913 24.1849 14.4115L20.0493 10.2758L19.3658 10.9592L23.5015 15.0949C23.658 15.2514 23.658 15.5036 23.5015 15.6601H23.4919Z" fill="white"/>
</g>
<defs>
<clipPath id="clip0_1389_1913">
<rect width="55.9669" height="71.5515" fill="white" transform="translate(0 0.13623)"/>
</clipPath>
</defs>
</svg>
