<svg width="71" height="70" viewBox="0 0 71 70" fill="none" xmlns="http://www.w3.org/2000/svg">
<path d="M35.377 25.9962C38.7501 25.9962 41.4845 23.2618 41.4845 19.8887C41.4845 16.5157 38.7501 13.7812 35.377 13.7812C32.004 13.7812 29.2695 16.5157 29.2695 19.8887C29.2695 23.2618 32.004 25.9962 35.377 25.9962Z" stroke="#0B3A7C" stroke-width="2.48272" stroke-linecap="round" stroke-linejoin="round"/>
<path d="M25.7109 56.2191V37.1021C25.7109 31.7891 30.064 27.436 35.377 27.436C40.69 27.436 45.0431 31.7891 45.0431 37.1021V56.2191H25.7275H25.7109Z" stroke="#0B3A7C" stroke-width="2.48272" stroke-linecap="round" stroke-linejoin="round"/>
<path d="M17.6335 27.8831C20.3667 27.8831 22.5824 25.6674 22.5824 22.9342C22.5824 20.201 20.3667 17.9854 17.6335 17.9854C14.9003 17.9854 12.6846 20.201 12.6846 22.9342C12.6846 25.6674 14.9003 27.8831 17.6335 27.8831Z" stroke="#0B3A7C" stroke-width="2.48272" stroke-linecap="round" stroke-linejoin="round"/>
<path d="M20.4308 51.0384L11.0793 51.4522L10.4007 36.0262C10.2186 31.7394 13.562 28.065 17.8488 27.8829C20.1164 27.5353 22.1522 28.3132 23.4267 29.025" stroke="#0B3A7C" stroke-width="2.48272" stroke-linecap="round" stroke-linejoin="round"/>
<path d="M53.1198 27.8831C55.853 27.8831 58.0687 25.6674 58.0687 22.9342C58.0687 20.201 55.853 17.9854 53.1198 17.9854C50.3866 17.9854 48.1709 20.201 48.1709 22.9342C48.1709 25.6674 50.3866 27.8831 53.1198 27.8831Z" stroke="#0B3A7C" stroke-width="2.48272" stroke-linecap="round" stroke-linejoin="round"/>
<path d="M50.3063 51.0387L59.6744 51.4525L60.353 36.0265C60.5351 31.7397 57.1917 28.0652 52.9048 27.8832C50.7366 27.4363 48.3697 28.4128 47.1118 29.0749" stroke="#0B3A7C" stroke-width="2.48272" stroke-linecap="round" stroke-linejoin="round"/>
<path d="M30.6597 46.6362V37.3178C30.6597 34.7192 32.7783 32.6006 35.3768 32.6006" stroke="#7CC7E7" stroke-width="2.48272" stroke-linecap="round" stroke-linejoin="round"/>
<path d="M15.8462 46.3048L15.3662 36.3408" stroke="#7CC7E7" stroke-width="2.48272" stroke-linecap="round" stroke-linejoin="round"/>
<path d="M55.0068 46.9837L55.4206 37.0859" stroke="#7CC7E7" stroke-width="2.48272" stroke-linecap="round" stroke-linejoin="round"/>
</svg>
