<svg width="70" height="70" viewBox="0 0 70 70" fill="none" xmlns="http://www.w3.org/2000/svg">
<path d="M35.0001 66.7078C26.7913 61.9572 20.3758 58.404 15.6947 54.0453C9.40553 48.1921 6.26514 38.5316 6.26514 30.0081C6.26514 25.0853 6.26514 14.1671 6.26514 14.1671C6.26514 14.1671 16.966 3.29199 35.0001 3.29199C53.0342 3.29199 63.7351 14.1671 63.7351 14.1671C63.7351 14.1671 63.7351 25.0853 63.7351 30.0081C63.7351 38.5359 60.5948 48.1921 54.3055 54.0453C49.6244 58.3997 43.2089 61.9572 35.0001 66.7078Z" stroke="#0B3A7C" stroke-width="2.48" stroke-linecap="round" stroke-linejoin="round"/>
<path d="M35.0002 8.56396C46.9429 8.56396 55.3159 14.0424 58.5826 16.6094V30.0084C58.5826 37.8643 55.5432 45.7676 50.8369 50.1478C47.0734 53.6536 41.7356 56.7676 34.996 60.6568C28.2606 56.7676 22.9227 53.6536 19.1593 50.1478C14.4529 45.7676 11.4136 37.8643 11.4136 30.0084V16.6094C14.6803 14.0424 23.0574 8.56396 34.996 8.56396" stroke="#7BC6E7" stroke-width="2.48" stroke-linecap="round" stroke-linejoin="round"/>
<path d="M25.6741 33.0543C27.0409 32.4961 27.518 30.4264 26.7397 28.4315C25.9614 26.4366 24.2225 25.2719 22.8557 25.8301C21.4889 26.3883 21.0118 28.458 21.7901 30.4529C22.5684 32.4478 24.3073 33.6125 25.6741 33.0543Z" stroke="#0B3A7C" stroke-width="2.48" stroke-linecap="round" stroke-linejoin="round"/>
<path d="M31.1688 26.2505C32.6192 25.9953 33.5065 24.0723 33.1506 21.9554C32.7947 19.8386 31.3304 18.3295 29.88 18.5847C28.4297 18.84 27.5424 20.7629 27.8983 22.8798C28.2542 24.9966 29.7185 26.5058 31.1688 26.2505Z" stroke="#0B3A7C" stroke-width="2.48" stroke-linecap="round" stroke-linejoin="round"/>
<path d="M48.2114 30.4479C48.9897 28.453 48.5126 26.3833 47.1458 25.8251C45.779 25.2669 44.04 26.4316 43.2618 28.4265C42.4835 30.4214 42.9606 32.4911 44.3274 33.0493C45.6942 33.6075 47.4331 32.4428 48.2114 30.4479Z" stroke="#0B3A7C" stroke-width="2.48" stroke-linecap="round" stroke-linejoin="round"/>
<path d="M42.1042 22.8776C42.4601 20.7607 41.5728 18.8377 40.1225 18.5825C38.6721 18.3272 37.2078 19.8364 36.8519 21.9532C36.496 24.0701 37.3833 25.9931 38.8337 26.2483C40.284 26.5036 41.7483 24.9944 42.1042 22.8776Z" stroke="#0B3A7C" stroke-width="2.48" stroke-linecap="round" stroke-linejoin="round"/>
<path d="M35.0004 44.2857C36.7558 44.2857 37.9345 44.8068 40.4056 45.3279C42.8766 45.8491 46.0002 43.7301 44.9857 40.2716C43.9711 36.8131 41.399 37.416 40.1867 34.6122C38.9743 31.8084 37.8251 29.4438 35.0004 29.4438C32.1757 29.4438 31.0265 31.8084 29.8141 34.6122C28.6017 37.416 26.0338 36.8174 25.0151 40.2716C23.9964 43.7258 27.1241 45.8491 29.5952 45.3279C32.0663 44.8068 33.245 44.2857 35.0004 44.2857Z" stroke="#0B3A7C" stroke-width="2.48" stroke-linecap="round" stroke-linejoin="round"/>
</svg>
