<svg width="70" height="70" viewBox="0 0 70 70" fill="none" xmlns="http://www.w3.org/2000/svg">
<path d="M58.5608 34.9999C58.5608 50.6079 45.899 63.2698 30.2909 63.2698C14.6829 63.2698 2.021 50.6079 2.021 34.9999C2.021 19.3919 14.6829 6.72998 30.2909 6.72998C38.0039 6.72998 45.0052 9.82511 50.103 14.8402" stroke="#0B3A7C" stroke-width="2.48272" stroke-linecap="round" stroke-linejoin="round"/>
<path d="M52.3208 34.9997C52.3208 47.1651 42.4561 57.0298 30.2908 57.0298C18.1254 57.0298 8.26074 47.1651 8.26074 34.9997C8.26074 22.8344 18.1254 12.9697 30.2908 12.9697C36.3651 12.9697 41.8768 15.4359 45.8657 19.4248L30.2908 34.9997H52.3208Z" stroke="#7CC7E7" stroke-width="2.48272" stroke-linecap="round" stroke-linejoin="round"/>
<path d="M59.7358 19.3423C61.6558 22.5367 62.7648 26.2939 62.7648 30.2828" stroke="#0B3A7C" stroke-width="2.48272" stroke-linecap="round" stroke-linejoin="round"/>
<path d="M60.4146 12.0601C65.0821 16.7276 67.9786 23.1826 67.9786 30.2998" stroke="#0B3A7C" stroke-width="2.48272" stroke-linecap="round" stroke-linejoin="round"/>
<path d="M60.4145 12.0601L42.1582 30.2998" stroke="#0B3A7C" stroke-width="2.48272" stroke-linecap="round" stroke-linejoin="round"/>
<path d="M42.1582 30.2998H67.962" stroke="#0B3A7C" stroke-width="2.48272" stroke-linecap="round" stroke-linejoin="round"/>
<path d="M30.2908 23.9927C31.8448 23.9927 33.1046 22.733 33.1046 21.179C33.1046 19.625 31.8448 18.3652 30.2908 18.3652C28.7368 18.3652 27.4771 19.625 27.4771 21.179C27.4771 22.733 28.7368 23.9927 30.2908 23.9927Z" stroke="#0B3A7C" stroke-width="2.48272" stroke-linecap="round" stroke-linejoin="round"/>
<path d="M36.9778 47.2974C38.5318 47.2974 39.7916 46.0377 39.7916 44.4837C39.7916 42.9297 38.5318 41.6699 36.9778 41.6699C35.4238 41.6699 34.1641 42.9297 34.1641 44.4837C34.1641 46.0377 35.4238 47.2974 36.9778 47.2974Z" stroke="#0B3A7C" stroke-width="2.48272" stroke-linecap="round" stroke-linejoin="round"/>
<path d="M18.2581 37.8135C19.8121 37.8135 21.0718 36.5538 21.0718 34.9998C21.0718 33.4458 19.8121 32.186 18.2581 32.186C16.7041 32.186 15.4443 33.4458 15.4443 34.9998C15.4443 36.5538 16.7041 37.8135 18.2581 37.8135Z" stroke="#0B3A7C" stroke-width="2.48272" stroke-linecap="round" stroke-linejoin="round"/>
<path d="M17.1323 25.6318L19.6481 26.0291" stroke="#0B3A7C" stroke-width="2.48272" stroke-linecap="round" stroke-linejoin="round"/>
<path d="M26.8481 31.0939L28.1226 28.8926" stroke="#0B3A7C" stroke-width="2.48272" stroke-linecap="round" stroke-linejoin="round"/>
<path d="M19.5986 45.5932L21.4027 43.7891" stroke="#0B3A7C" stroke-width="2.48272" stroke-linecap="round" stroke-linejoin="round"/>
<path d="M28.1226 42.7795L26.8481 40.5781" stroke="#0B3A7C" stroke-width="2.48272" stroke-linecap="round" stroke-linejoin="round"/>
<path d="M45.3362 42.1171L44.6245 39.6675" stroke="#0B3A7C" stroke-width="2.48272" stroke-linecap="round" stroke-linejoin="round"/>
<path d="M27.8745 51.0552L30.291 50.2441" stroke="#0B3A7C" stroke-width="2.48272" stroke-linecap="round" stroke-linejoin="round"/>
</svg>
