<svg width="60" height="66" viewBox="0 0 60 66" fill="none" xmlns="http://www.w3.org/2000/svg">
<path d="M30.0001 64.7078C21.7913 59.9572 15.3758 56.404 10.6947 52.0453C4.40553 46.1921 1.26514 36.5316 1.26514 28.0081C1.26514 23.0853 1.26514 12.1671 1.26514 12.1671C1.26514 12.1671 11.966 1.29199 30.0001 1.29199C48.0342 1.29199 58.7351 12.1671 58.7351 12.1671C58.7351 12.1671 58.7351 23.0853 58.7351 28.0081C58.7351 36.5359 55.5948 46.1921 49.3055 52.0453C44.6244 56.3997 38.2089 59.9572 30.0001 64.7078Z" stroke="#0B3A7C" stroke-width="2.48" stroke-linecap="round" stroke-linejoin="round"/>
<path d="M30.0002 6.56372C41.9429 6.56372 50.3159 12.0422 53.5826 14.6091V28.0081C53.5826 35.864 50.5432 43.7673 45.8369 48.1475C42.0734 51.6534 36.7356 54.7673 29.996 58.6565C23.2606 54.7673 17.9227 51.6534 14.1593 48.1475C9.45293 43.7673 6.41357 35.864 6.41357 28.0081V14.6091C9.68025 12.0422 18.0574 6.56372 29.996 6.56372" stroke="#7BC6E7" stroke-width="2.48" stroke-linecap="round" stroke-linejoin="round"/>
<path d="M20.6741 31.0543C22.0409 30.4961 22.518 28.4264 21.7397 26.4315C20.9614 24.4366 19.2225 23.2719 17.8557 23.8301C16.4889 24.3883 16.0118 26.458 16.7901 28.4529C17.5684 30.4478 19.3073 31.6125 20.6741 31.0543Z" stroke="#0B3A7C" stroke-width="2.48" stroke-linecap="round" stroke-linejoin="round"/>
<path d="M26.1688 24.2503C27.6192 23.995 28.5065 22.0721 28.1506 19.9552C27.7947 17.8383 26.3304 16.3292 24.88 16.5845C23.4297 16.8397 22.5424 18.7627 22.8983 20.8795C23.2542 22.9964 24.7185 24.5055 26.1688 24.2503Z" stroke="#0B3A7C" stroke-width="2.48" stroke-linecap="round" stroke-linejoin="round"/>
<path d="M43.2114 28.4477C43.9897 26.4528 43.5126 24.3831 42.1458 23.8249C40.779 23.2667 39.04 24.4314 38.2618 26.4263C37.4835 28.4212 37.9606 30.4908 39.3274 31.049C40.6942 31.6072 42.4331 30.4425 43.2114 28.4477Z" stroke="#0B3A7C" stroke-width="2.48" stroke-linecap="round" stroke-linejoin="round"/>
<path d="M37.1042 20.8773C37.4601 18.7605 36.5728 16.8375 35.1225 16.5823C33.6721 16.327 32.2078 17.8361 31.8519 19.953C31.496 22.0698 32.3833 23.9928 33.8337 24.2481C35.284 24.5033 36.7483 22.9942 37.1042 20.8773Z" stroke="#0B3A7C" stroke-width="2.48" stroke-linecap="round" stroke-linejoin="round"/>
<path d="M30.0004 42.2857C31.7558 42.2857 32.9345 42.8068 35.4056 43.3279C37.8766 43.8491 41.0002 41.7301 39.9857 38.2716C38.9711 34.8131 36.399 35.416 35.1867 32.6122C33.9743 29.8084 32.8251 27.4438 30.0004 27.4438C27.1757 27.4438 26.0265 29.8084 24.8141 32.6122C23.6017 35.416 21.0338 34.8174 20.0151 38.2716C18.9964 41.7258 22.1241 43.8491 24.5952 43.3279C27.0663 42.8068 28.245 42.2857 30.0004 42.2857Z" stroke="#0B3A7C" stroke-width="2.48" stroke-linecap="round" stroke-linejoin="round"/>
</svg>
