<svg width="121" height="72" viewBox="0 0 121 72" fill="none" xmlns="http://www.w3.org/2000/svg">
<path d="M13.3476 63.2542C7.57213 63.2542 3.58024 60.4938 1.88156 58.2431L5.87345 54.3361C7.23239 55.78 9.61054 57.6061 12.8805 57.6061C16.0655 57.6061 17.6793 55.9074 17.6793 54.1663C17.6793 48.9004 3.07064 51.4484 3.07064 40.9591C3.07064 35.948 7.4872 32.2533 13.6449 32.2533C18.6135 32.2533 22.2657 34.6315 23.7096 36.4576L19.7177 40.3645C18.6985 39.3453 16.6176 37.859 14.0696 37.859C11.1394 37.859 9.73794 39.3453 9.73794 40.9166C9.73794 46.1825 24.389 43.6345 24.389 54.1238C24.389 59.05 20.1848 63.2542 13.3476 63.2542ZM36.3826 41.5961C41.8184 41.5961 45.4281 45.2058 45.4281 49.6648V62.6172H39.9923V59.7719H39.8649C39.0156 61.1733 36.7648 63.0419 33.6647 63.0419C29.6728 63.0419 26.8276 60.2815 26.8276 57.0965C26.8276 53.5717 29.1632 51.2361 33.1976 50.4717L39.695 49.2401C39.6101 47.6264 38.1662 46.2674 36.0853 46.2674C33.8771 46.2674 32.3058 47.5414 31.2866 48.688L28.0166 45.5455C29.503 43.7619 32.3907 41.5961 36.3826 41.5961ZM35.3209 58.4554C37.784 58.4554 39.695 56.5444 39.695 53.6991V53.0197L35.236 53.9115C33.6223 54.2087 32.688 55.1855 32.688 56.2472C32.688 57.5212 33.6223 58.4554 35.3209 58.4554ZM58.7388 55.6526L63.0279 42.0207H68.9308L60.9471 64.3159C59.2059 69.2845 56.7004 71.5352 52.7934 71.5352C51.3071 71.5352 49.9057 71.153 49.2687 70.8982V65.5899C49.7358 65.8447 50.6701 66.1844 51.6043 66.1844C53.4304 66.1844 54.577 65.1652 55.1291 63.8912L55.7661 62.4898L46.933 42.0207H53.1756L58.6114 55.6526H58.7388ZM86.8154 62.6172H80.4453V32.8903H86.8154V44.5687H99.5555V32.8903H105.925V62.6172H99.5555V50.5141H86.8154V62.6172ZM114.77 38.9206C112.944 38.9206 111.458 37.5617 111.458 35.7356C111.458 33.952 112.944 32.5506 114.77 32.5506C116.554 32.5506 118.04 33.952 118.04 35.7356C118.04 37.5617 116.554 38.9206 114.77 38.9206ZM117.616 62.6172H111.882V42.0207H117.616V62.6172Z" fill="#0B3A7C"/>
<path d="M101.751 16.25C93.0084 8.6912 80.0572 0 57.1913 0C34.3254 0 19.8346 8.87522 11.7984 16.3066C10.7956 17.2267 10.725 18.8121 11.6571 19.8171C12.5893 20.8221 14.157 20.8929 15.1598 19.9586C22.5464 13.1217 35.8366 4.96842 57.1913 4.96842C78.546 4.96842 90.4238 13.0085 98.5025 20.0011C98.9544 20.3974 99.5335 20.6098 100.127 20.6098C100.847 20.6098 101.539 20.2983 102.005 19.7463C102.895 18.6988 102.782 17.1418 101.751 16.2358" fill="#7CC7E7"/>
</svg>
