<svg width="47" height="70" viewBox="0 0 47 70" fill="none" xmlns="http://www.w3.org/2000/svg">
<g id="Layer 1">
<g id="Group">
<path id="Vector" d="M23.4365 18.166C21.1944 18.166 18.7797 20.0352 18.4156 23.4075C18.0515 26.7797 19.7188 30.152 23.4365 30.152" stroke="#0B3A7C" stroke-width="2.49478" stroke-linecap="round" stroke-linejoin="round"/>
<path id="Vector_2" d="M19.2588 27.8198C16.9783 32.7529 16.8634 36.9345 17.4766 41.1932C18.0898 45.4519 18.4156 49.9225 19.2588 52.5432C20.102 55.164 20.9644 55.2796 23.4365 55.2796" stroke="#0B3A7C" stroke-width="2.49478" stroke-linecap="round" stroke-linejoin="round"/>
<path id="Vector_3" d="M32.7497 55.2793C32.7497 55.2793 33.9953 59.2104 30.3926 60.6364" stroke="#0B3A7C" stroke-width="2.49478" stroke-linecap="round" stroke-linejoin="round"/>
<path id="Vector_4" d="M18.5879 26.1237L10.4051 29.1298L7.62634 27.8195L8.12459 24.1582L5.93994 22.2119" stroke="#0B3A7C" stroke-width="2.49478" stroke-linecap="round" stroke-linejoin="round"/>
<path id="Vector_5" d="M18.1473 30.6719L14.5062 32.5411L11.9 40.0564L7.49238 41.5016L4.86697 37.8789L2.03076 38.5726" stroke="#0B3A7C" stroke-width="2.49478" stroke-linecap="round" stroke-linejoin="round"/>
<path id="Vector_6" d="M17.1698 39.0542L15.1959 48.0533L11.2866 50.9823L6.68732 49.6142L4.3877 51.4833" stroke="#0B3A7C" stroke-width="2.49478" stroke-linecap="round" stroke-linejoin="round"/>
<path id="Vector_7" d="M7.18557 2.40234C5.93994 6.62247 10.0984 6.5454 11.4016 8.2797C13.3754 10.8811 12.2639 13.2899 9.84931 14.2149C7.4347 15.1398 5.93994 14.8315 5.93994 14.8315" stroke="#0B3A7C" stroke-width="2.49478" stroke-linecap="round" stroke-linejoin="round"/>
<path id="Vector_8" d="M40.2045 2.40234C41.4502 6.62247 37.2917 6.5454 35.9886 8.2797C34.0147 10.8811 35.1262 13.2899 37.5408 14.2149C39.9554 15.1398 41.4502 14.8315 41.4502 14.8315" stroke="#0B3A7C" stroke-width="2.49478" stroke-linecap="round" stroke-linejoin="round"/>
<path id="Vector_9" d="M24.0112 18.166C26.2534 18.166 28.668 20.0352 29.0321 23.4075C29.3962 26.7797 27.729 30.152 24.0112 30.152" stroke="#0B3A7C" stroke-width="2.49478" stroke-linecap="round" stroke-linejoin="round"/>
<path id="Vector_10" d="M28.1889 27.8198C30.4694 32.7529 30.5843 36.9345 29.9711 41.1932C29.3579 45.4519 29.0321 49.9225 28.1889 52.5432C27.3457 55.164 26.4833 55.2796 24.0112 55.2796" stroke="#0B3A7C" stroke-width="2.49478" stroke-linecap="round" stroke-linejoin="round"/>
<path id="Vector_11" d="M28.8599 26.1237L37.0235 29.1298L39.8214 27.8195L39.3232 24.1582L41.5078 22.2119" stroke="#0B3A7C" stroke-width="2.49478" stroke-linecap="round" stroke-linejoin="round"/>
<path id="Vector_12" d="M29.3003 30.6719L32.9414 32.5411L35.5476 40.0564L39.9552 41.5016L42.5615 37.8789L45.3977 38.5726" stroke="#0B3A7C" stroke-width="2.49478" stroke-linecap="round" stroke-linejoin="round"/>
<path id="Vector_13" d="M30.2778 39.0542L32.2517 48.0533L36.161 50.9823L40.7603 49.6142L43.0408 51.4833" stroke="#0B3A7C" stroke-width="2.49478" stroke-linecap="round" stroke-linejoin="round"/>
<path id="Vector_14" d="M24.0115 65.6273L26.2345 57.7266C26.5028 56.7824 25.7937 55.8381 24.8164 55.8381H22.7467C21.7311 55.8189 21.0028 56.8209 21.3286 57.8037L23.9924 65.6273L25.6596 66.822L31.8686 67.9204L36.7745 64.1435L35.5288 59.4031L32.7309 55.2793" stroke="#0B3A7C" stroke-width="2.49478" stroke-linecap="round" stroke-linejoin="round"/>
<path id="Vector_15" d="M7.74153 1.43896C4.94365 6.06377 3.88965 10.1683 5.94015 14.8509C7.99066 19.5335 11.1526 19.8418 11.1526 19.8418L18.4156 18.8976L20.0829 19.3986" stroke="#0B3A7C" stroke-width="2.49478" stroke-linecap="round" stroke-linejoin="round"/>
<path id="Vector_16" d="M39.7061 1.43896C42.504 6.06377 43.558 10.1683 41.5075 14.8509C39.457 19.5335 36.295 19.8418 36.295 19.8418L29.032 18.8976L27.3647 19.3986" stroke="#0B3A7C" stroke-width="2.49478" stroke-linecap="round" stroke-linejoin="round"/>
</g>
</g>
</svg>
