<svg width="46" height="70" viewBox="0 0 46 70" fill="none" xmlns="http://www.w3.org/2000/svg">
<g id="Layer 1">
<g id="Group">
<path id="Vector" d="M2.18115 1.43921C9.5499 2.80738 13.9078 3.55891 15.6509 6.93116C17.3941 10.3034 20.2663 14.2345 20.2663 14.2345" stroke="#0B3A7C" stroke-width="2.49478" stroke-linecap="round" stroke-linejoin="round"/>
<path id="Vector_2" d="M21.8114 55.1059C18.4043 51.8108 18.7411 44.7387 18.3449 40.3066C17.9488 35.8745 18.543 33.5621 16.9979 31.6543C15.4529 29.7466 15.3935 28.4555 15.7104 23.2526C16.0273 18.0497 18.3449 17.4524 18.9194 15.9686C19.4938 14.4848 19.8702 13.8296 21.8114 13.8296H24.2082C26.1297 13.8296 26.5258 14.4655 27.1003 15.9686C27.6747 17.4716 29.9923 18.069 30.3092 23.2526C30.6262 28.4363 30.5667 29.7466 29.0217 31.6543C27.4766 33.5621 28.0511 35.8745 27.6747 40.3066C27.2984 44.7387 27.6153 51.8108 24.2082 55.1059" stroke="#0B3A7C" stroke-width="2.49478" stroke-linecap="round" stroke-linejoin="round"/>
<path id="Vector_3" d="M20.1077 52.5435C20.1077 52.5435 16.5026 62.217 8.53955 66.3986" stroke="#0B3A7C" stroke-width="2.49478" stroke-linecap="round" stroke-linejoin="round"/>
<path id="Vector_4" d="M16.9982 31.6543L14.324 34.3328L11.2339 41.5013" stroke="#0B3A7C" stroke-width="2.49478" stroke-linecap="round" stroke-linejoin="round"/>
<path id="Vector_5" d="M15.5718 26.3933L10.2631 27.3183L5.90527 24.2351" stroke="#0B3A7C" stroke-width="2.49478" stroke-linecap="round" stroke-linejoin="round"/>
<path id="Vector_6" d="M11.6099 16.2966C11.6099 16.2966 12.937 19.6111 16.0668 20.8829" stroke="#0B3A7C" stroke-width="2.49478" stroke-linecap="round" stroke-linejoin="round"/>
<path id="Vector_7" d="M43.8185 1.43896C36.4498 2.80714 32.0919 3.55867 30.3488 6.93092C28.6056 10.3032 25.7334 14.2342 25.7334 14.2342" stroke="#0B3A7C" stroke-width="2.49478" stroke-linecap="round" stroke-linejoin="round"/>
<path id="Vector_8" d="M23 67.9203V55.6646" stroke="#0B3A7C" stroke-width="2.49478" stroke-linecap="round" stroke-linejoin="round"/>
<path id="Vector_9" d="M25.9116 52.5435C25.9116 52.5435 29.5168 62.217 37.4798 66.3986" stroke="#0B3A7C" stroke-width="2.49478" stroke-linecap="round" stroke-linejoin="round"/>
<path id="Vector_10" d="M29.002 31.6543L31.6959 34.3328L34.786 41.5013" stroke="#0B3A7C" stroke-width="2.49478" stroke-linecap="round" stroke-linejoin="round"/>
<path id="Vector_11" d="M30.4478 26.3933L35.7366 27.3183L40.0945 24.2351" stroke="#0B3A7C" stroke-width="2.49478" stroke-linecap="round" stroke-linejoin="round"/>
<path id="Vector_12" d="M34.39 16.2966C34.39 16.2966 33.0628 19.6111 29.9331 20.8829" stroke="#0B3A7C" stroke-width="2.49478" stroke-linecap="round" stroke-linejoin="round"/>
<path id="Vector_13" d="M15.8291 22.1548C20.1473 20.5554 24.8816 20.382 30.1902 22.1548" stroke="#0B3A7C" stroke-width="2.49478" stroke-linecap="round" stroke-linejoin="round"/>
<path id="Vector_14" d="M15.8291 28.918C20.1473 27.3186 24.8816 27.1452 30.1902 28.918" stroke="#0B3A7C" stroke-width="2.49478" stroke-linecap="round" stroke-linejoin="round"/>
<path id="Vector_15" d="M18.1074 34.9114C21.0391 33.813 24.2679 33.6974 27.8928 34.9114" stroke="#0B3A7C" stroke-width="2.49478" stroke-linecap="round" stroke-linejoin="round"/>
<path id="Vector_16" d="M18.3252 40.4804C21.138 39.4398 24.2281 39.3242 27.6748 40.4804" stroke="#0B3A7C" stroke-width="2.49478" stroke-linecap="round" stroke-linejoin="round"/>
<path id="Vector_17" d="M18.6816 46.0299C21.2766 45.0664 24.129 44.9701 27.3181 46.0299" stroke="#0B3A7C" stroke-width="2.49478" stroke-linecap="round" stroke-linejoin="round"/>
<path id="Vector_18" d="M19.5332 50.7893C21.6131 50.0185 23.9109 49.9222 26.486 50.7893" stroke="#0B3A7C" stroke-width="2.49478" stroke-linecap="round" stroke-linejoin="round"/>
</g>
</g>
</svg>
