<svg width="52" height="70" viewBox="0 0 52 70" fill="none" xmlns="http://www.w3.org/2000/svg">
<g id="Layer 1">
<g id="Group">
<path id="Vector" d="M21.2212 9.57104C21.2212 9.57104 21.5632 17.992 21.8102 19.7263C22.0571 21.4606 19.6254 23.7538 21.5062 26.413" stroke="#0B3A7C" stroke-width="2.49478" stroke-linecap="round" stroke-linejoin="round"/>
<path id="Vector_2" d="M25.8566 25.4492C21.5252 25.4492 19.2835 28.5324 18.7895 31.8661C18.2956 35.1998 19.7964 39.9017 25.8566 39.9017" stroke="#0B3A7C" stroke-width="2.49478" stroke-linecap="round" stroke-linejoin="round"/>
<path id="Vector_3" d="M19.6067 29.207L17.612 26.1624C17.0421 25.2952 16.7191 24.3125 16.6431 23.2719L16.2822 17.7992C16.2442 17.2789 16.1492 16.7586 15.9782 16.2576L10.9438 1.43896" stroke="#0B3A7C" stroke-width="2.49478" stroke-linecap="round" stroke-linejoin="round"/>
<path id="Vector_4" d="M18.6945 32.6756L16.4338 31.4616C15.6738 31.057 15.0469 30.4596 14.572 29.7273L3.02148 11.6135" stroke="#0B3A7C" stroke-width="2.49478" stroke-linecap="round" stroke-linejoin="round"/>
<path id="Vector_5" d="M19.6065 36.7415L15.4271 36.4332C13.5463 36.2983 11.7226 37.0499 10.4687 38.4758L1.67285 48.554" stroke="#0B3A7C" stroke-width="2.49478" stroke-linecap="round" stroke-linejoin="round"/>
<path id="Vector_6" d="M21.4305 39.1504L16.0542 44.8158C14.7244 46.2225 13.8505 48.0146 13.5655 49.9609L10.9438 67.9205" stroke="#0B3A7C" stroke-width="2.49478" stroke-linecap="round" stroke-linejoin="round"/>
<path id="Vector_7" d="M30.492 9.57104C30.492 9.57104 30.1501 17.992 29.9031 19.7263C29.6561 21.4606 32.0878 23.7538 30.207 26.413" stroke="#0B3A7C" stroke-width="2.49478" stroke-linecap="round" stroke-linejoin="round"/>
<path id="Vector_8" d="M25.8569 25.4492C30.1884 25.4492 32.4301 28.5324 32.924 31.8661C33.418 35.1998 31.9172 39.9017 25.8569 39.9017" stroke="#0B3A7C" stroke-width="2.49478" stroke-linecap="round" stroke-linejoin="round"/>
<path id="Vector_9" d="M25.8759 39.9021C21.5444 39.9021 19.3027 42.9853 18.8088 46.319C18.3149 49.6527 19.3217 55.0291 25.8759 57.5149C32.449 55.0291 33.4559 49.6527 32.943 46.319C32.43 42.9853 30.2073 39.9021 25.8759 39.9021Z" stroke="#0B3A7C" stroke-width="2.49478" stroke-linecap="round" stroke-linejoin="round"/>
<path id="Vector_10" d="M32.1069 29.207L34.1017 26.1624C34.6716 25.2952 34.9946 24.3125 35.0705 23.2719L35.4315 17.7992C35.4695 17.2789 35.5645 16.7586 35.7355 16.2576L40.7888 1.43896" stroke="#0B3A7C" stroke-width="2.49478" stroke-linecap="round" stroke-linejoin="round"/>
<path id="Vector_11" d="M33.019 32.6756L35.2798 31.4616C36.0397 31.057 36.6666 30.4596 37.1415 29.7273L48.692 11.6135" stroke="#0B3A7C" stroke-width="2.49478" stroke-linecap="round" stroke-linejoin="round"/>
<path id="Vector_12" d="M32.1069 36.7415L36.2864 36.4332C38.1671 36.2983 39.9909 37.0499 41.2448 38.4758L50.0406 48.554" stroke="#0B3A7C" stroke-width="2.49478" stroke-linecap="round" stroke-linejoin="round"/>
<path id="Vector_13" d="M30.2832 39.1504L35.6595 44.8158C36.9893 46.2225 37.8632 48.0146 38.1482 49.9609L40.7698 67.9205" stroke="#0B3A7C" stroke-width="2.49478" stroke-linecap="round" stroke-linejoin="round"/>
</g>
</g>
</svg>
