<svg width="83" height="13" viewBox="0 0 83 13" fill="none" xmlns="http://www.w3.org/2000/svg">
<path d="M6.42401 1.22098C6.65936 0.496651 7.68409 0.496652 7.91944 1.22098L8.86139 4.12C8.96664 4.44393 9.2685 4.66324 9.6091 4.66324H12.6573C13.4189 4.66324 13.7356 5.63782 13.1194 6.08549L10.6534 7.87717C10.3778 8.07737 10.2625 8.43224 10.3678 8.75617L11.3097 11.6552C11.5451 12.3795 10.716 12.9818 10.0999 12.5342L7.63384 10.7425C7.35829 10.5423 6.98516 10.5423 6.70961 10.7425L4.24356 12.5342C3.62741 12.9818 2.79838 12.3795 3.03373 11.6552L3.97568 8.75617C4.08093 8.43224 3.96563 8.07737 3.69007 7.87717L1.22403 6.08549C0.607873 5.63782 0.924535 4.66324 1.68614 4.66324H4.73434C5.07494 4.66324 5.37681 4.44393 5.48206 4.12L6.42401 1.22098Z" fill="#FF9900"/>
<path d="M23.6877 1.22098C23.923 0.496651 24.9478 0.496652 25.1831 1.22098L26.1251 4.12C26.2303 4.44393 26.5322 4.66324 26.8728 4.66324H29.921C30.6826 4.66324 30.9992 5.63782 30.3831 6.08549L27.917 7.87717C27.6415 8.07737 27.5262 8.43224 27.6314 8.75617L28.5734 11.6552C28.8087 12.3795 27.9797 12.9818 27.3636 12.5342L24.8975 10.7425C24.622 10.5423 24.2488 10.5423 23.9733 10.7425L21.5072 12.5342C20.8911 12.9818 20.0621 12.3795 20.2974 11.6552L21.2393 8.75617C21.3446 8.43224 21.2293 8.07737 20.9537 7.87717L18.4877 6.08549C17.8715 5.63782 18.1882 4.66324 18.9498 4.66324H21.998C22.3386 4.66324 22.6405 4.44393 22.7457 4.12L23.6877 1.22098Z" fill="#FF9900"/>
<path d="M40.9514 1.22098C41.1867 0.496651 42.2114 0.496652 42.4468 1.22098L43.3887 4.12C43.494 4.44393 43.7958 4.66324 44.1364 4.66324H47.1847C47.9463 4.66324 48.2629 5.63782 47.6468 6.08549L45.1807 7.87717C44.9052 8.07737 44.7899 8.43224 44.8951 8.75617L45.8371 11.6552C46.0724 12.3795 45.2434 12.9818 44.6272 12.5342L42.1612 10.7425C41.8856 10.5423 41.5125 10.5423 41.237 10.7425L38.7709 12.5342C38.1548 12.9818 37.3257 12.3795 37.5611 11.6552L38.503 8.75617C38.6083 8.43224 38.493 8.07737 38.2174 7.87717L35.7514 6.08549C35.1352 5.63782 35.4519 4.66324 36.2135 4.66324H39.2617C39.6023 4.66324 39.9042 4.44393 40.0094 4.12L40.9514 1.22098Z" fill="#FF9900"/>
<path d="M58.2155 1.22098C58.4509 0.496651 59.4756 0.496652 59.7109 1.22098L60.6529 4.12C60.7581 4.44393 61.06 4.66324 61.4006 4.66324H64.4488C65.2104 4.66324 65.5271 5.63782 64.9109 6.08549L62.4449 7.87717C62.1693 8.07737 62.054 8.43224 62.1593 8.75617L63.1012 11.6552C63.3366 12.3795 62.5075 12.9818 61.8914 12.5342L59.4253 10.7425C59.1498 10.5423 58.7767 10.5423 58.5011 10.7425L56.0351 12.5342C55.4189 12.9818 54.5899 12.3795 54.8252 11.6552L55.7672 8.75617C55.8724 8.43224 55.7571 8.07737 55.4816 7.87717L53.0155 6.08549C52.3994 5.63782 52.716 4.66324 53.4776 4.66324H56.5258C56.8664 4.66324 57.1683 4.44393 57.2736 4.12L58.2155 1.22098Z" fill="#FF9900"/>
<path d="M75.4792 1.22098C75.7145 0.496651 76.7393 0.496652 76.9746 1.22098L77.9166 4.12C78.0218 4.44393 78.3237 4.66324 78.6643 4.66324H81.7125C82.4741 4.66324 82.7907 5.63782 82.1746 6.08549L79.7085 7.87717C79.433 8.07737 79.3177 8.43224 79.4229 8.75617L80.3649 11.6552C80.6002 12.3795 79.7712 12.9818 79.1551 12.5342L76.689 10.7425C76.4135 10.5423 76.0403 10.5423 75.7648 10.7425L73.2987 12.5342C72.6826 12.9818 71.8536 12.3795 72.0889 11.6552L73.0309 8.75617C73.1361 8.43224 73.0208 8.07737 72.7452 7.87717L70.2792 6.08549C69.663 5.63782 69.9797 4.66324 70.7413 4.66324H73.7895C74.1301 4.66324 74.432 4.44393 74.5372 4.12L75.4792 1.22098Z" fill="#FF9900"/>
</svg>
