<svg width="21" height="14" viewBox="0 0 21 14" fill="none" xmlns="http://www.w3.org/2000/svg">
<path id="Vector" d="M20.107 2.19715C19.9931 1.77455 19.7705 1.38915 19.4614 1.07932C19.1522 0.769479 18.7673 0.546009 18.345 0.431148C16.779 0.00114802 10.514 -0.00585178 10.514 -0.00585178C10.514 -0.00585178 4.25 -0.012852 2.683 0.398148C2.26093 0.518295 1.87682 0.744925 1.56757 1.05628C1.25831 1.36764 1.03429 1.75327 0.917002 2.17615C0.504002 3.74215 0.500001 6.99015 0.500001 6.99015C0.500001 6.99015 0.496001 10.2541 0.906001 11.8041C1.136 12.6611 1.811 13.3381 2.669 13.5691C4.251 13.9991 10.499 14.0061 10.499 14.0061C10.499 14.0061 16.764 14.0131 18.33 13.6031C18.7525 13.4885 19.1377 13.2655 19.4477 12.9563C19.7576 12.6471 19.9814 12.2624 20.097 11.8401C20.511 10.2751 20.514 7.02815 20.514 7.02815C20.514 7.02815 20.534 3.76315 20.107 2.19715ZM8.51 9.99915L8.515 3.99915L13.722 7.00415L8.51 9.99915Z" fill="white"/>
</svg>
