<svg width="299" height="75" viewBox="0 0 299 75" fill="none" xmlns="http://www.w3.org/2000/svg">
<path d="M271.799 55.2917L279.945 54.7299C280.114 55.3478 280.451 55.9096 280.844 56.4153C281.518 57.258 282.754 58.1006 284.721 58.1006C287.586 58.1006 289.777 55.9096 289.777 53.0445C289.777 50.1793 287.586 47.9883 284.721 47.9883C282.867 47.9883 281.687 48.7187 280.957 49.3928C280.563 49.7861 280.226 50.2917 279.945 50.7973H272.642L274.889 29.73H295.395V37.5951H281.687L281.069 42.3704C281.462 42.0895 281.912 41.8648 282.417 41.6962C283.26 41.303 284.44 40.9659 285.844 40.9659C292.586 40.9659 297.923 46.3029 297.923 53.0445C297.923 60.0108 292.586 65.404 284.721 65.404C277.361 65.404 272.698 60.6287 271.799 55.2917Z" fill="#7CC7E7"/>
<path d="M245.099 43.494L254.368 29.73H262.795L255.211 40.9659C261.952 40.3479 268.132 45.7411 268.132 53.0445C268.132 60.0108 262.795 65.404 254.93 65.404C247.065 65.404 241.728 60.0108 241.728 53.0445C241.728 50.5164 242.57 48.1007 243.413 46.3591C243.919 45.3479 244.481 44.3928 245.099 43.494ZM254.93 58.3815C257.795 58.3815 259.986 56.1905 259.986 53.0445C259.986 49.8984 257.795 47.7074 254.93 47.7074C252.065 47.7074 249.874 49.8984 249.874 53.0445C249.874 56.1905 252.065 58.3815 254.93 58.3815Z" fill="#7CC7E7"/>
<path d="M212.253 55.0107L220.399 54.4489C220.68 56.4152 222.309 58.1005 225.174 58.1005C228.321 58.1005 229.95 56.4152 229.95 54.168C229.95 52.2017 228.264 50.5163 224.894 50.5163H221.523V43.7748H224.894C228.04 43.7748 229.388 42.3703 229.388 40.404C229.388 38.4377 227.759 36.7523 224.894 36.7523C222.365 36.7523 220.961 38.1568 220.68 40.1231L212.534 39.5613C212.815 34.2242 217.59 29.449 225.174 29.449C232.759 29.449 237.534 34.1681 237.534 39.2804C237.534 41.8085 236.298 43.6624 235.118 44.8422C234.444 45.5163 233.658 46.0781 232.759 46.5837C233.826 47.0894 234.725 47.7073 235.568 48.4938C236.972 49.8421 238.377 52.0893 238.377 55.2916C238.377 60.6286 233.601 65.4039 225.455 65.4039C217.309 65.4039 212.534 60.6286 212.253 55.0107Z" fill="#7CC7E7"/>
<path d="M175.135 74.1118V67.6512C178.281 67.6512 179.63 66.2467 180.472 63.9995L170.641 39.2805H178.787L184.405 55.2917L190.023 39.2805H198.169L187.776 65.1231C185.135 71.5837 182.439 74.3927 177.663 74.3927C177.045 74.3927 176.484 74.3365 175.978 74.2804L175.135 74.1118Z" fill="#0B3A7C"/>
<path d="M147.061 65.1231V29.73H154.645V49.6737L161.667 39.2805H170.375L161.667 51.64L171.218 65.1231H162.51L154.645 53.6063V65.1231H147.061Z" fill="#0B3A7C"/>
<path d="M116.421 53.8871L124.286 53.3253C124.286 56.5275 125.972 58.1005 129.342 58.1005C132.488 58.1005 134.118 56.4152 134.118 54.4489C134.118 49.1118 116.702 52.2017 116.702 39.5613C116.702 34.2242 121.477 29.449 129.342 29.449C136.927 29.449 141.702 34.2242 141.702 40.6849L133.837 41.2467C133.837 38.3815 132.208 36.7523 129.342 36.7523C126.814 36.7523 125.129 38.3815 125.129 40.1231C125.129 45.1792 142.545 42.0894 142.545 55.0107C142.545 60.6286 137.769 65.4039 129.342 65.4039C121.196 65.4039 116.421 60.6286 116.421 53.8871Z" fill="#0B3A7C"/>
<path d="M91.6955 56.9769L99.5607 57.5387C98.2124 61.7521 94.1674 65.6847 87.4821 65.6847C80.5158 65.6847 74.5608 59.7858 74.5608 52.2016C74.5608 44.6174 80.4596 38.7185 87.763 38.7185C94.7854 38.7185 100.403 44.0556 100.403 52.2016C100.403 52.8196 100.291 53.3814 100.235 53.887L100.122 54.7297H82.4259C83.0439 56.696 84.8978 58.6622 87.763 58.6622C89.1675 58.6622 90.1787 58.269 90.7967 57.8195C91.1899 57.5948 91.4708 57.3139 91.6955 56.9769ZM82.4259 49.9544H93.1C92.4821 47.7072 90.6281 45.7409 87.763 45.7409C84.8978 45.7409 83.0439 47.7072 82.4259 49.9544Z" fill="#0B3A7C"/>
<path d="M45.3386 54.449V39.2805H52.9229V53.0445C52.9229 56.4153 54.833 58.3816 57.6981 58.3816C60.5633 58.3816 62.4734 56.4153 62.4734 53.0445V39.2805H70.0576V65.1231H64.4397L63.3161 62.595C62.6981 63.1006 61.9678 63.6063 61.1812 63.9995C59.8329 64.7298 57.979 65.404 55.7318 65.404C49.6083 65.404 45.3386 61.1905 45.3386 54.449Z" fill="#0B3A7C"/>
<path d="M32.3975 65.1231V29.73H39.9817V65.1231H32.3975Z" fill="#0B3A7C"/>
<path d="M0.37085 65.1231V29.73H15.5393C22 29.73 26.4943 34.2243 26.4943 39.5614C26.4943 41.9771 25.4269 43.6625 24.3595 44.7299C23.7415 45.3479 23.0112 45.9097 22.2809 46.3029C23.3483 46.8086 24.2472 47.4265 25.0898 48.213C26.4943 49.5614 27.8988 51.5838 27.8988 54.7299C27.8988 60.3478 23.1236 65.1231 16.382 65.1231H0.37085ZM8.51688 43.7749H14.6966C16.9438 43.7749 18.6292 42.0895 18.6292 40.1232C18.6292 38.1569 16.9438 36.4715 14.6966 36.4715H8.51688V43.7749ZM8.51688 58.3815H15.5393C18.0674 58.3815 20.0337 56.4153 20.0337 54.1681C20.0337 51.9209 18.0674 49.9546 15.5393 49.9546H8.51688V58.3815Z" fill="#0B3A7C"/>
<path d="M297.775 15.8889C289.608 8.77333 277.51 0.591797 256.15 0.591797C234.789 0.591797 221.253 8.94656 213.746 15.9422C212.809 16.8083 212.743 18.3007 213.614 19.2468C214.485 20.1928 215.949 20.2595 216.886 19.38C223.786 12.9441 236.201 5.26887 256.15 5.26887C276.098 5.26887 287.194 12.8375 294.74 19.42C295.163 19.7931 295.703 19.993 296.258 19.993C296.93 19.993 297.577 19.6998 298.012 19.1801C298.844 18.1941 298.738 16.7283 297.775 15.8756" fill="#7CC7E7"/>
</svg>
