<svg width="164" height="72" viewBox="0 0 164 72" fill="none" xmlns="http://www.w3.org/2000/svg">
<g id="Layer_1" clip-path="url(#clip0_107_44)">
<path id="Vector" d="M131.854 17.9375C122.167 9.59375 107.815 0 82.4774 0C57.1395 0 41.0822 9.79688 32.1772 18C31.066 19.0156 30.9878 20.7656 32.0207 21.875C33.0536 22.9844 34.7908 23.0625 35.902 22.0313C44.0871 14.4844 58.8141 5.48438 82.4774 5.48438C106.141 5.48438 119.303 14.3594 128.255 22.0781C128.755 22.5156 129.397 22.75 130.054 22.75C130.853 22.75 131.619 22.4063 132.136 21.7969C133.122 20.6406 132.997 18.9219 131.854 17.9219" fill="#7CC7E7"/>
<path id="Vector_2" d="M17.3093 40.5937C18.9056 41.6094 20.1889 43.0156 21.128 44.8281C22.067 46.6406 22.5209 48.6875 22.5209 50.9687C22.5209 53.25 22.0513 55.3281 21.1436 57.1406C20.2359 58.9531 18.9682 60.3906 17.3719 61.3906C15.7756 62.4062 14.0227 62.9219 12.0977 62.9219C10.7205 62.9219 9.42151 62.6406 8.20078 62.0781C6.98005 61.5156 5.97843 60.8437 5.16461 60.0312V60.2969C5.16461 61.0312 4.91421 61.6562 4.42905 62.1719C3.94389 62.6719 3.31787 62.9219 2.58231 62.9219C1.84674 62.9219 1.22073 62.6719 0.735566 62.1875C0.250406 61.7031 0 61.0625 0 60.2969V33.2812C0 32.5469 0.250406 31.9219 0.735566 31.4062C1.22073 30.9062 1.84674 30.6562 2.58231 30.6562C3.31787 30.6562 3.94389 30.9062 4.42905 31.4062C4.91421 31.9062 5.16461 32.5312 5.16461 33.2812V42.2656C5.85323 41.4062 6.8079 40.6562 8.04428 40.0156C9.28066 39.375 10.5796 39.0469 11.9256 39.0469C13.9132 39.0469 15.6973 39.5469 17.3093 40.5781M15.8069 56.125C16.9806 54.75 17.5753 53.0312 17.5753 50.9687C17.5753 48.9062 16.9963 47.2031 15.8382 45.8281C14.68 44.4687 13.1619 43.7812 11.2996 43.7812C9.43716 43.7812 7.90343 44.4531 6.72965 45.8281C5.55587 47.1875 4.96116 48.9062 4.96116 50.9687C4.96116 53.0312 5.55587 54.75 6.72965 56.125C7.90343 57.5 9.43716 58.1875 11.2996 58.1875C13.1619 58.1875 14.6487 57.5 15.8225 56.125H15.8069Z" fill="white"/>
<path id="Vector_3" d="M31.6764 61.7344C31.1756 62.2344 30.5495 62.4844 29.7983 62.4844C29.0471 62.4844 28.468 62.2344 27.9829 61.7344C27.4977 61.2344 27.2473 60.6094 27.2473 59.8594V33.2969C27.2473 32.5625 27.4977 31.9375 27.9985 31.4219C28.4993 30.9219 29.1254 30.6719 29.8766 30.6719C30.6278 30.6719 31.2069 30.9219 31.692 31.4219C32.1772 31.9219 32.4276 32.5469 32.4276 33.2969V59.8594C32.4276 60.6094 32.1772 61.2187 31.6764 61.7344Z" fill="white"/>
<path id="Vector_4" d="M56.5758 40.25C57.061 40.75 57.3114 41.375 57.3114 42.125V53.0469C57.3114 56.1406 56.4663 58.5781 54.7447 60.3125C53.0389 62.0625 50.5974 62.9375 47.4517 62.9375C44.306 62.9375 41.8645 62.0625 40.1743 60.3125C38.484 58.5625 37.6389 56.1406 37.6389 53.0469V42.125C37.6389 41.3906 37.8737 40.7656 38.3745 40.25C38.8596 39.75 39.4857 39.5 40.2212 39.5C40.9568 39.5 41.5828 39.75 42.068 40.25C42.5531 40.75 42.8035 41.375 42.8035 42.125V53.0469C42.8035 54.7969 43.1948 56.0937 43.9617 56.9375C44.7442 57.7812 45.9023 58.2031 47.4517 58.2031C49.0011 58.2031 50.2062 57.7812 50.9887 56.9375C51.7712 56.0937 52.1468 54.7969 52.1468 53.0469V42.125C52.1468 41.3906 52.3972 40.7656 52.8824 40.25C53.3675 39.75 53.9935 39.5 54.7291 39.5C55.4647 39.5 56.0907 39.75 56.5758 40.25Z" fill="white"/>
<path id="Vector_5" d="M82.7589 52.125C82.2424 52.5625 81.6321 52.7656 80.9434 52.7656H66.7329C67.0772 54.4531 67.8597 55.7813 69.0961 56.75C70.3325 57.7031 71.7254 58.1875 73.2748 58.1875C74.4485 58.1875 75.3719 58.0781 76.0292 57.8594C76.6865 57.6406 77.2187 57.4219 77.5943 57.1719C77.9855 56.9219 78.2516 56.7656 78.3924 56.6719C78.9089 56.4063 79.3941 56.2813 79.8636 56.2813C80.4739 56.2813 80.9904 56.5 81.4129 56.9219C81.8355 57.3438 82.0546 57.8594 82.0546 58.4219C82.0546 59.2031 81.6634 59.8906 80.8495 60.5313C80.0357 61.1875 78.9715 61.75 77.6256 62.2031C76.2796 62.6719 74.9181 62.8906 73.5408 62.8906C71.1307 62.8906 69.0335 62.3906 67.2337 61.3906C65.4339 60.3906 64.0411 59 63.0707 57.2344C62.0848 55.4688 61.5996 53.4844 61.5996 51.2813C61.5996 48.8125 62.1161 46.6563 63.149 44.7969C64.1819 42.9375 65.5435 41.5156 67.2337 40.5156C68.924 39.5313 70.7394 39.0312 72.6644 39.0312C74.5894 39.0312 76.3422 39.5469 78.0325 40.5781C79.7071 41.6094 81.053 43 82.0546 44.75C83.0562 46.5 83.557 48.3906 83.557 50.4219C83.5257 51.1094 83.2597 51.6719 82.7432 52.0938L82.7589 52.125ZM66.7799 48.4844H78.0638V48.1875C77.9386 46.9844 77.3595 45.9531 76.2953 45.0938C75.2311 44.2344 74.026 43.7969 72.6801 43.7969C69.3465 43.7969 67.3902 45.3594 66.7799 48.4844Z" fill="white"/>
<path id="Vector_6" d="M93.3074 57.6406C93.3074 56.9062 93.683 56.2656 94.4342 55.75C94.8255 55.4844 95.248 55.3594 95.6862 55.3594C96.2966 55.3594 96.86 55.625 97.4078 56.1719C98.2685 57.0625 99.1606 57.7188 100.1 58.1563C101.039 58.5938 102.15 58.7969 103.48 58.7969C105.718 58.7031 106.845 57.8594 106.845 56.2656C106.845 55.4375 106.469 54.7969 105.702 54.375C104.936 53.9375 103.746 53.5156 102.15 53.0781C100.475 52.6094 99.1293 52.1719 98.0807 51.7031C97.0322 51.2344 96.1401 50.5469 95.3732 49.625C94.6064 48.6875 94.2307 47.4375 94.2307 45.8594C94.2307 44.4844 94.622 43.2969 95.4202 42.2656C96.2027 41.25 97.2356 40.4531 98.5189 39.9063C99.8023 39.3438 101.164 39.0625 102.588 39.0625C104.012 39.0625 105.515 39.3281 106.986 39.875C108.457 40.4219 109.599 41.2187 110.429 42.2812C110.804 42.75 110.992 43.2656 110.992 43.8281C110.992 44.4844 110.726 45.0313 110.178 45.4688C109.787 45.7813 109.318 45.9375 108.801 45.9375C108.16 45.9375 107.643 45.7344 107.252 45.3281C106.735 44.6875 106.062 44.2031 105.249 43.8281C104.435 43.4531 103.511 43.2656 102.478 43.2656C100.287 43.2656 99.2076 44.0469 99.2076 45.625C99.2076 46.2656 99.411 46.7656 99.8179 47.1562C100.209 47.5469 100.726 47.8438 101.352 48.0625C101.962 48.2812 102.838 48.5469 103.95 48.8594C105.499 49.2969 106.798 49.7344 107.831 50.1875C108.864 50.6562 109.74 51.3438 110.46 52.2969C111.18 53.25 111.54 54.4844 111.54 56.0312C111.54 57.4375 111.117 58.6719 110.288 59.7031C109.459 60.75 108.379 61.5469 107.08 62.0938C105.781 62.6406 104.435 62.9062 103.058 62.9062C101.164 62.9062 99.3954 62.5938 97.7677 61.9531C96.1244 61.3125 94.7942 60.3125 93.7612 58.9063C93.4952 58.5625 93.37 58.125 93.37 57.6094L93.3074 57.6406Z" fill="white"/>
<path id="Vector_7" d="M135.141 59.9219C135.141 60.6406 134.859 61.25 134.296 61.7344C133.732 62.2188 133.138 62.4688 132.512 62.4688C131.776 62.4688 131.134 62.1719 130.618 61.6094L122.871 53.4375L120.758 55.375V59.8906C120.758 60.625 120.508 61.25 120.023 61.7656C119.537 62.2656 118.911 62.5156 118.176 62.5156C117.44 62.5156 116.814 62.2656 116.329 61.7656C115.844 61.2656 115.594 60.6406 115.594 59.8906V33.3125C115.594 32.5781 115.844 31.9531 116.329 31.4375C116.814 30.9375 117.44 30.6875 118.176 30.6875C118.911 30.6875 119.537 30.9375 120.023 31.4375C120.508 31.9375 120.758 32.5625 120.758 33.3125V49.2188L129.976 40.3125C130.524 39.7656 131.15 39.5 131.87 39.5C132.512 39.5 133.059 39.7656 133.576 40.2969C134.077 40.8281 134.327 41.3594 134.327 41.9063C134.327 42.5938 133.983 43.2344 133.294 43.8438L126.799 49.8125L134.343 57.9844C134.89 58.5469 135.156 59.2031 135.156 59.9219" fill="white"/>
<path id="Vector_8" d="M161.668 58.0156C162.059 58.0156 162.451 58.1094 162.826 58.3125C163.186 58.5156 163.484 58.7969 163.687 59.1719C163.906 59.5469 164 59.9375 164 60.3437C164 60.75 163.906 61.1406 163.687 61.5C163.484 61.8594 163.186 62.1562 162.826 62.3594C162.466 62.5625 162.075 62.6719 161.668 62.6719C161.261 62.6719 160.87 62.5625 160.51 62.3594C160.15 62.1562 159.853 61.8594 159.649 61.5C159.446 61.1406 159.336 60.75 159.336 60.3437C159.336 59.9375 159.446 59.5469 159.649 59.1719C159.868 58.7969 160.15 58.5156 160.526 58.3125C160.886 58.1094 161.277 58.0156 161.684 58.0156M161.668 58.4844C161.339 58.4844 161.042 58.5625 160.745 58.7188C160.447 58.875 160.213 59.1094 160.04 59.4062C159.868 59.7031 159.774 60.0156 159.774 60.3594C159.774 60.7031 159.868 61 160.025 61.2969C160.181 61.5937 160.416 61.8281 160.713 62C161.011 62.1562 161.324 62.25 161.652 62.25C161.981 62.25 162.294 62.1562 162.591 62C162.889 61.8281 163.124 61.6094 163.28 61.2969C163.437 61 163.53 60.6875 163.53 60.3594C163.53 60.0313 163.437 59.7187 163.264 59.4062C163.092 59.0937 162.873 58.875 162.56 58.7188C162.263 58.5625 161.95 58.4844 161.637 58.4844M160.62 61.6094V59.1406H161.918C162.075 59.1406 162.216 59.1875 162.31 59.2344C162.404 59.2812 162.482 59.3594 162.545 59.4688C162.607 59.5781 162.638 59.6875 162.638 59.8281C162.638 60.0156 162.591 60.1562 162.466 60.2969C162.341 60.4219 162.185 60.5 161.965 60.5313C162.044 60.5625 162.091 60.5781 162.138 60.625C162.185 60.6562 162.231 60.7187 162.294 60.8125C162.31 60.8281 162.372 60.9375 162.482 61.1094L162.779 61.6094H162.153L161.95 61.2187C161.809 60.9531 161.684 60.7812 161.605 60.7187C161.527 60.6562 161.402 60.6094 161.261 60.6094H161.136V61.625H160.635L160.62 61.6094ZM161.12 60.1875H161.324C161.621 60.1875 161.793 60.1875 161.856 60.1562C161.918 60.1406 161.981 60.0937 162.012 60.0312C162.059 59.9844 162.075 59.9062 162.075 59.8437C162.075 59.7812 162.059 59.7187 162.028 59.6562C161.981 59.6094 161.934 59.5625 161.856 59.5312C161.778 59.5156 161.59 59.5 161.324 59.5H161.12V60.1719V60.1875Z" fill="white"/>
<path id="Vector_9" d="M157.364 40.25C157.849 40.75 158.1 41.375 158.1 42.125V56.7344C158.1 63.9375 157.818 71.75 147.035 71.75C146.049 71.75 145.063 71.6719 144.046 71.5156C143.029 71.3594 142.199 71.1562 141.573 70.8906C140.164 70.2812 139.46 69.4688 139.46 68.3906C139.46 68.1875 139.507 67.9531 139.585 67.7031C139.758 67.0625 140.055 66.5937 140.462 66.2656C140.884 65.9375 141.338 65.7656 141.823 65.7656C142.121 65.7656 142.387 65.8125 142.637 65.8906C142.841 65.9844 143.185 66.1094 143.686 66.3281C144.187 66.5469 144.719 66.6875 145.282 66.8281C145.846 66.9531 146.847 67.0156 147.458 67.0156C152.168 67.0156 153.045 63.1094 152.966 60.1406C151.48 62 149.148 62.9375 145.986 62.9375C144.484 62.9375 143.169 62.5781 142.027 61.8906C140.869 61.1875 139.992 60.2188 139.351 58.9688C138.709 57.7188 138.396 56.2969 138.396 54.6875V42.1406C138.396 41.4062 138.631 40.7812 139.132 40.2656C139.617 39.7656 140.243 39.5156 140.978 39.5156C141.714 39.5156 142.34 39.7656 142.825 40.2656C143.31 40.7656 143.561 41.3906 143.561 42.1406V53.1406C143.561 54.9531 143.952 56.25 144.75 57.0312C145.533 57.8125 146.706 58.2187 148.224 58.2187C149.742 58.2187 150.869 57.7812 151.683 56.9062C152.497 56.0312 152.904 54.7812 152.904 53.1406V42.1406C152.904 41.4062 153.154 40.7812 153.639 40.2656C154.125 39.7656 154.751 39.5156 155.486 39.5156C156.222 39.5156 156.848 39.7656 157.333 40.2656L157.364 40.25Z" fill="white"/>
</g>
<defs>
<clipPath id="clip0_107_44">
<rect width="164" height="71.75" fill="white"/>
</clipPath>
</defs>
</svg>
