<svg width="228" height="100" viewBox="0 0 228 100" fill="none" xmlns="http://www.w3.org/2000/svg">
<g clip-path="url(#clip0_142_124)">
<path d="M183.31 24.9375C169.841 13.3377 149.89 0 114.664 0C79.4378 0 57.1143 13.62 44.7341 25.0244C43.1893 26.4364 43.0805 28.8693 44.5165 30.4116C45.9525 31.9539 48.3677 32.0625 49.9125 30.6288C61.2918 20.1368 81.7659 7.62462 114.664 7.62462C147.561 7.62462 165.86 19.963 178.305 30.694C179.001 31.3022 179.894 31.6281 180.807 31.6281C181.917 31.6281 182.983 31.1502 183.701 30.303C185.072 28.6955 184.898 26.306 183.31 24.9158" fill="#7CC7E7"/>
<path d="M24.0641 56.4352C26.2834 57.8471 28.0676 59.8022 29.373 62.322C30.6785 64.8418 31.3095 67.6875 31.3095 70.859C31.3095 74.0305 30.6567 76.9196 29.3948 79.4394C28.1328 81.9592 26.3705 83.9577 24.1512 85.3479C21.9319 86.7599 19.495 87.4767 16.8188 87.4767C14.9041 87.4767 13.0982 87.0857 11.4011 86.3037C9.70398 85.5217 8.31148 84.5876 7.18007 83.458V83.8273C7.18007 84.8483 6.83195 85.7172 6.15746 86.434C5.48297 87.1292 4.61265 87.4767 3.59004 87.4767C2.56742 87.4767 1.69711 87.1292 1.02262 86.4558C0.348125 85.7824 0 84.8917 0 83.8273V46.269C0 45.2481 0.348125 44.3792 1.02262 43.6623C1.69711 42.9672 2.56742 42.6196 3.59004 42.6196C4.61265 42.6196 5.48297 42.9672 6.15746 43.6623C6.83195 44.3574 7.18007 45.2263 7.18007 46.269V58.7595C8.13742 57.5647 9.46464 56.5221 11.1835 55.6314C12.9024 54.7408 14.7083 54.2846 16.5794 54.2846C19.3427 54.2846 21.8231 54.9798 24.0641 56.4135M21.9754 78.0274C23.6072 76.1158 24.434 73.7263 24.434 70.859C24.434 67.9916 23.629 65.6238 22.0189 63.7122C20.4088 61.8224 18.2983 60.8666 15.7091 60.8666C13.12 60.8666 10.9877 61.8006 9.35585 63.7122C7.72402 65.6021 6.89722 67.9916 6.89722 70.859C6.89722 73.7263 7.72402 76.1158 9.35585 78.0274C10.9877 79.939 13.12 80.8948 15.7091 80.8948C18.2983 80.8948 20.3653 79.939 21.9971 78.0274H21.9754Z" fill="#0B3A7C"/>
<path d="M44.0378 85.826C43.3416 86.5212 42.4713 86.8687 41.4269 86.8687C40.3825 86.8687 39.5775 86.5212 38.903 85.826C38.2285 85.1309 37.8804 84.262 37.8804 83.2193V46.291C37.8804 45.27 38.2285 44.4011 38.9247 43.6843C39.621 42.9892 40.4913 42.6416 41.5357 42.6416C42.5801 42.6416 43.3851 42.9892 44.0596 43.6843C44.7341 44.3794 45.0822 45.2483 45.0822 46.291V83.2193C45.0822 84.262 44.7341 85.1092 44.0378 85.826Z" fill="#0B3A7C"/>
<path d="M78.6543 55.9572C79.3288 56.6524 79.6769 57.5213 79.6769 58.5639V73.748C79.6769 78.0491 78.502 81.4378 76.1087 83.849C73.7371 86.2819 70.3429 87.4984 65.9695 87.4984C61.5962 87.4984 58.202 86.2819 55.8522 83.849C53.5023 81.4161 52.3274 78.0491 52.3274 73.748V58.5639C52.3274 57.543 52.6538 56.6741 53.35 55.9572C54.0245 55.2621 54.8948 54.9146 55.9174 54.9146C56.94 54.9146 57.8104 55.2621 58.4848 55.9572C59.1593 56.6524 59.5075 57.5213 59.5075 58.5639V73.748C59.5075 76.1809 60.0514 77.9839 61.1175 79.1569C62.2054 80.3299 63.8155 80.9165 65.9695 80.9165C68.1236 80.9165 69.7989 80.3299 70.8868 79.1569C71.9747 77.9839 72.4969 76.1809 72.4969 73.748V58.5639C72.4969 57.543 72.845 56.6741 73.5195 55.9572C74.194 55.2621 75.0643 54.9146 76.0869 54.9146C77.1095 54.9146 77.9798 55.2621 78.6543 55.9572Z" fill="#0B3A7C"/>
<path d="M115.055 72.4667C114.337 73.0749 113.488 73.3573 112.531 73.3573H92.775C93.2537 75.7034 94.3415 77.5498 96.0604 78.8966C97.7793 80.2216 99.7157 80.8951 101.87 80.8951C103.502 80.8951 104.785 80.743 105.699 80.4389C106.613 80.1348 107.353 79.8306 107.875 79.4831C108.419 79.1355 108.789 78.9183 108.985 78.788C109.703 78.4187 110.377 78.2449 111.03 78.2449C111.878 78.2449 112.596 78.549 113.184 79.1355C113.771 79.722 114.076 80.4389 114.076 81.2209C114.076 82.307 113.532 83.2628 112.401 84.1534C111.269 85.0658 109.79 85.8478 107.918 86.4777C106.047 87.1294 104.154 87.4335 102.24 87.4335C98.8889 87.4335 95.9734 86.7384 93.4712 85.3482C90.9691 83.9579 89.0326 82.0246 87.6837 79.57C86.3129 77.1153 85.6384 74.3566 85.6384 71.2937C85.6384 67.8615 86.3564 64.8638 87.7924 62.2788C89.2285 59.6938 91.1214 57.7171 93.4712 56.3268C95.8211 54.9583 98.345 54.2632 101.021 54.2632C103.697 54.2632 106.134 54.98 108.484 56.4137C110.812 57.8474 112.683 59.7807 114.076 62.2136C115.468 64.6466 116.165 67.275 116.165 70.0989C116.121 71.0547 115.751 71.8367 115.033 72.4232L115.055 72.4667ZM92.8403 67.4053H108.528V66.9926C108.354 65.32 107.549 63.8863 106.069 62.6915C104.589 61.4968 102.914 60.8886 101.043 60.8886C96.4085 60.8886 93.6888 63.0608 92.8403 67.4053Z" fill="#0B3A7C"/>
<path d="M129.72 80.1348C129.72 79.1138 130.242 78.2232 131.287 77.5063C131.83 77.1371 132.418 76.9633 133.027 76.9633C133.876 76.9633 134.659 77.3326 135.421 78.0928C136.617 79.331 137.857 80.2434 139.163 80.8516C140.468 81.4598 142.013 81.7422 143.863 81.7422C146.974 81.6119 148.54 80.4389 148.54 78.2232C148.54 77.0719 148.018 76.1813 146.952 75.5947C145.886 74.9865 144.232 74.4 142.013 73.7918C139.685 73.1401 137.814 72.5319 136.356 71.8802C134.898 71.2285 133.658 70.2727 132.592 68.9911C131.526 67.6877 131.004 65.9499 131.004 63.756C131.004 61.8444 131.548 60.1935 132.657 58.7598C133.745 57.3478 135.181 56.24 136.965 55.4797C138.749 54.6976 140.642 54.3066 142.622 54.3066C144.602 54.3066 146.691 54.6759 148.736 55.4362C150.782 56.1965 152.37 57.3044 153.523 58.7815C154.045 59.4332 154.306 60.15 154.306 60.932C154.306 61.8444 153.936 62.6047 153.175 63.2129C152.631 63.6473 151.978 63.8646 151.26 63.8646C150.368 63.8646 149.65 63.5822 149.106 63.0174C148.388 62.1268 147.453 61.4534 146.321 60.932C145.19 60.4107 143.906 60.15 142.47 60.15C139.424 60.15 137.923 61.2361 137.923 63.4301C137.923 64.3207 138.206 65.0159 138.771 65.5589C139.315 66.102 140.033 66.5147 140.903 66.8188C141.752 67.123 142.97 67.4922 144.515 67.9267C146.669 68.5349 148.475 69.1431 149.911 69.7731C151.347 70.4248 152.566 71.3806 153.567 72.7057C154.567 74.0307 155.068 75.7468 155.068 77.8973C155.068 79.8524 154.48 81.5685 153.327 83.0021C152.174 84.4576 150.673 85.5654 148.867 86.3257C147.061 87.086 145.19 87.4553 143.275 87.4553C140.642 87.4553 138.184 87.0208 135.921 86.1302C133.636 85.2396 131.787 83.8493 130.351 81.8943C129.981 81.4164 129.807 80.8082 129.807 80.0913L129.72 80.1348Z" fill="#0B3A7C"/>
<path d="M187.879 83.306C187.879 84.3052 187.487 85.1524 186.704 85.8258C185.92 86.4992 185.094 86.8468 184.223 86.8468C183.201 86.8468 182.309 86.4341 181.591 85.652L170.821 74.2911L167.883 76.9847V83.2626C167.883 84.2835 167.535 85.1524 166.861 85.8693C166.186 86.5644 165.316 86.9119 164.293 86.9119C163.271 86.9119 162.4 86.5644 161.726 85.8693C161.051 85.1741 160.703 84.3052 160.703 83.2626V46.3125C160.703 45.2915 161.051 44.4226 161.726 43.7058C162.4 43.0107 163.271 42.6631 164.293 42.6631C165.316 42.6631 166.186 43.0107 166.861 43.7058C167.535 44.4009 167.883 45.2698 167.883 46.3125V68.426L180.699 56.0442C181.46 55.2839 182.33 54.9146 183.331 54.9146C184.223 54.9146 184.985 55.2839 185.703 56.0225C186.399 56.761 186.747 57.4996 186.747 58.2599C186.747 59.2157 186.269 60.1063 185.311 60.9535L176.282 69.2515L186.769 80.6124C187.53 81.3944 187.9 82.3068 187.9 83.306" fill="#0B3A7C"/>
<path d="M224.758 80.6558C225.302 80.6558 225.846 80.7861 226.368 81.0685C226.869 81.3509 227.282 81.7419 227.565 82.2632C227.869 82.7846 228 83.3276 228 83.8924C228 84.4572 227.869 85.0003 227.565 85.4999C227.282 85.9995 226.869 86.4122 226.368 86.6946C225.868 86.977 225.324 87.1291 224.758 87.1291C224.192 87.1291 223.648 86.977 223.148 86.6946C222.648 86.4122 222.234 85.9995 221.951 85.4999C221.668 85.0003 221.516 84.4572 221.516 83.8924C221.516 83.3276 221.668 82.7846 221.951 82.2632C222.256 81.7419 222.648 81.3509 223.17 81.0685C223.67 80.7861 224.214 80.6558 224.78 80.6558M224.758 81.3074C224.301 81.3074 223.888 81.4161 223.474 81.6333C223.061 81.8505 222.735 82.1763 222.495 82.5891C222.256 83.0018 222.125 83.4362 222.125 83.9141C222.125 84.392 222.256 84.8048 222.473 85.2175C222.691 85.6302 223.017 85.9561 223.431 86.195C223.844 86.4122 224.279 86.5426 224.736 86.5426C225.193 86.5426 225.628 86.4122 226.042 86.195C226.455 85.9561 226.782 85.6519 226.999 85.2175C227.217 84.8048 227.347 84.3703 227.347 83.9141C227.347 83.458 227.217 83.0235 226.977 82.5891C226.738 82.1546 226.433 81.8505 225.998 81.6333C225.585 81.4161 225.15 81.3074 224.715 81.3074M223.3 85.6519V82.2198H225.106C225.324 82.2198 225.52 82.285 225.65 82.3501C225.781 82.4153 225.889 82.5239 225.976 82.676C226.064 82.828 226.107 82.9801 226.107 83.1756C226.107 83.4362 226.042 83.6318 225.868 83.8273C225.694 84.001 225.476 84.1097 225.171 84.1531C225.28 84.1965 225.345 84.2183 225.411 84.2834C225.476 84.3269 225.541 84.4138 225.628 84.5441C225.65 84.5658 225.737 84.7179 225.889 84.9568L226.303 85.6519H225.433L225.15 85.1089C224.954 84.7396 224.78 84.5007 224.671 84.4138C224.562 84.3269 224.388 84.2617 224.192 84.2617H224.018V85.6737H223.322L223.3 85.6519ZM223.997 83.6752H224.279C224.693 83.6752 224.932 83.6752 225.019 83.6318C225.106 83.61 225.193 83.5449 225.237 83.458C225.302 83.3928 225.324 83.2842 225.324 83.1973C225.324 83.1104 225.302 83.0235 225.258 82.9366C225.193 82.8715 225.128 82.8063 225.019 82.7628C224.91 82.7411 224.649 82.7194 224.279 82.7194H223.997V83.6535V83.6752Z" fill="#0B3A7C"/>
<path d="M218.775 55.9575C219.449 56.6526 219.797 57.5215 219.797 58.5642V78.8748C219.797 88.8889 219.406 99.7502 204.415 99.7502C203.044 99.7502 201.673 99.6416 200.259 99.4243C198.845 99.2071 197.691 98.9247 196.821 98.5554C194.863 97.7082 193.884 96.5787 193.884 95.0798C193.884 94.7974 193.949 94.4716 194.058 94.124C194.297 93.2334 194.711 92.5817 195.276 92.1255C195.864 91.6694 196.495 91.4304 197.169 91.4304C197.583 91.4304 197.953 91.4956 198.301 91.6042C198.584 91.7345 199.062 91.9083 199.758 92.2124C200.455 92.5166 201.194 92.7121 201.978 92.9076C202.761 93.0813 204.154 93.1682 205.002 93.1682C211.551 93.1682 212.77 87.7376 212.661 83.6103C210.594 86.1953 207.352 87.4986 202.957 87.4986C200.868 87.4986 199.04 86.999 197.452 86.0432C195.842 85.0657 194.624 83.7189 193.732 81.9811C192.839 80.2433 192.404 78.2666 192.404 76.0291V58.5859C192.404 57.5649 192.731 56.696 193.427 55.9792C194.101 55.2841 194.972 54.9365 195.994 54.9365C197.017 54.9365 197.887 55.2841 198.562 55.9792C199.236 56.6743 199.584 57.5432 199.584 58.5859V73.8786C199.584 76.3984 200.128 78.2014 201.238 79.2875C202.326 80.3736 203.958 80.9384 206.068 80.9384C208.179 80.9384 209.745 80.3302 210.877 79.1137C212.008 77.8973 212.574 76.1595 212.574 73.8786V58.5859C212.574 57.5649 212.922 56.696 213.596 55.9792C214.271 55.2841 215.141 54.9365 216.164 54.9365C217.186 54.9365 218.057 55.2841 218.731 55.9792L218.775 55.9575Z" fill="#0B3A7C"/>
</g>
<defs>
<clipPath id="clip0_142_124">
<rect width="228" height="99.75" fill="white"/>
</clipPath>
</defs>
</svg>
